<svg id="Layer_1" enable-background="new 0 0 512 512" height="512" viewBox="0 0 512 512" width="512" xmlns="http://www.w3.org/2000/svg"><g><g><path d="m457.871 504.5h-397c-27.614 0-50-22.386-50-50v-397c0-27.614 22.386-50 50-50h397c27.614 0 50 22.386 50 50v397c0 27.614-22.385 50-50 50z" fill="#88cdd1"/><path d="m457.871 504.5h-397c-27.614 0-50-22.386-50-50v-397c0-27.614 22.386-50 50-50h397c27.614 0 50 22.386 50 50v397c0 27.614-22.385 50-50 50z" fill="#88cdd1"/><path d="m457.871 7.5h-40c27.614 0 50 22.386 50 50v397c0 27.614-22.386 50-50 50h40c27.614 0 50-22.386 50-50v-397c0-27.614-22.385-50-50-50z" fill="#72bdc2"/><g><g><g fill="#ffd88f"><path d="m58.129 7.578c.14-.008.281-.013.422-.02-.141.007-.282.012-.422.02z"/><path d="m55.697 7.766c.037-.004.074-.008.111-.012-.037.004-.074.008-.111.012z"/><path d="m55.807 7.754c.769-.077 1.543-.134 2.322-.176-.774.042-1.547.101-2.322.176z"/><path d="m58.551 7.559c.769-.036 1.542-.059 2.32-.059-.777 0-1.549.023-2.32.059z"/></g><path d="m306.591 256 201.281-21.525v-176.975c0-27.614-22.386-50-50-50h-397c-.778 0-1.551.023-2.321.059-.141.006-.281.012-.422.02-.779.042-1.553.099-2.322.176-.037.004-.074.008-.111.012-25.182 2.588-44.825 23.866-44.825 49.733v124.366l201.281 74.134c26.084 31.734 68.346 31.692 94.439 0z" fill="#b5e8e0"/></g><path d="m481.761 464.088c8.801 10.455 26.021 4.406 26.109-9.26.001-.109.001-.219.001-.328v-397c0-.11 0-.219-.001-.328-.088-13.666-17.308-19.715-26.109-9.26l-175.17 208.088z" fill="#59a1a5"/><path d="m507.87 57.172c-.088-13.667-17.308-19.715-26.109-9.26l-13.89 16.5v383.176l13.89 16.5c8.801 10.455 26.021 4.407 26.109-9.26.001-.109.001-.219.001-.328v-397c0-.109 0-.219-.001-.328z" fill="#419296"/><path d="m36.981 47.912c-8.801-10.455-26.021-4.406-26.109 9.26-.001.109-.001.219-.001.328v397c0 .11 0 .219.001.328.088 13.666 17.308 19.715 26.109 9.26l175.171-208.088z" fill="#59a1a5"/></g></g><path d="m511.999 57.124c-.202-31.167-26.33-57.124-57.499-57.124h-397c-31.184 0-57.414 26.246-57.5 57.5v397c.115 31.293 26.13 57.5 57.5 57.5h330.492c9.697 0 9.697-15 0-15h-330.492c-14.579 0-28.45-7.78-36.132-20.156 6.89.305 13.533-2.644 17.979-7.926l169.687-201.575c26.675 26.09 67.246 26.065 93.926-.004l169.692 201.579c4.446 5.283 11.088 8.23 17.979 7.926-7.681 12.376-21.552 20.156-36.131 20.156h-26.545c-9.697 0-9.697 15 0 15h26.545c31.372 0 57.381-26.207 57.5-57.5v-397zm-256.02 215.16c-16.174 0-31.483-8.641-41.462-21.114l-112.377-133.496c-6.244-7.42-17.72 2.242-11.475 9.66l108.312 128.666-171.104 203.258c-4.331 5.143-12.873 1.79-12.873-4.758v-397c0-6.619 8.467-9.99 12.873-4.758l35.413 42.068c6.366 7.565 17.64-2.337 11.475-9.66l-35.413-42.068c-4.288-5.094-11.3-8.24-17.966-7.946 7.649-12.309 21.629-20.136 36.118-20.136h397c14.571 0 28.434 7.771 36.119 20.136-6.667-.294-13.678 2.852-17.966 7.946l-175.172 208.088c-10.105 12.437-25.232 21.114-41.502 21.114zm236.288 189.129c-1.138.411-5.086 1.47-8.14-2.155l-171.105-203.258 171.105-203.258c4.331-5.142 12.873-1.791 12.873 4.758v397c0 2.729-2.208 6.001-4.733 6.913z"/></g></svg>