<svg id="Layer_1" enable-background="new 0 0 512 512" height="512" viewBox="0 0 512 512" width="512" xmlns="http://www.w3.org/2000/svg"><g><g><g><path d="m504.5 220.724c0-117.755-95.895-213.214-214.187-213.214s-214.187 95.459-214.187 213.214 95.895 213.215 214.187 213.215c24.828 0 48.661-4.22 70.836-11.953l65.343 31.557v-68.241c47.639-39.107 78.008-98.312 78.008-164.578z" fill="#ff9e5e"/><path d="m290.313 7.51c-6.746 0-13.414.326-20 .933 108.913 10.041 194.187 101.24 194.187 212.28 0 109.201-87.569 201.978-194.49 212.255 6.685.626 13.454.959 20.303.959 24.828 0 48.661-4.22 70.836-11.953l65.344 31.558v-68.242c47.638-39.106 78.007-98.311 78.007-164.578 0-117.753-95.895-213.212-214.187-213.212z" fill="#fa8d46"/><g fill="#fff7e8"><circle cx="191.194" cy="224.981" r="30.207"/><circle cx="290.313" cy="224.981" r="30.207"/><circle cx="389.432" cy="224.981" r="30.207"/></g></g><path d="m7.5 389.732c0-58.052 47.275-105.113 105.593-105.113 58.317 0 105.593 47.061 105.593 105.113s-47.275 105.113-105.593 105.113c-12.24 0-23.99-2.08-34.922-5.893l-32.214 15.558v-33.643c-23.485-19.279-38.457-48.467-38.457-81.135z" fill="#ffd88f"/><g><path d="m113.093 284.618c-6.839 0-13.523.655-20 1.891 48.752 9.306 85.593 51.978 85.593 103.222 0 51.227-36.814 93.886-85.541 103.212 6.462 1.233 13.125 1.901 19.948 1.901 58.317 0 105.593-47.061 105.593-105.113s-47.276-105.113-105.593-105.113z" fill="#ffc963"/></g></g><g><path d="m493.137 131.499c-12.088-27.2-29.312-51.352-51.19-71.784-7.088-6.619-17.326 4.344-10.238 10.963 20.399 19.051 36.456 41.563 47.722 66.913 11.659 26.233 17.57 54.203 17.57 83.133 0 61.642-27.434 119.516-75.267 158.781-1.735 1.425-2.741 3.552-2.741 5.797v56.29l-54.581-26.36c-1.792-.865-3.853-.983-5.731-.328-21.947 7.654-44.949 11.535-68.367 11.535-23.025 0-45.556-3.736-67.081-11.088 1.931-8.232 2.954-16.809 2.954-25.618 0-62.095-50.733-112.613-113.093-112.613-7.144 0-14.177.665-21.031 1.942-5.594-18.863-8.436-38.454-8.436-58.337 0-113.431 92.719-205.714 206.687-205.714 38.126 0 75.376 10.413 107.725 30.113 8.282 5.045 16.084-7.767 7.803-12.811-34.702-21.134-74.651-32.303-115.53-32.303-59.208 0-114.874 22.954-156.744 64.634-41.879 41.688-64.942 97.119-64.942 156.08 0 21.141 2.994 41.978 8.892 62.058-24.507 8.041-45.772 24.332-60.066 46.835-5.199 8.187 7.461 16.227 12.662 8.043 18.112-28.516 49.132-45.54 82.979-45.54 54.089 0 98.093 43.789 98.093 97.613s-44.004 97.613-98.093 97.613c-11.116 0-22.035-1.842-32.452-5.476-1.88-.656-3.939-.538-5.731.328l-21.452 10.36v-21.691c0-2.245-1.006-4.372-2.741-5.797-22.699-18.633-35.717-46.093-35.717-75.338 0-6.003.558-12.038 1.657-17.936 1.776-9.534-12.967-12.281-14.746-2.75-1.268 6.803-1.911 13.763-1.911 20.686 0 32.557 13.972 63.19 38.457 84.608v30.169c0 5.437 5.879 9.112 10.762 6.754l29.471-14.233c11.102 3.528 22.658 5.315 34.402 5.315 48.233 0 89.502-30.226 105.729-72.651 22.956 7.787 46.965 11.744 71.491 11.744 24.053 0 47.703-3.821 70.345-11.362l62.573 30.221c4.419 2.134 10.762-1.633 10.762-6.754v-64.731c49.623-42.069 78.008-103.126 78.008-168.089 0-31.042-6.347-61.061-18.863-89.224z"/><path d="m153.487 224.981c0 20.792 16.915 37.707 37.707 37.707s37.707-16.915 37.707-37.707-16.915-37.707-37.707-37.707-37.707 16.915-37.707 37.707zm60.414 0c0 12.521-10.187 22.707-22.707 22.707s-22.707-10.187-22.707-22.707 10.187-22.707 22.707-22.707 22.707 10.187 22.707 22.707z"/><path d="m252.605 224.981c0 20.792 16.915 37.707 37.707 37.707s37.707-16.915 37.707-37.707-16.915-37.707-37.707-37.707-37.707 16.915-37.707 37.707zm60.415 0c0 12.521-10.187 22.707-22.707 22.707s-22.707-10.187-22.707-22.707 10.187-22.707 22.707-22.707 22.707 10.187 22.707 22.707z"/><path d="m351.725 224.981c0 20.792 16.915 37.707 37.707 37.707s37.707-16.915 37.707-37.707-16.915-37.707-37.707-37.707-37.707 16.915-37.707 37.707zm60.414 0c0 12.521-10.187 22.707-22.707 22.707s-22.707-10.187-22.707-22.707 10.187-22.707 22.707-22.707 22.707 10.187 22.707 22.707z"/></g></g></svg>