<svg id="Layer_1" enable-background="new 0 0 512 512" height="512" viewBox="0 0 512 512" width="512" xmlns="http://www.w3.org/2000/svg"><g><g><g><g><g><path d="m372.703 504.5h-233.406c-11.787 0-21.343-9.556-21.343-21.343v-76.38l30-171.305-30-179.14v-27.489c0-11.787 9.556-21.343 21.343-21.343h233.405c11.787 0 21.343 9.556 21.343 21.343v27.489l-30 179.141 30 171.304v76.38c.001 11.787-9.555 21.343-21.342 21.343z" fill="#59a1a5"/></g><path d="m394.046 28.843c0-11.787-9.556-21.343-21.343-21.343h-40c11.787 0 21.343 9.556 21.343 21.343v27.489l-30 179.141 30 171.304v76.38c0 11.787-9.556 21.343-21.343 21.343h40c11.787 0 21.343-9.556 21.343-21.343v-76.38l-30-171.304 30-179.141z" fill="#419296"/><path d="m117.954 56.332h276.091v350.445h-276.091z" fill="#fff7e8"/><path d="m354.046 56.332h40v350.445h-40z" fill="#fff1d6"/></g><g><g><path d="m372.554 302.803c-5.118 0-10.237-1.952-14.143-5.857-7.81-7.811-7.81-20.475 0-28.285 18.301-18.3 18.301-48.076 0-66.376-7.81-7.811-7.81-20.475 0-28.285 7.811-7.811 20.475-7.811 28.285 0 33.896 33.896 33.896 89.05 0 122.946-3.905 3.905-9.024 5.857-14.142 5.857z" fill="#ff7893"/><path d="m440.994 360.42c-5.118 0-10.237-1.952-14.143-5.857-7.811-7.811-7.811-20.475 0-28.285 50.07-50.069 50.07-131.54 0-181.609-7.811-7.811-7.811-20.475 0-28.285s20.475-7.811 28.285 0c31.832 31.833 49.363 74.127 49.363 119.09s-17.531 87.257-49.363 119.09c-3.905 3.904-9.024 5.856-14.142 5.856z" fill="#ff9e5e"/></g></g><g><g><path d="m139.446 168.142c5.118 0 10.237 1.952 14.143 5.857 7.81 7.811 7.81 20.475 0 28.285-18.301 18.3-18.301 48.076 0 66.376 7.81 7.811 7.81 20.475 0 28.285-7.811 7.811-20.475 7.811-28.285 0-33.896-33.896-33.896-89.05 0-122.946 3.905-3.905 9.024-5.857 14.142-5.857z" fill="#ff7893"/><path d="m71.006 110.525c5.118 0 10.237 1.952 14.143 5.857 7.811 7.811 7.811 20.475 0 28.285-50.07 50.069-50.07 131.54 0 181.609 7.811 7.811 7.811 20.475 0 28.285s-20.475 7.811-28.285 0c-31.833-31.832-49.364-74.126-49.364-119.089s17.531-87.257 49.363-119.09c3.906-3.905 9.025-5.857 14.143-5.857z" fill="#ff9e5e"/></g></g></g><circle cx="256" cy="235.472" fill="#ff9e5e" r="51.75"/><path d="m256 183.722c-7.091 0-13.847 1.43-20 4.01 18.649 7.822 31.75 26.25 31.75 47.74s-13.101 39.918-31.75 47.74c6.153 2.581 12.909 4.01 20 4.01 28.581 0 51.75-23.169 51.75-51.75s-23.169-51.75-51.75-51.75z" fill="#fa8d46"/><path d="m281.083 475h-50.166c-10.77 0-19.5-8.73-19.5-19.5 0-10.77 8.73-19.5 19.5-19.5h50.166c10.77 0 19.5 8.73 19.5 19.5 0 10.77-8.731 19.5-19.5 19.5z" fill="#b5e8e0"/></g><g><path d="m401.546 179.854v-151.011c0-15.905-12.94-28.843-28.844-28.843h-233.405c-15.904 0-28.843 12.938-28.843 28.843v150.482c0 .167.014.33.025.494-24.109 33.012-24.117 78.25-.025 111.271v192.066c0 15.904 12.939 28.843 28.843 28.843h233.405c15.904 0 28.844-12.938 28.844-28.843v-192.066c24.083-33.009 24.083-78.227 0-111.236zm-20.153 111.788c-2.36 2.361-5.499 3.661-8.839 3.661s-6.479-1.3-8.839-3.66c-4.874-4.874-4.874-12.806-.001-17.679 10.269-10.268 15.923-23.938 15.923-38.492s-5.654-28.224-15.922-38.49c-4.874-4.874-4.874-12.806 0-17.679 4.821-4.823 12.856-4.822 17.678-.001 30.971 30.972 30.971 81.368 0 112.34zm-242.096-276.642h233.405c7.634 0 13.844 6.21 13.844 13.843v19.989h-196.546c-9.697 0-9.697 15 0 15h196.546v100.631c-10.545-6.228-24.387-4.818-33.438 4.233-10.721 10.722-10.721 28.169.001 38.892 7.434 7.434 11.528 17.337 11.528 27.884 0 10.548-4.095 20.451-11.529 27.886-10.721 10.722-10.721 28.169 0 38.892 5.194 5.193 12.101 8.054 19.446 8.054 5.002 0 9.799-1.329 13.992-3.816v92.79h-261.091v-92.795c10.541 6.227 24.787 4.419 33.438-4.233 10.721-10.722 10.721-28.169 0-38.892-7.435-7.434-11.529-17.336-11.529-27.884s4.094-20.45 11.529-27.885c10.721-10.722 10.721-28.169 0-38.891-8.643-8.646-22.905-10.486-33.438-4.24v-100.626h23.991c9.697 0 9.697-15 0-15h-23.991v-19.989c0-7.633 6.21-13.843 13.842-13.843zm-8.689 164.303c4.82-4.822 12.857-4.821 17.677 0 4.874 4.874 4.874 12.806 0 17.679-10.268 10.267-15.922 23.937-15.922 38.491s5.655 28.225 15.922 38.49c4.874 4.874 4.874 12.806 0 17.679-4.822 4.823-12.857 4.823-17.679 0-30.97-30.972-30.97-81.367.002-112.339zm242.094 317.697h-233.405c-7.633 0-13.843-6.21-13.843-13.843v-68.881h261.091v68.881c.001 7.633-6.209 13.843-13.843 13.843z"/><path d="m460.44 111.079c-10.723-10.723-28.17-10.723-38.893 0-10.722 10.723-10.722 28.17 0 38.893 22.8 22.799 35.356 53.164 35.356 85.501s-12.557 62.702-35.356 85.501c-5.193 5.194-8.054 12.101-8.054 19.446s2.86 14.252 8.054 19.446c10.501 10.499 28.368 10.522 38.893 0 5.792-5.793 11.247-12.062 16.212-18.633 5.846-7.736-6.121-16.781-11.967-9.043-4.55 6.021-9.547 11.764-14.853 17.068-4.791 4.793-12.887 4.793-17.678 0-4.874-4.874-4.874-12.804 0-17.678 25.633-25.633 39.749-59.765 39.749-96.108s-14.116-70.476-39.749-96.108c-4.823-4.821-4.823-12.857 0-17.678 4.873-4.875 12.805-4.875 17.678 0 30.417 30.417 47.168 70.827 47.168 113.787 0 22.51-4.528 44.242-13.46 64.596-3.896 8.881 9.84 14.906 13.736 6.027 9.77-22.265 14.724-46.026 14.724-70.623 0-46.966-18.311-91.144-51.56-124.394z"/><path d="m55.096 235.472c0-32.337 12.556-62.701 35.356-85.5 10.511-10.511 10.536-28.357 0-38.892-10.509-10.512-28.359-10.536-38.892-.001-33.249 33.249-51.56 77.427-51.56 124.394 0 46.965 18.311 91.142 51.56 124.394 10.499 10.499 28.369 10.523 38.892 0 10.723-10.723 10.723-28.17 0-38.893-22.8-22.799-35.356-53.164-35.356-85.502zm24.749 113.787c-4.874 4.875-12.803 4.875-17.679.001-30.415-30.418-47.166-70.828-47.166-113.787 0-42.961 16.751-83.371 47.167-113.787 4.821-4.823 12.858-4.821 17.678.001 4.874 4.874 4.874 12.804 0 17.678-25.633 25.632-39.75 59.764-39.75 96.107s14.117 70.477 39.75 96.109c4.874 4.874 4.874 12.804 0 17.678z"/><path d="m256 294.722c32.671 0 59.25-26.579 59.25-59.25s-26.579-59.25-59.25-59.25c-32.67 0-59.25 26.579-59.25 59.25s26.58 59.25 59.25 59.25zm0-103.5c24.399 0 44.25 19.851 44.25 44.25s-19.851 44.25-44.25 44.25-44.25-19.851-44.25-44.25 19.851-44.25 44.25-44.25z"/><path d="m281.083 428.5h-50.166c-14.888 0-27 12.112-27 27s12.112 27 27 27h50.166c14.888 0 27-12.112 27-27s-12.112-27-27-27zm0 39h-50.166c-6.617 0-12-5.383-12-12s5.383-12 12-12h50.166c6.617 0 12 5.383 12 12s-5.383 12-12 12z"/></g></g></svg>