<svg id="Layer_1" enable-background="new 0 0 512 512" height="512" viewBox="0 0 512 512" width="512" xmlns="http://www.w3.org/2000/svg"><g><g><g><path d="m7.5 275.874v-120.252c0-22.091 17.909-40 40-40h417c22.091 0 40 17.909 40 40v118.428 1.824z" fill="#ff7893"/><path d="m464.5 115.622h-40c22.091 0 40 17.909 40 40v118.428 1.824h40v-1.824-118.428c0-22.091-17.909-40-40-40z" fill="#ff5e7f"/><path d="m455.506 235.473h-137.147c-5.523 0-10-4.477-10-10v-60.045c0-5.523 4.477-10 10-10h137.147c5.523 0 10 4.477 10 10v60.045c0 5.522-4.477 10-10 10z" fill="#fff7e8"/><path d="m464.5 458.847h-417c-22.091 0-40-17.909-40-40v-144.797h497v144.797c0 22.092-17.909 40-40 40z" fill="#fff7e8"/><path d="m464.5 274.05v144.797c0 22.091-17.909 40-40 40h40c22.091 0 40-17.909 40-40v-144.797z" fill="#fff1d6"/><g><path d="m137.5 115.622 27.194-69.019c9.482-23.753 32.137-39.103 57.715-39.103h67.182c25.578 0 48.233 15.35 57.716 39.104l27.193 69.018z" fill="#ffd88f"/><path d="m328.618 115.622h-144.903l19.484-50.059c4.06-10.17 13.905-16.84 24.855-16.84h55.932c10.95 0 20.795 6.671 24.855 16.84z" fill="#59a1a5"/></g></g><g><circle cx="256" cy="339.913" fill="#ffd88f" r="164.587"/><circle cx="256" cy="339.913" fill="#59a1a5" r="120.759"/><path d="m256 219.154c-6.813 0-13.492.576-20 1.665 57.101 9.559 100.759 59.319 100.759 119.093s-43.658 109.535-100.759 119.094c6.508 1.089 13.187 1.665 20 1.665 66.587 0 120.759-54.172 120.759-120.758s-54.172-120.759-120.759-120.759z" fill="#419296"/></g></g><g><path d="m464.5 108.122h-84.894l-25.334-64.298c-10.627-26.622-36.016-43.824-64.681-43.824h-67.182c-28.665 0-54.054 17.201-64.693 43.854l-25.322 64.268h-84.894c-26.191 0-47.5 21.309-47.5 47.5v263.226c0 26.191 21.309 47.5 47.5 47.5h91.893c30.684 28.321 71.657 45.652 116.607 45.652s85.923-17.331 116.607-45.652h91.893c26.191 0 47.5-21.309 47.5-47.5v-29.786c0-9.697-15-9.697-15 0v29.786c0 17.921-14.58 32.5-32.5 32.5h-77.479c25.594-30.047 41.067-68.965 41.067-111.436 0-20.479-3.603-40.13-10.196-58.362h79.108v68.082c0 9.697 15 9.697 15 0v-194.01c0-26.191-21.309-47.5-47.5-47.5zm-292.841-58.738c8.339-20.888 28.259-34.384 50.75-34.384h67.182c22.491 0 42.412 13.497 50.738 34.354l23.155 58.769h-29.764l-17.913-45.339c-5.228-13.097-17.718-21.56-31.82-21.56h-55.932c-14.103 0-26.593 8.463-31.844 21.619l-17.624 45.279h-30.07zm145.932 58.738h-122.908l15.482-39.778c2.939-7.362 9.961-12.12 17.89-12.12h55.932c7.928 0 14.95 4.758 17.879 12.096zm-302.591 310.726v-137.298h79.047c-6.655 18.488-10.134 38.173-10.134 58.362 0 42.47 15.473 81.389 41.067 111.436h-77.48c-17.92 0-32.5-14.579-32.5-32.5zm396.643-152.298c-3.898-8.237-8.429-16.117-13.534-23.577h57.398c9.649 0 17.5-7.851 17.5-17.5v-60.045c0-9.649-7.851-17.5-17.5-17.5h-137.148c-9.649 0-17.5 7.851-17.5 17.5v8.341c-14.308-3.867-29.345-5.943-44.859-5.943-32.187 0-63.587 8.955-90.806 25.896-8.233 5.124-.306 17.858 7.926 12.734 24.838-15.459 53.498-23.631 82.88-23.631 86.618 0 157.087 70.469 157.087 157.087s-70.469 157.088-157.087 157.088-157.087-70.47-157.087-157.088c0-21.746 4.416-42.851 12.808-62.275.193-.354.352-.729.487-1.115 7.53-17.06 18.141-32.798 31.551-46.494 6.784-6.929-3.933-17.423-10.718-10.494-13.658 13.949-24.663 29.833-32.773 47.016h-85.268v-110.928c0-17.921 14.58-32.5 32.5-32.5h417c17.92 0 32.5 14.579 32.5 32.5v110.928zm-95.784-87.98v-13.143c0-1.379 1.122-2.5 2.5-2.5h137.147c1.378 0 2.5 1.121 2.5 2.5v60.045c0 1.379-1.122 2.5-2.5 2.5h-68.912c-18.85-21.959-43.128-39.126-70.735-49.402z"/><path d="m256 468.171c70.722 0 128.258-57.537 128.258-128.259s-57.536-128.258-128.258-128.258-128.258 57.536-128.258 128.258 57.536 128.259 128.258 128.259zm0-241.517c62.451 0 113.258 50.808 113.258 113.258 0 62.451-50.808 113.259-113.258 113.259s-113.258-50.808-113.258-113.259c0-62.45 50.807-113.258 113.258-113.258z"/></g></g></svg>