<svg id="Layer_1" enable-background="new 0 0 508.91 508.91" height="512" viewBox="0 0 508.91 508.91" width="512" xmlns="http://www.w3.org/2000/svg"><g><g><g><path d="m387.934 338.758-311.415 57.21c-5.432.998-10.644-2.597-11.642-8.029l-57.211-311.415c-.998-5.432 2.597-10.644 8.029-11.642l311.415-57.21c5.432-.998 10.644 2.597 11.642 8.029l57.21 311.415c.998 5.432-2.596 10.644-8.028 11.642z" fill="#ffd88f"/><path d="m395.963 327.116-57.21-311.416c-.998-5.432-6.21-9.026-11.642-8.029l-40 7.349c5.432-.998 10.644 2.597 11.642 8.028l57.21 311.416c.998 5.432-2.597 10.645-8.029 11.642l40-7.348c5.432-.998 9.026-6.21 8.029-11.642z" fill="#ffc963"/><path d="m69.994 70h263.642v263.642h-263.642z" fill="#59a1a5" transform="matrix(.181 .984 -.984 .181 363.848 -33.138)"/></g><g><g><path d="m439.829 501.286-312.654-49.998c-5.454-.872-9.168-6-8.295-11.454l49.998-312.654c.872-5.454 6-9.168 11.454-8.295l312.654 49.998c5.454.872 9.168 6 8.295 11.454l-49.998 312.654c-.872 5.453-6 9.167-11.454 8.295z" fill="#fff7e8"/><path d="m492.985 168.883-40-6.396c5.454.872 9.168 6 8.295 11.454l-49.998 312.655c-.872 5.451-5.996 9.164-11.447 8.296l39.993 6.396c5.454.872 10.582-2.842 11.454-8.295l49.998-312.654c.873-5.456-2.841-10.584-8.295-11.456z" fill="#fff1d6"/><path d="m178.259 178.265h263.642v263.642h-263.642z" fill="#b5e8e0" transform="matrix(-.158 .988 -.988 -.158 665.239 52.861)"/></g><g><path d="m349.072 404.879c-28.848 17.011-53.919 1.488-53.919 1.488s-.54-29.988 27.399-46.463c28.62-16.877 53.919-1.488 53.919-1.488s.086 30.256-27.399 46.463z" fill="#59a1a5"/><path d="m330.918 355.81c3.536 1.38 5.553 2.606 5.553 2.606s.086 30.256-27.399 46.463c-2.845 1.678-5.65 3.028-8.401 4.119 8.942 3.542 27.698 8.089 48.401-4.119 27.485-16.207 27.399-46.463 27.399-46.463s-20.547-12.486-45.553-2.606z" fill="#419296"/><path d="m243.471 387.992c22.104 25.158 50.766 18.229 50.766 18.229s9.865-28.324-11.543-52.69c-21.93-24.96-50.766-18.229-50.766-18.229s-9.517 28.72 11.543 52.69z" fill="#59a1a5"/><path d="m306.15 334.662c-32.021-5.121-53.829-35.23-48.708-67.251l8.69-54.34 24.001 35.836 33.979-26.564 24.001 35.836 33.979-26.564-8.69 54.34c-5.122 32.02-35.231 53.828-67.252 48.707z" fill="#ff7893"/><g><path d="m348.112 258.178-8.289-12.377-6.421 40.153c-3.489 21.817-18.583 38.884-37.974 45.931 3.421 1.235 6.999 2.181 10.722 2.777 32.021 5.121 62.131-16.687 67.251-48.708l8.69-54.34z" fill="#ff5e7f"/></g></g></g></g><g><path d="m505.579 168.492c-2.742-3.786-6.794-6.277-11.41-7.016l-124.673-19.936-23.367-127.195c-1.726-9.393-10.982-15.771-20.374-14.05l-311.415 57.21c-9.491 1.744-15.793 10.884-14.05 20.375l10.602 57.708c1.752 9.537 16.505 6.827 14.753-2.711l-10.602-57.707c-.249-1.356.652-2.662 2.007-2.911l311.416-57.21c1.524-.135 2.494.534 2.91 2.007l22.407 121.971-22.514-3.6-16.245-88.431c-1.248-4.418-4.159-6.425-8.731-6.021l-259.303 47.635c-4.419 1.248-6.426 4.159-6.021 8.732l47.636 259.303c.708 3.856 4.969 6.707 8.732 6.021l27.084-4.976-3.6 22.513-45.657 8.387c-1.352.252-2.661-.65-2.911-2.007l-39.36-214.248c-1.751-9.537-16.505-6.828-14.753 2.711l39.36 214.249c1.694 9.218 11.197 15.734 20.374 14.05l40.434-7.428-6.834 42.733c-1.523 9.527 4.988 18.52 14.517 20.045l312.654 49.997c9.216 1.472 18.559-5.23 20.043-14.518l49.998-312.654c.738-4.616-.365-9.243-3.107-13.028zm-403.576 178.067-44.926-244.55 244.55-44.926 13.931 75.831-134.043-21.436c-9.53-1.522-18.52 4.99-20.042 14.518l-34.538 215.981zm391.872-167.408-49.998 312.654c-.382 1.483-1.336 2.174-2.864 2.074l-312.653-49.996c-1.362-.219-2.292-1.503-2.075-2.864l49.998-312.654c.197-1.229 1.262-2.106 2.468-2.106.131 0 .263.011.396.032l312.654 49.998c.89.142 1.403.688 1.63 1.002.226.314.586.971.444 1.86z"/><path d="m462.246 193.328-260.334-41.631c-4.081-.646-7.936 2.132-8.59 6.222l-41.631 260.334c-.654 4.091 2.131 7.937 6.222 8.591l260.334 41.631c3.769.598 7.976-2.379 8.59-6.222l10.779-67.404c1.532-9.578-13.28-11.94-14.812-2.369l-9.595 59.999-115.355-18.447 2.729-17.066c38.799 13.362 83.503-16.915 83.387-58.571-.007-2.61-1.372-5.029-3.603-6.386-21.881-13.317-51.776-8.132-70.653 7.848l2.723-17.028c33.169 1.524 63.127-22.917 68.368-55.689l8.689-54.34c1.055-6.593-6.764-11.211-12.025-7.093l-27.62 21.593-19.509-29.13c-3.113-3.731-6.729-4.31-10.851-1.735l-27.62 21.593-19.509-29.129c-3.717-5.548-12.583-3.606-13.637 2.989l-8.689 54.339c-5.365 33.549 15.605 65.325 47.593 74.227l-2.724 17.036c-1.837-2.989-3.996-5.972-6.576-8.908-24.612-28.014-56.75-20.899-58.105-20.583-2.542.594-4.593 2.467-5.414 4.944-13.116 39.594 20.005 82.262 60.963 81.656l-2.729 17.066-115.355-18.447 39.262-245.522 245.522 39.263-23.391 146.279c-1.532 9.578 13.281 11.941 14.812 2.369l24.577-153.688c.653-4.091-2.132-7.936-6.223-8.591zm-135.885 173.036c18.297-10.79 34.855-6.435 42.214-3.448-4.312 30.227-36.508 50.984-65.579 38.964 2.014-14.716 10.493-27.925 23.365-35.516zm-61.514-97.769 5.675-35.489 13.378 19.975c3.113 3.731 6.73 4.31 10.851 1.735l27.62-21.593 19.509 29.13c3.113 3.732 6.73 4.31 10.851 1.734l18.939-14.807-5.675 35.489c-10.449 65.35-111.627 49.362-101.148-16.174zm-15.742 114.446c-13.527-15.396-12.503-32.974-11.081-40.999 7.945-.536 25.024.49 39.036 16.438 9.892 11.258 13.758 26.391 11.125 41.028-7.866.594-24.921-.351-39.08-16.467z"/></g></g></svg>