<svg id="Layer_1" enable-background="new 0 0 512 512" height="512" viewBox="0 0 512 512" width="512" xmlns="http://www.w3.org/2000/svg"><g><g><circle cx="73.667" cy="73.667" fill="#ffd88f" r="66.167"/><circle cx="438.333" cy="73.667" fill="#ffd88f" r="66.167"/><path d="m438.333 7.5c-6.972 0-13.689 1.085-20 3.084 26.766 8.479 46.167 33.512 46.167 63.083s-19.401 54.604-46.167 63.083c6.311 1.999 13.028 3.084 20 3.084 36.543 0 66.167-29.624 66.167-66.167s-29.624-66.167-66.167-66.167z" fill="#ffc963"/><g fill="#ffd88f"><path d="m76.266 498.496c-8.006-8.006-8.006-20.986 0-28.991l94.045-94.045c8.006-8.006 20.986-8.006 28.991 0 8.006 8.006 8.006 20.986 0 28.991l-94.045 94.045c-8.005 8.005-20.985 8.005-28.991 0z"/><path d="m435.734 498.496c8.006-8.006 8.006-20.986 0-28.991l-94.045-94.045c-8.006-8.006-20.986-8.006-28.991 0-8.006 8.006-8.006 20.986 0 28.991l94.045 94.045c8.005 8.005 20.985 8.005 28.991 0z"/></g><g><circle cx="256" cy="256" fill="#59a1a5" r="248.5"/><circle cx="256" cy="256" fill="#fff7e8" r="198.5"/><path d="m256 57.5c-6.75 0-13.421.342-20 1.003 100.097 10.061 178.5 94.794 178.5 197.497s-78.403 187.437-178.5 197.497c6.579.661 13.25 1.003 20 1.003 109.453 0 198.5-89.047 198.5-198.5s-89.047-198.5-198.5-198.5z" fill="#fff1d6"/><path d="m256 276c-11.322 0-20.5-9.178-20.5-20.5v-133c0-11.322 9.178-20.5 20.5-20.5 11.322 0 20.5 9.178 20.5 20.5v133c0 11.322-9.178 20.5-20.5 20.5z" fill="#ff9e5e"/><path d="m238.25 246.244c5.661-9.805 18.199-13.164 28.004-7.504l71.88 41.5c9.805 5.661 13.164 18.198 7.504 28.003-5.661 9.805-18.199 13.164-28.004 7.504l-71.88-41.5c-9.806-5.661-13.165-18.198-7.504-28.003z" fill="#ff7893"/><circle cx="256" cy="256" fill="#ffd88f" r="39"/><path d="m256 217c-7.312 0-14.151 2.017-20 5.518 11.379 6.812 19 19.255 19 33.482s-7.621 26.67-19 33.482c5.849 3.501 12.688 5.518 20 5.518 21.539 0 39-17.461 39-39s-17.461-39-39-39z" fill="#ffc963"/></g></g><g><path d="m512 256c0-43.428-10.756-85.198-30.981-122.292 19.276-13.734 30.981-36.11 30.981-60.041 0-40.62-33.047-73.667-73.667-73.667-23.931 0-46.307 11.705-60.042 30.981-37.093-20.225-78.863-30.981-122.291-30.981-43.027 0-84.989 10.82-122.23 31.065-13.729-19.327-36.137-31.065-60.103-31.065-40.62 0-73.667 33.047-73.667 73.667 0 23.969 11.741 46.381 31.073 60.109-20.234 37.281-31.073 79.353-31.073 122.224 0 68.38 26.629 132.667 74.98 181.02 3.881 3.881 7.876 7.607 11.957 11.206l-15.974 15.974c-10.917 10.918-10.917 28.682.001 39.6 10.69 10.69 28.884 10.712 39.598 0l22.911-22.911c37.152 20.308 79.006 31.111 122.527 31.111s85.376-10.803 122.529-31.112l22.911 22.912c10.69 10.69 28.884 10.712 39.598 0 10.917-10.918 10.917-28.682 0-39.6l-15.975-15.975c4.081-3.599 8.076-7.325 11.957-11.206 48.351-48.352 74.98-112.639 74.98-181.019zm-73.667-241c32.349 0 58.667 26.318 58.667 58.667 0 18.603-8.886 36.024-23.589 47.021-10.236-16.377-22.397-31.713-36.392-45.708-13.995-13.994-29.331-26.156-45.708-36.392 10.998-14.702 28.419-23.588 47.022-23.588zm-338.378 478.192c-5.069 5.065-13.317 5.069-18.385 0-5.016-5.014-5.016-13.371 0-18.385l16.94-16.939c6.961 5.453 14.168 10.513 21.589 15.18zm330.475-18.384c5.069 5.068 5.069 13.316.001 18.385-5.069 5.065-13.317 5.068-18.385.001l-20.145-20.146c7.421-4.667 14.628-9.727 21.589-15.18zm-21.036-32.911c-44.363 34.791-96.581 55.103-153.394 55.103-63.677 0-125.46-25.636-170.412-70.588-45.52-45.518-70.588-106.039-70.588-170.412 0-56.013 19.646-110.576 55.321-153.641 6.186-7.467-5.366-17.038-11.551-9.568-7.357 8.881-14.064 18.227-20.109 27.95-14.746-10.994-23.661-28.441-23.661-47.074 0-32.349 26.318-58.667 58.667-58.667 18.632 0 36.078 8.914 47.073 23.658-11.755 7.32-22.967 15.615-33.499 24.856-7.289 6.395 2.603 17.671 9.893 11.275 43.94-38.556 100.36-59.789 158.866-59.789 131.406 0 241 109.592 241 241 0 71.62-32.466 140.233-87.606 185.897z"/><path d="m256 50c-113.589 0-206 92.411-206 206s92.411 206 206 206c65.16 0 127.669-31.908 166.185-84.414 5.734-7.82-6.36-16.691-12.096-8.871-35.74 48.724-93.625 78.285-154.089 78.285-105.317 0-191-85.683-191-191s85.683-191 191-191 191 85.683 191 191c0 27.966-5.947 54.946-17.677 80.192-4.085 8.795 9.517 15.115 13.604 6.32 12.656-27.24 19.073-56.347 19.073-86.512 0-113.589-92.411-206-206-206z"/><path d="m352.132 311.994c7.72-13.371 3.122-30.529-10.248-38.249l-39.677-22.907c-1.444-13.01-8.273-24.417-18.207-31.934v-96.404c0-15.439-12.561-28-28-28s-28 12.561-28 28v96.404c-11.229 8.496-18.5 21.961-18.5 37.096 0 25.641 20.859 46.5 46.5 46.5 6.245 0 12.202-1.246 17.647-3.488l40.237 23.23c13.26 7.657 30.648 2.915 38.248-10.248zm-109.132-189.494c0-7.168 5.832-13 13-13s13 5.832 13 13v88.863c-8.459-2.468-17.541-2.468-26 0zm-18.5 133.5c0-17.369 14.131-31.5 31.5-31.5s31.5 14.131 31.5 31.5-14.131 31.5-31.5 31.5-31.5-14.131-31.5-31.5zm114.642 48.494c-3.547 6.142-11.615 8.305-17.758 4.758l-33.572-19.382c6.347-5.964 11.028-13.679 13.248-22.374l33.324 19.24c6.207 3.583 8.342 11.55 4.758 17.758z"/><path d="m180 116.864c-9.652 0-9.668 15 0 15 9.652 0 9.668-15 0-15z"/><path d="m124.364 172.5c-9.652 0-9.668 15 0 15 9.652 0 9.668-15 0-15z"/><path d="m104 263.5c9.652 0 9.668-15 0-15-9.652 0-9.668 15 0 15z"/><path d="m124.364 339.5c9.652 0 9.668-15 0-15-9.652 0-9.668 15 0 15z"/><path d="m180 395.136c9.652 0 9.668-15 0-15-9.652 0-9.668 15 0 15z"/><path d="m256 415.5c9.652 0 9.668-15 0-15-9.652 0-9.668 15 0 15z"/><path d="m332 395.136c9.652 0 9.668-15 0-15-9.652 0-9.668 15 0 15z"/><path d="m387.636 339.5c9.652 0 9.668-15 0-15-9.652 0-9.668 15 0 15z"/><path d="m408 263.5c9.652 0 9.668-15 0-15-9.652 0-9.668 15 0 15z"/><path d="m387.636 172.5c-9.652 0-9.668 15 0 15 9.652 0 9.668-15 0-15z"/><path d="m332 116.864c-9.652 0-9.668 15 0 15 9.652 0 9.668-15 0-15z"/></g></g></svg>