<svg id="Layer_1" enable-background="new 0 0 512 512" height="512" viewBox="0 0 512 512" width="512" xmlns="http://www.w3.org/2000/svg"><g><g><path d="m474.5 504.5h-437c-16.569 0-30-13.431-30-30v-377.547c0-16.569 13.431-30 30-30h437c16.569 0 30 13.431 30 30v377.547c0 16.569-13.431 30-30 30z" fill="#fff7e8"/><path d="m445.195 504.5-297.02-297.02-140.528 140.528v129.46c1.49 15.173 14.282 27.028 29.845 27.032z" fill="#ffd88f"/><path d="m109.509 168.814-93.147-93.147c-4.814 4.781-8.014 11.182-8.715 18.317v176.691z" fill="#59a1a5"/><path d="m502.469 485.35c1.307-3.366 2.031-7.022 2.031-10.85v-315.843l-161.731 166.993z" fill="#b5e8e0"/><path d="m474.507 66.953h-390.435l218.774 218.774 198.404-202.35c-4.954-9.742-15.065-16.421-26.743-16.424z" fill="#ff7893"/><g><g><path d="m361.213 66.365c0 47.079-38.204 119.535-59.017 119.535-21.953 0-59.017-76.434-59.017-119.535 0-32.51 26.423-58.865 59.017-58.865s59.017 26.355 59.017 58.865z" fill="#ffd88f"/><path d="m302.196 7.5c-7.021 0-13.754 1.229-20 3.473 22.749 8.173 39.017 29.885 39.017 55.392 0 34.102-20.046 81.513-39.007 105.062 7.08 8.932 14.082 14.473 19.99 14.473 20.813 0 59.017-72.456 59.017-119.535 0-32.51-26.423-58.865-59.017-58.865z" fill="#ffc963"/><ellipse cx="302.196" cy="68.106" fill="#fff7e8" rx="27.52" ry="27.591"/></g><g><path d="m209.834 353.259c0 47.079-38.204 119.535-59.017 119.535-21.953 0-59.017-76.434-59.017-119.535 0-32.51 26.423-58.865 59.017-58.865s59.017 26.355 59.017 58.865z" fill="#ff7893"/><path d="m150.817 294.394c-7.021 0-13.754 1.229-20 3.473 22.749 8.173 39.017 29.885 39.017 55.392 0 34.103-20.046 81.513-39.007 105.062 7.08 8.932 14.082 14.473 19.99 14.473 20.813 0 59.017-72.456 59.017-119.535 0-32.51-26.422-58.865-59.017-58.865z" fill="#ff5e7f"/><ellipse cx="150.817" cy="355" fill="#fff7e8" rx="27.52" ry="27.591"/></g></g></g><g><path d="m512 474.5v-377.548c0-20.285-17.124-37.5-37.5-37.5h-106.149c-3.476-33.357-31.817-59.452-66.155-59.452s-62.679 26.095-66.156 59.452h-198.54c-20.399 0-37.5 17.086-37.5 37.5v377.548c0 20.678 16.822 37.5 37.5 37.5h437c15.951 0 37.5-15 37.5-37.5zm-158.708-148.934 143.708-148.384v292.091zm-51.096-310.566c28.406 0 51.517 23.042 51.517 51.365 0 20.214-8.007 48.582-20.895 74.034-13.273 26.211-25.897 38.001-30.622 38.001-4.519 0-16.932-10.698-31.007-39.406-12.46-25.413-20.511-53.922-20.511-72.629.001-28.323 23.111-51.365 51.518-51.365zm-287.196 81.952c0-3.508.808-6.831 2.246-9.793l81.656 81.656-83.902 83.901zm0 377.548v-123.238l133.175-133.175 278.912 278.913h-389.587c-12.407 0-22.5-10.094-22.5-22.5zm459.5 22.5h-26.198l-294.824-294.823c-2.929-2.928-7.678-2.928-10.606 0l-127.872 127.871v-56.118l99.812-99.812c2.929-2.93 2.929-7.678 0-10.607l-86.906-86.906c2.912-1.379 6.164-2.153 9.594-2.153h43.463l216.579 216.578c2.948 2.946 7.737 2.928 10.659-.053l94.84-96.727c6.788-6.925-3.919-17.424-10.711-10.502l-89.537 91.318-200.616-200.614h133.863c2.003 23.771 12.132 51.67 21.68 71.146 20.393 41.593 36.618 47.803 44.476 47.803 18.59 0 36.966-32.326 44.004-46.225 12.487-24.658 20.503-51.167 22.174-72.724h106.126c6.877 0 13.04 3.105 17.17 7.982l-69.589 70.972c-6.778 6.915 3.907 17.441 10.711 10.502l64.208-65.484v57.196l-159.618 164.813c-2.849 2.941-2.812 7.625.084 10.521l155.854 155.855c-4.023 6.131-10.955 10.191-18.82 10.191z"/><path d="m302.196 103.197c19.31 0 35.02-15.741 35.02-35.091s-15.71-35.091-35.02-35.091c-19.311 0-35.021 15.741-35.021 35.091s15.711 35.091 35.021 35.091zm0-55.181c11.039 0 20.02 9.013 20.02 20.091s-8.98 20.091-20.02 20.091-20.021-9.013-20.021-20.091 8.982-20.091 20.021-20.091z"/><path d="m210.389 323.733c-4.327-8.679-17.751-1.983-13.423 6.695 3.562 7.143 5.369 14.823 5.369 22.83 0 20.214-8.006 48.582-20.895 74.033-13.273 26.211-25.897 38.001-30.623 38.001-4.518 0-16.932-10.698-31.007-39.406-12.459-25.412-20.51-53.921-20.51-72.628 0-28.323 23.11-51.365 51.517-51.365 7.492 0 14.732 1.581 21.52 4.698 8.812 4.048 15.073-9.584 6.261-13.631-8.766-4.026-18.112-6.067-27.78-6.067-36.678 0-66.517 29.771-66.517 66.365 0 25.271 11.386 57.498 22.042 79.231 20.392 41.593 36.618 47.803 44.475 47.803 18.59 0 36.966-32.326 44.004-46.225 14.097-27.837 22.513-58.047 22.513-80.81-.001-10.349-2.337-20.282-6.946-29.524z"/><path d="m150.817 319.909c-19.31 0-35.02 15.741-35.02 35.091s15.71 35.091 35.02 35.091 35.02-15.741 35.02-35.091-15.71-35.091-35.02-35.091zm0 55.182c-11.039 0-20.02-9.013-20.02-20.091s8.981-20.091 20.02-20.091 20.02 9.013 20.02 20.091-8.981 20.091-20.02 20.091z"/></g></g></svg>