<svg id="Layer_1" enable-background="new 0 0 512 512" height="512" viewBox="0 0 512 512" width="512" xmlns="http://www.w3.org/2000/svg"><g><g><g><g><g><g><g><path d="m360.728 400.898h55.776l-72.258-85.905h-55.777z" fill="#b5e8e0"/></g><g><path d="m151.273 400.898h-55.776l72.258-85.905h55.776z" fill="#b5e8e0"/></g></g><g><path d="m484.5 354.484h-457c-11.046 0-20-8.954-20-20v-306.984c0-11.046 8.954-20 20-20h457c11.046 0 20 8.954 20 20v306.984c0 11.046-8.954 20-20 20z" fill="#59a1a5"/><path d="m484.5 7.5h-40c11.046 0 20 8.954 20 20v306.984c0 11.045-8.954 20-20 20h40c11.046 0 20-8.955 20-20v-306.984c0-11.046-8.954-20-20-20z" fill="#419296"/><path d="m121.999-28.213h268.002v418.411h-268.002z" fill="#fff7e8" transform="matrix(0 1 -1 0 436.993 -75.008)"/></g></g><path d="m452.699 504.5h-393.398c-28.609 0-51.801-23.192-51.801-51.801 0-28.609 23.192-51.801 51.801-51.801h393.398c28.609 0 51.801 23.192 51.801 51.801 0 28.609-23.192 51.801-51.801 51.801z" fill="#fff7e8"/><path d="m452.699 400.898h-40c28.609 0 51.801 23.192 51.801 51.801 0 28.608-23.192 51.801-51.801 51.801h40c28.609 0 51.801-23.192 51.801-51.801 0-28.609-23.192-51.801-51.801-51.801z" fill="#fff1d6"/></g><g><path d="m130.2 46.991h83.827v268.002h-83.827z" fill="#ff7893"/><path d="m214.026 46.991h83.827v268.002h-83.827z" fill="#ffd88f"/><path d="m297.853 46.991h83.827v268.002h-83.827z" fill="#ff9e5e"/><path d="m381.68 46.991h83.827v268.002h-83.827z" fill="#b5e8e0"/></g></g><g><path d="m172.291 400.898h167.417v103.602h-167.417z" fill="#ffd88f"/></g></g><g><path d="m504.5 262.514c4.142 0 7.5-3.357 7.5-7.5v-227.514c0-15.163-12.336-27.5-27.5-27.5h-457c-15.164 0-27.5 12.337-27.5 27.5v306.984c0 15.163 12.336 27.5 27.5 27.5h90.928l-26.423 31.413h-32.704c-32.699 0-59.301 26.603-59.301 59.302 0 32.698 26.602 59.301 59.301 59.301h393.398c32.698 0 59.301-26.603 59.301-59.301 0-32.699-26.603-59.302-59.301-59.302h-32.703l-26.423-31.413h90.927c15.164 0 27.5-12.337 27.5-27.5v-39.51c0-9.697-15-9.697-15 0v39.51c0 6.893-5.607 12.5-12.5 12.5h-457c-6.893 0-12.5-5.607-12.5-12.5v-306.984c0-6.893 5.607-12.5 12.5-12.5h457c6.893 0 12.5 5.607 12.5 12.5v227.514c0 4.142 3.358 7.5 7.5 7.5zm-366.47 99.47h36.175l-26.423 31.413h-36.175zm180.165 0 26.423 31.413c-59.079 0-118.157 0-177.236 0l26.423-31.413zm-303.195 90.715c0-24.428 19.873-44.302 44.301-44.302h105.491v88.603h-105.491c-24.428 0-44.301-19.873-44.301-44.301zm164.792 44.301v-88.603h152.417v88.603zm317.208-44.301c0 24.428-19.874 44.301-44.301 44.301h-105.49v-88.603h105.49c24.427 0 44.301 19.874 44.301 44.302zm-96.605-59.302h-36.175l-26.423-31.413h36.174z"/><path d="m473.006 46.991c0-4.564-3.885-7.026-7.8-7.5h-83.526-83.827-83.827-83.826-83.405c-4.142 0-7.5 3.357-7.5 7.5v268.002c0 4.143 3.358 7.5 7.5 7.5h83.405 83.827 83.827 83.827 83.526c5.028-.315 8.974-4.49 7.5-9.587v-263.828c.191-.663.299-1.362.299-2.087zm-182.653 7.5v253.002h-68.827v-253.002zm-152.653 253.002v-173.534c0-9.697-15-9.697-15 0v173.534h-68.405v-253.002h68.405v39.53c0 9.697 15 9.697 15 0v-39.53h68.827v253.002zm167.653-253.002h68.827v253.002h-68.827zm83.827 253.002v-253.002h68.526v253.002z"/><path d="m99 431.5c-9.652 0-9.668 15 0 15 9.652 0 9.668-15 0-15z"/><path d="m256 431.5c-9.652 0-9.668 15 0 15 9.652 0 9.668-15 0-15z"/><path d="m413.001 446.5c9.652 0 9.668-15 0-15-9.652 0-9.668 15 0 15z"/></g></g></svg>