<svg id="Layer_1" enable-background="new 0 0 512 512" height="512" viewBox="0 0 512 512" width="512" xmlns="http://www.w3.org/2000/svg"><g><g><g><path d="m414.914 7.5v33.143c11.963 6.487 20.083 19.125 20.083 33.653 0 21.146-17.201 38.288-38.419 38.288s-38.419-17.142-38.419-38.288c0-14.528 8.12-27.166 20.083-33.653v-33.143h-103.906v33.143c11.963 6.487 20.083 19.125 20.083 33.653 0 21.146-17.201 38.288-38.419 38.288s-38.419-17.142-38.419-38.288c0-14.528 8.12-27.166 20.082-33.653v-33.143h-103.904v33.143c11.963 6.487 20.083 19.125 20.083 33.653 0 21.146-17.201 38.288-38.419 38.288s-38.419-17.141-38.419-38.287c0-14.528 8.12-27.166 20.082-33.653v-33.144h-89.586v467c0 16.569 13.431 30 30 30h437c16.569 0 30-13.431 30-30v-467z" fill="#fff7e8"/></g><g fill="#fff1d6"><path d="m318.159 74.297c0 21.146 17.201 38.288 38.419 38.288 7.327 0 14.174-2.046 20-5.593-11.045-6.725-18.419-18.851-18.419-32.695 0-13.84 7.378-25.953 18.419-32.679-.549-.334-1.098-.668-1.664-.975v-33.143h-36.672v33.143c-11.964 6.488-20.083 19.126-20.083 33.654z"/><path d="m177.581 74.297c0 21.146 17.201 38.288 38.419 38.288 7.327 0 14.174-2.046 20-5.593-11.045-6.725-18.419-18.851-18.419-32.695 0-13.84 7.378-25.953 18.419-32.679-.549-.334-1.098-.668-1.664-.975v-33.143h-36.672v33.143c-11.963 6.488-20.083 19.126-20.083 33.654z"/><path d="m37.004 74.297c0 21.146 17.201 38.288 38.419 38.288 7.327 0 14.174-2.046 20-5.593-11.045-6.725-18.419-18.851-18.419-32.695 0-13.84 7.378-25.953 18.419-32.679-.549-.334-1.098-.668-1.664-.975v-33.143h-36.673v33.143c-11.963 6.488-20.082 19.126-20.082 33.654z"/><path d="m464.5 7.5v467c0 16.568-13.431 30-30 30h40c16.569 0 30-13.432 30-30v-467z"/></g><path d="m7.5 152.642h497v38.445h-497z" fill="#ff7893"/><path d="m464.5 152.642h40v38.445h-40z" fill="#ff5e7f"/></g><g><path d="m504.5 0h-89.586c-4.142 0-7.5 3.357-7.5 7.5v33.144c0 2.751 1.506 5.281 3.925 6.593 9.966 5.405 16.158 15.773 16.158 27.061 0 16.977-13.87 30.788-30.919 30.788-17.048 0-30.918-13.812-30.918-30.788 0-11.287 6.191-21.656 16.157-27.061 2.418-1.312 3.925-3.842 3.925-6.593v-33.144c0-4.143-3.358-7.5-7.5-7.5h-103.906c-4.142 0-7.5 3.357-7.5 7.5v33.144c0 2.751 1.506 5.281 3.925 6.593 9.967 5.405 16.158 15.773 16.158 27.061 0 16.977-13.87 30.788-30.919 30.788s-30.919-13.812-30.919-30.788c0-11.287 6.191-21.655 16.158-27.061 2.418-1.312 3.925-3.842 3.925-6.593v-33.144c0-4.143-3.358-7.5-7.5-7.5h-103.905c-4.142 0-7.5 3.357-7.5 7.5v33.144c0 2.751 1.506 5.281 3.925 6.593 9.966 5.405 16.158 15.773 16.158 27.061 0 16.977-13.87 30.788-30.919 30.788-17.048 0-30.918-13.812-30.918-30.788 0-11.287 6.191-21.656 16.157-27.061 2.418-1.312 3.925-3.842 3.925-6.593v-33.144c0-4.143-3.358-7.5-7.5-7.5h-89.587c-4.142 0-7.5 3.357-7.5 7.5v467c0 20.678 16.822 37.5 37.5 37.5h437c20.678 0 37.5-16.822 37.5-37.5v-44.525c0-9.697-15-9.697-15 0v44.525c0 12.406-10.093 22.5-22.5 22.5h-437c-12.407 0-22.5-10.094-22.5-22.5v-275.913h482v191.427c0 9.697 15 9.697 15 0v-382.514c0-4.143-3.358-7.5-7.5-7.5zm-489.5 183.587v-23.362c11.76.121 23.644.185 35.615.185 14.547 0 29.21-.089 43.88-.268 4.142-.05 7.458-3.448 7.408-7.59-.05-4.111-3.398-7.409-7.498-7.409-.031 0-.062 0-.093.001-26.683.322-53.321.348-79.312.081v-130.225h74.586v21.438c-12.49 8.479-20.082 22.603-20.082 37.858 0 25.248 20.599 45.788 45.918 45.788 25.32 0 45.919-20.54 45.919-45.788 0-15.256-7.592-29.38-20.083-37.858v-21.438h88.905v21.438c-12.491 8.479-20.083 22.603-20.083 37.858 0 25.248 20.599 45.788 45.919 45.788s45.919-20.54 45.919-45.788c0-15.256-7.592-29.38-20.083-37.858v-21.438h88.905v21.438c-12.49 8.479-20.082 22.603-20.082 37.858 0 25.248 20.599 45.788 45.918 45.788 25.32 0 45.919-20.54 45.919-45.788 0-15.256-7.592-29.38-20.083-37.858v-21.438h74.588v130.162c-118.704.334-238.828.329-357.191-.019-.007 0-.015 0-.022 0-4.132 0-7.487 3.344-7.5 7.478-.012 4.143 3.336 7.51 7.478 7.522 60.437.178 121.336.268 182.271.268 58.417 0 116.857-.085 174.964-.248v23.425h-482z"/><path d="m393.779 266.23h-282.505c-9.697 0-9.697 15 0 15h282.505c9.698 0 9.698-15 0-15z"/><path d="m401.279 345.217c0-4.143-3.358-7.5-7.5-7.5h-282.505c-9.697 0-9.697 15 0 15h282.505c4.142 0 7.5-3.358 7.5-7.5z"/><path d="m111.274 409.204c-9.697 0-9.697 15 0 15h155.146c9.697 0 9.697-15 0-15z"/></g></g></svg>