<svg id="Layer_1" enable-background="new 0 0 511.952 511.952" height="512" viewBox="0 0 511.952 511.952" width="512" xmlns="http://www.w3.org/2000/svg"><g><g><path d="m400.893 504.452h-289.834c-22.091 0-40-17.909-40-40v-259.833l184.917-150 184.917 150v259.833c0 22.092-17.909 40-40 40z" fill="#fff7e8"/><path d="m473.203 243.678c-6.64 0-13.322-2.193-18.881-6.702l-198.346-160.894-198.346 160.894c-12.869 10.437-31.76 8.468-42.198-4.399s-8.468-31.76 4.399-42.198l217.246-176.225c11.016-8.936 26.783-8.936 37.799 0l217.245 176.225c12.867 10.438 14.837 29.331 4.399 42.198-5.929 7.308-14.586 11.101-23.317 11.101z" fill="#ff7893"/><g fill="#ff5e7f"><path d="m215.976 76.082-197.218 159.98c10.785 9.646 27.273 10.321 38.873.915l198.345-160.895c-11.657-9.456-28.343-9.456-40 0z"/><path d="m492.121 190.378-217.245-176.224c-11.016-8.936-26.783-8.936-37.799 0l-1.101.893 216.145 175.332c12.867 10.438 14.837 29.331 4.399 42.198-1.03 1.27-2.147 2.427-3.328 3.483l1.13.917c5.559 4.509 12.241 6.702 18.881 6.702 8.731 0 17.389-3.793 23.317-11.102 10.438-12.868 8.468-31.76-4.399-42.199z"/></g><g><circle cx="255.976" cy="319.057" fill="#ff9e5e" r="142.66"/><circle cx="255.976" cy="319.057" fill="#ff7893" r="102.66"/><circle cx="255.976" cy="319.057" fill="#ffd88f" r="62.66"/><path d="m255.976 256.397c-6.996 0-13.717 1.164-20 3.279 24.795 8.349 42.66 31.771 42.66 59.381s-17.865 51.031-42.66 59.381c6.283 2.115 13.004 3.279 20 3.279 34.606 0 62.66-28.054 62.66-62.66s-28.054-62.66-62.66-62.66z" fill="#ffc963"/></g></g><g><path d="m496.845 184.554-217.245-176.225c-13.688-11.105-33.561-11.105-47.248 0l-94.472 76.634c-7.53 6.108 1.92 17.759 9.449 11.648l94.472-76.634c8.213-6.662 20.137-6.662 28.35 0l217.244 176.225c9.636 7.817 11.116 22.016 3.301 31.65-7.683 9.469-22.176 10.983-31.649 3.299l-198.346-160.894c-2.754-2.234-6.695-2.234-9.449 0l-198.346 160.893c-9.637 7.817-23.834 6.334-31.649-3.298-7.815-9.635-6.335-23.833 3.3-31.65l92.002-74.629c7.53-6.108-1.92-17.762-9.449-11.648l-92.003 74.629c-16.058 13.028-18.524 36.69-5.498 52.748 13.445 16.575 37.905 17.909 53.951 4.521v222.629c0 26.191 21.309 47.5 47.5 47.5h289.834c26.191 0 47.5-21.309 47.5-47.5v-222.629c15.864 13.267 40.656 11.869 53.951-4.521 13.025-16.058 10.559-39.72-5.5-52.748zm-63.452 279.898c0 17.921-14.579 32.5-32.5 32.5h-289.834c-17.921 0-32.5-14.579-32.5-32.5v-234.797l177.417-143.917 177.417 143.917z"/><path d="m105.816 319.057c0 82.799 67.361 150.16 150.16 150.16s150.16-67.361 150.16-150.16-67.361-150.16-150.16-150.16-150.16 67.361-150.16 150.16zm285.32 0c0 74.527-60.633 135.16-135.16 135.16s-135.16-60.633-135.16-135.16 60.633-135.16 135.16-135.16 135.16 60.632 135.16 135.16z"/><path d="m145.816 319.057c0 60.742 49.418 110.16 110.16 110.16 24.209 0 47.201-7.74 66.489-22.385 7.723-5.864-1.347-17.812-9.07-11.947-16.657 12.647-36.513 19.332-57.419 19.332-52.472 0-95.16-42.688-95.16-95.16s42.688-95.16 95.16-95.16 95.16 42.688 95.16 95.16c0 17.123-4.626 33.928-13.378 48.598-4.969 8.327 7.911 16.011 12.881 7.686 10.139-16.992 15.497-36.455 15.497-56.283 0-60.742-49.418-110.16-110.16-110.16s-110.16 49.416-110.16 110.159z"/><path d="m255.976 248.896c-38.687 0-70.16 31.474-70.16 70.16s31.474 70.16 70.16 70.16 70.16-31.474 70.16-70.16-31.473-70.16-70.16-70.16zm0 125.321c-30.415 0-55.16-24.745-55.16-55.16s24.745-55.16 55.16-55.16 55.16 24.745 55.16 55.16-24.745 55.16-55.16 55.16z"/></g></g></svg>