<svg id="Layer_1" enable-background="new 0 0 512.036 512.036" height="512" viewBox="0 0 512.036 512.036" width="512" xmlns="http://www.w3.org/2000/svg"><g><g><g><path d="m310.429 504.536c-19.51 0-38.193-5.301-54.411-15.22-16.218 9.919-34.902 15.22-54.411 15.22-48.588 0-97.915-36.482-138.895-102.726-33.529-54.202-55.194-119.239-55.194-165.691 0-86.405 70.387-156.701 156.904-156.701 33.353 0 65.09 10.311 91.596 29.429 26.507-19.119 58.244-29.429 91.596-29.429 86.517 0 156.904 70.296 156.904 156.701 0 46.665-21.441 111.679-54.624 165.631-40.768 66.282-90.297 102.786-139.465 102.786z" fill="#ff7893"/><path d="m310.43 468.788c-18.433 0-35.742-7.196-48.74-20.262-1.502-1.51-3.543-2.358-5.672-2.358s-4.17.849-5.672 2.358c-12.997 13.065-30.307 20.262-48.739 20.262-35.205 0-74.735-31.263-108.454-85.771-29.817-48.201-49.851-107.234-49.851-146.898 0-66.693 54.334-120.952 121.12-120.952 32.5 0 63.015 12.683 85.924 35.712 1.502 1.51 3.543 2.358 5.672 2.358s4.17-.849 5.672-2.357c22.909-23.03 53.425-35.713 85.924-35.713 66.786 0 121.12 54.259 121.12 120.952 0 39.902-19.824 98.943-49.329 146.916-33.519 54.497-73.238 85.753-108.975 85.753z" fill="#fff7e8"/><g><path d="m347.614 115.167c-6.792 0-13.495.562-20.062 1.648 57.332 9.523 101.182 59.392 101.182 119.304 0 39.902-19.824 98.943-49.329 146.916-27.46 44.647-59.081 73.68-89.265 82.722 6.487 1.993 13.308 3.031 20.291 3.031 35.736 0 75.456-31.256 108.975-85.753 29.505-47.973 49.329-107.014 49.329-146.916-.001-66.693-54.335-120.952-121.121-120.952z" fill="#fff1d6"/></g></g><g><path d="m300.943 209.631c-18.094 0-34.291 8.041-45.219 20.717-10.927-12.676-27.125-20.717-45.219-20.717-32.906 0-59.583 26.56-59.583 59.323 0 70.481 104.801 118.127 104.801 118.127s104.801-47.646 104.801-118.127c.001-32.763-26.675-59.323-59.581-59.323z" fill="#ff7893"/></g><g><path d="m300.943 209.631c-7.015 0-13.739 1.221-19.987 3.44 23.06 8.188 39.57 30.111 39.57 55.883 0 50.775-54.387 89.696-84.801 107.492 11.804 6.907 20 10.635 20 10.635s104.801-47.646 104.801-118.127c-.001-32.763-26.677-59.323-59.583-59.323z" fill="#ff5e7f"/></g></g><g><path d="m347.615 71.918c-30.072 0-58.92 7.983-84.257 23.157.876-17.876 6.916-53.48 38.638-81.958 7.215-6.479-2.806-17.642-10.021-11.162-36.135 32.441-42.82 72.486-43.669 92.898-25.246-15.03-53.958-22.935-83.884-22.935-90.652 0-164.403 73.66-164.403 164.201 0 47.747 22.105 114.333 56.316 169.636 42.397 68.537 93.989 106.281 145.272 106.281 19.168 0 37.882-4.84 54.411-14.037 16.529 9.197 35.243 14.037 54.411 14.037 22.655 0 45.373-7.157 67.522-21.272 21.632-13.785 42.301-33.957 61.433-59.955 5.748-7.811-6.333-16.699-12.082-8.891-18.03 24.502-37.347 43.409-57.412 56.196-19.702 12.556-39.707 18.922-59.461 18.922-17.934 0-35.396-4.882-50.498-14.118-2.402-1.469-5.424-1.469-7.826 0-15.103 9.236-32.564 14.118-50.498 14.118-45.893 0-92.955-35.22-132.517-99.172-32.848-53.1-54.072-116.589-54.072-161.745 0-82.27 67.022-149.201 149.403-149.201 31.646 0 61.802 9.687 87.209 28.013 2.621 1.888 6.154 1.89 8.775 0 25.408-18.326 55.564-28.013 87.209-28.013 82.381 0 149.403 66.932 149.403 149.201 0 43.002-18.595 101.757-48.526 153.336-4.867 8.387 8.106 15.917 12.973 7.529 31.183-53.732 50.554-115.373 50.554-160.865 0-90.541-73.751-164.201-164.403-164.201z"/><path d="m347.614 107.667c-34.511 0-66.914 13.468-91.239 37.922-.237.157-.474.158-.711.001-24.327-24.455-56.73-37.923-91.241-37.923-70.921 0-128.62 57.623-128.62 128.452 0 40.939 20.484 101.559 50.973 150.844 35.116 56.768 76.971 89.325 114.832 89.325 20.443 0 39.641-7.98 54.056-22.472.108-.109.3-.117.355-.117.056 0 .247.008.354.117 14.417 14.491 33.615 22.472 54.058 22.472 38.4 0 80.448-32.558 115.363-89.324 30.17-49.054 50.44-109.674 50.44-150.845 0-70.829-57.699-128.452-128.62-128.452zm65.402 271.439c-32.123 52.228-69.514 82.182-102.586 82.182-16.422 0-31.843-6.411-43.424-18.052-2.911-2.926-6.813-4.537-10.988-4.537s-8.077 1.611-10.989 4.538c-11.579 11.64-27 18.051-43.422 18.051-32.549 0-69.754-29.967-102.076-82.216-29.146-47.116-48.729-104.564-48.729-142.953 0-62.558 50.97-113.452 113.62-113.452 30.489 0 59.115 11.897 80.607 33.502 2.893 2.908 6.963 4.329 10.988 4.538 4.174 0 8.076-1.611 10.989-4.538 21.49-21.604 50.117-33.502 80.606-33.502 62.65 0 113.62 50.895 113.62 113.452.002 38.633-19.375 96.095-48.216 142.987z"/><path d="m300.943 202.132c-16.838 0-32.92 6.29-45.219 17.483-12.3-11.193-28.382-17.483-45.219-17.483-12.393 0-24.506 3.399-35.03 9.831-8.275 5.054-.454 17.856 7.82 12.799 8.17-4.991 17.579-7.63 27.21-7.63 15.203 0 29.614 6.603 39.538 18.114 3.787 3.47 7.574 3.47 11.361-.001 9.923-11.511 24.334-18.113 39.538-18.113 28.719 0 52.083 23.247 52.083 51.822 0 58.262-80.359 101.362-97.302 109.797-16.944-8.436-97.302-51.535-97.302-109.797 0-6.001 1.027-11.893 3.055-17.51 3.292-9.121-10.817-14.213-14.109-5.092-2.618 7.256-3.945 14.859-3.945 22.602 0 74.454 104.739 122.928 109.198 124.954 2.069.897 4.138.897 6.207 0 4.459-2.026 109.198-50.5 109.198-124.954.001-36.846-30.093-66.822-67.082-66.822z"/></g></g></svg>