<svg id="Layer_1" enable-background="new 0 0 511.738 511.738" height="512" viewBox="0 0 511.738 511.738" width="512" xmlns="http://www.w3.org/2000/svg"><g><g><path d="m222.227 17.406-208.31 275.807c-10.57 13.994-7.835 33.945 6.108 44.557l208.756 158.88c15.755 11.991 37.531 9.789 48.638-4.917l218.273-288.993 2.628-3.48-63.04 11.483-196.271-149.379z" fill="#fff7e8"/><path d="m451.94 207.708-214.521 284.025c-1.891 2.503-4.097 4.635-6.523 6.406 15.537 10.274 35.904 7.654 46.523-6.406l218.273-288.993 2.628-3.48z" fill="#fff1d6"/><g fill="#59a1a5"><path d="m277.241 143.899-161.23 213.48-55.967-42.593 161.23-213.48z"/><path d="m404.318 240.605-52.148 69.057-51.316-39.049 52.148-69.056z"/></g><path d="m495.715 202.711c-14.414 19.085-41.529 22.826-60.544 8.355l-120.967-92.056 52.168-69.07 121.025 92.101c18.992 14.453 22.715 41.608 8.318 60.67z" fill="#ffd88f"/><path d="m487.397 142.04-121.025-92.101-21.45 28.4 96.142 73.165c18.992 14.454 22.714 41.609 8.317 60.671-1.258 1.665-2.618 3.206-4.055 4.636 17.6 7.027 38.391 1.784 50.389-14.1 14.397-19.062 10.674-46.217-8.318-60.671z" fill="#ffc963"/><path d="m222.194 17.33c8.355-11.062 24.059-13.229 35.081-4.841l150.302 114.405-30.228 40.021-137.476-104.642-12.86-9.789c-11.001-8.372-13.159-24.113-4.819-35.154z" fill="#ffe6b8"/></g><g><path d="m281.783 137.932-55.967-42.593c-3.91-2.432-7.419-1.949-10.527 1.447l-161.23 213.479c-2.49 3.297-1.845 7.986 1.443 10.488l55.966 42.594c3.245 2.471 7.993 1.907 10.527-1.447l161.23-213.479c2.49-3.298 1.846-7.987-1.442-10.489zm-167.221 208.92-44.03-33.509 152.189-201.509 44.03 33.508z"/><path d="m352.17 317.162c2.3-.006 4.295-.999 5.985-2.98l52.147-69.057c2.489-3.297 1.844-7.986-1.443-10.488l-51.315-39.049c-3.91-2.431-7.419-1.948-10.527 1.449l-52.148 69.057c-2.489 3.297-1.844 7.986 1.443 10.488l51.316 39.049c1.314.999 2.91 1.531 4.542 1.531zm2.281-105.078 39.378 29.965-43.108 57.086-39.379-29.965z"/><path d="m148.279 391.362c3.703 2.426 7.204 1.938 10.505-1.465l161.23-213.479c2.496-3.306 1.84-8.009-1.465-10.506-3.307-2.495-8.01-1.84-10.506 1.465l-161.229 213.479c-2.496 3.305-1.84 8.008 1.465 10.506z"/><path d="m191.658 424.374c3.703 2.426 7.204 1.938 10.505-1.465l92.456-122.417c5.844-7.739-6.126-16.779-11.971-9.041l-92.455 122.417c-2.497 3.306-1.841 8.009 1.465 10.506z"/><path d="m235.036 457.387c3.703 2.426 7.204 1.938 10.505-1.465l92.455-122.417c5.844-7.739-6.125-16.778-11.971-9.041l-92.454 122.417c-2.496 3.306-1.84 8.009 1.465 10.506z"/><path d="m491.94 136.071-121.026-92.1c-3.91-2.431-7.419-1.948-10.526 1.448l-17.328 22.942-81.243-61.839c-14.693-11.184-36.648-7.382-46.799 7.985l-207.086 274.186c-13.037 17.262-9.649 41.955 7.551 55.045l208.755 158.88c17.897 13.621 45.181 12.152 59.165-6.364l126.898-168.014c5.845-7.738-6.126-16.78-11.969-9.041l-126.897 168.013c-8.996 11.91-26.794 12.083-38.112 3.47l-208.755-158.88c-10.643-8.101-12.736-23.384-4.666-34.068l191.767-253.905c2.072 5.623 5.699 10.74 10.801 14.622l30.911 23.529c7.716 5.873 16.802-6.062 9.085-11.936l-30.912-23.529c-18.09-13.768 3.059-41.849 21.177-28.059l87.219 66.388c.012.009.022.02.034.029.01.008.022.014.032.022l57.071 43.44-21.187 28.052-81.677-62.169c-7.717-5.874-16.802 6.062-9.086 11.936l145.49 110.879c10.581 8.054 24.219 11.661 37.401 9.888l-45.604 60.38c-5.72 7.573 5.937 17.031 11.969 9.041l67.282-89.081c16.398-22.214 12.476-54.284-9.735-71.19zm-52.227 69.026-51.947-39.531 25.794-34.152c2.49-3.297 1.846-7.986-1.441-10.488l-57.124-43.48 12.825-16.98 115.035 87.542c36.299 27.627-6.304 85.124-43.142 57.089z"/></g></g></svg>