<svg id="Layer_1" enable-background="new 0 0 512 512" height="512" viewBox="0 0 512 512" width="512" xmlns="http://www.w3.org/2000/svg"><g><g><g><g><path d="m147.996 37.246v287.031h40.498v-287.031c0-11.144-9.066-20.178-20.249-20.178-11.183.001-20.249 9.034-20.249 20.178z" fill="#b5e8e0"/><ellipse cx="107.168" cy="319.51" fill="#ff7893" rx="81.326" ry="81.039"/><path d="m107.168 238.47c-6.902 0-13.601.864-20 2.477 35.243 8.882 61.326 40.684 61.326 78.563s-26.083 69.681-61.326 78.563c6.399 1.613 13.098 2.477 20 2.477 44.915 0 81.326-36.283 81.326-81.04s-36.41-81.04-81.326-81.04z" fill="#ff5e7f"/></g><g><path d="m325.66 141.114v287.031h40.498v-287.031c0-11.144-9.066-20.178-20.249-20.178-11.183 0-20.249 9.034-20.249 20.178z" fill="#b5e8e0"/><ellipse cx="284.832" cy="423.377" fill="#ff7893" rx="81.326" ry="81.039"/><path d="m284.832 342.338c-6.902 0-13.601.864-20 2.477 35.243 8.882 61.326 40.684 61.326 78.563s-26.083 69.681-61.326 78.563c6.399 1.613 13.098 2.477 20 2.477 44.915 0 81.326-36.283 81.326-81.04s-36.411-81.04-81.326-81.04z" fill="#ff5e7f"/></g><path d="m366.158 200.199-218.162-127.32v-40.48c0-19.272 20.996-31.265 37.684-21.525l161.904 94.488c11.504 6.714 18.573 19.003 18.573 32.288v62.549z" fill="#ff7893"/><path d="m347.585 105.362-40-23.362c11.504 6.714 18.573 19.365 18.573 32.65v62.205l40 23.344v-62.549c0-13.285-7.069-25.574-18.573-32.288z" fill="#ff5e7f"/></g><g fill="#ffd88f"><path d="m60.746 74.506 11.363 32.562c.593 1.698 1.904 3.049 3.584 3.691l22.848 8.73c5.233 2 5.233 9.403 0 11.403l-22.848 8.73c-1.68.642-2.992 1.992-3.584 3.691l-11.363 32.562c-1.904 5.457-9.621 5.457-11.526 0l-11.363-32.562c-.593-1.698-1.904-3.049-3.584-3.691l-22.848-8.73c-5.234-2-5.234-9.403 0-11.403l22.848-8.73c1.68-.642 2.992-1.992 3.584-3.691l11.363-32.562c1.904-5.457 9.622-5.457 11.526 0z"/><path d="m462.78 238.909 11.363 32.562c.593 1.698 1.904 3.049 3.584 3.691l22.848 8.73c5.233 2 5.233 9.403 0 11.403l-22.848 8.73c-1.68.642-2.992 1.992-3.584 3.691l-11.363 32.562c-1.904 5.457-9.621 5.457-11.525 0l-11.363-32.562c-.593-1.698-1.904-3.049-3.584-3.691l-22.848-8.73c-5.233-2-5.233-9.404 0-11.403l22.848-8.73c1.68-.642 2.992-1.992 3.584-3.691l11.363-32.562c1.903-5.456 9.621-5.456 11.525 0z"/></g></g><g><path d="m351.365 98.884-161.904-94.487c-21.198-12.371-48.965 3.379-48.965 28.002v205.045c-10.297-4.17-21.547-6.474-33.328-6.474-15.601 0-30.971 4.112-44.449 11.894-8.399 4.848-.898 17.837 7.5 12.99 11.201-6.466 23.978-9.884 36.949-9.884 40.708 0 73.826 32.99 73.826 73.54s-33.118 73.539-73.826 73.539-73.826-32.989-73.826-73.539c0-13.666 3.8-27.013 10.988-38.599 5.112-8.24-7.633-16.148-12.746-7.908-8.663 13.962-13.242 30.044-13.242 46.507 0 48.82 39.848 88.539 88.827 88.539 46.732 0 85.148-36.158 88.576-81.88.524-1.18.25-216.595.25-216.595l122.165 71.296v160.441c-10.297-4.17-21.547-6.474-33.328-6.474-48.979 0-88.826 39.719-88.826 88.54 0 48.82 39.847 88.539 88.826 88.539 46.732 0 85.149-36.158 88.576-81.88.669-.995.25-120.337.25-120.337 0-9.697-15-9.697-15 0v64.498c-6.709-9.974-15.397-18.517-25.499-25.072v-159.501l25.499 14.881v56.424c0 9.697 15 9.697 15 0v-119.815c.553-17.036-7.332-33.498-22.293-42.23zm7.293 324.494c0 40.55-33.119 73.539-73.827 73.539s-73.826-32.989-73.826-73.539 33.118-73.54 73.826-73.54 73.827 32.99 73.827 73.54zm-177.663-153.048c-6.709-9.974-15.397-18.517-25.498-25.072v-159.319l25.498 14.881zm-25.498-201.758v-36.173c0-13.166 15.009-21.698 26.404-15.047l161.904 94.487c10.291 6.005 15.653 17.592 14.854 29.274v46.024z"/><path d="m42.139 178.347c1.934 5.541 6.976 9.121 12.845 9.12 5.869 0 10.91-3.58 12.843-9.121l11.149-31.949 22.243-8.499c5.314-2.031 8.748-7.019 8.748-12.707 0-5.689-3.434-10.677-8.749-12.708l-22.242-8.498-11.149-31.949c-4.191-12.012-21.496-12.01-25.688 0l-11.149 31.949-22.242 8.498c-5.314 2.03-8.748 7.019-8.748 12.708 0 5.688 3.434 10.677 8.748 12.707l22.242 8.499zm-5.186-60.583c3.752-1.435 6.664-4.434 7.986-8.226l10.044-28.782 10.044 28.781c1.323 3.793 4.234 6.792 7.989 8.228l19.435 7.426-19.434 7.425c-3.754 1.434-6.667 4.433-7.989 8.227l-10.044 28.783-10.044-28.782c-1.323-3.795-4.236-6.794-7.988-8.227l-19.435-7.426z"/><path d="m503.252 276.886-22.242-8.499-11.148-31.948c-1.933-5.541-6.975-9.122-12.843-9.122 0 0 0 0-.001 0-5.869 0-10.91 3.581-12.844 9.122l-11.149 31.948-22.242 8.499c-5.314 2.03-8.748 7.019-8.748 12.707 0 5.689 3.434 10.678 8.749 12.708l22.241 8.498 11.149 31.949c1.934 5.542 6.976 9.122 12.845 9.122s10.91-3.581 12.843-9.122l11.149-31.949 22.243-8.498c5.313-2.031 8.747-7.019 8.747-12.708-.001-5.688-3.435-10.675-8.749-12.707zm-28.205 20.134c-3.752 1.435-6.664 4.434-7.986 8.226l-10.044 28.783-10.044-28.782c-1.323-3.793-4.234-6.792-7.989-8.228l-19.434-7.426 19.433-7.425c3.754-1.434 6.667-4.433 7.989-8.227l10.044-28.782 10.044 28.781c1.323 3.795 4.236 6.794 7.989 8.227l19.435 7.426z"/></g></g></svg>