<svg id="Layer_1" enable-background="new 0 0 512 512" height="512" viewBox="0 0 512 512" width="512" xmlns="http://www.w3.org/2000/svg"><g><g><g><g><g><g><path d="m149.628 70.497h286.074v336.954h-286.074z" fill="#fff7e8"/></g></g><g><g><path d="m112.963 38.998h286.074v336.954h-286.074z" fill="#ffd88f"/></g></g><g><g><path d="m76.298 7.5h286.074v336.954h-286.074z" fill="#fff7e8"/></g></g></g><path d="m41.714 504.5h428.573c18.343 0 33.214-15.028 33.214-33.567v-248.178c0-18.538-14.87-33.567-33.214-33.567h-321.622c-11.22 0-21.682-5.725-27.814-15.221l-9.244-14.314c-6.132-9.496-16.594-15.221-27.814-15.221h-42.08c-18.343.001-33.213 15.029-33.213 33.568v292.934c0 18.538 14.87 33.566 33.214 33.566z" fill="#b5e8e0"/><g fill="#97dbd1"><path d="m71.608 159.654 9.244 14.314c6.132 9.496 16.594 15.221 27.814 15.221h40c-11.22 0-21.682-5.725-27.814-15.221l-9.244-14.314c-6.132-9.496-16.594-15.221-27.814-15.221h-40c11.22 0 21.682 5.725 27.814 15.221z"/><path d="m470.286 189.188h-40c18.343 0 33.214 15.028 33.214 33.567v248.178c0 18.538-14.87 33.567-33.214 33.567h40c18.343 0 33.214-15.028 33.214-33.567v-248.178c0-18.538-14.87-33.567-33.214-33.567z"/></g><g><path d="m41.714 504.5h428.573c18.343 0 33.213-15.028 33.213-33.567v-31.941h-495v31.941c0 18.539 14.87 33.567 33.214 33.567z" fill="#59a1a5"/></g><path d="m463.5 438.992v31.941c0 18.539-14.87 33.567-33.213 33.567h40c18.343 0 33.213-15.028 33.213-33.567v-31.941z" fill="#419296"/></g><path d="m315.682 361.443h-119.364c-22.366 0-40.498-18.132-40.498-40.498 0-22.366 18.132-40.498 40.498-40.498h119.364c22.366 0 40.498 18.132 40.498 40.498 0 22.366-18.132 40.498-40.498 40.498z" fill="#fff7e8"/></g><g><path d="m470.287 181.688h-27.085v-111.191c0-4.143-3.358-7.5-7.5-7.5h-29.165v-23.999c0-4.143-3.358-7.5-7.5-7.5h-29.165v-23.998c0-4.143-3.358-7.5-7.5-7.5h-286.074c-4.142 0-7.5 3.357-7.5 7.5v40.167c0 9.697 15 9.697 15 0v-32.667h271.074v166.688h-206.206c-8.703 0-16.746-4.407-21.514-11.789l-9.244-14.313c-7.542-11.679-20.293-18.652-34.11-18.653v-49.266c0-9.697-15-9.697-15 0v49.266h-27.085c-22.449 0-40.713 18.422-40.713 41.067v292.934c0 22.644 18.264 41.066 40.713 41.066h428.573c22.45 0 40.714-18.422 40.714-41.066v-248.178c0-22.645-18.264-41.068-40.713-41.068zm-42.085-103.691v103.691h-21.665v-103.691zm-58.33-31.499h21.665v135.19h-21.665zm100.415 450.502h-428.574c-14.178 0-25.713-11.693-25.713-26.066v-24.441h399.985c9.697 0 9.697-15 0-15h-399.985v-253.493c0-14.374 11.535-26.067 25.713-26.067h42.081c8.704 0 16.746 4.407 21.514 11.79l9.244 14.314c7.543 11.679 20.296 18.651 34.114 18.651h321.621c14.178 0 25.713 11.693 25.713 26.067v208.736h-40.091c-9.697 0-9.697 15 0 15h40.091v24.441c0 14.375-11.535 26.068-25.713 26.068z"/><path d="m315.682 272.946h-119.364c-26.466 0-47.998 21.532-47.998 47.998s21.532 47.998 47.998 47.998h119.363c26.466 0 47.998-21.532 47.998-47.998s-21.531-47.998-47.997-47.998zm0 80.996h-119.364c-18.195 0-32.998-14.803-32.998-32.998s14.803-32.998 32.998-32.998h119.363c18.195 0 32.998 14.803 32.998 32.998s-14.802 32.998-32.997 32.998z"/></g></g></svg>