<svg id="Layer_1" enable-background="new 0 0 511.905 511.905" height="512" viewBox="0 0 511.905 511.905" width="512" xmlns="http://www.w3.org/2000/svg"><g><g><path d="m504.398 152.89c.074-10.22-9.591-18.32-19.655-16.422l-51.788 9.611c-9.011 1.683-14.949 10.34-13.262 19.338 1.685 8.996 10.354 14.931 19.37 13.24l6.839-1.214-50.412 61.041-173.811-224.799c-6.63-8.572-20.315-8.361-26.65.496l-184.447 257.892c-12.391 17.326 14.609 36.609 27.019 19.261l171.457-239.73 172.863 223.576c6.343 8.203 19.315 8.451 25.948.417l63.335-76.223v6.432c.893 21.485 33.328 21.266 33.199-.188z" fill="#ff7893"/><g><path d="m38.758 375.988v128.407h72v-128.407c0-35.011-44.915-49.42-65.282-20.942-4.369 6.108-6.718 13.431-6.718 20.942z" fill="#b5e8e0"/><path d="m56.634 344.709c10.445 5.857 18.124 16.805 18.124 31.279v128.407h36v-128.407c0-29.507-31.901-44.378-54.124-31.279z" fill="#97dbd1"/><path d="m326.758 375.988v128.407h72v-128.407c0-35.011-44.915-49.42-65.282-20.942-4.369 6.108-6.718 13.431-6.718 20.942z" fill="#b5e8e0"/><path d="m345.454 344.245c10.875 5.732 18.971 16.879 18.971 31.742v128.407h34.333v-128.406c0-29.146-31.125-44.009-53.304-31.743z" fill="#97dbd1"/><path d="m110.758 275.316v229.078h72v-229.078c0-35.011-44.915-49.419-65.282-20.942-4.369 6.109-6.718 13.432-6.718 20.942z" fill="#ff9e5e"/><path d="m128.634 244.038c10.445 5.857 18.124 16.804 18.124 31.279v229.078h36v-229.079c0-29.506-31.901-44.377-54.124-31.278z" fill="#fa8d46"/><path d="m398.758 355.316v149.078h72v-149.078c0-35.011-44.915-49.419-65.281-20.942-4.37 6.109-6.719 13.432-6.719 20.942z" fill="#ff9e5e"/><path d="m416.634 324.038c10.445 5.857 18.124 16.804 18.124 31.279v149.078h36v-149.079c0-29.506-31.901-44.377-54.124-31.278z" fill="#fa8d46"/><path d="m254.758 290.757v213.638h72v-213.638c0-7.97-2.645-15.715-7.52-22.02-20.998-27.159-64.48-12.31-64.48 22.02z" fill="#59a1a5"/><path d="m319.238 268.737c-12.008-15.531-31.367-17.32-45.744-9.588 4.027 2.269 7.765 5.435 10.976 9.588 4.875 6.305 7.52 14.05 7.52 22.02v213.637h34.768v-213.637c0-7.97-2.645-15.715-7.52-22.02z" fill="#419296"/><path d="m182.758 185.988v318.407h72v-318.407c0-35.011-44.915-49.42-65.282-20.942-4.369 6.108-6.718 13.431-6.718 20.942z" fill="#ffd88f"/><path d="m200.634 154.709c10.445 5.857 18.125 16.805 18.125 31.279v318.407h36v-318.407c-.001-29.507-31.902-44.378-54.125-31.279z" fill="#ffc963"/></g></g><g><path d="m511.898 152.945c.106-14.63-14.096-26.568-28.523-23.851l-51.798 9.613c-24.288 4.537-26.01 40.096-2.103 46.85l-33.791 40.917-168.071-217.377c-9.61-12.428-29.56-12.032-38.684.72l-103.056 144.094c-5.641 7.888 6.561 16.615 12.201 8.727l103.056-144.093c3.38-4.726 11.058-4.872 14.617-.271l173.811 224.801c3.846 3.819 7.751 3.882 11.717.188l50.412-61.042c4.347-5.263-.362-13.368-7.094-12.16l-6.911 1.228c-11.551 2.139-14.914-15.671-3.357-17.833l51.811-9.615c5.434-1.03 10.805 3.554 10.765 9.053l.006 52.771c.069 11.614-17.617 11.222-18.199-.028v-6.26c0-6.874-8.876-10.083-13.269-4.793l-63.351 76.24c-3.544 4.292-10.831 4.169-14.23-.229l-172.866-223.58c-4.087-3.956-8.098-3.882-12.034.225l-171.456 239.73c-6.425 8.983-21.453-1.258-14.818-10.534l58.25-81.445c5.641-7.888-6.559-16.613-12.201-8.727l-58.251 81.446c-17.662 24.697 21.378 52.93 39.22 27.987l165.591-231.529 166.696 215.6c9.107 11.779 28.139 12.141 37.649.623l52.883-63.644c11.164 21.539 45.529 13.207 45.384-11.13z"/><path d="m448.046 313.896c-18.354-5.89-37.458.438-48.67 16.115-3.112 4.351-5.356 9.159-6.688 14.229-15.998-14.889-41.948-15.713-58.43-1.189v-52.294c0-36.869-44.237-56.675-71.999-32.98v-71.789c0-55.836-87.001-56.425-87.001 0v56.305c-27.855-23.676-71.999-3.814-71.999 33.023v67.648c-27.855-23.677-72-3.812-72 33.023v128.406c0 4.143 3.357 7.5 7.5 7.5h431.999c4.143 0 7.5-3.357 7.5-7.5v-149.077c0-19.274-11.859-35.532-30.212-41.42zm-166.498-50.11c18.121-6.186 37.71 7.711 37.71 26.971v206.138h-56.999v-206.185c.021-15 9.973-23.743 19.289-26.924zm-235.289 112.202c0-37.107 57-37.001 57 0v120.906h-57zm72-100.672c0-37.105 56.999-37 56.999 0v221.578h-56.999zm71.999-89.328c0-37.107 57.001-37.001 57.001 0v104.717c0 .017-.001.034-.001.051 0 .007.001.013.001.019v206.118h-57.001zm273 310.906h-57v-28.021c0-9.697-15-9.697-15 0v28.021h-57v-120.906c0-36.591 56.949-37.06 57-.047v52.992c0 9.697 15 9.697 15 0v-52.926c0-.007.001-.013.001-.019 0-.017-.001-.034-.001-.051v-20.621c0-5.98 1.839-11.713 5.319-16.578 8.916-12.467 22.32-13.628 31.887-10.559 9.569 3.069 19.794 11.811 19.794 27.137z"/></g></g></svg>