<svg id="Layer_1" enable-background="new 0 0 512 512" height="512" viewBox="0 0 512 512" width="512" xmlns="http://www.w3.org/2000/svg"><g><g><g><g><g><path d="m422.76 433.604h-333.52c-10.581 0-19.158-8.577-19.158-19.158v-387.788c0-10.581 8.578-19.158 19.158-19.158h333.52c10.581 0 19.158 8.577 19.158 19.158v387.788c0 10.581-8.578 19.158-19.158 19.158z" fill="#fff7e8"/><path d="m422.76 7.5h-40c10.581 0 19.158 8.577 19.158 19.158v387.788c0 10.581-8.577 19.158-19.158 19.158h40c10.581 0 19.158-8.577 19.158-19.158v-387.788c-.001-10.581-8.578-19.158-19.158-19.158z" fill="#fff1d6"/><path d="m441.918 75.714h-371.836v-49.056c0-10.581 8.578-19.158 19.158-19.158h333.52c10.581 0 19.158 8.577 19.158 19.158z" fill="#59a1a5"/><path d="m422.76 7.5h-40c10.581 0 19.158 8.577 19.158 19.158v49.057h40v-49.057c-.001-10.581-8.578-19.158-19.158-19.158z" fill="#419296"/></g></g></g><g><path d="m448.833 504.5h-385.666c-30.744 0-55.667-24.923-55.667-55.667 0-30.744 24.923-55.667 55.667-55.667h385.666c30.744 0 55.667 24.923 55.667 55.667 0 30.744-24.923 55.667-55.667 55.667z" fill="#ffd88f"/><path d="m448.833 393.166h-40c30.744 0 55.667 24.923 55.667 55.667 0 30.744-24.923 55.667-55.667 55.667h40c30.744 0 55.667-24.923 55.667-55.667 0-30.744-24.923-55.667-55.667-55.667z" fill="#ffc963"/></g></g><g><path d="m109.835 34.005c-9.652 0-9.668 15 0 15 9.652 0 9.668-15 0-15z"/><path d="m141.982 34.005c-9.652 0-9.668 15 0 15 9.652 0 9.668-15 0-15z"/><path d="m174.129 34.005c-9.652 0-9.668 15 0 15 9.652 0 9.668-15 0-15z"/><path d="m449.418 385.681v-359.023c0-14.699-11.959-26.658-26.658-26.658h-333.52c-14.699 0-26.658 11.959-26.658 26.658v87.342c0 4.143 3.357 7.5 7.5 7.5s7.5-3.357 7.5-7.5v-30.785h356.836v302.451h-356.836v-228.794c0-4.143-3.357-7.5-7.5-7.5s-7.5 3.357-7.5 7.5v228.809c-34.561.317-62.582 28.518-62.582 63.152 0 34.83 28.337 63.167 63.167 63.167h273.825c9.697 0 9.697-15 0-15h-273.825c-26.56 0-48.167-21.607-48.167-48.167s21.607-48.167 48.167-48.167h385.666c26.56 0 48.167 21.607 48.167 48.167s-21.607 48.167-48.167 48.167h-71.878c-9.697 0-9.697 15 0 15h71.878c34.83 0 63.167-28.337 63.167-63.167 0-34.634-28.021-62.835-62.582-63.152zm-371.836-317.466v-41.557c0-6.429 5.23-11.658 11.658-11.658h333.52c6.429 0 11.658 5.229 11.658 11.658v41.557z"/><path d="m431.079 415.389c-15.312 0-27.771 12.458-27.771 27.771s12.458 27.771 27.771 27.771c5.287 0 10.234-1.487 14.445-4.062l11.212 11.212c6.859 6.855 17.464-3.749 10.607-10.607l-11.592-11.592c1.975-3.814 3.098-8.138 3.098-12.721.001-15.314-12.457-27.772-27.77-27.772zm-12.77 27.77c0-7.042 5.729-12.771 12.771-12.771s12.771 5.729 12.771 12.771-5.729 12.771-12.771 12.771-12.771-5.729-12.771-12.771z"/><path d="m205.899 204.074c-2.93-2.928-7.678-2.928-10.607 0l-31.371 31.371c-2.929 3.536-2.928 7.072.001 10.607l31.37 31.37c6.859 6.854 17.464-3.75 10.606-10.607l-26.067-26.066 26.068-26.067c2.929-2.93 2.929-7.678 0-10.608z"/><path d="m306.101 277.422c3.536 2.929 7.071 2.93 10.607.001l31.37-31.37c2.929-3.536 2.93-7.071.001-10.607l-31.371-31.371c-6.859-6.854-17.464 3.749-10.607 10.607l26.068 26.067-26.067 26.066c-2.93 2.93-2.93 7.678-.001 10.607z"/><path d="m235.888 315.981c3.234 0 6.219-2.108 7.187-5.367l40.23-135.462c2.762-9.296-11.617-13.564-14.379-4.27l-40.23 135.462c-1.321 4.445 2.671 9.637 7.192 9.637z"/></g></g></svg>