<svg id="Layer_1" enable-background="new 0 0 512 512" height="512" viewBox="0 0 512 512" width="512" xmlns="http://www.w3.org/2000/svg"><g><g><g><path d="m462.778 504.5h-413.556c-23.042 0-41.722-18.68-41.722-41.722v-413.556c0-23.043 18.68-41.722 41.722-41.722h413.556c23.042 0 41.722 18.68 41.722 41.722v413.556c0 23.042-18.68 41.722-41.722 41.722z" fill="#fff7e8"/><path d="m462.778 7.5h-40c23.042 0 41.722 18.68 41.722 41.722v413.556c0 23.042-18.68 41.722-41.722 41.722h40c23.042 0 41.722-18.679 41.722-41.722v-413.556c0-23.043-18.68-41.722-41.722-41.722z" fill="#fff1d6"/><path d="m504.5 131.391h-497v-82.17c0-23.042 18.68-41.721 41.722-41.721h413.556c23.042 0 41.722 18.68 41.722 41.722z" fill="#ff7893"/><path d="m462.778 7.5h-40c23.042 0 41.722 18.68 41.722 41.722v82.17h40v-82.17c0-23.043-18.68-41.722-41.722-41.722z" fill="#ff5e7f"/></g><g><g><g fill="#ffd88f"><path d="m95.337 246.213c-17.457 0-31.609-14.152-31.609-31.609 0-17.457 14.152-31.609 31.609-31.609 17.457 0 31.609 14.152 31.609 31.609 0 17.457-14.152 31.609-31.609 31.609z"/><path d="m202.446 246.213c-17.457 0-31.609-14.152-31.609-31.609 0-17.457 14.152-31.609 31.609-31.609 17.457 0 31.609 14.152 31.609 31.609 0 17.457-14.152 31.609-31.609 31.609z"/><path d="m309.554 246.213c-17.457 0-31.609-14.152-31.609-31.609 0-17.457 14.152-31.609 31.609-31.609 17.457 0 31.609 14.152 31.609 31.609.001 17.457-14.151 31.609-31.609 31.609z"/></g><path d="m416.663 246.213c-17.457 0-31.609-14.152-31.609-31.609 0-17.457 14.152-31.609 31.609-31.609 17.457 0 31.609 14.152 31.609 31.609 0 17.457-14.152 31.609-31.609 31.609z" fill="#b5e8e0"/></g><g><g fill="#ffd88f"><path d="m95.337 349.124c-17.457 0-31.609-14.152-31.609-31.609 0-17.457 14.152-31.609 31.609-31.609 17.457 0 31.609 14.152 31.609 31.609 0 17.457-14.152 31.609-31.609 31.609z"/><path d="m202.446 349.124c-17.457 0-31.609-14.152-31.609-31.609 0-17.457 14.152-31.609 31.609-31.609 17.457 0 31.609 14.152 31.609 31.609 0 17.457-14.152 31.609-31.609 31.609z"/><path d="m309.554 349.124c-17.457 0-31.609-14.152-31.609-31.609 0-17.457 14.152-31.609 31.609-31.609 17.457 0 31.609 14.152 31.609 31.609.001 17.457-14.151 31.609-31.609 31.609z"/></g><path d="m416.663 349.124c-17.457 0-31.609-14.152-31.609-31.609 0-17.457 14.152-31.609 31.609-31.609 17.457 0 31.609 14.152 31.609 31.609 0 17.457-14.152 31.609-31.609 31.609z" fill="#b5e8e0"/></g><g><g fill="#ffd88f"><path d="m95.337 452.036c-17.457 0-31.609-14.152-31.609-31.609 0-17.457 14.152-31.609 31.609-31.609 17.457 0 31.609 14.152 31.609 31.609 0 17.457-14.152 31.609-31.609 31.609z"/><path d="m202.446 452.036c-17.457 0-31.609-14.152-31.609-31.609 0-17.457 14.152-31.609 31.609-31.609 17.457 0 31.609 14.152 31.609 31.609 0 17.457-14.152 31.609-31.609 31.609z"/><path d="m309.554 452.036c-17.457 0-31.609-14.152-31.609-31.609 0-17.457 14.152-31.609 31.609-31.609 17.457 0 31.609 14.152 31.609 31.609.001 17.457-14.151 31.609-31.609 31.609z"/></g><path d="m416.663 452.036c-17.457 0-31.609-14.152-31.609-31.609 0-17.457 14.152-31.609 31.609-31.609 17.457 0 31.609 14.152 31.609 31.609 0 17.457-14.152 31.609-31.609 31.609z" fill="#b5e8e0"/></g></g></g><g><path d="m462.778 0h-344.806c-4.142 0-7.5 3.357-7.5 7.5s3.358 7.5 7.5 7.5h344.806c18.87 0 34.222 15.352 34.222 34.222v74.67h-482v-74.67c0-18.87 15.352-34.222 34.222-34.222h28.773c4.142 0 7.5-3.357 7.5-7.5s-3.357-7.5-7.499-7.5h-28.774c-27.141 0-49.222 22.081-49.222 49.222v413.557c0 27.14 22.081 49.221 49.222 49.221h413.556c27.141 0 49.222-22.081 49.222-49.222v-413.556c0-27.141-22.081-49.222-49.222-49.222zm0 497h-413.556c-18.87 0-34.222-15.352-34.222-34.222v-323.886h482v323.887c0 18.869-15.352 34.221-34.222 34.221z"/><path d="m95.337 175.494c-21.565 0-39.109 17.544-39.109 39.109s17.544 39.109 39.109 39.109 39.109-17.544 39.109-39.109-17.544-39.109-39.109-39.109zm0 63.219c-13.294 0-24.109-10.815-24.109-24.109s10.815-24.109 24.109-24.109 24.109 10.815 24.109 24.109-10.815 24.109-24.109 24.109z"/><path d="m202.446 175.494c-21.565 0-39.109 17.544-39.109 39.109s17.544 39.109 39.109 39.109 39.109-17.544 39.109-39.109-17.544-39.109-39.109-39.109zm0 63.219c-13.294 0-24.109-10.815-24.109-24.109s10.815-24.109 24.109-24.109 24.109 10.815 24.109 24.109-10.815 24.109-24.109 24.109z"/><path d="m309.555 175.494c-21.565 0-39.109 17.544-39.109 39.109s17.544 39.109 39.109 39.109 39.109-17.544 39.109-39.109-17.544-39.109-39.109-39.109zm0 63.219c-13.294 0-24.109-10.815-24.109-24.109s10.815-24.109 24.109-24.109 24.109 10.815 24.109 24.109-10.815 24.109-24.109 24.109z"/><path d="m416.663 175.494c-21.565 0-39.109 17.544-39.109 39.109s17.544 39.109 39.109 39.109 39.109-17.544 39.109-39.109-17.543-39.109-39.109-39.109zm0 63.219c-13.294 0-24.109-10.815-24.109-24.109s10.815-24.109 24.109-24.109 24.109 10.815 24.109 24.109-10.815 24.109-24.109 24.109z"/><path d="m95.337 278.405c-21.565 0-39.109 17.544-39.109 39.109s17.544 39.109 39.109 39.109 39.109-17.544 39.109-39.109-17.544-39.109-39.109-39.109zm0 63.219c-13.294 0-24.109-10.815-24.109-24.109s10.815-24.109 24.109-24.109 24.109 10.815 24.109 24.109-10.815 24.109-24.109 24.109z"/><path d="m202.446 278.405c-21.565 0-39.109 17.544-39.109 39.109s17.544 39.109 39.109 39.109 39.109-17.544 39.109-39.109-17.544-39.109-39.109-39.109zm0 63.219c-13.294 0-24.109-10.815-24.109-24.109s10.815-24.109 24.109-24.109 24.109 10.815 24.109 24.109-10.815 24.109-24.109 24.109z"/><path d="m309.555 278.405c-21.565 0-39.109 17.544-39.109 39.109s17.544 39.109 39.109 39.109 39.109-17.544 39.109-39.109-17.544-39.109-39.109-39.109zm0 63.219c-13.294 0-24.109-10.815-24.109-24.109s10.815-24.109 24.109-24.109 24.109 10.815 24.109 24.109-10.815 24.109-24.109 24.109z"/><path d="m416.663 278.405c-21.565 0-39.109 17.544-39.109 39.109s17.544 39.109 39.109 39.109 39.109-17.544 39.109-39.109-17.543-39.109-39.109-39.109zm0 63.219c-13.294 0-24.109-10.815-24.109-24.109s10.815-24.109 24.109-24.109 24.109 10.815 24.109 24.109-10.815 24.109-24.109 24.109z"/><path d="m95.337 381.316c-21.565 0-39.109 17.544-39.109 39.109s17.544 39.109 39.109 39.109 39.109-17.544 39.109-39.109-17.544-39.109-39.109-39.109zm0 63.219c-13.294 0-24.109-10.815-24.109-24.109s10.815-24.109 24.109-24.109 24.109 10.815 24.109 24.109-10.815 24.109-24.109 24.109z"/><path d="m202.446 381.316c-21.565 0-39.109 17.544-39.109 39.109s17.544 39.109 39.109 39.109 39.109-17.544 39.109-39.109-17.544-39.109-39.109-39.109zm0 63.219c-13.294 0-24.109-10.815-24.109-24.109s10.815-24.109 24.109-24.109 24.109 10.815 24.109 24.109-10.815 24.109-24.109 24.109z"/><path d="m309.555 381.316c-21.565 0-39.109 17.544-39.109 39.109s17.544 39.109 39.109 39.109 39.109-17.544 39.109-39.109-17.544-39.109-39.109-39.109zm0 63.219c-13.294 0-24.109-10.815-24.109-24.109s10.815-24.109 24.109-24.109 24.109 10.815 24.109 24.109-10.815 24.109-24.109 24.109z"/><path d="m444.94 404.429c-3.979 1.15-6.272 5.31-5.122 9.288.633 2.189.954 4.446.954 6.71 0 13.294-10.815 24.109-24.109 24.109s-24.109-10.815-24.109-24.109c0-13.085 10.645-23.896 23.729-24.099 4.142-.064 7.447-3.474 7.383-7.615-.063-4.103-3.408-7.384-7.497-7.384-.039 0-.079 0-.118.001-21.227.33-38.496 17.868-38.496 39.097 0 21.565 17.544 39.109 39.109 39.109s39.109-17.544 39.109-39.109c0-3.674-.52-7.333-1.544-10.876-1.151-3.98-5.314-6.27-9.289-5.122z"/><path d="m369.113 76.945c4.143 0 7.5-3.357 7.5-7.5s-3.357-7.5-7.5-7.5h-226.226c-4.142 0-7.5 3.357-7.5 7.5s3.358 7.5 7.5 7.5z"/></g></g></svg>