<svg id="Layer_1" enable-background="new 0 0 512 512" height="512" viewBox="0 0 512 512" width="512" xmlns="http://www.w3.org/2000/svg"><g><g><g><g><g><path d="m360.018 411.243 97.148 50.025v-188.632l-97.148 50.025z" fill="#59a1a5"/><path d="m480.67 490.156c-13.161 0-23.83-10.659-23.83-23.809v-198.79c0-13.149 10.669-23.808 23.83-23.808 13.161 0 23.83 10.659 23.83 23.808v198.79c0 13.149-10.669 23.809-23.83 23.809z" fill="#b5e8e0"/></g><path d="m31.33 362.594c-13.161 0-23.83-10.66-23.83-23.809v-28.79c0-13.149 10.669-23.808 23.83-23.808h13.83v76.407z" fill="#59a1a5"/></g><path d="m327.841 504.5h-250.25c-17.911 0-32.431-14.52-32.431-32.431v-210.234c0-17.911 14.52-32.431 32.431-32.431h250.251c17.911 0 32.431 14.52 32.431 32.431v210.234c-.001 17.911-14.521 32.431-32.432 32.431z" fill="#b5e8e0"/><path d="m327.841 229.404h-40c17.911 0 32.431 14.52 32.431 32.431v210.234c0 17.911-14.52 32.431-32.431 32.431h40c17.911 0 32.431-14.52 32.431-32.431v-210.234c0-17.911-14.52-32.431-32.431-32.431z" fill="#97dbd1"/></g><g><path d="m329.469 134.138c0-69.94-56.749-126.638-126.753-126.638s-126.753 56.698-126.753 126.638c0 61.589 44.013 112.886 102.323 124.264l24.43 42.275 24.43-42.275c58.31-11.378 102.323-62.675 102.323-124.264z" fill="#fff7e8"/><g><path d="m226.26 172.139c18.844-8.845 31.895-27.967 31.895-50.142 0-30.586-24.821-55.382-55.44-55.382-30.618 0-55.439 24.795-55.439 55.382 0 22.175 13.052 41.297 31.895 50.142-28.334 7.801-50.963 29.323-60.282 56.963 16.534 14.573 36.899 24.91 59.397 29.3l24.43 42.275 24.43-42.275c22.497-4.39 42.863-14.727 59.397-29.3-9.32-27.64-31.949-49.162-60.283-56.963z" fill="#ff7893"/></g><path d="m226.26 172.139c18.844-8.845 31.895-27.967 31.895-50.142 0-30.586-24.821-55.382-55.44-55.382-7.054 0-13.794 1.33-20 3.73 20.731 8.017 35.44 28.112 35.44 51.652 0 22.175-13.052 41.297-31.895 50.142 28.334 7.801 50.963 29.323 60.282 56.963-13.333 11.752-29.158 20.749-46.583 26.094-7.019 2.153-14.331 3.206-21.673 3.206l24.43 42.275 24.43-42.275c22.497-4.39 42.863-14.727 59.397-29.3-9.32-27.64-31.949-49.162-60.283-56.963z" fill="#ff5e7f"/></g></g><path d="m480.67 236.248c-17.275 0-31.33 14.045-31.33 31.309v.673l-81.568 42.003v-48.397c0-22.018-17.913-39.931-39.931-39.931h-23.626c20.997-24.22 32.753-55.277 32.753-87.767.001-73.964-60.225-134.138-134.252-134.138-23.307 0-46.269 6.062-66.402 17.531-8.426 4.799-1.001 17.835 7.425 13.033 17.875-10.182 38.269-15.564 58.977-15.564 65.756 0 119.252 53.445 119.252 119.138 0 30.645-11.774 59.858-32.656 81.885-9.65-20.233-26.047-36.386-46.324-45.732 14.111-11.799 22.667-29.47 22.667-48.294 0-34.673-28.234-62.882-62.939-62.882s-62.94 28.209-62.94 62.882c0 18.824 8.557 36.495 22.667 48.294-20.274 9.346-36.67 25.496-46.32 45.726-20.867-22.029-32.66-51.312-32.66-81.879 0-28.485 10.222-56.051 28.782-77.621 6.325-7.35-5.046-17.134-11.37-9.783-20.901 24.29-32.412 55.331-32.412 87.404 0 32.406 11.764 63.536 32.748 87.767h-23.62c-22.018 0-39.931 17.913-39.931 39.931v16.852h-6.33c-17.275-.001-31.33 14.043-31.33 31.307v28.79c0 17.264 14.055 31.309 31.33 31.309h6.33v101.976c0 22.017 17.913 39.93 39.931 39.93h250.25c22.018 0 39.931-17.913 39.931-39.931v-48.397l81.568 42.003v.673c0 17.264 14.055 31.309 31.33 31.309s31.33-14.046 31.33-31.309v-198.791c0-17.264-14.055-31.309-31.33-31.309zm-299.507-56.877c6.578-1.812 7.375-11.121 1.196-14.021-16.756-7.865-27.583-24.883-27.583-43.354 0-26.402 21.506-47.882 47.94-47.882s47.939 21.479 47.939 47.882c0 18.471-10.827 35.488-27.583 43.354-6.179 2.9-5.382 12.208 1.196 14.021 24.318 6.694 43.96 24.233 53.408 47.402-15.101 12.203-32.964 20.559-51.969 24.268-2.128.415-3.972 1.731-5.057 3.608l-17.936 31.037-17.936-31.037c-1.085-1.877-2.929-3.193-5.057-3.608-19.005-3.709-36.868-12.064-51.968-24.268 9.45-23.169 29.092-40.708 53.41-47.402zm-149.833 175.723c-9.004 0-16.33-7.316-16.33-16.309v-28.79c0-8.992 7.326-16.309 16.33-16.309h6.33v61.407h-6.33zm296.511 141.906h-250.25c-13.747 0-24.931-11.184-24.931-24.931v-210.234c0-13.747 11.184-24.931 24.931-24.931h38.888c16.497 13.827 36.07 23.503 56.992 28.154l22.752 39.371c2.838 4.91 10.149 4.911 12.987 0l22.751-39.371c20.922-4.651 40.494-14.328 56.992-28.154h38.888c13.747 0 24.931 11.184 24.931 24.931v210.234c0 13.747-11.184 24.931-24.931 24.931zm169.159-30.652c0 8.992-7.326 16.309-16.33 16.309s-16.33-7.316-16.33-16.309c0-12.79 0-25.581 0-38.371 0-9.697-15-9.697-15 0v20.826l-81.568-42.003v-79.695l81.568-42.003v102.941c0 9.697 15 9.697 15 0 0-40.162 0-80.324 0-120.486 0-8.992 7.326-16.309 16.33-16.309s16.33 7.316 16.33 16.309z"/></g></svg>