<svg id="Layer_1" enable-background="new 0 0 512 512" height="512" viewBox="0 0 512 512" width="512" xmlns="http://www.w3.org/2000/svg"><g><g><path d="m474.5 504.5h-437c-16.569 0-30-13.431-30-30v-272.183c0-16.569 13.431-30 30-30h437c16.569 0 30 13.431 30 30v272.183c0 16.569-13.431 30-30 30z" fill="#59a1a5"/><path d="m474.5 172.317h-40c16.568 0 30 13.432 30 30v272.183c0 16.568-13.432 30-30 30h40c16.568 0 30-13.432 30-30v-272.183c0-16.568-13.432-30-30-30z" fill="#419296"/><g><g><path d="m271.882 125.9 17.954-20.365v-98.035h-55.481c0 27.816-22.55 50.366-50.366 50.366s-50.367-22.55-50.367-50.366h-55.482v98.035l17.953 20.365-17.953 20.366v183.157h211.695v-183.157z" fill="#ffd88f"/><g><g><path d="" fill="none"/></g></g><path d="m232.382 377.688-96.789-48.265v-148.359h96.789z" fill="#ff9e5e"/></g><g><path d="m232.382 393.857h211.695v-291.923c0-16.569-13.431-30-30-30h-151.695c-16.569 0-30 13.431-30 30z" fill="#fff7e8"/><path d="m386.443 71.934h27.634c16.569 0 30 13.431 30 30v291.923h-57.634z" fill="#ff7893"/></g></g><g><path d="m256 353.384-248.5-106.401v227.517c0 16.569 13.431 30 30 30h437c16.569 0 30-13.431 30-30v-227.517z" fill="#b5e8e0"/></g><g><path d="m464.5 264.11v210.39c0 16.569-13.431 30-30 30h40c16.569 0 30-13.431 30-30v-227.517z" fill="#97dbd1"/></g></g><g><path d="m292.479 114.067c-4.143 0-7.5 3.357-7.5 7.5v126c0 9.697 15 9.697 15 0v-126c0-4.142-3.357-7.5-7.5-7.5z"/><path d="m474.5 164.817h-22.923v-62.883c0-20.678-16.822-37.5-37.5-37.5h-116.742v-56.934c0-4.143-3.357-7.5-7.5-7.5h-55.481c-4.143 0-7.5 3.357-7.5 7.5 0 23.637-19.229 42.866-42.866 42.866s-42.867-19.229-42.867-42.866c0-4.143-3.357-7.5-7.5-7.5h-55.481c-4.143 0-7.5 3.357-7.5 7.5v98.035c0 1.826.666 3.59 1.874 4.96l13.582 15.405-13.582 15.405c-1.208 1.37-1.874 3.134-1.874 4.96v18.552h-33.14c-20.678 0-37.5 16.822-37.5 37.5v272.183c0 20.678 16.822 37.5 37.5 37.5h36.074c9.697 0 9.697-15 0-15h-36.074c-12.406 0-22.5-10.094-22.5-22.5v-216.147l238.048 101.927c1.885.807 4.02.807 5.904 0l238.048-101.927v216.147c0 12.406-10.094 22.5-22.5 22.5h-361.068c-9.697 0-9.697 15 0 15h361.068c20.678 0 37.5-16.822 37.5-37.5v-272.183c0-20.677-16.822-37.5-37.5-37.5zm-388.86-15.717 16.08-18.239c2.499-2.835 2.499-7.085 0-9.92l-16.08-18.239v-87.702h40.965c3.689 28.377 28.017 50.366 57.383 50.366s53.693-21.989 57.382-50.366h40.965v49.435h-19.953c-20.678 0-37.5 16.822-37.5 37.5v71.63h-89.288c-4.143 0-7.5 3.357-7.5 7.5v109.395l-42.454-18.178zm139.242 182.802-81.788-35.02v-108.318h81.788zm-187.382-152.085h33.14v86.042l-55.64-23.824v-39.718c0-12.406 10.094-22.5 22.5-22.5zm218.5 165.41-16.118-6.901v-236.391c0-12.406 10.094-22.5 22.5-22.5h116.457c-.329 25.354-.297 50.347.106 76.146.146 9.424 15.152 9.643 14.998-.234-.401-25.72-.432-50.635-.102-75.912h20.237c12.406 0 22.5 10.094 22.5 22.5v165.972l-42.753 18.306c-.298-27.819-.272-55.931.118-83.767.133-9.415-14.859-10.096-14.998-.211-.421 30.038-.429 60.405-.053 90.372l-41.162 17.625v-188.665c0-9.697-15-9.697-15 0v195.087zm195.577-83.743v-81.667h22.923c12.406 0 22.5 10.094 22.5 22.5v39.718z"/></g></g></svg>