<svg id="Layer_1" enable-background="new 0 0 512 512" height="512" viewBox="0 0 512 512" width="512" xmlns="http://www.w3.org/2000/svg"><g><g><g><g><g><path d="m312.797 277.69h-88.173c-8.752 0-15.847-7.095-15.847-15.847v-88.173c0-8.752 7.095-15.847 15.847-15.847h88.173c8.752 0 15.847 7.095 15.847 15.847v88.173c0 8.752-7.095 15.847-15.847 15.847z" fill="#ff7893"/><path d="m160.903 197.903h-88.172c-8.752 0-15.847-7.095-15.847-15.847v-88.173c0-8.752 7.095-15.847 15.847-15.847h88.173c8.752 0 15.847 7.095 15.847 15.847v88.173c0 8.751-7.096 15.847-15.848 15.847z" fill="#59a1a5"/></g><path d="m220.837 127.367h-88.173c-8.752 0-15.847-7.095-15.847-15.847v-88.173c0-8.752 7.095-15.847 15.847-15.847h88.173c8.752 0 15.847 7.095 15.847 15.847v88.173c0 8.752-7.095 15.847-15.847 15.847z" fill="#ff9e5e"/><path d="m220.837 7.5h-40c8.752 0 15.847 7.095 15.847 15.847v88.173c0 8.752-7.095 15.847-15.847 15.847h40c8.752 0 15.847-7.095 15.847-15.847v-88.173c0-8.752-7.095-15.847-15.847-15.847z" fill="#fa8d46"/></g><g><path d="m461.671 141.807h-56.001c-9.477 0-17.702 6.636-19.839 16.008l-64.893 273.704-224.56.284c-12.846.131-22.589 12.972-19.588 25.555 2.18 9.139 10.337 15.884 19.997 15.787l237.755-.148c9.969 1.251 19.943-5.95 22.205-15.864l65.111-273.983h39.813c11.247 0 20.364-9.254 20.364-20.671 0-11.418-9.117-20.672-20.364-20.672z" fill="#ffd88f"/><path d="m362.625 431.425h-253.294c-21.932 0-41.024-15.216-46.228-36.843l-32.418-127.432c-3.64-14.309 7.073-28.241 21.717-28.241h356.089z" fill="#b5e8e0"/><path d="m368.491 238.909-45.866 192.516h40l45.866-192.516z" fill="#97dbd1"/><ellipse cx="165.809" cy="453.791" fill="#59a1a5" rx="49.955" ry="50.709"/><path d="m165.809 403.082c-7.114 0-13.875 1.519-20 4.24 17.631 7.83 29.955 25.685 29.955 46.469 0 20.785-12.324 38.639-29.955 46.469 6.125 2.72 12.886 4.24 20 4.24 27.589 0 49.955-22.703 49.955-50.709s-22.366-50.709-49.955-50.709z" fill="#419296"/><ellipse cx="313.272" cy="453.791" fill="#59a1a5" rx="49.955" ry="50.709"/><path d="m313.272 403.082c-7.309 0-14.243 1.606-20.5 4.469 17.362 7.944 29.455 25.653 29.455 46.24s-12.093 38.295-29.455 46.24c6.257 2.863 13.191 4.469 20.5 4.469 27.59 0 49.955-22.703 49.955-50.709.001-28.006-22.365-50.709-49.955-50.709z" fill="#419296"/></g></g></g><g><path d="m72.731 205.402h88.173c12.874 0 23.347-10.474 23.347-23.347v-47.188h36.586c12.874 0 23.347-10.474 23.347-23.348v-88.171c0-12.874-10.473-23.348-23.347-23.348h-88.173c-12.874 0-23.347 10.474-23.347 23.348v47.188h-36.586c-12.874 0-23.347 10.474-23.347 23.348v22.115c0 9.697 15 9.697 15 0v-22.116c0-4.603 3.745-8.348 8.347-8.348h36.586v25.984c0 12.874 10.474 23.348 23.347 23.348h36.586v47.188c0 4.603-3.745 8.347-8.347 8.347h-88.172c-4.603 0-8.347-3.744-8.347-8.347v-24.232c0-9.697-15-9.697-15 0v24.232c-.001 12.874 10.473 23.347 23.347 23.347zm51.586-93.882v-88.172c0-4.603 3.745-8.348 8.347-8.348h88.173c4.603 0 8.347 3.745 8.347 8.348v88.172c0 4.603-3.745 8.348-8.347 8.348h-88.173c-4.602-.001-8.347-3.746-8.347-8.348z"/><path d="m461.671 134.307h-56.001c-13.054 0-24.219 8.98-27.138 21.777l-17.859 75.325h-24.529v-57.739c0-12.873-10.474-23.347-23.348-23.347h-88.172c-12.874 0-23.348 10.474-23.348 23.347v57.739h-148.874c-9.265 0-17.853 4.212-23.562 11.555-5.769 7.42-7.745 16.909-5.424 26.035l32.395 127.339c3.474 14.437 12.25 26.357 23.928 33.881-8.483 6.706-12.766 18.31-10.245 28.88 3.037 12.724 14.148 21.548 27.014 21.547.095 0 .19 0 .286-.001l18.055-.016c9.595 18.621 28.829 31.371 50.96 31.371 22.165 0 41.425-12.79 51.004-31.461l45.436-.04c9.572 18.692 28.843 31.5 51.024 31.5 7.678 0 15.143-1.516 22.188-4.506 8.928-3.788 3.067-17.593-5.859-13.809-5.183 2.199-10.676 3.314-16.329 3.314-23.41 0-42.455-19.384-42.455-43.209s19.045-43.209 42.455-43.209 42.455 19.384 42.455 43.209c0 6.101-1.235 12.013-3.671 17.573-3.893 8.881 9.848 14.904 13.738 6.02 3.273-7.47 4.933-15.407 4.933-23.593 0-6.016-.906-11.822-2.586-17.284.843-.913 1.47-2.049 1.779-3.344l45.865-192.516c.001-.003.001-.006.002-.01l11.984-49.988h33.899c15.364 0 27.863-12.638 27.863-28.172 0-15.531-12.499-28.168-27.863-28.168zm-245.394 39.363c0-4.603 3.745-8.347 8.348-8.347h88.172c4.603 0 8.348 3.744 8.348 8.347v57.739h-104.868zm-119.565 291.975c-6.017.101-11.204-4.062-12.626-10.027-1.836-7.692 4.208-16.23 12.302-16.314l13.773-.017c-2.183 8.592-2.386 17.667-.608 26.347zm69.097 31.355c-23.41 0-42.456-19.384-42.456-43.209s19.045-43.209 42.456-43.209c23.41 0 42.455 19.384 42.455 43.209s-19.046 43.209-42.455 43.209zm56.279-31.465c.77-3.794 1.176-7.722 1.176-11.744 0-5.057-.643-9.965-1.845-14.646l36.256-.046c-1.21 4.695-1.858 9.618-1.858 14.692 0 4.011.403 7.928 1.169 11.713zm136.124-47.949c-10.535-13.395-26.759-22.004-44.939-22.004-20.91 0-39.241 11.379-49.293 28.343h-48.879c-10.051-16.963-28.383-28.343-49.293-28.343-21.054 0-39.488 11.539-49.494 28.696-21.044.115-40.639-9.509-45.943-31.544l-32.418-127.432c-1.172-4.607-.177-9.393 2.729-13.131 2.847-3.662 7.119-5.762 11.72-5.762h346.592zm103.459-241.937h-39.813c-3.469 0-6.484 2.379-7.293 5.752l-11.988 50.008h-26.487l17.053-71.927c1.366-5.991 6.518-10.176 12.527-10.176h56.001c7.093 0 12.863 5.908 12.863 13.171s-5.77 13.172-12.863 13.172z"/><path d="m279.139 128.019c4.143 0 7.5-3.357 7.5-7.5v-75.793c0-9.697-15-9.697-15 0v75.793c0 4.142 3.357 7.5 7.5 7.5z"/><path d="m315.09 128.019c4.143 0 7.5-3.357 7.5-7.5v-42.484c0-9.697-15-9.697-15 0v42.483c0 4.143 3.357 7.501 7.5 7.501z"/></g></g></svg>