<svg id="Layer_1" enable-background="new 0 0 511.479 511.479" height="512" viewBox="0 0 511.479 511.479" width="512" xmlns="http://www.w3.org/2000/svg"><g><g><g><g><path d="m45.661 465.886c-51.575-51.568-51.575-135.206 0-186.775l229.416-229.385c11.986-11.984 31.412-11.984 43.398 0l143.279 143.26c11.995 11.993 11.995 31.445 0 43.438l-229.494 229.462c-51.536 51.53-135.063 51.53-186.599 0z" fill="#b5e8e0"/><path d="m461.753 192.986-143.279-143.26c-11.436-11.435-29.641-11.95-41.699-1.564.579.499 1.149 1.014 1.699 1.564l143.279 143.26c11.995 11.993 11.995 31.445 0 43.438l-229.492 229.462c-20.665 20.662-46.473 33.03-73.3 37.122 40.078 6.114 82.428-6.255 113.3-37.122l229.492-229.462c11.995-11.993 11.995-31.445 0-43.438z" fill="#97dbd1"/><g fill="#fff7e8"><g><path d="m272.64 140.641c-8.181-8.18-8.181-21.448 0-29.629 8.175-8.174 21.426-8.174 29.601 0 8.182 8.18 8.182 21.448 0 29.629-8.175 8.174-21.425 8.174-29.601 0z"/><path d="m370.885 238.886c-8.181-8.18-8.181-21.448 0-29.629 8.175-8.174 21.426-8.174 29.601 0 8.182 8.18 8.182 21.448 0 29.629-8.175 8.174-21.425 8.174-29.601 0z"/><path d="m321.766 189.76c-8.182-8.18-8.182-21.448 0-29.628 8.175-8.174 21.426-8.174 29.601 0 8.181 8.18 8.181 21.448 0 29.628-8.175 8.175-21.426 8.175-29.601 0z"/></g><g><path d="m222.529 190.753c-8.182-8.18-8.182-21.448 0-29.629 8.175-8.174 21.426-8.174 29.601 0 8.181 8.18 8.181 21.448 0 29.629-8.176 8.174-21.426 8.174-29.601 0z"/><path d="m320.773 288.998c-8.181-8.18-8.181-21.448 0-29.629 8.175-8.174 21.426-8.174 29.601 0 8.181 8.18 8.181 21.448 0 29.629-8.175 8.174-21.425 8.174-29.601 0z"/><path d="m271.654 239.872c-8.182-8.18-8.182-21.448 0-29.629 8.175-8.174 21.425-8.174 29.601 0 8.181 8.18 8.181 21.448 0 29.629-8.175 8.174-21.425 8.174-29.601 0z"/></g></g></g></g><g><ellipse cx="200.464" cy="311.007" fill="#fff7e8" rx="70.611" ry="70.602"/><ellipse cx="200.465" cy="311.006" fill="#59a1a5" rx="29.921" ry="29.917"/></g></g><g><path d="m409.402 130.035c-6.857-6.857-17.463 3.752-10.605 10.607l57.653 57.646c8.874 8.872 8.894 23.938.001 32.831l-229.493 229.463c-48.522 48.517-127.473 48.517-175.995 0-47.993-47.987-47.998-128.175 0-176.167l229.416-229.385c9.042-9.042 23.752-9.04 32.792 0l57.522 57.516c6.857 6.856 17.464-3.751 10.605-10.607l-57.522-57.516c-14.89-14.887-39.115-14.888-54.003 0l-229.415 229.385c-53.806 53.798-53.814 143.575 0 197.382 53.678 53.67 143.52 53.678 197.206 0l229.492-229.462c14.733-14.731 14.732-39.314 0-54.046z"/><path d="m267.337 105.709c-5.374 5.373-8.333 12.518-8.333 20.117 0 7.6 2.959 14.745 8.332 20.118h.001c5.542 5.542 12.823 8.312 20.104 8.312s14.562-2.771 20.104-8.312c5.374-5.373 8.333-12.518 8.333-20.118 0-7.601-2.959-14.745-8.333-20.118-11.088-11.085-29.125-11.082-40.208.001zm29.602 29.628c-5.238 5.236-13.758 5.236-18.996 0h.001c-2.54-2.54-3.939-5.917-3.939-9.511 0-3.593 1.399-6.971 3.938-9.51 5.238-5.236 13.76-5.236 18.996 0 2.54 2.54 3.938 5.917 3.938 9.51 0 3.594-1.398 6.971-3.938 9.511z"/><path d="m385.686 252.501c7.28 0 14.562-2.771 20.104-8.312 11.093-11.094 11.093-29.143-.001-40.236-11.086-11.082-29.123-11.082-40.207 0-5.374 5.373-8.333 12.518-8.333 20.118s2.959 14.745 8.333 20.118c5.543 5.542 12.823 8.312 20.104 8.312zm-9.498-37.94c5.238-5.236 13.761-5.236 18.995 0 5.245 5.244 5.245 13.777.001 19.021-5.236 5.236-13.76 5.236-18.996 0-2.54-2.54-3.938-5.918-3.938-9.511s1.398-6.97 3.938-9.51z"/><path d="m336.567 203.377c7.279-.001 14.562-2.772 20.103-8.313 5.374-5.372 8.333-12.518 8.333-20.118s-2.959-14.745-8.332-20.117c-11.085-11.084-29.122-11.086-40.207 0-5.374 5.372-8.333 12.518-8.333 20.117 0 7.601 2.959 14.746 8.333 20.118 5.542 5.543 12.821 8.313 20.103 8.313zm-9.498-37.941c2.619-2.618 6.059-3.928 9.498-3.928s6.879 1.31 9.497 3.928c2.54 2.54 3.938 5.917 3.938 9.51 0 3.594-1.398 6.971-3.939 9.511-5.236 5.236-13.756 5.236-18.994 0-2.54-2.54-3.938-5.917-3.938-9.511-.001-3.593 1.398-6.97 3.938-9.51z"/><path d="m217.226 155.821c-5.374 5.373-8.333 12.518-8.333 20.118s2.959 14.745 8.333 20.118c5.542 5.542 12.822 8.312 20.104 8.312 7.28 0 14.561-2.771 20.103-8.312 5.374-5.373 8.333-12.518 8.333-20.118s-2.959-14.745-8.333-20.118c-11.085-11.084-29.123-11.082-40.207 0zm29.6 29.628c-5.239 5.237-13.758 5.235-18.995 0-2.54-2.54-3.938-5.918-3.938-9.511s1.398-6.971 3.938-9.511c5.237-5.236 13.756-5.236 18.995 0 2.54 2.54 3.938 5.918 3.938 9.511s-1.397 6.971-3.938 9.511z"/><path d="m315.471 294.301c5.37 5.37 12.51 8.327 20.104 8.327 7.593 0 14.732-2.957 20.103-8.327 5.374-5.372 8.333-12.517 8.333-20.117s-2.959-14.745-8.332-20.118c-5.371-5.37-12.511-8.327-20.104-8.327-7.594 0-14.733 2.957-20.104 8.327-5.374 5.373-8.333 12.518-8.333 20.118 0 7.599 2.959 14.744 8.333 20.117-.001 0-.001 0 0 0zm10.606-29.628c2.537-2.537 5.909-3.935 9.497-3.935 3.587 0 6.959 1.397 9.497 3.935 2.54 2.54 3.938 5.917 3.938 9.511 0 3.593-1.398 6.97-3.939 9.51-5.236 5.238-13.757 5.238-18.993 0-.001 0-.001 0-.001 0-2.54-2.54-3.938-5.917-3.938-9.51 0-3.594 1.398-6.971 3.939-9.511z"/><path d="m306.558 245.176c5.374-5.373 8.333-12.518 8.333-20.118s-2.959-14.745-8.333-20.118c-11.086-11.084-29.122-11.082-40.206 0-5.374 5.373-8.333 12.518-8.333 20.118s2.959 14.745 8.333 20.118c5.543 5.542 12.821 8.312 20.103 8.312 7.279.001 14.561-2.771 20.103-8.312zm-33.539-20.118c0-3.593 1.398-6.971 3.938-9.511 5.236-5.236 13.757-5.236 18.995 0 2.54 2.54 3.938 5.918 3.938 9.511s-1.398 6.971-3.938 9.511c-5.237 5.235-13.758 5.237-18.995 0-2.54-2.54-3.938-5.918-3.938-9.511z"/><path d="m380.767 57.61c40.322 0 73.127 32.796 73.127 73.108 0 9.697 15 9.697 15 0 0-48.583-39.533-88.108-88.127-88.108-9.697 0-9.697 15 0 15z"/><path d="m390.288.033c-9.697 0-9.697 15 0 15 58.554 0 106.19 47.626 106.19 106.166 0 9.697 15 9.697 15 0 .001-66.811-54.365-121.166-121.19-121.166z"/><path d="m142.887 269.461c-3.594-2.059-8.177-.812-10.234 2.783-17.451 30.484-12.278 69.135 12.579 93.989 15.229 15.228 35.228 22.84 55.232 22.838 20-.002 40.007-7.614 55.232-22.838 14.754-14.751 22.879-34.364 22.879-55.227s-8.125-40.476-22.879-55.228c-12.068-12.067-27.358-19.707-44.215-22.095-16.294-2.309-33.229.658-47.688 8.351-8.56 4.554-1.513 17.806 7.045 13.242 24.652-13.113 54.492-8.648 74.253 11.109 11.92 11.919 18.484 27.765 18.484 44.62 0 16.854-6.564 32.701-18.484 44.619-12.306 12.304-28.464 18.454-44.627 18.453-16.159-.002-32.324-6.152-44.627-18.453-20.083-20.081-24.264-51.305-10.167-75.931 2.058-3.592.813-8.174-2.783-10.232z"/><path d="m226.924 337.465c14.413-14.411 14.413-38.506 0-52.917-14.589-14.588-38.331-14.589-52.92 0-14.412 14.41-14.412 38.507 0 52.917 7.295 7.294 16.878 10.94 26.46 10.94 9.583.001 19.165-3.646 26.46-10.94zm-48.866-26.458c0-5.997 2.326-11.627 6.552-15.852 8.743-8.742 22.968-8.741 31.709 0 8.557 8.557 8.575 23.127 0 31.702-8.742 8.739-22.967 8.74-31.709 0-4.226-4.225-6.552-9.854-6.552-15.85z"/></g></g></svg>