<svg id="Layer_1" enable-background="new 0 0 511.981 511.981" height="512" viewBox="0 0 511.981 511.981" width="512" xmlns="http://www.w3.org/2000/svg"><g><g><g><g><path d="m7.629 245.077c0-131.21 106.853-237.577 238.662-237.577s238.662 106.367 238.662 237.577c0 131.211-106.853 237.578-238.662 237.578-27.665 0-54.222-4.702-78.93-13.319l-72.81 35.164v-76.039c-53.082-43.575-86.922-109.545-86.922-183.384z" fill="#fff7e8"/><g><path d="m246.291 7.5c-6.737 0-13.404.293-20 .837 122.449 10.115 218.662 112.236 218.662 236.74 0 124.52-96.237 226.651-218.708 236.745 6.609.549 13.294.833 20.046.833 131.809 0 238.662-106.367 238.662-237.578 0-131.21-106.853-237.577-238.662-237.577z" fill="#fff1d6"/></g><g><g><path d="m100.424 282.183h.167c10.431 0 18.886-8.456 18.886-18.886v-38.634c0-10.431-8.456-18.886-18.886-18.886h-.167c-10.431 0-18.886 8.456-18.886 18.886v38.634c0 10.43 8.455 18.886 18.886 18.886z" fill="#ff7893"/><path d="m319.099 327.479h.167c10.431 0 18.886-8.456 18.886-18.886v-129.227c0-10.431-8.456-18.886-18.886-18.886h-.167c-10.431 0-18.886 8.456-18.886 18.886v129.227c0 10.431 8.456 18.886 18.886 18.886z" fill="#ffd88f"/><path d="m246.208 420.354h.167c10.431 0 18.886-8.456 18.886-18.886v-314.977c0-10.431-8.456-18.886-18.886-18.886h-.167c-10.431 0-18.886 8.456-18.886 18.886v314.976c-.001 10.431 8.455 18.887 18.886 18.887z" fill="#ff7893"/><path d="m173.316 357.201h.167c10.431 0 18.886-8.456 18.886-18.886v-188.671c0-10.431-8.456-18.886-18.886-18.886h-.167c-10.431 0-18.886 8.456-18.886 18.886v188.671c-.001 10.43 8.455 18.886 18.886 18.886z" fill="#ff7893"/><path d="m391.991 273.931h.167c10.431 0 18.886-8.456 18.886-18.886v-22.13c0-10.431-8.456-18.886-18.886-18.886h-.167c-10.431 0-18.886 8.456-18.886 18.886v22.13c0 10.43 8.456 18.886 18.886 18.886z" fill="#ffd88f"/></g></g></g></g><path d="m494.629 406.197-105.573-60.953c-13.333-7.698-30 1.924-30 17.321v121.905c0 15.396 16.667 25.018 30 17.32l105.573-60.953c13.334-7.697 13.334-26.942 0-34.64z" fill="#59a1a5"/><path d="m494.629 406.197-105.573-60.953c-10.101-5.832-22.108-1.719-27.339 7.31l92.913 53.643c13.333 7.698 13.333 26.943 0 34.641l-92.913 53.643c5.232 9.028 17.239 13.141 27.339 7.31l105.573-60.953c13.334-7.698 13.334-26.943 0-34.641z" fill="#419296"/></g><g><path d="m100.591 198.276h-.167c-14.549 0-26.386 11.837-26.386 26.387v38.633c0 14.55 11.837 26.387 26.386 26.387h.167c14.549 0 26.386-11.837 26.386-26.387v-38.633c.001-14.55-11.836-26.387-26.386-26.387zm11.387 65.02c0 6.278-5.108 11.387-11.386 11.387h-.167c-6.278 0-11.386-5.108-11.386-11.387v-38.633c0-6.278 5.108-11.387 11.386-11.387h.167c6.278 0 11.386 5.108 11.386 11.387z"/><path d="m319.266 152.979h-.167c-14.549 0-26.386 11.837-26.386 26.387v129.227c0 14.55 11.837 26.387 26.386 26.387h.167c14.55 0 26.387-11.837 26.387-26.387v-129.227c0-14.55-11.837-26.387-26.387-26.387zm11.387 155.614c0 6.278-5.108 11.387-11.387 11.387h-.167c-6.278 0-11.386-5.108-11.386-11.387v-129.227c0-6.278 5.107-11.387 11.386-11.387h.167c6.278 0 11.387 5.108 11.387 11.387z"/><path d="m246.375 60.104h-.167c-14.549 0-26.386 11.837-26.386 26.387v314.977c0 14.549 11.837 26.386 26.386 26.386h.167c14.55 0 26.387-11.837 26.387-26.386v-314.977c-.001-14.55-11.838-26.387-26.387-26.387zm11.386 341.364c0 6.278-5.108 11.386-11.387 11.386h-.167c-6.278 0-11.386-5.107-11.386-11.386v-314.977c0-6.278 5.108-11.387 11.386-11.387h.167c6.279 0 11.387 5.108 11.387 11.387z"/><path d="m173.483 123.258h-.167c-14.55 0-26.387 11.837-26.387 26.387v19.422c0 9.697 15 9.697 15 0v-19.422c0-6.278 5.108-11.387 11.387-11.387 6.277.124 11.553 4.932 11.553 11.387v188.67c0 6.278-5.108 11.387-11.386 11.387-6.277-.124-11.554-4.932-11.554-11.387v-129.368c0-9.697-15-9.697-15 0v129.367c0 14.452 12.125 26.448 26.554 26.387 14.549 0 26.386-11.837 26.386-26.387v-188.67c0-14.549-11.837-26.386-26.386-26.386z"/><path d="m392.159 206.527h-.168c-14.549 0-26.386 11.837-26.386 26.387v22.131c0 14.452 12.125 26.447 26.554 26.386 14.549 0 26.386-11.837 26.386-26.386v-22.131c-.001-14.55-11.837-26.387-26.386-26.387zm11.385 48.518c0 6.278-5.107 11.386-11.386 11.386-6.277-.124-11.554-4.931-11.554-11.386v-22.131c0-6.278 5.107-11.387 11.386-11.387 6.278.124 11.554 4.932 11.554 11.387z"/><path d="m498.379 399.702-43.188-24.935c24.398-38.865 37.261-83.527 37.261-129.69 0-65.469-25.609-127.018-72.111-173.308-46.492-46.281-108.304-71.769-174.05-71.769s-127.558 25.488-174.05 71.77c-46.502 46.29-72.112 107.838-72.112 173.307 0 72.263 31.636 140.177 86.921 186.897v72.526c0 5.438 5.879 9.111 10.762 6.754l70.038-33.824c25.243 8.446 51.616 12.727 78.441 12.727 36.423 0 72.558-8.095 105.265-23.489v17.804c0 20.62 23.28 34.191 41.25 23.815l12.86-7.425c8.398-4.849.898-17.838-7.5-12.99l-12.86 7.425c-8.202 4.737-18.75-1.354-18.75-10.825v-29.846c.001-.05 0-.101 0-.151v-91.909c0-9.473 10.547-15.561 18.75-10.825l105.573 60.953c8.203 4.737 8.203 16.913 0 21.65l-58.567 33.814c-8.398 4.849-.897 17.837 7.5 12.99l58.567-33.814c17.958-10.368 17.968-37.26 0-47.632zm-133.073-60.953c-8.609 4.971-13.75 13.873-13.75 23.815v87.378c-32.365 16.492-68.652 25.214-105.265 25.214-26.19 0-51.915-4.341-76.461-12.901-1.88-.655-3.94-.538-5.731.328l-62.048 29.966v-64.088c0-2.245-1.006-4.372-2.741-5.797-53.498-43.916-84.18-108.645-84.18-177.587 0-61.449 24.041-119.223 67.694-162.677 43.661-43.463 101.715-67.4 163.467-67.4 61.751 0 119.806 23.937 163.468 67.4 43.652 43.454 67.693 101.228 67.693 162.677 0 43.513-12.175 85.602-35.262 122.184l-49.384-28.512c-8.611-4.971-18.89-4.971-27.5 0z"/></g></g></svg>