<svg id="Layer_1" enable-background="new 0 0 512 512" height="512" viewBox="0 0 512 512" width="512" xmlns="http://www.w3.org/2000/svg"><g><g><g><g><circle cx="256" cy="256" fill="#b5e8e0" r="248.5"/><circle cx="256" cy="256" fill="#59a1a5" r="168.5"/><g><path d="m415.459 65.42-102.346 123.035c19.185 16.246 31.387 40.496 31.387 67.545h160c0-76.545-34.618-144.995-89.041-190.58z" fill="#ffd88f"/><path d="m415.459 65.42-17.653 21.221c41.365 44.382 66.694 103.904 66.694 169.359h40c0-76.545-34.618-144.995-89.041-190.58z" fill="#ffc963"/><path d="m313.113 188.455-56.187 67.545h87.574c0-27.049-12.202-51.299-31.387-67.545z" fill="#ff9e5e"/></g><circle cx="256" cy="256" fill="#fff7e8" r="88.5"/><path d="m256 167.5c-6.876 0-13.571.789-20 2.279 39.199 9.089 68.5 44.297 68.5 86.221 0 41.923-29.301 77.131-68.5 86.221 6.429 1.491 13.124 2.279 20 2.279 48.799 0 88.5-39.701 88.5-88.5s-39.701-88.5-88.5-88.5z" fill="#fff1d6"/><path d="m256 293.384c-20.614 0-37.384-16.771-37.384-37.385s16.77-37.383 37.384-37.383 37.384 16.77 37.384 37.383-16.771 37.385-37.384 37.385z" fill="#b5e8e0"/></g></g></g><g><path d="m437.02 74.98c-48.353-48.351-112.64-74.98-181.02-74.98s-132.667 26.629-181.02 74.98c-48.351 48.352-74.98 112.64-74.98 181.02s26.629 132.668 74.98 181.02c48.353 48.351 112.64 74.98 181.02 74.98s132.667-26.629 181.02-74.98c48.351-48.352 74.98-112.64 74.98-181.02s-26.629-132.668-74.98-181.02zm59.853 173.52h-145.165c-1.839-23.681-12.31-44.977-28.259-60.742l46.548-55.958s.001-.001.001-.001c.001-.001.001-.001.002-.002l46.341-55.709c3.429 3.064 6.794 6.223 10.071 9.5 43.747 43.746 68.591 101.35 70.461 162.912zm-159.873 7.5c0 44.663-36.336 81-81 81s-81-36.337-81-81 36.336-81 81-81 81 36.337 81 81zm89.413 170.413c-45.519 45.519-106.039 70.587-170.413 70.587s-124.894-25.068-170.413-70.587-70.587-106.039-70.587-170.413 25.068-124.894 70.587-170.413 106.039-70.587 170.413-70.587c54.678 0 106.571 18.095 148.857 51.437l-41.651 50.071c-30.66-23.593-68.436-36.508-107.206-36.508-27.88 0-55.658 6.717-80.33 19.423-8.62 4.44-1.755 17.772 6.868 13.336 22.88-11.784 47.596-17.759 73.462-17.759 35.27 0 69.642 11.689 97.605 33.05l-41.609 50.021c-15.772-11.365-35.115-18.071-55.996-18.071-52.935 0-96 43.065-96 96s43.065 96 96 96c50.411 0 91.87-39.057 95.708-88.5h65.111c-3.931 85.307-74.558 153.5-160.819 153.5-88.776 0-161-72.225-161-161 0-44.494 17.821-85.932 50.18-116.682 7.029-6.68-3.304-17.552-10.333-10.873-17.135 16.283-30.62 35.459-40.08 56.995-9.799 22.308-14.767 46.047-14.767 70.56 0 97.047 78.953 176 176 176 94.533 0 171.885-74.919 175.829-168.5h65.043c-1.869 61.562-26.713 119.166-70.459 162.913z"/><path d="m211.116 256c0 26.709 24.328 47.982 50.789 44.485 9.612-1.269 7.653-16.15-1.963-14.871-17.536 2.314-33.826-11.906-33.826-29.614 0-16.478 13.406-29.884 29.884-29.884s29.884 13.406 29.884 29.884c0 3.603-.642 7.134-1.909 10.496-3.418 9.074 10.619 14.363 14.037 5.287 1.905-5.058 2.872-10.368 2.872-15.783 0-24.749-20.135-44.884-44.884-44.884s-44.884 20.135-44.884 44.884z"/><path d="m409.295 119.746c-2.793 3.06-2.578 7.803.481 10.596 32.977 30.111 42.14 82.568 42.229 83.095 1.572 9.377 16.404 7.17 14.794-2.475-.393-2.354-10.044-58.036-46.909-91.696-3.057-2.792-7.802-2.578-10.595.48z"/><path d="m395.4 150.487c-7.161-6.539-17.276 4.538-10.114 11.076 21.46 19.596 27.495 53.965 27.556 54.326 1.575 9.375 16.404 7.165 14.794-2.478-.27-1.612-6.886-39.776-32.236-62.924z"/><path d="m367.458 178.055c-7.161-6.539-17.276 4.538-10.114 11.076 12.516 11.429 16.129 31.737 16.178 32.017 1.579 9.372 16.403 7.158 14.793-2.481-.174-1.04-4.436-25.618-20.857-40.612z"/></g></g></svg>