<svg id="Layer_1" enable-background="new 0 0 511.984 511.984" height="512" viewBox="0 0 511.984 511.984" width="512" xmlns="http://www.w3.org/2000/svg"><g><g><g><path d="m62.431 230.883h230.674c26.71 0 48.363 21.762 48.363 48.607v126.209c0 26.845-21.653 48.607-48.363 48.607h-16.556v50.194l-49.927-50.193h-164.191c-26.71 0-48.363-21.762-48.363-48.607v-126.21c0-26.845 21.653-48.607 48.363-48.607z" fill="#ff9e5e"/><path d="m293.105 230.883h-40c26.71 0 48.363 21.762 48.363 48.607v126.209c0 26.845-21.653 48.607-48.363 48.607h-26.483l49.927 50.193v-50.193h16.556c26.71 0 48.363-21.762 48.363-48.607v-126.209c0-26.845-21.653-48.607-48.363-48.607z" fill="#fa8d46"/><g><path d="m449.553 7.5h-230.674c-26.71 0-48.363 21.762-48.363 48.607v126.209c0 26.845 21.653 48.607 48.363 48.607h16.556v50.193l49.927-50.193h164.19c26.71 0 48.363-21.762 48.363-48.607v-126.209c.001-26.845-21.652-48.607-48.362-48.607z" fill="#b5e8e0"/></g><g><path d="m449.553 7.5h-40c26.71 0 48.363 21.762 48.363 48.607v126.209c0 26.845-21.653 48.607-48.363 48.607h40c26.71 0 48.363-21.762 48.363-48.607v-126.209c0-26.845-21.653-48.607-48.363-48.607z" fill="#97dbd1"/></g></g></g><g><path d="m449.552 0h-230.673c-30.803 0-55.862 25.17-55.862 56.107v48.96c0 9.697 15 9.697 15 0v-48.96c-.001-22.667 18.33-41.107 40.862-41.107h230.674c22.532 0 40.863 18.44 40.863 41.107v126.209c0 22.667-18.331 41.107-40.863 41.107l-164.19-.041c-2.31 0-4.375 1.046-5.75 2.688l-36.677 36.871v-32.019c0-.007-.001-.014-.001-.021s.001-.014.001-.021c0-4.143-3.357-7.5-7.5-7.5h-18.164c-21.788-.853-39.255-18.942-39.255-41.066v-37.392c0-9.697-15-9.697-15 0v37.392c0 16.203 6.882 30.815 17.854 41.066h-118.44c-30.803 0-55.863 25.17-55.863 56.107v126.209c0 30.938 25.061 56.107 55.863 56.107h161.072l47.728 47.982c4.754 4.78 12.817 1.179 12.817-5.289v-42.693h9.057c30.803 0 55.862-25.17 55.862-56.107v-51.207c0-9.697-15-9.697-15 0v51.207c0 22.667-18.331 41.107-40.862 41.107h-16.557c-4.143 0-7.5 3.357-7.5 7.5v32.019l-37.109-37.308c-1.407-1.415-3.321-2.211-5.317-2.211h-164.191c-22.532 0-40.863-18.44-40.863-41.107v-126.206c0-22.667 18.331-41.107 40.863-41.107l165.504.041v42.693c0 6.468 8.063 10.069 12.817 5.289l47.729-47.982h6.231c21.788.853 39.255 18.942 39.255 41.066v34.063c0 9.697 15 9.697 15 0v-34.063c0-16.203-6.882-30.815-17.854-41.066h118.438c30.803 0 55.863-25.17 55.863-56.107v-126.21c.002-30.937-25.059-56.107-55.862-56.107z"/><path d="m56.071 192.024c4.143 0 7.5-3.357 7.5-7.5 0-26.254 19.111-48.1 44.097-52.283l-7.065 6.852c-7.082 6.868 3.042 16.748 10.443 10.768l21.105-20.47c3.038-3.589 3.038-7.178 0-10.768l-21.105-20.47c-6.962-6.751-17.405 4.017-10.443 10.768l8.262 8.013c-33.865 3.764-60.294 32.633-60.294 67.59 0 4.143 3.357 7.5 7.5 7.5z"/><path d="m455.814 266.007c-4.143 0-7.5 3.357-7.5 7.5 0 26.254-19.11 48.099-44.097 52.282l7.064-6.851c6.961-6.751-3.482-17.519-10.443-10.768l-21.105 20.469c-3.038 3.589-3.038 7.178 0 10.768l21.105 20.47c6.938 6.729 17.42-4.002 10.443-10.768l-8.262-8.013c33.865-3.763 60.294-32.632 60.294-67.588.001-4.144-3.356-7.501-7.499-7.501z"/><path d="m334.216 44.248c-4.143 0-7.5 3.357-7.5 7.5v20.138h-42.714c-9.697 0-9.697 15 0 15h18.526c.964 11.353 5.159 33.405 22.161 57.563-9.555 11.45-22.735 23.487-40.912 34.684-8.039 4.954-.295 17.795 7.867 12.771 18.314-11.282 32.137-23.388 42.573-35.336 10.436 11.948 24.259 24.054 42.573 35.336 7.994 4.92 16.104-7.696 7.867-12.771-18.177-11.197-31.357-23.234-40.912-34.684 17.002-24.158 21.197-46.211 22.161-57.563h18.526c9.697 0 9.697-15 0-15h-42.715v-20.138c-.001-4.143-3.359-7.5-7.501-7.5zm9.66 68.956c-2.254 5.449-5.37 11.667-9.66 18.318-4.29-6.651-7.406-12.869-9.66-18.318-4.552-11.006-6.276-20.339-6.919-26.318h33.157c-.642 5.979-2.366 15.312-6.918 26.318z"/><path d="m176.875 261.989c-2.971 0-6.192 2.379-7.109 5.112l-44.933 133.782c-3.088 9.192 11.133 13.969 14.219 4.775l13.208-39.324h50.491l13.762 39.409c3.138 8.984 17.359 4.211 14.162-4.945l-46.719-133.782c-1.053-3.012-3.894-5.027-7.081-5.027zm-19.578 89.346 19.716-58.701 20.499 58.701z"/></g></g></svg>