<svg id="Layer_1" enable-background="new 0 0 512 512" height="512" viewBox="0 0 512 512" width="512" xmlns="http://www.w3.org/2000/svg"><g><g><g><path d="m370.422 450.263h-269.093c-27.614 0-50-22.386-50-50v-288.526c0-27.614 22.386-50 50-50h269.093c27.614 0 50 22.386 50 50v288.526c0 27.614-22.386 50-50 50z" fill="#b5e8e0"/><path d="m106.229 415.054c-11.046 0-20-8.954-20-20v-278.108c0-11.046 8.954-20 20-20h259.292c11.046 0 20 8.954 20 20v278.108c0 11.046-8.954 20-20 20z" fill="#59a1a5"/><path d="m365.521 96.946h-40c11.046 0 20 8.954 20 20v278.108c0 11.046-8.954 20-20 20h40c11.046 0 20-8.954 20-20v-278.108c0-11.046-8.954-20-20-20z" fill="#419296"/><g><path d="m345.056 61.737h-218.361v-22.955c0-17.276 14.005-31.282 31.282-31.282h155.797c17.277 0 31.282 14.005 31.282 31.282z" fill="#ff9e5e"/><path d="m313.774 7.5h-40c17.276 0 31.282 14.005 31.282 31.282v22.955h40v-22.955c-.001-17.277-14.006-31.282-31.282-31.282z" fill="#fa8d46"/><path d="m126.695 450.263h218.361v22.955c0 17.276-14.005 31.282-31.282 31.282h-155.797c-17.277 0-31.282-14.005-31.282-31.282z" fill="#ff9e5e"/><path d="m305.055 450.263v22.955c0 17.277-14.005 31.282-31.282 31.282h40c17.276 0 31.282-14.005 31.282-31.282v-22.955z" fill="#fa8d46"/></g><path d="m437.132 279.539h-16.71v-47.078h16.71c13 0 23.539 10.539 23.539 23.539 0 13-10.539 23.539-23.539 23.539z" fill="#59a1a5"/></g><g><circle cx="235.875" cy="256" fill="#fff7e8" r="45.964"/><g fill="#ffd88f"><ellipse cx="318.952" cy="319.077" rx="33.501" ry="33.501" transform="matrix(.924 -.383 .383 .924 -97.827 146.346)"/><ellipse cx="152.799" cy="192.923" rx="33.501" ry="33.501" transform="matrix(.707 -.707 .707 .707 -91.664 164.551)"/></g><g fill="#ff7893"><ellipse cx="152.799" cy="319.077" rx="33.501" ry="33.501" transform="matrix(.707 -.707 .707 .707 -180.868 201.5)"/><circle cx="318.952" cy="192.923" r="33.501"/></g><g fill="#fff7e8"><circle cx="235.875" cy="153.073" r="21.946"/><circle cx="235.875" cy="358.927" r="21.946"/></g></g></g><g><path d="m385.521 307.86c4.143 0 7.5-3.357 7.5-7.5v-183.415c0-15.163-12.336-27.5-27.5-27.5h-259.292c-15.163 0-27.5 12.337-27.5 27.5v278.109c0 15.163 12.337 27.5 27.5 27.5h259.292c15.164 0 27.5-12.337 27.5-27.5v-54.735c0-9.697-15-9.697-15 0v54.735c0 6.893-5.607 12.5-12.5 12.5h-259.292c-6.893 0-12.5-5.607-12.5-12.5v-278.109c0-6.893 5.607-12.5 12.5-12.5h259.292c6.893 0 12.5 5.607 12.5 12.5v183.415c0 4.143 3.358 7.5 7.5 7.5z"/><path d="m437.132 224.961h-9.21v-113.224c0-31.706-25.794-57.5-57.5-57.5h-17.866v-15.455c0-21.385-17.398-38.782-38.783-38.782h-155.796c-21.384 0-38.781 17.397-38.781 38.782v15.455h-17.866c-31.706 0-57.5 25.794-57.5 57.5v19.271c0 9.697 15 9.697 15 0v-19.271c0-23.435 19.065-42.5 42.5-42.5h269.093c23.435 0 42.5 19.065 42.5 42.5v288.525c0 23.435-19.065 42.5-42.5 42.5h-269.094c-23.435 0-42.5-19.065-42.5-42.5v-229.28c0-9.697-15-9.697-15 0v229.28c0 31.706 25.794 57.5 57.5 57.5h17.866v15.455c0 21.385 17.397 38.782 38.781 38.782h155.797c21.385 0 38.782-17.397 38.782-38.782v-15.455h17.866c31.706 0 57.5-25.794 57.5-57.5v-113.223h9.21c17.115 0 31.039-13.924 31.039-31.039s-13.923-31.039-31.038-31.039zm-302.937-186.179c0-13.113 10.668-23.782 23.781-23.782h155.797c13.113 0 23.782 10.669 23.782 23.782v15.455h-203.36zm203.361 434.436c0 13.113-10.669 23.782-23.782 23.782h-155.797c-13.113 0-23.781-10.669-23.781-23.782v-15.455h203.36zm99.576-201.179h-9.21v-32.078h9.21c8.844 0 16.039 7.195 16.039 16.039s-7.195 16.039-16.039 16.039z"/><path d="m289.339 256c0-29.48-23.983-53.464-53.464-53.464s-53.464 23.984-53.464 53.464 23.983 53.464 53.464 53.464 53.464-23.984 53.464-53.464zm-53.464 38.464c-21.209 0-38.464-17.255-38.464-38.464s17.255-38.464 38.464-38.464 38.464 17.255 38.464 38.464-17.255 38.464-38.464 38.464z"/><path d="m318.952 360.078c22.608 0 41.001-18.393 41.001-41.001s-18.393-41.002-41.001-41.002-41.002 18.394-41.002 41.002 18.394 41.001 41.002 41.001zm0-67.003c14.337 0 26.001 11.664 26.001 26.002 0 14.337-11.664 26.001-26.001 26.001-14.338 0-26.002-11.664-26.002-26.001 0-14.338 11.664-26.002 26.002-26.002z"/><path d="m152.799 233.925c22.608 0 41.001-18.394 41.001-41.002s-18.393-41.001-41.001-41.001-41.002 18.393-41.002 41.001 18.393 41.002 41.002 41.002zm0-67.003c14.337 0 26.001 11.664 26.001 26.001 0 14.338-11.664 26.002-26.001 26.002-14.338 0-26.002-11.664-26.002-26.002 0-14.337 11.664-26.001 26.002-26.001z"/><path d="m152.799 360.078c22.608 0 41.001-18.393 41.001-41.001s-18.393-41.002-41.001-41.002-41.002 18.394-41.002 41.002 18.393 41.001 41.002 41.001zm0-67.003c14.337 0 26.001 11.664 26.001 26.002 0 14.337-11.664 26.001-26.001 26.001-14.338 0-26.002-11.664-26.002-26.001 0-14.338 11.664-26.002 26.002-26.002z"/><path d="m318.952 151.922c-22.608 0-41.002 18.393-41.002 41.001s18.394 41.002 41.002 41.002 41.001-18.394 41.001-41.002-18.392-41.001-41.001-41.001zm0 67.003c-14.338 0-26.002-11.664-26.002-26.002 0-14.337 11.664-26.001 26.002-26.001 14.337 0 26.001 11.664 26.001 26.001 0 14.338-11.664 26.002-26.001 26.002z"/><path d="m265.32 153.073c0-16.236-13.209-29.446-29.445-29.446s-29.445 13.21-29.445 29.446 13.209 29.445 29.445 29.445 29.445-13.208 29.445-29.445zm-43.89 0c0-7.966 6.48-14.446 14.445-14.446s14.445 6.48 14.445 14.446c0 7.965-6.48 14.445-14.445 14.445s-14.445-6.48-14.445-14.445z"/><path d="m206.43 358.927c0 16.236 13.209 29.446 29.445 29.446s29.445-13.21 29.445-29.446-13.209-29.445-29.445-29.445-29.445 13.208-29.445 29.445zm43.89 0c0 7.966-6.48 14.446-14.445 14.446s-14.445-6.48-14.445-14.446c0-7.965 6.48-14.445 14.445-14.445s14.445 6.48 14.445 14.445z"/></g></g></svg>