<svg id="Layer_1" enable-background="new 0 0 512 512" height="512" viewBox="0 0 512 512" width="512" xmlns="http://www.w3.org/2000/svg"><g><g><g><g><g><g><path d="m443.973 144.308h-375.946v-98.077c0-21.391 17.341-38.731 38.731-38.731h298.484c21.391 0 38.731 17.34 38.731 38.731z" fill="#59a1a5"/><path d="m443.973 133.799v-87.568c0-21.391-17.341-38.731-38.731-38.731h-40c21.39 0 38.731 17.341 38.731 38.731v87.568z" fill="#419296"/><path d="m405.242 504.5h-298.484c-21.391 0-38.731-17.341-38.731-38.731v-332.581h375.946v332.581c0 21.39-17.34 38.731-38.731 38.731z" fill="#ffd88f"/><path d="m403.973 133.188v332.581c0 21.391-17.341 38.731-38.731 38.731h40c21.39 0 38.731-17.341 38.731-38.731v-332.581z" fill="#ffc963"/><g><path d="m68.027 133.188h187.973v185.656h-187.973z" fill="#fff7e8"/><path d="m256 318.844v185.656h149.001c21.524 0 38.972-17.233 38.972-38.492v-147.164z" fill="#fff7e8"/><path d="m403.973 318.844v147.164c0 21.258-17.448 38.492-38.972 38.492h40c21.524 0 38.972-17.233 38.972-38.492v-147.164z" fill="#fff1d6"/></g></g></g></g></g></g><g><path d="m405.242 0h-298.483c-25.493 0-46.232 20.739-46.232 46.231v272.555.009.011 146.963c0 25.492 20.739 46.231 46.23 46.231h298.484c25.491 0 46.23-20.739 46.23-46.231v-265.795c0-9.697-15-9.697-15 0v111.37h-172.971v-170.656h172.973v19.362c0 9.697 15 9.697 15 0v-113.819c0-25.492-20.739-46.231-46.231-46.231zm31.231 465.769c0 17.221-14.01 31.231-31.23 31.231h-141.743v-170.656h172.973zm-187.973-154.269c-20.254-.002-41.052-.018-61.855-.156-9.433 0-9.529 14.936-.101 15 20.853.139 41.676.154 61.956.156v170.5h-141.742c-17.221 0-31.23-14.011-31.23-31.231v-139.383c9.54.048 19.257.074 28.999.074 12.323 0 24.67-.039 36.702-.116 9.473-.063 9.169-15-.097-15-21.511.14-44.029.154-65.604.043v-170.699h172.972zm-172.973-185.812v-79.457c0-17.22 14.01-31.231 31.232-31.231h298.484c17.221 0 31.23 14.011 31.23 31.231v79.456h-360.946z"/><path d="m123.464 239.316h30.347v29.881c0 4.143 3.358 7.5 7.5 7.5s7.5-3.357 7.5-7.5v-29.881h30.347c4.142 0 7.5-3.357 7.5-7.5s-3.358-7.5-7.5-7.5h-30.347v-29.881c0-4.143-3.358-7.5-7.5-7.5s-7.5 3.357-7.5 7.5v29.881h-30.347c-4.142 0-7.5 3.357-7.5 7.5s3.358 7.5 7.5 7.5z"/><path d="m139.82 381.078c-6.901-6.813-17.441 3.858-10.541 10.672l21.36 21.097-21.36 21.097c-6.906 6.82 3.651 17.477 10.541 10.672l21.492-21.227 21.492 21.227c6.891 6.804 17.447-3.852 10.541-10.672l-21.36-21.097 21.36-21.097c6.9-6.814-3.642-17.486-10.541-10.672l-21.492 21.227z"/><path d="m311.536 224.316c-4.143 0-7.5 3.357-7.5 7.5s3.357 7.5 7.5 7.5h75.694c4.143 0 7.5-3.357 7.5-7.5s-3.357-7.5-7.5-7.5z"/><path d="m317.285 444.55c3.526 2.951 7.062 2.973 10.606.065l53.524-52.865c2.947-2.91 2.977-7.659.065-10.606s-7.66-2.976-10.606-.065l-53.524 52.865c-2.946 2.91-2.976 7.659-.065 10.606z"/><path d="m319.739 391.068c9.652 0 9.668-15 0-15-9.652 0-9.668 15 0 15z"/><path d="m379.027 449.625c9.652 0 9.668-15 0-15-9.651 0-9.667 15 0 15z"/><path d="m135.226 44.426c6.851-6.862-3.766-17.464-10.615-10.598l-22.734 22.77c-6.851 6.861 3.764 17.463 10.615 10.598z"/><path d="m175.47 33.828-63.593 63.692c-6.851 6.861 3.764 17.463 10.615 10.598l63.593-63.691c6.852-6.863-3.765-17.466-10.615-10.599z"/></g></g></svg>