<svg id="Layer_1" enable-background="new 0 0 511.769 511.769" height="512" viewBox="0 0 511.769 511.769" width="512" xmlns="http://www.w3.org/2000/svg"><g><g><g><path d="m387.006 156.728h-262.272c-22.628 0-40.971 18.343-40.971 40.971h344.214c0-22.628-18.344-40.971-40.971-40.971z" fill="#fff7e8"/><path d="m387.006 156.728h-40c22.628 0 40.971 18.343 40.971 40.971h40c0-22.628-18.344-40.971-40.971-40.971z" fill="#fff1d6"/><path d="m75.751 268.678h360.237v214.344c0 11.735-9.533 21.248-21.292 21.248h-317.653c-11.759 0-21.292-9.513-21.292-21.248z" fill="#fff7e8"/><path d="m395.988 268.678v214.344c0 11.735-9.533 21.248-21.292 21.248h40c11.759 0 21.292-9.513 21.292-21.248v-214.344z" fill="#fff1d6"/><g><path d="m480.214 268.678h-448.689l52.238-70.979h344.214z" fill="#ffd88f"/><path d="m77.043 319.891h-.111c-24.705 0-44.732-20.027-44.732-44.732v-6.481h89.574v6.481c.001 24.705-20.026 44.732-44.731 44.732z" fill="#ff7893"/><path d="m166.618 319.891h-.111c-24.705 0-44.732-20.027-44.732-44.732v-6.481h89.575v6.481c0 24.705-20.027 44.732-44.732 44.732z" fill="#ff9e5e"/><path d="m256.192 319.891h-.111c-24.705 0-44.732-20.027-44.732-44.732v-6.481h89.574v6.481c.001 24.705-20.026 44.732-44.731 44.732z" fill="#ff7893"/><path d="m345.767 319.891h-.111c-24.705 0-44.732-20.027-44.732-44.732v-6.481h89.575v6.481c0 24.705-20.027 44.732-44.732 44.732z" fill="#ff9e5e"/><path d="m435.342 319.891h-.111c-24.705 0-44.732-20.027-44.732-44.732v-6.481h89.574v6.481c0 24.705-20.027 44.732-44.731 44.732z" fill="#ff7893"/></g><path d="m315.775 504.269h-119.811v-83.299c0-33.05 26.792-59.843 59.843-59.843h.125c33.05 0 59.843 26.793 59.843 59.843z" fill="#ffd88f"/></g><g><path d="m263.287 11.871 31.995 64.708c1.205 2.437 3.534 4.126 6.228 4.516l71.543 10.376c6.785.984 9.493 9.306 4.584 14.082l-51.769 50.368c-1.949 1.897-2.839 4.63-2.379 7.308l12.221 71.121c1.159 6.744-5.933 11.888-12.002 8.703l-63.99-33.579c-2.41-1.265-5.288-1.265-7.698 0l-63.99 33.579c-6.068 3.184-13.16-1.959-12.001-8.703l12.221-71.121c.46-2.678-.429-5.411-2.379-7.308l-51.769-50.368c-4.909-4.776-2.2-13.098 4.584-14.082l71.543-10.376c2.694-.391 5.023-2.08 6.228-4.516l31.995-64.708c3.034-6.136 11.801-6.136 14.835 0z" fill="#ff7893"/></g><g><path d="m377.637 105.554c4.909-4.776 2.2-13.098-4.584-14.082l-71.543-10.376c-2.694-.391-5.023-2.08-6.228-4.516l-31.995-64.708c-3.034-6.136-11.801-6.136-14.835 0l-15.549 31.448 22.379 45.26c1.205 2.437 3.534 4.126 6.228 4.516l71.543 10.376c6.785.984 9.494 9.306 4.584 14.082l-51.769 50.368c-1.95 1.897-2.839 4.63-2.379 7.308l8.823 51.349 31.396 16.475c6.068 3.184 13.16-1.959 12.002-8.703l-12.221-71.121c-.46-2.678.429-5.411 2.379-7.308z" fill="#ff5e7f"/></g></g><path d="m486.255 264.232-50.846-69.088c-1.333-25.544-22.533-45.917-48.403-45.917h-43.501l39.362-38.297c9.08-8.835 3.915-25.048-8.738-26.88l-15.394-2.233c-9.597-1.406-11.749 13.452-2.153 14.844l15.395 2.234c.682.252.825.68.43 1.283l-51.769 50.368c-3.722 3.622-5.419 8.838-4.54 13.954l12.221 71.119c-.042.725-.417.989-1.125.793l-63.989-33.578c-4.593-2.412-10.077-2.409-14.668-.001l-63.989 33.579c-.708.196-1.084-.068-1.125-.792l12.221-71.12c.879-5.116-.818-10.332-4.54-13.954l-51.769-50.368c-.395-.604-.252-1.032.431-1.284l71.542-10.376c5.137-.745 9.576-3.966 11.875-8.615l31.995-64.707c.463-.569.926-.569 1.389 0l31.995 64.707c2.299 4.649 6.738 7.87 11.875 8.614l16.42 2.382c9.597 1.41 11.749-13.454 2.153-14.844l-16.42-2.383c-.252-.036-.47-.192-.581-.418l-31.999-64.706c-5.608-11.343-22.62-11.45-28.281 0l-31.995 64.707c-.111.226-.329.382-.582.419l-71.541 10.376c-12.532 1.816-17.906 17.96-8.738 26.881l39.362 38.297h-43.501c-25.87 0-47.07 20.372-48.403 45.917l-50.846 69.088c-2.054 2.791-1.379 7.656-.784 10.927 0 25.842 18.869 47.348 43.551 51.496v81.786c0 9.697 15 9.697 15 0v-81.432c16.335-1.945 30.384-11.446 38.523-24.912 9.155 15.146 25.78 25.294 44.732 25.294h.111c18.952 0 35.577-10.148 44.732-25.294 9.155 15.146 25.78 25.294 44.732 25.294h.111c18.952 0 35.577-10.148 44.732-25.294 9.155 15.146 25.78 25.294 44.732 25.294h.111c18.952 0 35.577-10.148 44.732-25.294 8.051 13.319 21.882 22.757 37.989 24.844v156.081c0 7.581-6.187 13.748-13.792 13.748h-91.421v-75.8c0-37.133-30.21-67.343-67.343-67.343h-.125c-37.133 0-67.343 30.21-67.343 67.343v75.8h-91.421c-7.605 0-13.792-6.167-13.792-13.748v-34.252c0-9.697-15-9.697-15 0v34.252c0 15.852 12.916 28.748 28.792 28.748h98.921 119.811 98.921c15.876 0 28.792-12.896 28.792-28.748v-156.27c24.945-3.924 44.085-25.563 44.085-51.592.207-2.895.21-8.852-1.319-10.929zm-282.791 232.537v-75.8c0-28.862 23.481-52.343 52.343-52.343h.125c28.862 0 52.343 23.48 52.343 52.343v75.8zm216.155-306.57h-83.886l-4.463-25.972h55.735c15.878 0 29.198 11.116 32.614 25.972zm-294.885-25.972h55.735l-4.463 25.972h-83.885c3.415-14.856 16.736-25.972 32.613-25.972zm-37.179 40.972h85.873l-4.791 27.881c-2.146 12.484 11.569 22.548 22.878 16.616l63.99-33.58c.228-.119.499-.12.728.001l63.99 33.579c11.297 5.926 25.039-4.035 22.877-16.616l-4.791-27.881h85.873l41.198 55.979h-419.023zm-10.511 107.191h-.111c-20.189 0-36.676-16.152-37.218-36.213h74.547c-.543 20.061-17.03 36.213-37.218 36.213zm89.574 0h-.111c-20.189 0-36.676-16.152-37.218-36.213h74.547c-.542 20.061-17.029 36.213-37.218 36.213zm89.575 0h-.111c-20.189 0-36.676-16.152-37.218-36.213h74.547c-.542 20.061-17.03 36.213-37.218 36.213zm89.574 0h-.111c-20.189 0-36.676-16.152-37.218-36.213h74.547c-.542 20.061-17.029 36.213-37.218 36.213zm89.574 0h-.111c-20.188 0-36.676-16.152-37.218-36.213h74.547c-.541 20.061-17.029 36.213-37.218 36.213z"/></g></svg>