<svg id="Layer_1" enable-background="new 0 0 512 512" height="512" viewBox="0 0 512 512" width="512" xmlns="http://www.w3.org/2000/svg"><g><g><g><g fill="#ffd88f"><path d="m67.78 164.066h37.254v227.738h-37.254z"/><path d="m180.842 164.066h37.254v227.738h-37.254z"/><path d="m293.904 164.066h37.254v227.738h-37.254z"/><path d="m406.966 164.066h37.254v227.738h-37.254z"/></g><path d="m453.359 175.011h-394.718c-9.974 0-18.059-8.085-18.059-18.059 0-9.974 8.085-18.059 18.059-18.059h394.718c9.974 0 18.059 8.085 18.059 18.059.001 9.974-8.085 18.059-18.059 18.059z" fill="#fff7e8"/><path d="m453.359 138.893h-40c9.974 0 18.059 8.085 18.059 18.059 0 9.974-8.085 18.059-18.059 18.059h40c9.974 0 18.059-8.085 18.059-18.059.001-9.974-8.085-18.059-18.059-18.059z" fill="#fff1d6"/><path d="m256 7.5-175.137 131.393h350.275z" fill="#ffd88f"/><path d="m256 58.726-106.857 80.167h213.714z" fill="#ffe6b8"/><path d="m121.571 371.081h-69.886v-16.4c0-9.896 8.023-17.919 17.919-17.919h34.048c9.896 0 17.919 8.023 17.919 17.919z" fill="#fff7e8"/><path d="m103.652 336.762h-34.048c-1.016 0-2.006.105-2.976.267 8.477 1.42 14.943 8.772 14.943 17.652v16.4h40v-16.4c0-9.897-8.022-17.919-17.919-17.919z" fill="#fff1d6"/><path d="m234.412 371.081h-69.886v-16.4c0-9.896 8.023-17.919 17.919-17.919h34.048c9.896 0 17.919 8.023 17.919 17.919z" fill="#fff7e8"/><path d="m216.493 336.762h-34.048c-1.016 0-2.006.105-2.976.267 8.477 1.42 14.943 8.772 14.943 17.652v16.4h40v-16.4c0-9.897-8.022-17.919-17.919-17.919z" fill="#fff1d6"/><path d="m347.253 371.081h-69.886v-16.4c0-9.896 8.023-17.919 17.919-17.919h34.048c9.896 0 17.919 8.023 17.919 17.919z" fill="#fff7e8"/><path d="m329.334 336.762h-34.048c-1.016 0-2.006.105-2.976.267 8.477 1.42 14.943 8.772 14.943 17.652v16.4h40v-16.4c0-9.897-8.023-17.919-17.919-17.919z" fill="#fff1d6"/><path d="m460.094 371.081h-69.886v-16.4c0-9.896 8.023-17.919 17.919-17.919h34.048c9.896 0 17.919 8.023 17.919 17.919z" fill="#fff7e8"/><path d="m442.175 336.762h-34.048c-1.016 0-2.006.105-2.976.267 8.477 1.42 14.943 8.772 14.943 17.652v16.4h40v-16.4c0-9.897-8.023-17.919-17.919-17.919z" fill="#fff1d6"/><path d="m25.324 366.631h461.352v53.328h-461.352z" fill="#ffd88f"/></g><g><g><path d="m7.5 428.374h497v49.96h-497z" fill="#59a1a5"/><path d="m464.5 428.374h40v49.96h-40z" fill="#419296"/><g><path d="m7.5 436.867h497v-33.816h-142.758l-105.742 13.199-105.741-13.199h-142.759z" fill="#b5e8e0"/><g><path d="m464.5 403.051h40v33.816h-40z" fill="#97dbd1"/></g><path d="m7.5 504.5h142.759l105.741-16.908 105.742 16.908h142.758v-33.816h-497z" fill="#b5e8e0"/><g><path d="m464.5 470.684h40v33.816h-40z" fill="#97dbd1"/></g></g></g><path d="m150.259 403.051h211.483v101.331h-211.483z" fill="#fff7e8"/></g></g><path d="m504.5 395.551h-10.324v-28.92c0-4.142-3.357-7.5-7.5-7.5h-19.082v-4.45c0-10.641-6.576-19.77-15.874-23.552v-148.618c33.954 1.516 35.596-51.118 1.64-51.118h-19.721l-173.138-129.892c-2.668-2.001-6.334-2.001-9.002 0l-70.154 52.631c-7.757 5.82 1.244 17.815 9.002 11.999l65.653-49.255 152.644 114.517h-43.286l-104.857-78.667c-2.668-2.001-6.334-2.001-9.002 0l-104.856 78.667h-43.285l55.316-41.5c7.757-5.819-1.246-17.82-9.002-11.999l-71.311 53.499h-19.72c-33.956 0-32.314 52.635 1.64 51.118v148.53c-9.415 3.727-16.095 12.915-16.095 23.64v4.45h-18.862c-4.143 0-7.5 3.358-7.5 7.5v28.92h-10.324c-4.143 0-7.5 3.358-7.5 7.5v101.449c0 4.142 3.357 7.5 7.5 7.5h408.5c9.697 0 9.697-15 0-15h-46.759v-18.816h127.759v18.816h-36.329c-9.697 0-9.697 15 0 15h43.829c4.143 0 7.5-3.358 7.5-7.5v-101.449c0-4.142-3.357-7.5-7.5-7.5zm-7.5 15v18.816h-127.759v-18.816zm-44.406-55.87v4.45h-54.886v-4.45c0-5.745 4.674-10.419 10.419-10.419h34.048c5.745 0 10.419 4.674 10.419 10.419zm-113.936-23.64v-148.53h60.808v148.272c-9.764 3.55-16.758 12.922-16.758 23.898v4.45h-27.955v-4.45c0-10.725-6.68-19.913-16.095-23.64zm-113.062-.087v-148.443h60.809v148.356c-9.648 3.61-16.537 12.922-16.537 23.814v4.45h-27.955v-4.45c-.001-10.809-6.785-20.058-16.317-23.727zm-113.062-.087v-148.356h60.808v148.443c-9.531 3.67-16.315 12.918-16.315 23.727v4.45h-27.955v-4.45c-.001-10.893-6.89-20.204-16.538-23.814zm59.492 23.814c0-5.745 4.674-10.419 10.419-10.419h34.048c5.745 0 10.419 4.674 10.419 10.419v4.45h-54.886zm16.316-25.419v-146.751h22.254v146.751zm96.525 25.419c0-5.745 4.674-10.419 10.419-10.419h34.048c5.745 0 10.419 4.674 10.419 10.419v4.45h-54.886zm16.537-25.419v-146.751h22.254v146.751zm113.062 0v-146.751h22.254v146.751zm-158.466-261.16 84.362 63.291h-168.724zm-197.359 99.409c-5.822 0-10.559-4.737-10.559-10.559s4.736-10.559 10.559-10.559h394.719c13.208 0 13.813 21.118 0 21.118-131.574 0-263.146 0-394.719 0zm38.893 15v146.751h-22.254v-146.751zm-38.348 172.17c0-5.745 4.674-10.419 10.419-10.419h34.048c5.745 0 10.419 4.674 10.419 10.419v4.45h-54.886zm83.573 142.319h-127.759v-18.816h127.759zm0-33.816h-127.759v-18.816h127.759zm0-33.817h-127.759v-18.816h127.759zm211.482 67.515h-196.482v-86.331h196.482zm-321.417-101.633v-21.118h446.352v21.118zm336.417 67.935v-18.816h127.759v18.816z"/></g></svg>