<svg id="Layer_1" enable-background="new 0 0 511.905 511.905" height="512" viewBox="0 0 511.905 511.905" width="512" xmlns="http://www.w3.org/2000/svg"><g><g><g><path d="m135.036 304.202c-26.85 33.145-81.097 61.625-127.631 70.22 0 0 74.637 41.087 187.487 10.687 108.901-29.337 194.628-147.171 167.762-280.165l43.365-43.733h-56.112c-16.132-38.537-58.999-60.946-99.981-50.878-43.692 10.734-72.295 55.279-64.385 99.879 1.461 16.034 13.233 111.907-50.505 193.99z" fill="#b5e8e0"/><path d="m406.02 61.211h-56.112c-16.132-38.537-58.999-60.946-99.981-50.878-.024.006-.048.014-.072.02 26.298 6.371 65.051 40.575 72.801 94.591 20.701 144.283-58.861 250.828-167.762 280.165-22.344 6.019-43.183 9.228-62.248 10.516 28.454 1.975 63.042.046 102.248-10.516 108.901-29.337 194.628-147.171 167.762-280.165z" fill="#97dbd1"/><path d="m153.41 307.386c-108.514-18.172-150.946-144.716-117.175-250.436 0 0 41.493 74.059 148.591 77.354 56.235 1.73 88.464 48.63 81.304 96.845-8.427 56.746-61.72 84.778-112.72 76.237z" fill="#59a1a5"/><path d="m184.826 134.304c-107.097-3.295-148.591-77.354-148.591-77.354-5.114 16.009-8.469 32.495-10.123 49.011 22.923 20.988 62.573 45.669 123.381 47.54 56.235 1.73 88.464 48.63 81.304 96.845-3.405 22.928-14.136 41.165-29.079 54.199 32.308-9.604 58.694-34.884 64.413-73.396 7.159-48.215-25.07-95.114-81.305-96.845z" fill="#419296"/></g><path d="m488.142 314.494h-53.891l14.401-51.898c2.402-8.655-2.667-17.618-11.322-20.019-8.653-2.403-17.618 2.667-20.019 11.322l-16.814 60.595h-58.698l14.401-51.898c2.401-8.655-2.667-17.618-11.322-20.019-8.655-2.402-17.618 2.667-20.019 11.322l-16.814 60.595h-64.928c-8.982 0-16.263 7.281-16.263 16.263s7.281 16.263 16.263 16.263h55.902l-15.19 54.744h-62.396c-8.982 0-16.263 7.281-16.263 16.263s7.281 16.263 16.263 16.263h53.37l-13.88 50.022c-2.402 8.655 2.667 17.618 11.322 20.019 1.928.535 3.87.699 5.753.536 6.568-.57 12.4-5.131 14.266-11.858l16.293-58.719h58.698l-13.88 50.022c-2.401 8.655 2.667 17.618 11.322 20.019 1.928.535 3.87.699 5.753.536 6.568-.57 12.4-5.131 14.266-11.858l16.293-58.719h65.448c8.982 0 16.263-7.281 16.263-16.263s-7.281-16.263-16.263-16.263h-56.423l15.19-54.744h62.916c8.982 0 16.263-7.281 16.263-16.263.002-8.982-7.279-16.263-16.261-16.263zm-111.861 87.27h-58.698l15.19-54.744h58.698z" fill="#fff7e8"/></g><g><path d="m391.471 339.52h-58.698c-3.37 0-6.326 2.248-7.227 5.495l-15.19 54.744c-.733 5.557 1.676 8.726 7.227 9.505h58.698c3.37 0 6.326-2.248 7.227-5.495l15.19-54.744c.734-5.557-1.676-8.726-7.227-9.505zm-20.892 54.744h-43.131l11.028-39.744h43.131z"/><path d="m488.142 354.52c13.103 0 23.763-10.66 23.763-23.763s-10.66-23.763-23.763-23.763h-44.027l11.764-42.393c8.182-29.494-37.603-42.231-45.795-12.708l-15.289 55.101h-43.131l11.763-42.393c2.175-7.839.136-15.866-4.741-21.667 16.459-42.934 20.627-89.593 12.087-135.526l40.573-40.917c4.602-4.641 1.21-12.781-5.326-12.781h-51.269c-19.1-39.47-64.017-61.129-106.615-50.66-22.986 5.647-42.896 20.017-56.06 40.463-13.078 20.312-18.036 44.338-13.976 67.693.472 5.114.949 10.216 1.243 15.347-40.079-2.232-74.961-14.859-103.747-37.588-22.558-17.812-32.725-35.518-32.818-35.681-3.144-5.61-11.73-4.743-13.688 1.384-11.821 37.006-14.767 76.567-8.52 114.406 1.578 9.566 16.38 7.125 14.8-2.443-5.036-30.499-3.703-62.199 3.809-92.56 5.866 7.269 14.583 16.681 26.517 26.187 22.568 17.978 61.516 39.778 118.899 41.543 46.682 1.436 81.017 41.765 74.116 88.247-7.383 49.71-56.211 77.955-104.063 69.941-50.958-8.534-89.866-42.706-109.556-96.222-3.348-9.102-17.425-3.921-14.077 5.18 10.223 27.785 25.417 51.028 45.16 69.084 13.8 12.621 29.379 22.232 46.525 28.779-26.562 27.657-73.786 52.318-116.658 60.236-6.787 1.254-8.301 10.617-2.254 13.946 56.307 31.011 133.093 27.511 193.055 11.358 27.519-7.413 53.509-20.146 77.304-37.83h15.008l-11.028 39.744h-56.694c-13.103 0-23.763 10.66-23.763 23.763s10.66 23.763 23.763 23.763h43.506l-11.243 40.516c-8.047 29.002 37.715 41.832 45.795 12.708l14.769-53.224h43.131l-11.243 40.516c-8.051 29.018 37.717 41.825 45.795 12.708l14.769-53.224h12.35c9.697 0 9.697-15 0-15h-18.052c-3.37 0-6.326 2.248-7.227 5.495l-16.293 58.719c-2.856 10.296-19.776 5.724-16.887-4.687l13.88-50.021c.733-5.558-1.676-8.726-7.227-9.505h-58.698c-3.37 0-6.326 2.248-7.227 5.495l-16.293 58.719c-2.856 10.296-19.776 5.724-16.887-4.687l13.88-50.021c.733-5.558-1.676-8.726-7.227-9.505h-53.371c-4.832 0-8.763-3.931-8.763-8.763s3.931-8.763 8.763-8.763h62.396c3.37 0 6.326-2.248 7.227-5.495l15.19-54.744c.733-5.558-1.676-8.726-7.227-9.505h-55.902c-4.832 0-8.763-3.931-8.763-8.763s3.931-8.763 8.763-8.763h64.927c3.37 0 6.326-2.248 7.227-5.495l16.814-60.596c2.957-10.653 19.869-6.059 16.887 4.687l-14.4 51.898c-.733 5.557 1.676 8.726 7.227 9.505h58.698c3.37 0 6.326-2.248 7.227-5.495l16.814-60.596c3.03-10.917 19.917-6.23 16.887 4.687l-14.401 51.898c-.733 5.557 1.676 8.726 7.227 9.505h53.891c4.832 0 8.763 3.931 8.763 8.763s-3.931 8.763-8.763 8.763h-62.917c-3.37 0-6.326 2.248-7.227 5.495l-15.19 54.744c-.733 5.557 1.676 8.726 7.227 9.505h56.423c4.832 0 8.763 3.931 8.763 8.763s-3.931 8.763-8.763 8.763h-7.94c-9.697 0-9.697 15 0 15h7.94c13.103 0 23.763-10.66 23.763-23.763s-10.66-23.763-23.763-23.763h-46.559l11.028-39.744zm-159.312-116.957c-5.525 3.125-9.502 8.214-11.199 14.331l-15.289 55.101h-59.225c-13.103 0-23.763 10.66-23.763 23.763s10.66 23.763 23.763 23.763h4.183c-17.194 10.404-35.395 18.238-54.358 23.347-52.246 14.073-109.573 15.738-161.303-1.597 41.896-12.433 83.187-37.056 106.788-64.437 4.492 1.169 9.068 2.168 13.745 2.951 56.035 9.383 112.767-24.547 121.377-82.532 7.611-51.251-27.633-98.552-79.13-104.735-.314-6.141-.412-12.545-1.492-18.614-7.201-40.602 19.172-81.553 58.79-91.286 37.122-9.12 76.361 10.868 91.274 46.491 1.167 2.789 3.896 4.604 6.918 4.604h38.113l-30.691 30.952c-1.761 1.776-2.521 4.314-2.026 6.766 8.788 43.505 5.427 87.802-9.675 128.612-5.735-1.271-11.652-.392-16.8 2.52z"/></g></g></svg>