<svg id="Layer_1" enable-background="new 0 0 511.942 511.942" height="512" viewBox="0 0 511.942 511.942" width="512" xmlns="http://www.w3.org/2000/svg"><g><g><g><path d="m425.525 404.856h-339.137c-14.438 0-26.143-11.705-26.143-26.143v-245.471c0-14.438 11.705-26.143 26.143-26.143h339.137c14.438 0 26.143 11.705 26.143 26.143v245.471c0 14.438-11.705 26.143-26.143 26.143z" fill="#ff7893"/><path d="m425.525 107.099h-40c14.438 0 26.143 11.705 26.143 26.143v245.471c0 14.438-11.705 26.143-26.143 26.143h40c14.438 0 26.143-11.705 26.143-26.143v-245.471c0-14.439-11.705-26.143-26.143-26.143z" fill="#ff5e7f"/><path d="m322.526 240.923-115.756-66.831c-11.589-6.691-26.075 1.673-26.075 15.054v133.663c0 13.382 14.486 21.745 26.075 15.054l115.755-66.831c11.59-6.691 11.59-23.418.001-30.109z" fill="#fff7e8"/></g><g><path d="m120.796 376.986h-79.42c-6.604 0-12.513 4.104-14.82 10.292l-18.091 48.54c-3.852 10.334 3.791 21.339 14.82 21.339h41.966l-5.943 35.128c-1.544 11.117 13.722 16.897 19.886 7.43l41.602-56.234z" fill="#fff7e8"/><path d="m142.601 376.986h-21.804v66.495h21.804c4.947 0 8.958-4.01 8.958-8.958v-48.58c-.001-4.947-4.011-8.957-8.958-8.957z" fill="#ffd88f"/></g><g><path d="m391.116 134.969h79.42c6.604 0 12.513-4.104 14.82-10.292l18.091-48.54c3.852-10.334-3.791-21.339-14.82-21.339h-41.966l5.943-35.128c1.544-11.117-13.723-16.897-19.886-7.43l-41.602 56.234z" fill="#fff7e8"/><g><path d="m488.627 54.798h-40c11.029 0 18.671 11.004 14.82 21.339l-18.091 48.54c-2.306 6.188-8.215 10.292-14.82 10.292h40c6.604 0 12.513-4.104 14.82-10.292l18.091-48.54c3.851-10.335-3.791-21.339-14.82-21.339z" fill="#fff1d6"/></g><path d="m369.312 134.969h21.804v-66.495h-21.804c-4.947 0-8.958 4.01-8.958 8.958v48.58c0 4.946 4.011 8.957 8.958 8.957z" fill="#ffd88f"/></g></g><g><path d="m188.196 250.977c0-9.486-15-9.892-15-.013v71.844c0 18.834 21.013 30.968 37.325 21.55l115.755-66.832c16.312-9.417 16.31-33.681 0-43.099l-115.756-66.831c-16.311-9.418-37.325 2.716-37.325 21.55v21.838c0 10.888 17.873 8.626 15-1.975v-19.864c0-7.553 8.283-12.337 14.825-8.56l115.755 66.831c6.542 3.777 6.542 13.342 0 17.119l-115.755 66.833c-6.542 3.776-14.825-1.005-14.825-8.56.001-23.934.001-47.927.001-71.831z"/><path d="m507.777 57.313c-4.356-6.271-11.515-10.016-19.15-10.016h-33.09l4.463-26.377c3.12-18.592-23.085-28.424-33.428-12.983l-39.236 53.036h-18.024c-9.075 0-16.458 7.383-16.458 16.458v22.167h-266.466c-18.551 0-33.643 15.092-33.643 33.643v236.244h-11.368c-9.685 0-18.465 6.098-21.848 15.173l-18.091 48.54c-5.617 15.072 5.96 31.458 21.848 31.458h33.09l-4.463 26.377c-3.119 18.592 23.105 28.395 33.428 12.983l39.236-53.036h18.024c9.075 0 16.458-7.383 16.458-16.458v-22.167h192.898c9.697 0 9.697-15 0-15h-192.899v-11.412c0-9.075-7.383-16.458-16.458-16.458h-74.855v-236.244c0-10.28 8.363-18.643 18.643-18.643h266.466v11.412c0 9.075 7.383 16.458 16.458 16.458h74.856v236.244c0 10.28-8.363 18.643-18.643 18.643h-30.408c-9.697 0-9.697 15 0 15h30.408c18.551 0 33.643-15.092 33.643-33.643v-236.243h11.368c9.685 0 18.465-6.098 21.848-15.173l18.091-48.54c2.666-7.155 1.658-15.171-2.698-21.443zm-363.719 328.631v48.58c0 .804-.654 1.458-1.458 1.458h-14.305v-51.496h14.305c.805 0 1.458.654 1.458 1.458zm-30.762 55.065-40.131 54.247c-1.715 2.318-6.903 2.118-6.438-1.857l5.92-34.99c.243-5.205-2.222-8.122-7.395-8.751h-41.966c-5.718 0-9.789-5.861-7.792-11.22l18.091-48.54c1.207-3.237 4.338-5.412 7.792-5.412h71.919zm254.558-314.998v-48.58c0-.804.654-1.458 1.458-1.458h14.305v51.496h-14.305c-.804 0-1.458-.654-1.458-1.458zm128.565-52.494-18.091 48.54c-1.207 3.237-4.338 5.412-7.792 5.412h-71.919v-56.523l40.131-54.247c1.715-2.318 6.903-2.117 6.438 1.857l-5.92 34.99c-.243 5.205 2.222 8.122 7.395 8.751h41.966c5.718.001 9.789 5.862 7.792 11.22z"/></g></g></svg>