<svg id="Layer_1" enable-background="new 0 0 512.001 512.001" height="512" viewBox="0 0 512.001 512.001" width="512" xmlns="http://www.w3.org/2000/svg"><g><g><g><g><g><path d="m95.548 266.79h-40.906c-16.59 0-30.038-13.448-30.038-30.038v-.066c0-16.59 13.448-30.038 30.038-30.038h40.906z" fill="#ff9e5e"/><path d="m416.453 206.648h40.906c16.59 0 30.038 13.449 30.038 30.038v.066c0 16.59-13.449 30.038-30.038 30.038h-40.906z" fill="#ff9e5e"/><path d="m439.859 423.05h-367.717c-26.255 0-47.539-21.284-47.539-47.539v-62.401c0-26.255 21.284-47.539 47.539-47.539l182.665-30.343 185.051 30.343c26.255 0 47.539 21.284 47.539 47.539v62.402c0 26.254-21.283 47.538-47.538 47.538z" fill="#ffd88f"/><path d="m439.859 265.571h-40c26.255 0 47.539 21.284 47.539 47.539v62.402c0 26.255-21.284 47.539-47.539 47.539h40c26.255 0 47.539-21.284 47.539-47.539v-62.402c-.001-26.255-21.284-47.539-47.539-47.539z" fill="#ffc963"/><path d="m128.35 386.974h-103.746v-65.851h37.968c36.328 0 65.778 29.45 65.778 65.778z" fill="#fff7e8"/><path d="m383.651 386.974h103.746v-65.851h-37.968c-36.328 0-65.778 29.45-65.778 65.778z" fill="#fff7e8"/><path d="m449.429 321.124c-.682 0-1.355.031-2.032.051v65.799h40v-65.851h-37.968z" fill="#fff1d6"/><path d="m322.249 113.42h-132.496v-46.835c0-15.155 12.286-27.441 27.441-27.441h77.614c15.155 0 27.441 12.286 27.441 27.441z" fill="#ffd88f"/><path d="m294.807 39.144h-40c15.155 0 27.441 12.286 27.441 27.441v36.836h40v-36.836c.001-15.156-12.285-27.441-27.441-27.441z" fill="#ffc963"/><path d="m110.595 504.501h-42.236c-15.41 0-27.903-12.492-27.903-27.903v-43.337h98.042v43.337c0 15.411-12.493 27.903-27.903 27.903z" fill="#59a1a5"/><path d="m443.643 504.501h-42.237c-15.41 0-27.903-12.492-27.903-27.903v-43.337h98.042v43.337c0 15.411-12.492 27.903-27.902 27.903z" fill="#59a1a5"/><path d="m431.545 433.262v43.337c0 15.41-12.493 27.903-27.903 27.903h40c15.41 0 27.903-12.492 27.903-27.903v-43.337z" fill="#419296"/><path d="m479.259 437.512h-446.517c-13.94 0-25.241-11.301-25.241-25.241v-.056c0-13.94 11.301-25.241 25.241-25.241h446.518c13.94 0 25.241 11.301 25.241 25.241v.056c0 13.94-11.301 25.241-25.242 25.241z" fill="#b5e8e0"/><path d="m479.259 386.974h-40c13.94 0 25.241 11.301 25.241 25.241v.056c0 13.94-11.301 25.241-25.241 25.241h40c13.94 0 25.241-11.301 25.241-25.241v-.056c.001-13.94-11.3-25.241-25.241-25.241z" fill="#97dbd1"/><path d="m72.09 265.571 38.553-146.199c2.479-9.402 10.966-15.952 20.67-15.952h249.376c9.704 0 18.191 6.55 20.67 15.952l38.553 146.199z" fill="#b5e8e0"/><path d="m401.358 119.372c-2.479-9.402-10.966-15.952-20.67-15.952h-40c9.704 0 18.19 6.55 20.67 15.952l38.553 146.199h40z" fill="#97dbd1"/></g></g></g></g><g><path d="m494.897 383.457c0-23.449 0-46.898 0-70.348 0-17.318-8.048-32.784-20.591-42.881 12.204-6.207 20.591-18.894 20.591-33.543 0-20.699-16.84-37.538-37.538-37.538h-27.208l-21.541-81.687c-3.343-12.683-14.825-21.541-27.922-21.541h-50.939v-29.334c0-19.267-15.675-34.941-34.941-34.941h-77.613c-19.267 0-34.941 15.674-34.941 34.941v29.335h-50.939c-13.097 0-24.579 8.858-27.922 21.54l-5.182 19.646c-2.474 9.377 12.033 13.202 14.504 3.825l5.182-19.647c1.608-6.102 7.126-10.364 13.418-10.364h249.375c6.292 0 11.81 4.262 13.418 10.365l36.071 136.786h-348.355l21.506-81.559c2.474-9.377-12.032-13.2-14.504-3.824l-6.977 26.459h-27.207c-20.698 0-37.538 16.839-37.538 37.604 0 14.602 8.386 27.274 20.59 33.478-12.543 10.097-20.59 25.562-20.59 42.88v70.349c-10.181 5.562-17.104 16.38-17.104 28.812 0 18.053 14.688 32.741 32.741 32.741h.214v31.586c0 19.521 15.882 35.403 35.403 35.403h42.236c19.521 0 35.402-15.882 35.402-35.403v-31.586h220.006v31.586c0 19.521 15.882 35.403 35.402 35.403h42.236c19.521 0 35.403-15.882 35.403-35.403v-31.586h.214c18.054 0 32.741-14.688 32.741-32.796.003-12.393-6.92-23.2-17.101-28.758zm-297.644-287.537v-29.335c0-10.996 8.945-19.941 19.941-19.941h77.613c10.996 0 19.941 8.945 19.941 19.941v29.335zm-66.255 380.678c0 11.25-9.152 20.403-20.402 20.403h-42.237c-11.25 0-20.403-9.153-20.403-20.403v-31.586h83.042zm333.048 0c0 11.25-9.153 20.403-20.403 20.403h-42.236c-11.25 0-20.402-9.153-20.402-20.403v-31.586h83.042v31.586zm15.851-97.124h-88.275c3.66-28.639 28.189-50.851 57.808-50.851h30.468v50.851zm-22.538-165.326c12.428 0 22.538 10.11 22.538 22.604 0 12.428-10.11 22.538-22.538 22.538-4.122.232-7.436-.451-11.585-.897l-11.668-44.246h23.253zm-402.717 45.142c-12.428 0-22.538-10.11-22.538-22.605 0-12.428 10.11-22.538 22.538-22.538h23.252l-11.667 44.246c-4.149.446-7.462 1.129-11.585.897zm-22.538 69.334h30.468c29.618 0 54.147 22.211 57.808 50.851h-88.276zm447.155 101.388h-446.517c-9.782 0-17.741-7.958-17.741-17.796 0-9.783 7.959-17.741 17.741-17.741h280.989c9.697 0 9.697-15 0-15h-178.256c-3.734-36.931-35.004-65.851-72.903-65.851h-30.468v-.514c0-22.059 17.931-40.007 39.983-40.037.003 0 .006.001.009.001.004 0 .009-.001.013-.001.011 0 .022-.001.034-.001h367.717c.011 0 .022.001.034.001.004 0 .009.001.013.001.003 0 .006-.001.009-.001 22.052.03 39.983 17.979 39.983 40.037v.514h-30.468c-37.899 0-69.169 28.92-72.903 65.851h-23.081c-9.697 0-9.697 15 0 15h125.814c9.782 0 17.741 7.958 17.741 17.797-.001 9.781-7.96 17.74-17.743 17.74z"/><path d="m277.131 63.782h-42.261c-4.143 0-7.5 3.358-7.5 7.5s3.357 7.5 7.5 7.5h42.262c4.143 0 7.5-3.358 7.5-7.5s-3.358-7.5-7.501-7.5z"/><path d="m141.734 13.874 25.704 15.948c7.979 4.948 16.129-7.646 7.908-12.746l-25.704-15.948c-3.521-2.184-8.144-1.101-10.327 2.419-2.184 3.52-1.101 8.144 2.419 10.327z"/><path d="m121.239 71.501h33.591c9.697 0 9.697-15 0-15h-33.591c-4.143 0-7.5 3.358-7.5 7.5s3.357 7.5 7.5 7.5z"/><path d="m340.616 30.95c1.35 0 2.716-.364 3.947-1.128l25.704-15.948c3.52-2.184 4.603-6.807 2.419-10.327-2.185-3.52-6.806-4.603-10.327-2.419l-25.704 15.948c-6.487 4.024-3.148 13.874 3.961 13.874z"/><path d="m349.671 64.001c0 4.142 3.357 7.5 7.5 7.5h33.591c4.143 0 7.5-3.358 7.5-7.5s-3.357-7.5-7.5-7.5h-33.591c-4.142 0-7.5 3.358-7.5 7.5z"/></g></g></svg>