<svg id="Layer_1" enable-background="new 0 0 512.001 512.001" height="512" viewBox="0 0 512.001 512.001" width="512" xmlns="http://www.w3.org/2000/svg"><g><g><g><g><path d="m389.529 353.769h49.339l-63.919-75.613h-49.34z" fill="#b5e8e0"/></g><g><path d="m64.854 7.5h439.646v305.416h-439.646z" fill="#59a1a5"/><path d="m166.73-24.855h235.895v370.127h-235.895z" fill="#ff7893" transform="matrix(0 1 -1 0 444.886 -124.469)"/><path d="m429.741 42.261h40v235.895h-40z" fill="#ff5e7f"/></g></g><g><g><path d="m191.172 309.471c27.098-1.427 47.909-24.551 46.482-51.649-1.358-25.794-22.378-45.875-47.768-46.52-.003-.056-.002-.111-.004-.167-1.034-19.627-17.782-34.7-37.409-33.667-9.889.521-18.618 5.033-24.717 11.891-9.527-9.719-23.015-15.463-37.675-14.691-27.098 1.427-47.909 24.551-46.482 51.649.001.03.005.059.007.088-.791-.011-1.586-.005-2.387.037-19.627 1.033-34.7 17.782-33.667 37.409s17.782 34.7 37.409 33.667l32.17 11.952h114.041z" fill="#fff7e8"/><g><path d="m237.653 257.822c-1.358-25.794-22.378-45.875-47.768-46.519-.003-.056-.002-.111-.004-.167-1.034-19.627-17.782-34.7-37.409-33.667-6.738.355-12.935 2.566-18.131 6.106 8.877 6.042 14.932 16.01 15.54 27.561.003.056.002.111.004.167 25.39.645 46.41 20.726 47.768 46.519 1.427 27.098-19.384 50.222-46.482 51.649h40c27.099-1.427 47.909-24.551 46.482-51.649z" fill="#fff1d6"/></g><g><path d="m103.348 448.851h-31.558c-3.965 0-7.401-2.744-8.279-6.61l-34.784-135.482c-3.465-19.568 11.585-37.517 31.457-37.517h.063c17.643 0 31.946 14.303 31.946 31.946z" fill="#ffd88f"/><path d="m144.931 448.851h31.558c3.965 0 7.401-2.744 8.279-6.61l34.784-135.482c3.465-19.568-11.585-37.517-31.457-37.517h-.063c-17.643 0-31.946 14.303-31.946 31.946z" fill="#ffd88f"/><path d="m144.931 448.851h-41.583l-11.155-147.663c0-17.643 14.303-31.946 31.946-31.946 17.643 0 31.946 14.303 31.946 31.946z" fill="#ff9e5e"/></g></g><g><path d="m251.923 504.5h-53.866c-8.298 0-15.024-6.727-15.024-15.025v-132.008c0-8.298 6.727-15.025 15.024-15.025h53.866c8.298 0 15.025 6.727 15.025 15.025v132.009c0 8.298-6.727 15.024-15.025 15.024z" fill="#b5e8e0"/><path d="m251.923 342.442h-40c8.298 0 15.025 6.727 15.025 15.025v132.009c0 8.298-6.727 15.024-15.025 15.024h40c8.298 0 15.025-6.727 15.025-15.024v-132.009c0-8.298-6.727-15.025-15.025-15.025z" fill="#97dbd1"/><path d="m183.032 369.026h83.915v98.337h-83.915z" fill="#ff7893"/><path d="m226.948 369.026h40v98.337h-40z" fill="#ff5e7f"/></g></g></g><g><path d="m504.501 67.806c4.143 0 7.5-3.358 7.5-7.5v-52.806c0-4.142-3.357-7.5-7.5-7.5h-439.647c-4.142 0-7.5 3.358-7.5 7.5v171.994c-11.995 9.598-19.968 23.922-21.169 39.951-9.68 1.552-18.473 6.323-25.124 13.713-7.699 8.555-11.605 19.596-11 31.088.758 14.404 8.59 27.257 20.752 34.598-.179 3.053-.016 6.145.529 9.223.033.188.074.374.121.558l34.762 135.395c1.706 7.267 8.09 12.332 15.565 12.332h103.743v33.125c0 12.42 10.104 22.524 22.524 22.524h53.866c12.42 0 22.525-10.104 22.525-22.524v-132.01c0-12.42-10.104-22.524-22.525-22.524h-31.864l3.73-14.527h127.724l32.288 38.195c1.425 1.686 3.521 2.658 5.728 2.658h49.34c6.263 0 9.771-7.559 5.728-12.342l-24.102-28.512h84.006c4.143 0 7.5-3.358 7.5-7.5v-210.808c0-9.697-15-9.697-15 0v203.309h-269.696c.141-1.303.226-2.606.237-3.904 4.904-4.635 8.864-9.999 11.786-15.856h230.412c4.143 0 7.5-3.358 7.5-7.5v-235.895c0-4.142-3.357-7.5-7.5-7.5h-370.126c-4.142 0-7.5 3.358-7.5 7.5v124.846c-6.745.064-13.464 1.341-19.76 3.765v-155.872h424.646v45.306c.001 4.142 3.358 7.5 7.501 7.5zm-432.711 373.545c-.601-.158-.939-.483-1.015-.976l-34.708-135.186c-2.422-14.587 9.367-28.447 24.18-28.447 13.48 0 24.446 10.967 24.446 24.446 0 .188.007.377.021.565l3.095 40.971c.731 9.674 15.687 8.538 14.957-1.13l-3.068-40.62c.116-13.381 11.033-24.233 24.441-24.233s24.325 10.852 24.44 24.233l-10.604 140.376h-27.674l-4.526-59.915c-.73-9.67-15.687-8.539-14.957 1.13l4.44 58.785h-23.468zm187.658 18.512h-68.916v-83.337h68.916zm-7.525 37.137h-53.866c-4.149 0-7.524-3.375-7.524-7.524v-14.613h68.916v14.613c-.001 4.149-3.377 7.524-7.526 7.524zm7.525-139.533v4.059h-68.916v-4.059c0-4.149 3.375-7.524 7.524-7.524h53.866c4.15 0 7.526 3.375 7.526 7.524zm-61.391-22.524c-12.42 0-22.524 10.104-22.524 22.524v83.884h-22.513l10.545-139.598c.014-.188.021-.376.021-.565 0-13.479 10.966-24.446 24.51-24.446 14.74 0 26.538 13.861 24.116 28.447l-7.639 29.754zm224.651 11.326h-29.698l-21.855-25.854h29.699zm39.533-296.508v220.896h-217.923c.777-4.299 1.062-8.731.825-13.229-1.429-27.131-22.245-49.324-48.583-53.081-1.824-8.985-6.454-17.121-13.394-23.367-8.555-7.699-19.595-11.596-31.088-11-9.045.476-17.507 3.697-24.455 9.215-6.098-4.786-13.086-8.244-20.508-10.207v-119.227zm-371.767 132.397c11.911-.636 23.552 3.911 31.924 12.452 3.73 3.085 7.384 2.997 10.96-.266 5.03-5.655 11.958-8.988 19.508-9.385 7.5-.394 14.689 2.152 20.266 7.17 5.555 4.999 8.839 11.854 9.254 19.311.002.067.004.143.006.188.171 3.938 3.362 7.072 7.302 7.172 21.558.547 39.334 17.861 40.469 39.417.48 9.115-1.958 17.865-6.853 25.207-6.647-13.151-20.52-21.681-35.279-21.681-13.129 0-24.771 6.454-31.945 16.348-7.174-9.895-18.818-16.348-31.947-16.348-13.13 0-24.775 6.455-31.949 16.351-7.18-9.896-18.839-16.351-32.007-16.351-14.739 0-28.596 8.57-35.224 21.699-5.848-4.934-9.504-12.106-9.919-19.983-.395-7.492 2.152-14.689 7.17-20.266 5.019-5.577 11.909-8.865 19.403-9.26 4.741-.247 9.996-1.939 9.467-8.11-1.148-22.883 16.502-42.459 39.394-43.665z"/><path d="m284.677 189.393c-10.84 0-21.035 4.226-28.708 11.899-6.857 6.857 3.749 17.462 10.607 10.606 4.84-4.84 11.269-7.506 18.102-7.506s13.262 2.666 18.102 7.506c6.857 6.857 17.464-3.749 10.607-10.606-7.675-7.673-17.87-11.899-28.71-11.899z"/><path d="m284.677 148.683c-21.596 0-41.91 8.42-57.2 23.71-6.858 6.857 3.75 17.463 10.606 10.606 12.457-12.457 29.003-19.317 46.593-19.317s34.137 6.86 46.593 19.317c6.857 6.857 17.465-3.749 10.607-10.606-15.289-15.29-35.603-23.71-57.199-23.71z"/><path d="m216.802 149.461c37.427-37.427 98.325-37.427 135.75 0 6.858 6.856 17.465-3.749 10.607-10.606-43.275-43.275-113.689-43.274-156.964 0-6.857 6.856 3.75 17.462 10.607 10.606z"/></g></g></svg>