<svg id="Layer_1" enable-background="new 0 0 512 512" height="512" viewBox="0 0 512 512" width="512" xmlns="http://www.w3.org/2000/svg"><g><g><g><g><path d="m445.479 504.5h-378.958c-32.596 0-59.021-26.425-59.021-59.021v-378.958c0-32.596 26.425-59.021 59.021-59.021h378.958c32.596 0 59.021 26.425 59.021 59.021v378.958c0 32.596-26.425 59.021-59.021 59.021z" fill="#fff7e8"/><path d="m445.479 7.5h-40c32.596 0 59.021 26.425 59.021 59.021v378.958c0 32.596-26.425 59.021-59.021 59.021h40c32.596 0 59.021-26.425 59.021-59.021v-378.958c0-32.596-26.425-59.021-59.021-59.021z" fill="#fff1d6"/><g><path d="m504.5 66.521c0-32.597-26.425-59.021-59.021-59.021h-378.958c-32.596 0-59.021 26.425-59.021 59.021v60.95h497z" fill="#ff9e5e"/></g><path d="m445.479 7.5h-40c32.597 0 59.021 26.425 59.021 59.021v60.95h40v-60.95c0-32.596-26.425-59.021-59.021-59.021z" fill="#fa8d46"/><path d="m436.514 88.501h-74.693c-11.556 0-20.924-9.368-20.924-20.924v-.183c0-11.556 9.368-20.925 20.924-20.925h74.693c11.556 0 20.924 9.368 20.924 20.925v.183c.001 11.556-9.368 20.924-20.924 20.924z" fill="#fff7e8"/><g><circle cx="256" cy="285.997" fill="#ffd88f" r="180.421"/><g><circle cx="256" cy="285.997" fill="#59a1a5" r="123.013"/></g></g></g></g><g><circle cx="256" cy="285.997" fill="#ffd88f" r="180.421"/><g><circle cx="256" cy="285.997" fill="#59a1a5" r="123.013"/></g></g><g><circle cx="256" cy="285.997" fill="#ffd88f" r="180.421"/><g><circle cx="256" cy="285.997" fill="#ff7893" r="123.013"/></g><path d="m256 162.983c-6.811 0-13.49.563-20 1.627 58.425 9.554 103.013 60.259 103.013 121.386s-44.588 111.832-103.013 121.386c6.51 1.065 13.189 1.627 20 1.627 67.938 0 123.013-55.075 123.013-123.013s-55.075-123.013-123.013-123.013z" fill="#ff5e7f"/></g><path d="m286.484 236.426c-12.198 0-23.117 5.444-30.484 14.027-7.367-8.583-18.286-14.027-30.484-14.027-22.184 0-40.167 17.983-40.167 40.167 0 47.722 70.651 73.879 70.651 73.879s70.651-26.156 70.651-73.879c0-22.184-17.984-40.167-40.167-40.167z" fill="#fff7e8"/></g><g><path d="m445.479 0h-306.75c-4.142 0-7.5 3.358-7.5 7.5s3.358 7.5 7.5 7.5h306.75c28.409 0 51.521 23.112 51.521 51.521v51.979h-155.853c-25.576-13.054-54.516-20.424-85.147-20.424s-59.571 7.37-85.147 20.424h-155.853v-51.979c0-28.409 23.112-51.521 51.521-51.521h32.56c4.142 0 7.5-3.358 7.5-7.5s-3.358-7.5-7.5-7.5h-32.56c-36.68 0-66.521 29.841-66.521 66.521v378.958c0 36.68 29.841 66.521 66.521 66.521h378.958c36.68 0 66.521-29.841 66.521-66.521v-378.958c0-36.68-29.841-66.521-66.521-66.521zm-16.558 285.997c0 95.349-77.572 172.921-172.921 172.921s-172.921-77.572-172.921-172.921 77.572-172.921 172.921-172.921 172.921 77.571 172.921 172.921zm16.558 211.003h-378.958c-28.409 0-51.521-23.112-51.521-51.521v-311.979h131.317c-47.353 34.154-78.239 89.783-78.239 152.497 0 103.62 84.301 187.921 187.921 187.921s187.921-84.301 187.921-187.921c0-62.714-30.886-118.342-78.239-152.497h131.319v311.979c0 28.409-23.112 51.521-51.521 51.521z"/><path d="m436.514 96.001c15.673 0 28.424-12.751 28.424-28.425v-.183c0-15.673-12.751-28.424-28.424-28.424h-74.693c-15.673 0-28.425 12.751-28.425 28.424v.183c0 15.673 12.751 28.425 28.425 28.425zm-88.118-28.424v-.183c0-7.402 6.022-13.424 13.425-13.424h74.693c7.402 0 13.424 6.022 13.424 13.424v.183c0 7.402-6.022 13.425-13.424 13.425h-74.693c-7.402-.001-13.425-6.023-13.425-13.425z"/><path d="m256 416.51c71.965 0 130.513-58.548 130.513-130.513s-58.548-130.514-130.513-130.514-130.513 58.548-130.513 130.513 58.548 130.514 130.513 130.514zm0-246.027c63.694 0 115.513 51.819 115.513 115.513s-51.819 115.514-115.513 115.514-115.513-51.819-115.513-115.513 51.819-115.514 115.513-115.514z"/><path d="m216.341 337.549c18.258 12.926 36.296 19.675 37.055 19.956 1.736.622 3.472.622 5.208 0 .862-.319 21.326-7.983 40.729-22.645 7.737-5.846-1.307-17.815-9.043-11.968-13.753 10.392-28.458 17.058-34.295 19.5-5.365-2.238-18.205-8.036-30.987-17.086-26.58-18.817-32.159-36.877-32.159-48.714 0-18.012 14.654-32.667 32.667-32.667 9.531 0 18.568 4.159 24.793 11.412 3.794 3.487 7.588 3.487 11.382 0 6.225-7.252 15.262-11.412 24.793-11.412 18.013 0 32.667 14.654 32.667 32.667 0 6.511-1.594 13.002-4.739 19.291-4.337 8.673 9.079 15.382 13.416 6.708 4.195-8.391 6.323-17.138 6.323-25.999 0-26.283-21.383-47.667-47.667-47.667-11.227 0-21.98 3.95-30.484 11.033-8.504-7.083-19.257-11.033-30.484-11.033-26.284 0-47.667 21.383-47.667 47.667 0 22.052 13.31 43.13 38.492 60.957z"/></g></g></svg>