<svg id="Layer_1" enable-background="new 0 0 512 512" height="512" viewBox="0 0 512 512" width="512" xmlns="http://www.w3.org/2000/svg"><g><g><g><path d="m7.5 178.818h497v325.785h-497z" fill="#fff7e8"/><path d="m460.5 178.818h44v325.785h-44z" fill="#fff1d6"/><g><g><path d="m50.796 238.878h187.853v178.921h-187.853z" fill="#ff9e5e"/><path d="m273.351 238.878h187.853v101.798h-187.853z" fill="#ff7893"/><path d="m273.351 377.803h187.853v126.8h-187.853z" fill="#b5e8e0"/><path d="m50.796 452.917h187.853v51.686h-187.853z" fill="#59a1a5"/></g></g></g><g><path d="m264.414 206.049 19.127-93.616-55.004-.047 19.424 93.68c1.38 9.5 15.093 9.485 16.453-.017z" fill="#b5e8e0"/><ellipse cx="256" cy="72.387" fill="#ff7893" rx="64.69" ry="64.826" transform="matrix(.83 -.557 .557 .83 3.09 154.924)"/><path d="m301.723 26.617c-17.829-17.839-43.434-23.109-65.843-15.839 9.446 3.061 18.336 8.328 25.842 15.838 25.307 25.321 25.352 66.34.1 91.618-7.462 7.47-16.303 12.711-25.703 15.761 22.399 7.258 47.941 2.02 65.703-15.761 25.253-25.278 25.208-66.296-.099-91.617z" fill="#ff5e7f"/></g></g><g><path d="m504.5 171.318h-225.333l6.756-33.067c7.795-3.54 14.976-8.478 21.207-14.716 24.08-24.105 27.964-62.273 9.236-90.756-5.327-8.103-17.86.139-12.533 8.241 14.841 22.571 11.765 52.815-7.314 71.915-10.783 10.794-25.124 16.736-40.391 16.736-.016 0-.033 0-.05 0-15.289-.013-29.67-5.985-40.495-16.815-22.345-22.357-22.39-58.701-.1-81.015 15.904-15.921 39.799-21.001 60.872-12.943 9.06 3.461 14.415-10.548 5.357-14.011-26.597-10.168-56.759-3.75-76.842 16.353-28.131 28.162-28.085 74.017.103 102.22 6.25 6.254 13.449 11.206 21.26 14.758l6.863 33.101h-225.596c-4.143 0-7.5 3.358-7.5 7.5v325.785c0 9.697 15 9.697 15 0v-318.286h221.207l4.371 21.081c2.758 17.2 28.482 17.313 31.224-.035l4.3-21.045h220.898v318.285c0 9.697 15 9.697 15 0v-325.786c0-4.142-3.357-7.5-7.5-7.5zm-247.509 33.669c-.247 1.71-1.579.074-1.686-.443l-12.677-61.14c8.86 1.666 18.066 1.672 26.928.012l-12.49 61.132c-.029.146-.054.292-.075.439z"/><path d="m238.649 231.378h-187.853c-4.143 0-7.5 3.358-7.5 7.5v99.365c0 9.697 15 9.697 15 0v-91.865h172.854v163.921h-172.854v-32.323c0-9.697-15-9.697-15 0v39.823c0 4.142 3.357 7.5 7.5 7.5h187.854c4.143 0 7.5-3.358 7.5-7.5v-178.921c-.001-4.142-3.358-7.5-7.501-7.5z"/><path d="m461.204 231.378h-187.853c-4.143 0-7.5 3.358-7.5 7.5v101.798c0 4.142 3.357 7.5 7.5 7.5h187.854c4.143 0 7.5-3.358 7.5-7.5v-101.798c-.001-4.142-3.358-7.5-7.501-7.5zm-7.5 101.798h-172.853v-86.798h172.854v86.798z"/><path d="m461.204 370.303h-187.853c-4.143 0-7.5 3.358-7.5 7.5v126.8c0 9.697 15 9.697 15 0v-119.3h172.854v119.3c0 9.697 15 9.697 15 0v-126.8c-.001-4.142-3.358-7.5-7.501-7.5z"/><path d="m238.649 445.418h-187.853c-4.143 0-7.5 3.358-7.5 7.5v51.686c0 9.697 15 9.697 15 0v-44.186h172.854v44.186c0 9.697 15 9.697 15 0v-51.686c-.001-4.142-3.358-7.5-7.501-7.5z"/></g></g></svg>