<svg id="Layer_1" enable-background="new 0 0 512.017 512.017" height="512" viewBox="0 0 512.017 512.017" width="512" xmlns="http://www.w3.org/2000/svg"><g><g><g><g><path d="m173.069 341.338c-91.439 0-165.564-74.126-165.564-165.564v-2.701c-.001-91.439 74.125-165.565 165.563-165.565 91.439 0 165.564 74.126 165.564 165.564v2.701c.001 91.439-74.125 165.565-165.563 165.565z" fill="#ff7893"/><path d="m338.94 504.508c-91.439 0-165.565-74.126-165.565-165.564v-2.701c0-91.439 74.126-165.564 165.564-165.564 91.439 0 165.564 74.126 165.564 165.564v2.701c.001 91.439-74.125 165.564-165.563 165.564z" fill="#b5e8e0"/><path d="m368.447 422.923h-224.885c-29.338 0-53.122-23.783-53.122-53.122v-227.586c0-29.338 23.783-53.122 53.122-53.122h224.885c29.338 0 53.122 23.783 53.122 53.122v227.586c-.001 29.339-23.784 53.122-53.122 53.122z" fill="#fff7e8"/><path d="m368.447 89.094h-40c29.338 0 53.122 23.783 53.122 53.122v227.586c0 29.338-23.783 53.122-53.122 53.122h40c29.338 0 53.122-23.783 53.122-53.122v-227.586c-.001-29.339-23.784-53.122-53.122-53.122z" fill="#fff1d6"/></g></g><g fill="#ffd88f"><path d="m462.784 11.601 11.363 32.562c.593 1.698 1.904 3.049 3.584 3.691l22.848 8.73c5.234 2 5.234 9.403 0 11.403l-22.848 8.73c-1.68.642-2.992 1.992-3.584 3.691l-11.363 32.562c-1.904 5.457-9.621 5.457-11.526 0l-11.363-32.562c-.593-1.698-1.904-3.049-3.584-3.691l-22.848-8.73c-5.233-2-5.233-9.403 0-11.403l22.848-8.73c1.68-.642 2.992-1.992 3.584-3.691l11.363-32.562c1.904-5.457 9.622-5.457 11.526 0z"/><path d="m60.75 399.047 11.363 32.562c.593 1.698 1.904 3.049 3.584 3.691l22.848 8.73c5.233 2 5.233 9.403 0 11.403l-22.848 8.73c-1.68.642-2.992 1.992-3.584 3.691l-11.363 32.562c-1.904 5.457-9.621 5.457-11.525 0l-11.363-32.562c-.593-1.698-1.904-3.049-3.584-3.691l-22.848-8.73c-5.234-2-5.234-9.404 0-11.403l22.848-8.73c1.68-.642 2.992-1.992 3.584-3.691l11.363-32.562c1.903-5.457 9.621-5.457 11.525 0z"/></g></g><g><path d="m429.068 188.491v-46.276c0-33.427-27.195-60.622-60.622-60.622h-48.466c-15.008-24.049-35.81-44.214-60.355-58.417-26.194-15.156-56.125-23.168-86.557-23.168-95.428 0-173.064 77.637-173.064 173.064-.209 31.649 7.693 62.94 23.766 90.282 14.45 24.583 34.864 45.307 59.17 60.167v46.28c0 33.427 27.195 60.622 60.622 60.622h48.459c14.89 23.86 35.476 43.889 59.785 58.082 26.339 15.376 56.469 23.504 87.134 23.504 34.681 0 68.142-10.222 96.767-29.561 8.036-5.428-.36-17.856-8.396-12.43-26.136 17.658-56.693 26.991-88.37 26.991-28.01 0-55.525-7.42-79.571-21.458-19.457-11.359-36.298-26.816-49.324-45.127h158.402c33.427 0 60.622-27.195 60.622-60.622v-163.402c18.695 13.006 34.488 29.952 46.099 49.626 14.286 24.206 21.837 51.945 21.837 80.217.331 39.833-13.869 78.803-40.602 108.47-6.442 7.15 4.576 17.328 11.145 10.041 29.121-32.32 44.981-75.057 44.457-118.511 0-30.952-8.271-61.327-23.919-87.841-14.447-24.476-34.798-45.104-59.019-59.911zm-15 181.31c0 25.156-20.466 45.622-45.622 45.622h-224.884c-25.156 0-45.622-20.466-45.622-45.622v-167.822c0-9.697-15-9.697-15 0v103.636c-18.771-13.06-34.617-30.094-46.238-49.862-14.719-25.04-21.906-53.705-21.697-82.681 0-87.157 70.907-158.064 158.064-158.064 27.797 0 55.13 7.314 79.044 21.152 19.667 11.38 36.702 26.955 49.848 45.434h-158.399c-33.427 0-60.622 27.195-60.622 60.622v19.809c0 9.697 15 9.697 15 0v-19.809c0-25.156 20.466-45.622 45.622-45.622h224.885c25.156 0 45.622 20.466 45.622 45.622v227.585z"/><path d="m326.715 248.508h-63.211v-63.788c0-4.142-3.357-7.5-7.5-7.5-4.142 0-7.5 3.358-7.5 7.5v63.788h-63.211c-4.142 0-7.5 3.358-7.5 7.5s3.358 7.5 7.5 7.5h63.211v63.788c0 4.142 3.358 7.5 7.5 7.5 4.143 0 7.5-3.358 7.5-7.5v-63.788h63.211c4.143 0 7.5-3.358 7.5-7.5s-3.357-7.5-7.5-7.5z"/><path d="m410.786 74.993 22.242 8.499 11.148 31.95c1.934 5.541 6.976 9.121 12.844 9.121 5.869 0 10.911-3.58 12.845-9.122l11.148-31.949 22.242-8.499c5.314-2.03 8.748-7.018 8.748-12.707s-3.434-10.677-8.748-12.708l-22.242-8.499-11.148-31.949c-1.934-5.541-6.976-9.122-12.845-9.122-5.868 0-10.91 3.581-12.844 9.122l-11.148 31.95-22.242 8.499c-5.314 2.03-8.748 7.018-8.748 12.708 0 5.688 3.434 10.675 8.748 12.706zm28.203-20.134c3.752-1.434 6.663-4.432 7.987-8.225l10.045-28.785 10.044 28.785c1.324 3.792 4.235 6.791 7.988 8.225l19.435 7.426-19.434 7.425c-3.753 1.434-6.665 4.432-7.989 8.226l-10.045 28.785-10.044-28.786c-1.324-3.793-4.236-6.792-7.988-8.225l-19.435-7.426z"/><path d="m101.222 437.024-22.242-8.499-11.148-31.949c-1.934-5.541-6.975-9.122-12.843-9.122 0 0 0 0-.001 0-5.868 0-10.91 3.58-12.844 9.121l-11.149 31.95-22.242 8.499c-5.314 2.031-8.749 7.019-8.749 12.708s3.434 10.677 8.749 12.708l22.241 8.499 11.149 31.95c1.934 5.542 6.976 9.122 12.845 9.122s10.91-3.581 12.843-9.122l11.149-31.95 22.242-8.499c5.314-2.03 8.749-7.018 8.749-12.708-.001-5.69-3.435-10.678-8.749-12.708zm-28.203 20.133c-3.753 1.435-6.665 4.433-7.988 8.226l-10.044 28.784-10.044-28.782c-1.323-3.794-4.235-6.792-7.989-8.227l-19.434-7.426 19.433-7.425c3.754-1.434 6.667-4.432 7.989-8.226l10.044-28.784 10.044 28.783c1.323 3.795 4.236 6.793 7.989 8.227l19.434 7.426z"/></g></g></svg>