<svg id="Layer_1" enable-background="new 0 0 511.759 511.759" height="512" viewBox="0 0 511.759 511.759" width="512" xmlns="http://www.w3.org/2000/svg"><g><g><path d="m472.815 245.868c0-120.387-97.177-217.979-217.05-217.979-119.874 0-217.05 97.593-217.05 217.979 0 120.387 97.177 217.98 217.05 217.98 25.16 0 49.312-4.314 71.783-12.22l66.217 32.263v-69.767c48.275-39.98 79.05-100.509 79.05-168.256z" fill="#fff7e8"/><path d="m255.765 27.889c-6.745 0-13.412.325-20 .93 110.496 10.14 197.05 103.436 197.05 217.05 0 110.129-87.169 206.932-197.029 217.052 6.581.603 13.242.928 19.979.928 25.159 0 49.312-4.314 71.783-12.221l66.217 32.263v-69.767c48.275-39.98 79.05-100.508 79.05-168.256 0-120.387-97.177-217.979-217.05-217.979z" fill="#fff1d6"/><path d="m11.149 347.124 216.571-228.516c6.203-6.545 16.866-5.295 21.425 2.511l52.701 90.218c3.664 6.271 11.538 8.544 17.921 5.172l164.576-86.951c13.59-7.18 26.648 10.425 16.038 21.621l-216.572 228.517c-6.203 6.545-16.865 5.295-21.425-2.511l-52.701-90.218c-3.664-6.271-11.538-8.544-17.92-5.172l-164.577 86.95c-13.589 7.18-26.648-10.425-16.037-21.621z" fill="#59a1a5"/><g><path d="m484.344 129.559-20.19 10.667c.45 3.668-.592 7.598-3.773 10.954l-204.173 215.433 6.176 10.572c4.56 7.806 15.223 9.055 21.425 2.511l216.572-228.516c10.611-11.196-2.448-28.801-16.037-21.621z" fill="#419296"/></g></g><path d="m507.316 128.816c-6.339-8.354-17.225-10.775-26.475-5.889l-28.007 14.797c-11.985-21.995-27.429-41.717-46.01-58.69-41.552-37.956-96.793-59.185-153.097-58.636-55.087.492-108.839 21.743-149.406 58.989-7.144 6.557 3.001 17.609 10.144 11.05 37.859-34.752 88.001-54.581 139.396-55.04 52.549-.464 104.049 19.272 142.846 54.712 17.301 15.803 31.688 34.157 42.864 54.623l-123.306 65.146c-2.82 1.489-6.309.469-7.941-2.324l-52.701-90.218c-6.892-11.798-23.89-13.863-33.345-3.887l-170.663 180.074c-6.145-26.684-7.076-54.851-2.62-82.239 5.241-32.212 17.831-62.644 36.41-88.006 5.731-7.823-6.37-16.687-12.101-8.864-19.971 27.262-33.496 59.926-39.115 94.462-5.298 32.568-3.474 66.182 5.226 97.52l-33.711 35.57c-15.89 16.767 4.328 44.324 24.984 33.412l30.845-16.296c40.171 69.362 114.187 112.268 194.231 112.268 24.376 0 48.342-3.907 71.288-11.619l63.427 30.903c4.885 2.38 10.785-1.294 10.785-6.742v-66.275c50.283-42.979 79.05-105.37 79.05-171.747 0-18.75-2.315-37.374-6.846-55.389l32.356-34.14c7.317-7.722 7.93-19.04 1.492-27.525zm-12.379 17.204-141.767 149.587c-6.67 7.039 4.216 17.357 10.888 10.318l97.002-102.352c2.811 13.855 4.256 28.032 4.256 42.294 0 63.082-27.823 122.304-76.334 162.479-1.721 1.425-2.716 3.542-2.716 5.776v57.77l-55.432-27.008c-1.804-.878-3.883-.999-5.774-.333-22.245 7.827-45.559 11.795-69.294 11.795-74.493 0-143.395-39.839-180.955-104.282l120.455-63.64c2.821-1.49 6.31-.47 7.941 2.324l52.701 90.218c7.014 12.004 23.832 13.923 33.345 3.887l47.572-50.195c6.67-7.038-4.217-17.357-10.888-10.318l-47.571 50.195c-2.613 2.756-7.417 2.44-9.506-1.134l-52.701-90.219c-5.696-9.752-17.951-13.275-27.9-8.02l-164.577 86.952c-6.223 3.288-11.725-4.94-7.09-9.831l216.572-228.516c2.612-2.757 7.418-2.439 9.505 1.135l52.701 90.218c5.698 9.753 17.953 13.275 27.9 8.021l164.576-86.951c6.224-3.287 11.728 4.939 7.091 9.83z"/></g></svg>