<svg id="Layer_1" enable-background="new 0 0 512 512" height="512" viewBox="0 0 512 512" width="512" xmlns="http://www.w3.org/2000/svg"><g><g><g><path d="m379.731 398.352c68.908 0 124.769-56.178 124.769-125.476 0-62.247-45.074-113.898-104.188-123.767-1.882-78.53-65.771-141.609-144.312-141.609s-142.43 63.079-144.312 141.609c-59.113 9.869-104.188 61.52-104.188 123.767 0 69.298 55.861 125.476 124.77 125.476z" fill="#fff7e8"/></g><path d="m400.312 149.109c-1.882-78.53-65.771-141.609-144.312-141.609-6.787 0-13.462.482-20 1.393 69.117 9.635 122.593 68.472 124.312 140.216 59.113 9.869 104.188 61.52 104.188 123.766 0 69.298-55.861 125.476-124.769 125.476h40c68.908 0 124.769-56.177 124.769-125.476 0-62.246-45.074-113.897-104.188-123.766z" fill="#fff1d6"/><path d="m364.149 316.746-108.149-128.66-108.149 128.66h58.092v187.754h100.114v-187.754z" fill="#b5e8e0"/><g fill="#97dbd1"><path d="m266.057 316.746h40v187.754h-40z"/><path d="m256 188.086-20 23.793 88.149 104.867h40z"/></g></g><path d="m480.286 186.491c-18.899-22.211-44.546-37.551-72.739-43.632-2.373-37.691-18.353-72.775-45.386-99.351-28.538-28.057-66.24-43.508-106.161-43.508-33.564 0-65.377 10.789-92.001 31.199-7.696 5.9 1.43 17.804 9.127 11.904 23.981-18.385 52.639-28.103 82.874-28.103 35.963 0 69.931 13.923 95.646 39.204 25.684 25.25 40.305 59.019 41.169 95.085.086 3.597 2.715 6.625 6.263 7.218 27.06 4.518 51.843 18.618 69.784 39.705 18.145 21.325 28.138 48.551 28.138 76.664 0 65.052-52.606 117.976-117.27 117.976h-66.174v-66.605h50.593c6.254 0 9.765-7.538 5.741-12.326l-108.149-128.661c-3.827-3.566-7.655-3.566-11.482 0l-108.15 128.66c-4.024 4.787-.513 12.326 5.741 12.326h50.593v66.605h-66.173c-64.664.001-117.27-52.923-117.27-117.975 0-28.113 9.993-55.34 28.139-76.665 17.942-21.086 42.726-35.187 69.785-39.705 3.549-.592 6.177-3.621 6.263-7.218.689-28.804 10.13-56.189 27.301-79.194 5.8-7.772-6.22-16.743-12.021-8.973-17.831 23.89-28.145 52.035-30.012 81.736-28.194 6.081-53.841 21.421-72.739 43.632-20.453 24.037-31.716 54.716-31.716 86.387 0 73.323 59.336 132.976 132.27 132.976h66.174v98.648c0 4.142 3.357 7.5 7.5 7.5h100.113c4.143 0 7.5-3.358 7.5-7.5v-32.742c0-9.697-15-9.697-15 0v25.242h-85.113v-180.254c0-4.142-3.357-7.5-7.5-7.5h-41.991l92.047-109.504 92.048 109.504h-41.991c-4.143 0-7.5 3.358-7.5 7.5v115.494c0 9.697 15 9.697 15 0v-26.389h66.174c72.934 0 132.27-59.652 132.27-132.976-.001-31.67-11.264-62.349-31.715-86.384z"/></g></svg>