<svg id="Layer_1" enable-background="new 0 0 512 512" height="512" viewBox="0 0 512 512" width="512" xmlns="http://www.w3.org/2000/svg"><g><g><g><circle cx="256" cy="256" fill="#b5e8e0" r="248.5"/><circle cx="256" cy="256" fill="#59a1a5" r="199.668"/><path d="m256 56.332c-6.751 0-13.422.34-20 .994 100.882 10.034 179.668 95.151 179.668 198.674s-78.786 188.64-179.668 198.674c6.578.654 13.249.994 20 .994 110.274 0 199.668-89.395 199.668-199.668s-89.394-199.668-199.668-199.668z" fill="#419296"/></g><path d="m383.251 212.964c-6.29-6.97-17.04-7.521-24.01-1.231l-17.053 15.39c0-5.594 0-11.979 0-19.418 0-47.458-38.649-85.889-86.188-85.537-47.54-.353-86.188 38.079-86.188 85.537v19.423l-17.059-15.395c-6.97-6.29-17.72-5.739-24.01 1.231s-5.739 17.72 1.231 24.01l39.838 35.952v60.885c0 16.046 13.458 28.542 29.214 28.512 13.115-.025 25.679 5.814 33.623 16.25 5.543 7.283 14.808 11.749 24 11.26 9.263 0 17.494-4.417 22.702-11.26 7.943-10.436 20.507-16.274 33.623-16.25 15.767.03 29.214-12.455 29.214-28.512v-60.89l39.832-35.947c6.971-6.29 7.522-17.039 1.231-24.01z" fill="#fff7e8"/><g><path d="m383.251 212.964c-6.29-6.97-17.04-7.521-24.01-1.231l-17.053 15.39c0-5.594 0-11.979 0-19.418 0-47.458-38.649-85.889-86.188-85.537-6.884-.051-13.579.716-20 2.201 37.92 8.77 66.188 42.75 66.188 83.336v19.418 45.798 60.89c0 16.058-13.448 28.542-29.214 28.512-13.115-.025-25.679 5.814-33.623 16.25-1.004 1.319-2.123 2.545-3.337 3.67 5.541 5.067 13.11 7.99 20.635 7.59 9.263 0 17.494-4.417 22.702-11.26 7.943-10.436 20.507-16.274 33.623-16.25 15.767.03 29.214-12.455 29.214-28.512v-60.89l39.832-35.947c6.971-6.29 7.522-17.039 1.231-24.01z" fill="#fff1d6"/></g></g><g><g><path d="m256 512c-68.38 0-132.668-26.629-181.02-74.98-48.351-48.353-74.98-112.64-74.98-181.02 0-74.533 32.405-145.223 88.906-193.944 7.34-6.336 17.14 5.028 9.795 11.359-53.193 45.87-83.701 112.419-83.701 182.585 0 64.374 25.068 124.894 70.587 170.413s106.039 70.587 170.413 70.587 124.894-25.068 170.413-70.587 70.587-106.039 70.587-170.413-25.068-124.894-70.587-170.413-106.039-70.587-170.413-70.587c-44.753 0-88.449 12.366-126.365 35.762-8.255 5.089-16.13-7.673-7.877-12.766 40.285-24.857 86.705-37.996 134.242-37.996 68.38 0 132.668 26.629 181.02 74.98 48.351 48.353 74.98 112.64 74.98 181.02s-26.629 132.667-74.98 181.02c-48.352 48.351-112.64 74.98-181.02 74.98z"/><path d="m256 463.168c-114.232 0-207.168-92.935-207.168-207.168s92.936-207.168 207.168-207.168 207.168 92.935 207.168 207.168-92.936 207.168-207.168 207.168zm0-399.336c-105.962 0-192.168 86.206-192.168 192.168s86.206 192.168 192.168 192.168 192.168-86.206 192.168-192.168-86.206-192.168-192.168-192.168z"/></g><path d="m255.262 397.371c-10.988 0-21.808-5.355-28.581-14.253-6.338-8.327-16.643-13.293-27.573-13.293-19.622 0-36.796-16.197-36.796-36.012v-57.551l-37.361-33.718c-10.029-9.051-10.826-24.573-1.775-34.603 11.586-12.838 28.27-8.483 39.137 2.318-.45-25.612 9.259-50.482 27.496-68.585 17.718-17.586 41.235-27.192 66.192-27.003 24.969-.191 48.475 9.418 66.192 27.003 18.315 18.18 27.798 42.903 27.496 68.58l4.527-4.086c10.03-9.051 25.553-8.255 34.604 1.774s8.255 25.552-1.773 34.603l-37.357 33.713v11.839c0 9.697-15 9.697-15 0v-15.173c0-2.123.899-4.146 2.476-5.568l39.832-35.947c3.889-3.51 4.197-9.529.688-13.417-3.509-3.889-9.528-4.197-13.418-.688l-17.052 15.39c-4.733 4.269-12.525.808-12.525-5.568v-19.418c0-20.954-8.19-40.625-23.063-55.387-14.729-14.621-34.233-22.652-54.973-22.652-.2 0-.397.001-.597.002-.037 0-.074 0-.111 0-20.947-.144-40.697 7.888-55.569 22.649-14.873 14.763-23.063 34.433-23.063 55.387v19.423c0 6.373-7.793 9.84-12.524 5.568l-17.059-15.395c-4.662-3.475-9.135-3.246-13.417.688-3.51 3.889-3.201 9.908.688 13.417l39.837 35.952c1.576 1.422 2.476 3.445 2.476 5.568v60.885c0 11.752 10.306 21.012 21.795 21.012 15.588 0 30.352 7.176 39.51 19.208 8.447 11.099 26.357 11.048 34.768 0 9.158-12.031 23.923-19.207 39.509-19.207 11.498.117 21.796-9.348 21.796-21.012v-5.905c0-9.697 15-9.697 15 0v5.905c0 19.657-17.212 36.221-36.796 36.012-10.932 0-21.234 4.966-27.573 13.292-7.188 9.434-18.358 14.253-30.063 14.253z"/></g></g></svg>