<svg id="Layer_1" enable-background="new 0 0 511.774 511.774" height="512" viewBox="0 0 511.774 511.774" width="512" xmlns="http://www.w3.org/2000/svg"><g><g><g><g><path d="m335.562 70.193h-79.971c-10.257 0-16.79 8.621-16.79 18.228v134.285c0 9.258 7.505 16.762 16.763 16.762s16.763-7.505 16.763-16.762v-119.042h63.235c9.273 0 16.79-7.493 16.79-16.736 0-9.242-7.517-16.735-16.79-16.735z" fill="#ff7893"/><ellipse cx="360.811" cy="85.848" fill="#ff9e5e" rx="40.367" ry="40.3"/><path d="m360.811 45.548c-7.28 0-14.103 1.934-20 5.3 12.163 6.943 20.367 20.011 20.367 35.001s-8.204 28.058-20.367 35.001c5.897 3.366 12.72 5.3 20 5.3 22.294 0 40.367-18.043 40.367-40.301s-18.073-40.301-40.367-40.301z" fill="#fa8d46"/></g><g fill="#ff7893"><ellipse cx="80.427" cy="225.169" rx="53.972" ry="54.01"/><ellipse cx="431.346" cy="225.169" rx="53.972" ry="54.01"/></g><ellipse cx="255.887" cy="330.329" fill="#ff9e5e" rx="209.501" ry="173.945"/><path d="m255.887 156.384c-6.747 0-13.416.276-20 .793 106.321 8.362 189.501 82.687 189.501 173.151 0 90.465-83.18 164.79-189.501 173.151 6.584.518 13.253.793 20 .793 115.704 0 209.501-77.878 209.501-173.945 0-96.065-93.797-173.943-209.501-173.943z" fill="#fa8d46"/><g fill="#fff7e8"><path d="m189.18 401.01c-11.569 0-20.948-9.378-20.948-20.946v-92.51c0-11.569 9.378-20.946 20.948-20.946 11.569 0 20.948 9.378 20.948 20.946v92.51c0 11.568-9.378 20.946-20.948 20.946z"/><path d="m322.593 401.01c-11.569 0-20.948-9.378-20.948-20.946v-92.51c0-11.569 9.378-20.946 20.948-20.946s20.948 9.378 20.948 20.946v92.51c0 11.568-9.378 20.946-20.948 20.946z"/></g></g></g><g><path d="m492.818 225.169c0-33.917-27.576-61.51-61.473-61.51-17.886 0-34.469 7.571-46.15 20.894-30.837-19.196-67-31.074-105.369-34.572v-38.818h40.408c8.471 13.49 23.487 22.485 40.575 22.485 26.395 0 47.867-21.443 47.867-47.801 0-26.357-21.473-47.8-47.867-47.8-17.986 0-33.679 9.962-41.857 24.645h-63.363c-13.62 0-24.29 11.301-24.29 25.729v61.64c-11.459 1.082-22.789 2.898-33.87 5.482-9.444 2.202-6.039 16.809 3.405 14.608 17.84-4.159 36.362-6.268 55.05-6.268 111.384 0 202.001 74.667 202.001 166.445s-90.617 166.445-202.001 166.445-201.998-74.666-201.998-166.444c0-31.134 10.516-61.5 30.412-87.816 19.525-25.827 47.203-46.77 80.04-60.565 8.94-3.756 3.13-17.588-5.81-13.829-11.232 4.719-21.903 10.234-31.923 16.451-11.605-13.205-28.39-20.911-46.178-20.911-33.896 0-61.472 27.593-61.472 61.51 0 21.415 11.29 41.286 29.263 52.39-6.157 16.989-9.332 34.751-9.332 52.77 0 48.733 22.754 94.463 64.07 128.768 40.913 33.97 95.225 52.677 152.931 52.677s112.018-18.708 152.931-52.677c41.316-34.304 64.07-80.035 64.07-128.768 0-18.166-3.166-35.913-9.272-52.808 17.938-11.111 29.202-30.961 29.202-52.352zm-458.863 0c0-25.646 20.847-46.51 46.472-46.51 12.781 0 24.867 5.278 33.569 14.376-16.107 11.642-30.179 25.239-41.665 40.431-7.222 9.552-13.312 19.603-18.242 30.016-12.425-8.594-20.134-22.925-20.134-38.313zm326.856-172.121c18.123 0 32.867 14.714 32.867 32.8s-14.744 32.801-32.867 32.801-32.867-14.714-32.867-32.801c-.001-18.086 14.744-32.8 32.867-32.8zm-114.51 96.032v-60.659c0-5.332 3.191-10.729 9.29-10.729h58.064c-1.047 6.056-.905 12.464.424 18.471h-41.751c-4.143 0-7.5 3.358-7.5 7.5v45.382c-6.187-.207-12.345-.19-18.527.035zm211.442 114.362c-10.855-22.941-27.354-43.97-48.925-61.881-3.579-2.971-7.266-5.819-11.043-8.554 8.741-9.173 20.713-14.348 33.571-14.348 25.625 0 46.473 20.864 46.473 46.51-.001 15.363-7.685 29.673-20.076 38.273z"/><path d="m160.732 380.064c0 15.686 12.762 28.446 28.448 28.446s28.448-12.761 28.448-28.446v-92.51c0-15.686-12.762-28.446-28.448-28.446s-28.448 12.761-28.448 28.446zm15-92.51c0-7.414 6.033-13.446 13.448-13.446s13.448 6.032 13.448 13.446v92.51c0 7.414-6.033 13.446-13.448 13.446s-13.448-6.032-13.448-13.446z"/><path d="m343.541 338.274c4.143 0 7.5-3.358 7.5-7.5v-43.22c0-15.686-12.762-28.446-28.447-28.446-15.687 0-28.448 12.761-28.448 28.446v92.51c0 15.686 12.762 28.446 28.448 28.446s28.447-12.761 28.447-28.446v-9.291c0-9.697-15-9.697-15 0v9.291c0 7.414-6.032 13.446-13.447 13.446s-13.448-6.032-13.448-13.446v-92.51c0-7.414 6.033-13.446 13.448-13.446s13.447 6.032 13.447 13.446v43.22c0 4.142 3.357 7.5 7.5 7.5z"/><path d="m321.433 32.547c4.482 8.275 17.796 1.358 13.188-7.146l-6.592-12.166c-4.62-8.527-17.808-1.379-13.188 7.146z"/><path d="m360.755 28.601c3.775.106 7.6-3.595 7.7-7.294l.375-13.831c.263-9.692-14.731-10.101-14.994-.406l-.375 13.831c-.112 4.141 3.153 7.588 7.294 7.7z"/><path d="m389.487 37.139c3.377 2.074 8.247.903 10.316-2.465l7.242-11.79c5.075-8.263-7.707-16.116-12.781-7.852l-7.242 11.79c-2.167 3.531-1.064 8.149 2.465 10.317z"/><path d="m399.804 137.608c-5.075-8.263-17.857-.412-12.781 7.852l7.242 11.79c4.895 7.968 17.847.396 12.781-7.852z"/><path d="m416.703 62.826c1.206 0 2.43-.292 3.564-.906l12.169-6.59c8.527-4.618 1.382-17.812-7.143-13.19l-12.169 6.59c-6.899 3.736-3.767 14.096 3.579 14.096z"/><path d="m417.072 88.042c-.112 4.141 3.153 7.588 7.294 7.701l13.834.375c9.445.266 9.826-14.739.406-14.994l-13.834-.375c-4.099-.115-7.587 3.152-7.7 7.293z"/><path d="m410.997 127.083 11.794 7.241c7.998 4.912 16.093-7.722 7.848-12.783l-11.794-7.241c-8.263-5.077-16.112 7.71-7.848 12.783z"/></g></g></svg>