<svg id="Layer_1" enable-background="new 0 0 511.984 511.984" height="512" viewBox="0 0 511.984 511.984" width="512" xmlns="http://www.w3.org/2000/svg"><g><g><g><g><path d="m359.521 171.743h-281.505c-32.596 0-59.02 26.466-59.02 59.113v153.488c0 32.647 26.424 59.113 59.02 59.113h20.205v61.043l60.929-61.042h200.371c32.596 0 59.02-26.466 59.02-59.113v-153.488c0-32.648-26.424-59.114-59.02-59.114z" fill="#ff7893"/><g><path d="m359.521 171.743h-40c32.596 0 59.02 26.466 59.02 59.113v153.488c0 32.647-26.424 59.113-59.02 59.113h40c32.596 0 59.02-26.466 59.02-59.113v-153.487c0-32.648-26.424-59.114-59.02-59.114z" fill="#ff5e7f"/></g><ellipse cx="129.164" cy="308.049" fill="#fff7e8" rx="53.538" ry="53.526"/><g><path d="m255.805 358.732c-12.01 0-21.746-9.751-21.746-21.781v-57.805c0-12.029 9.736-21.781 21.746-21.781s21.746 9.751 21.746 21.781v57.805c0 12.03-9.736 21.781-21.746 21.781z" fill="#fff7e8"/><path d="m334.457 358.732c-12.01 0-21.746-9.751-21.746-21.781v-57.805c0-12.029 9.736-21.781 21.746-21.781s21.746 9.751 21.746 21.781v57.805c0 12.03-9.736 21.781-21.746 21.781z" fill="#fff7e8"/><path d="" fill="#ff7893"/><path d="" fill="#ff7893"/><path d="m129.164 327.247c-12.01 0-21.746-9.751-21.746-21.781v-201.088c0-12.029 9.736-21.781 21.746-21.781s21.746 9.751 21.746 21.781v201.088c0 12.03-9.736 21.781-21.746 21.781z" fill="#59a1a5"/></g></g><ellipse cx="129.164" cy="74.843" fill="#b5e8e0" rx="67.359" ry="67.343"/><path d="m129.164 7.5c-6.964 0-13.681 1.057-20 3.019 27.435 8.517 47.359 34.094 47.359 64.324s-19.924 55.807-47.359 64.324c6.319 1.962 13.036 3.019 20 3.019 37.201 0 67.359-30.151 67.359-67.343s-30.158-67.343-67.359-67.343z" fill="#97dbd1"/></g></g><g><path d="m380.209 128.28c-9.697 0-9.697 15 0 15 36.558 0 66.299 29.739 66.299 66.292 0 9.697 15 9.697 15 0 0-44.824-36.47-81.292-81.299-81.292z"/><path d="m388.924 89.304c-9.697 0-9.697 15 0 15 53.245 0 96.563 43.314 96.563 96.555 0 9.697 15 9.697 15 0 0-61.512-50.047-111.555-111.563-111.555z"/><path d="m359.521 164.243h-201.111v-20.487c5.928-2.526 11.557-5.831 16.772-9.902 7.644-5.966-1.586-17.793-9.229-11.824-10.608 8.28-23.33 12.656-36.789 12.656-33.006 0-59.859-26.846-59.859-59.843s26.852-59.843 59.859-59.843c33.006 0 59.858 26.846 59.858 59.843 0 6.422-1.028 12.773-3.057 18.876-3.058 9.203 11.176 13.932 14.234 4.73 2.536-7.632 3.822-15.575 3.822-23.607.001-41.267-33.58-74.842-74.857-74.842-41.278 0-74.859 33.575-74.859 74.843 0 30.898 18.827 57.481 45.612 68.891v20.509h-21.901c-36.679 0-66.52 29.883-66.52 66.614v153.488c0 36.73 29.84 66.613 66.52 66.613h12.705v53.542c0 6.463 8.052 10.064 12.808 5.298l58.732-58.84h150.064c9.697 0 9.697-15 0-15h-153.175c-1.992 0-3.901.792-5.308 2.202l-48.121 48.21v-42.912c0-4.142-3.358-7.5-7.5-7.5h-20.205c-28.408 0-51.52-23.154-51.52-51.613v-153.488c0-28.46 23.112-51.614 51.52-51.614h21.901v75.237c-19.461 10.632-31.792 31.148-31.792 53.569 0 33.65 27.381 61.026 61.038 61.026 33.656 0 61.038-27.376 61.038-61.026 0-22.46-12.144-42.84-31.792-53.568v-75.238h201.111c28.408 0 51.52 23.154 51.52 51.614v153.488c0 28.459-23.112 51.613-51.52 51.613-9.697 0-9.697 15 0 15 36.679 0 66.52-29.883 66.52-66.613v-153.488c.001-36.731-29.84-66.614-66.519-66.614zm-230.357-14.556c4.84 0 9.6-.467 14.246-1.358v157.138c0 7.875-6.391 14.281-14.246 14.281s-14.247-6.406-14.247-14.281v-157.157c4.615.893 9.375 1.377 14.247 1.377zm46.037 158.362c0 25.379-20.652 46.026-46.038 46.026s-46.038-20.647-46.038-46.026c0-13.951 6.333-26.923 16.792-35.541v32.959c0 16.146 13.12 29.281 29.247 29.281s29.246-13.135 29.246-29.281v-32.975c10.534 8.636 16.791 21.56 16.791 35.557z"/><path d="m226.558 279.146v57.805c0 16.146 13.12 29.281 29.246 29.281s29.247-13.135 29.247-29.281v-57.805c0-16.146-13.12-29.281-29.247-29.281s-29.246 13.136-29.246 29.281zm43.493 0v57.805c0 7.875-6.391 14.281-14.247 14.281-7.855 0-14.246-6.406-14.246-14.281v-57.805c0-7.875 6.391-14.281 14.246-14.281 7.856.001 14.247 6.407 14.247 14.281z"/><path d="m363.703 336.952v-57.805c0-16.146-13.12-29.281-29.246-29.281s-29.247 13.135-29.247 29.281v57.805c0 16.146 13.12 29.281 29.247 29.281s29.246-13.136 29.246-29.281zm-15 0c0 7.875-6.391 14.281-14.246 14.281s-14.247-6.406-14.247-14.281v-57.805c0-7.875 6.391-14.281 14.247-14.281s14.246 6.406 14.246 14.281z"/><path d="m89.413 78.305c0 4.142 3.358 7.5 7.5 7.5s7.5-3.358 7.5-7.5c0-14.924 12.145-27.065 27.073-27.065 4.142 0 7.5-3.358 7.5-7.5s-3.358-7.5-7.5-7.5c-23.199-.001-42.073 18.87-42.073 42.065z"/></g></g></svg>