<svg id="Layer_1" enable-background="new 0 0 512 512" height="512" viewBox="0 0 512 512" width="512" xmlns="http://www.w3.org/2000/svg"><g><g><g><path d="m273.6 504.5h-234.961c-17.198 0-31.139-13.941-31.139-31.139v-434.722c0-17.198 13.941-31.139 31.139-31.139h234.961c17.198 0 31.139 13.941 31.139 31.139v434.722c0 17.198-13.942 31.139-31.139 31.139z" fill="#ff9e5e"/><path d="m273.6 7.5h-40c17.198 0 31.139 13.942 31.139 31.139v434.722c0 17.198-13.942 31.139-31.139 31.139h40c17.198 0 31.139-13.942 31.139-31.139v-434.722c0-17.197-13.942-31.139-31.139-31.139z" fill="#fa8d46"/><g><g><circle cx="156.12" cy="353.204" fill="#fff7e8" r="116.979"/><ellipse cx="156.127" cy="353.208" fill="#b5e8e0" rx="80.794" ry="80.794"/></g><g><ellipse cx="156.124" cy="125.504" fill="#fff7e8" rx="81.277" ry="81.277"/><ellipse cx="156.12" cy="125.511" fill="#b5e8e0" rx="45.867" ry="45.867"/></g></g></g><g><g><path d="m410.844 264.33v193.547h33.268v-193.547c0-9.187-7.447-16.634-16.634-16.634-9.187 0-16.634 7.447-16.634 16.634z" fill="#59a1a5"/><ellipse cx="393.171" cy="453.604" fill="#b5e8e0" rx="50.935" ry="50.935"/><path d="m393.174 402.625c-7.1 0-13.859 1.457-20 4.081 18.189 7.774 30.937 25.825 30.937 46.856s-12.748 39.082-30.937 46.856c6.141 2.625 12.9 4.081 20 4.081 28.132 0 50.937-22.805 50.937-50.937s-22.805-50.937-50.937-50.937z" fill="#97dbd1"/><path d="m504.5 359.832-60.388-27.874v-63.733l31.288 14.442c17.74 8.189 29.101 25.944 29.101 45.483v31.682z" fill="#b5e8e0"/></g></g><g><g><path d="m340.649 24.134v193.547h33.268v-193.547c0-9.187-7.447-16.634-16.634-16.634-9.186 0-16.634 7.447-16.634 16.634z" fill="#59a1a5"/><ellipse cx="322.989" cy="213.366" fill="#b5e8e0" rx="50.938" ry="50.938"/><path d="m322.98 162.429c-7.1 0-13.859 1.457-20 4.081 18.189 7.774 30.937 25.825 30.937 46.856s-12.748 39.082-30.937 46.856c6.141 2.625 12.9 4.081 20 4.081 28.132 0 50.937-22.805 50.937-50.937s-22.805-50.937-50.937-50.937z" fill="#97dbd1"/><path d="m434.306 119.635-60.388-27.874v-63.733l31.288 14.442c17.74 8.188 29.101 25.944 29.101 45.483v31.682z" fill="#b5e8e0"/></g></g></g><g><path d="m156.12 228.725c-68.638 0-124.479 55.841-124.479 124.479 0 24.09 6.929 47.484 20.037 67.655 5.283 8.132 17.862-.043 12.577-8.174-11.523-17.731-17.614-38.3-17.614-59.481 0-60.367 49.112-109.479 109.479-109.479s109.479 49.112 109.479 109.479-49.112 109.479-109.479 109.479c-24.323 0-47.372-7.85-66.657-22.7-7.684-5.916-16.835 5.968-9.151 11.885 21.931 16.888 48.146 25.815 75.809 25.815 68.638 0 124.479-55.841 124.479-124.479s-55.842-124.479-124.48-124.479z"/><path d="m156.12 441.498c48.685 0 88.293-39.608 88.293-88.293s-39.608-88.293-88.293-88.293-88.293 39.608-88.293 88.293 39.608 88.293 88.293 88.293zm0-161.587c40.414 0 73.293 32.879 73.293 73.293s-32.879 73.293-73.293 73.293-73.293-32.879-73.293-73.293 32.879-73.293 73.293-73.293z"/><path d="m137.325 384.64c-6.858 6.857 3.75 17.463 10.606 10.606 4.515-4.515 11.862-4.515 16.376 0 6.857 6.857 17.464-3.75 10.606-10.606-10.363-10.364-27.225-10.363-37.588 0z"/><path d="m156.12 343.384c-13.297 0-25.805 5.185-35.218 14.598-6.858 6.856 3.75 17.463 10.606 10.606 6.581-6.581 15.321-10.205 24.612-10.205s18.031 3.624 24.611 10.205c6.856 6.858 17.463-3.749 10.606-10.606-9.413-9.414-21.92-14.598-35.217-14.598z"/><path d="m119.24 339.255c20.336-20.334 53.423-20.334 73.758 0 6.857 6.857 17.464-3.75 10.606-10.606-26.184-26.184-68.788-26.184-94.971 0-6.857 6.856 3.75 17.463 10.607 10.606z"/><path d="m156.12 214.271c48.95 0 88.773-39.824 88.773-88.773 0-48.95-39.824-88.774-88.773-88.774-48.95 0-88.774 39.824-88.774 88.774 0 48.949 39.823 88.773 88.774 88.773zm0-162.548c40.679 0 73.773 33.095 73.773 73.774s-33.095 73.773-73.773 73.773c-40.679 0-73.774-33.095-73.774-73.773 0-40.679 33.094-73.774 73.774-73.774z"/><path d="m156.12 178.866c29.428 0 53.369-23.941 53.369-53.369s-23.941-53.369-53.369-53.369-53.369 23.941-53.369 53.369 23.941 53.369 53.369 53.369zm0-91.738c21.157 0 38.369 17.212 38.369 38.369s-17.212 38.369-38.369 38.369-38.369-17.212-38.369-38.369 17.212-38.369 38.369-38.369z"/><path d="m478.542 275.856-26.954-12.442c-1.143-30.453-48.244-29.639-48.244.915v131.701c-3.305-.583-6.7-.904-10.169-.904-32.223 0-58.438 26.215-58.438 58.437 0 32.223 26.215 58.438 58.438 58.438 32.01 0 58.079-25.874 58.421-57.804.004-.106.016-110.517.016-110.517l49.746 22.961c4.871 2.248 10.643-1.428 10.643-6.81v-31.683c-.001-22.384-13.134-42.91-33.459-52.292zm-85.368 221.144c-23.952 0-43.438-19.486-43.438-43.438 0-23.951 19.486-43.437 43.438-43.437 23.951 0 43.437 19.486 43.437 43.437 0 23.952-19.486 43.438-43.437 43.438zm25.17-96.168v-136.502c0-11.426 18.268-11.949 18.268 0v150.191c-5.109-5.677-11.308-10.353-18.268-13.689zm78.656-52.723-45.389-20.95v-47.213l20.645 9.529c15.032 6.939 24.744 22.119 24.744 38.674z"/><path d="m381.401 213.999c.004-.106.016-110.515.016-110.515l49.745 22.961c4.871 2.248 10.643-1.428 10.643-6.81v-31.682c0-22.386-13.133-42.912-33.458-52.292l-26.954-12.442c-1.142-30.453-48.245-29.639-48.245.915v49.698c0 9.697 15 9.697 15 0v-49.698c0-11.426 18.268-11.949 18.268 0v150.191c-5.108-5.677-11.307-10.353-18.268-13.689v-45.636c0-9.697-15-9.697-15 0v40.833c-6.92-1.22-14.003-1.187-20.911.102v-117.296c.002-21.306-17.331-38.639-38.637-38.639h-234.961c-21.306 0-38.639 17.333-38.639 38.639v434.722c0 21.306 17.333 38.639 38.639 38.639h234.961c21.306 0 38.639-17.333 38.639-38.639v-202.564c3.484.65 7.071 1.006 10.741 1.006 32.011.001 58.08-25.873 58.421-57.804zm45.405-126.046v19.96l-45.388-20.95v-47.213l20.645 9.529c15.03 6.938 24.743 22.118 24.743 38.674zm-60.389 125.414c0 23.951-19.486 43.437-43.438 43.437s-43.438-19.486-43.438-43.437c0-23.952 19.486-43.438 43.438-43.438s43.438 19.486 43.438 43.438zm-69.178 259.994c0 13.035-10.604 23.639-23.639 23.639h-234.961c-13.035 0-23.639-10.604-23.639-23.639v-434.722c0-13.035 10.604-23.639 23.639-23.639h234.961c13.034 0 23.639 10.604 23.639 23.639v122.281c-19.348 9.535-32.696 29.458-32.696 52.446s13.348 42.911 32.696 52.446z"/></g></g></svg>