<svg id="Layer_1" enable-background="new 0 0 512 512" height="512" viewBox="0 0 512 512" width="512" xmlns="http://www.w3.org/2000/svg"><g><g><g><path d="m487.408 504.5h-232.164c-9.437 0-17.087-7.65-17.087-17.087v-164.419c0-9.437 7.65-17.087 17.087-17.087h232.164c9.437 0 17.087 7.65 17.087 17.087v164.418c0 9.438-7.65 17.088-17.087 17.088z" fill="#ff9e5e"/><path d="m487.408 305.908h-40.001c9.437 0 17.087 7.65 17.087 17.087v164.418c0 9.437-7.65 17.087-17.087 17.087h40.001c9.437 0 17.087-7.65 17.087-17.087v-164.419c0-9.436-7.65-17.086-17.087-17.086z" fill="#fa8d46"/><g><path d="m238.157 357.719v129.693c0 9.437 7.65 17.087 17.087 17.087h232.164c9.437 0 17.087-7.65 17.087-17.087v-129.693z" fill="#59a1a5"/></g><path d="m464.494 357.719v129.693c0 9.437-7.65 17.087-17.087 17.087h40.001c9.437 0 17.087-7.65 17.087-17.087v-129.693z" fill="#419296"/></g><g><g><path d="m236.752 194.863-.114-.054c-1.272 4.844-8.038 35.645 21.997 47.577 22.209 8.823 45.271-6.186 60.959-20.672 10.587-9.776 27.424-7.374 34.529 5.052l.236.413c5.998 10.49 2.384 23.792-7.98 30.163-11.048 6.79-49.079 7.843-61.049 48.86-16.008 54.853 3.473 83.938-10.456 129.952-22.729 75.086-107.04 82.909-177.698 49.536l.326.154.328.155.326.154c-70.657-33.373-117.746-103.257-73.429-168.146 27.16-39.766 62.174-43.111 94.928-90.056 24.491-35.103 1.316-65.064-.351-77.86-1.564-12.003 6.549-23.181 18.529-25.18l.472-.079c14.191-2.367 26.692 9.086 25.734 23.411-1.418 21.225 1.408 48.462 22.315 60.003 28.275 15.608 48.069-9.039 51.05-13.075l-.114-.054z" fill="#ff7893"/><g fill="#ff5e7f"><path d="m237.292 195.118-.54-.255-.114-.054c-.115.437-.275 1.093-.448 1.92.538-.657.947-1.192 1.216-1.557z"/><path d="m354.36 227.178-.236-.413c-7.105-12.425-23.941-14.828-34.529-5.052-1.707 1.576-3.505 3.156-5.376 4.713.047.247.097.483.141.752l-.236-.413c-.034-.059-.071-.114-.105-.172-8.726 7.233-19.1 13.892-30.062 16.833-12.288 10.592-29.302 30.823-38.627 62.774-16.008 54.853 3.473 83.938-10.456 129.952-12.34 40.763-42.832 61.694-79.433 66.98 53.137 6.908 102.791-12.004 119.433-66.98 13.929-46.014-5.552-75.098 10.456-129.952 11.97-41.017 50.001-42.07 61.049-48.86 10.365-6.369 13.98-19.671 7.981-30.162z"/></g><path d="m237.259 194.369s-.069.227-.18.648c.259-.35.392-.547.392-.547z" fill="#ff7893"/></g><path d="m168.759 390.781-41.55-19.625 161.967-338.248 41.549 19.624z" fill="#fff7e8"/><g fill="#59a1a5"><path d="m167.616 420.839-63.15-29.827c-6.91-3.264-9.847-11.479-6.559-18.345l.049-.103c3.285-6.858 11.54-9.774 18.443-6.514l63.15 29.827c6.91 3.264 9.847 11.479 6.559 18.345l-.049.102c-3.284 6.859-11.54 9.775-18.443 6.515z"/><path d="m290.317 122.206-30.044-14.19c-11.452-5.409-16.32-19.025-10.87-30.405l27.358-57.113c5.445-11.367 19.126-16.199 30.567-10.796l30.044 14.19c11.452 5.409 16.32 19.025 10.87 30.405l-27.358 57.113c-5.446 11.367-19.127 16.199-30.567 10.796z"/></g></g></g><g><path d="m487.408 298.407h-191.039c9.768-19.637 27.597-25.317 41.097-29.611 5.115-1.627 9.533-3.032 12.842-5.065 13.939-8.567 18.58-26.259 10.562-40.277-9.777-16.219-32.102-20.417-46.363-7.251-13.923 12.856-34.437 26.627-53.103 19.211-2.969-1.18-5.603-2.617-7.876-4.296l47.521-99.242c11.04-.342 21.529-6.645 26.598-17.226l3.615-7.547 14.147 6.682c8.448 3.989 15.15-9.433 6.406-13.563l-14.073-6.647 7.217-15.067 14.147 6.681c8.448 3.989 15.15-9.433 6.406-13.563l-14.073-6.646 3.565-7.442c3.498-7.302 3.932-15.523 1.222-23.149-2.722-7.658-8.28-13.793-15.652-17.276l-30.044-14.192c-15.14-7.151-33.323-.717-40.534 14.337l-3.615 7.547-14.147-6.682c-8.769-4.141-15.174 9.422-6.406 13.563l14.073 6.646-7.217 15.068-14.147-6.682c-8.769-4.14-15.174 9.422-6.406 13.563l14.073 6.647-3.564 7.441c-4.814 10.048-3.468 22.65 3.298 31.47l-47.512 99.224c-2.785-.69-5.61-1.82-8.444-3.384-17.531-9.678-19.714-34.129-18.457-52.937 1.299-19.445-16.264-33.908-34.925-31.231-15.973 2.665-26.837 17.4-24.731 33.546 1.088 8.36 5.668 16.183 8.197 24.162 2.927 9.246 17.227 4.714 14.299-4.53-2.211-6.98-6.672-14.276-7.621-21.568-1.056-8.099 4.358-15.484 12.324-16.812 9.184-1.236 18.143 5.642 17.489 15.434-2.218 33.2 6.833 56.392 26.176 67.069 3.018 1.666 6.067 2.979 9.129 3.961l-22.554 47.102-12.332-5.824c-3.747-1.769-8.217-.167-9.984 3.579-1.77 3.746-.167 8.216 3.578 9.985l12.26 5.79-11.781 24.599-12.337-5.827c-3.746-1.769-8.216-.167-9.984 3.579-1.77 3.746-.167 8.216 3.578 9.985l12.264 5.792-20.902 43.652-4.064-1.919c-10.612-5.01-23.355-.499-28.419 10.071-4.498 10.723-.731 23.348 10.078 28.455l63.15 29.827c10.477 4.946 23.45.281 28.459-10.158 5.001-10.436.217-23.486-10.118-28.368l-3.973-1.876 20.902-43.652 10.45 4.936c8.448 3.989 15.15-9.433 6.406-13.563l-10.378-4.901 11.78-24.6 10.455 4.938c8.448 3.989 15.15-9.433 6.406-13.563l-10.383-4.904 22.556-47.106c2.709 1.749 5.672 3.276 8.89 4.555 20.511 8.147 44.31.497 68.815-22.131 7.331-6.768 18.105-4.132 23.166 3.678 3.971 6.943 1.601 15.75-5.396 20.049-1.748 1.074-5.53 2.277-9.534 3.55-16.317 5.189-43.041 13.951-54.193 47.705-9.402 28.457-8.021 53.011-6.768 74.871 1.062 18.514 2.064 36.002-4.263 56.902-7.273 24.027-23.255 43.885-46.408 54.162-32.582 14.464-77.55 11.097-120.384-8.988-42.702-20.293-73.708-52.772-82.992-86.956-6.564-24.171-2.187-47.709 13.01-69.96 12.342-18.071 26.644-28.338 41.784-39.208 17.401-12.493 35.397-25.411 53.102-50.787 3.802-5.45 6.775-11.125 8.839-16.868 3.279-9.126-10.839-14.198-14.117-5.071-1.616 4.498-3.979 8.992-7.024 13.357-16.234 23.27-33.17 35.428-49.547 47.185-15.53 11.149-31.59 22.678-45.423 42.933-17.535 25.677-22.757 54.153-15.099 82.353 10.361 38.155 44.076 74.051 90.311 96.23 29.256 13.714 56.36 19.613 82.153 19.613 19.843-.001 39.943-3.797 57.604-13.096 4.127 7.798 12.322 13.125 21.742 13.125h232.164c13.558 0 24.587-11.03 24.587-24.587v-129.693-34.725c.001-13.563-11.028-24.593-24.586-24.593zm-203.884-274.669c3.628-7.574 12.996-10.846 20.6-7.254l30.044 14.189c7.561 3.571 10.933 12.816 7.31 20.382l-27.358 57.115c-3.658 7.638-12.901 10.891-20.599 7.254l-30.045-14.19c-7.562-3.571-10.931-12.817-7.309-20.382zm-104.187 387.26c-1.845 2.741-5.088 4.679-8.517 3.06l-63.15-29.826c-3.414-1.614-3.935-5.299-2.949-8.427 1.503-3.137 5.303-4.472 8.477-2.972l63.151 29.827c3.321 1.952 4.317 4.732 2.988 8.338zm-14.121-30.186-27.986-13.218 20.902-43.652 27.986 13.218zm27.382-57.182-27.986-13.218 11.779-24.6 27.986 13.218zm-9.728-51.348 26.658-55.671c.021-.042.041-.085.061-.128l48.468-101.22 27.986 13.218-48.545 101.381c-.003.007-.007.014-.01.021l-26.633 55.617zm314.125 215.131c0 5.286-4.301 9.587-9.587 9.587h-232.164c-4.084 0-7.57-2.571-8.949-6.176 16.864-12.573 29.068-30.397 35.758-52.497 7.098-23.447 5.971-43.101 4.881-62.107-.208-3.632-.416-7.288-.573-10.999h140.501c4.143 0 7.5-3.358 7.5-7.5s-3.357-7.5-7.5-7.5h-140.709c.222-11.175 1.454-23.174 4.974-36.812h196.28c5.286 0 9.587 4.301 9.587 9.587v27.225h-25.964c-4.143 0-7.5 3.358-7.5 7.5s3.357 7.5 7.5 7.5h25.964z"/><path d="m402.694 464.322c-9.652 0-9.668 15 0 15 9.652 0 9.668-15 0-15z"/><path d="m436.863 464.322c-9.652 0-9.668 15 0 15 9.652 0 9.668-15 0-15z"/><path d="m471.031 464.322c-9.652 0-9.668 15 0 15 9.652 0 9.668-15 0-15z"/><path d="m436.863 430.054c-9.652 0-9.668 15 0 15 9.652.001 9.668-15 0-15z"/><path d="m471.031 430.054c-9.652 0-9.668 15 0 15 9.652.001 9.668-15 0-15z"/><path d="m471.031 410.786c9.652 0 9.668-15 0-15-9.652 0-9.668 15 0 15z"/></g></g></svg>