<svg id="Layer_1" enable-background="new 0 0 512 512" height="512" viewBox="0 0 512 512" width="512" xmlns="http://www.w3.org/2000/svg"><g><g><g><g><path d="m304.677 474h-237c-11.046 0-20-8.954-20-20v-426.5c0-11.046 8.954-20 20-20h237c11.046 0 20 8.954 20 20v426.5c0 11.046-8.955 20-20 20z" fill="#59a1a5"/></g><path d="m304.677 7.5h-40c11.046 0 20 8.954 20 20v426.5c0 11.046-8.954 20-20 20h40c11.046 0 20-8.954 20-20v-426.5c0-11.046-8.955-20-20-20z" fill="#419296"/><path d="m207.177 448h-42c-7.18 0-13-5.82-13-13 0-7.18 5.82-13 13-13h42c7.18 0 13 5.82 13 13 0 7.18-5.821 13-13 13z" fill="#b5e8e0"/><path d="m47.677 53.595h277v341.544h-277z" fill="#b5e8e0"/><path d="m284.677 53.595h40v341.544h-40z" fill="#97dbd1"/><g><path d="m220.709 159.771c-13.818 0-26.187 6.168-34.532 15.89-8.345-9.722-20.715-15.89-34.532-15.89-25.13 0-45.501 20.372-45.501 45.501 0 54.06 80.033 83.69 80.033 83.69s80.033-29.63 80.033-83.69c0-25.129-20.372-45.501-45.501-45.501z" fill="#ff7893"/></g><g><path d="m260.048 404.422c-5.86-65.94 38.287-134.57 101.976-158.053-13.333 93.298 40 109.298 40 109.298 22-18.667 18.224-48.718 18.224-48.718 48.667 36.668 43.776 95.552 43.776 95.552 0 55.606-46.434 102-102 102-61.001-.001-97.197-46.293-101.976-100.079z" fill="#ff9e5e"/><g><path d="m420.247 306.948s2.522 20.148-8.64 37.698c14.759 29.57 12.416 57.854 12.416 57.854 0 39.17-23.042 73.764-56.086 90.794-8.302 4.278-13.162 11.206-5.914 11.206 55.566 0 102-46.394 102-102 0 0 4.891-58.883-43.776-95.552z" fill="#fa8d46"/></g><path d="m324.51 467.167c0 20.619 16.715 37.333 37.333 37.333s37.333-16.715 37.333-37.333c0-32.542-37.333-62.355-37.333-62.355s-37.333 29.281-37.333 62.355z" fill="#ffe6b8"/></g></g></g><g><path d="m207.177 414.5h-42c-26.376 0-26.419 41 0 41h42c26.376 0 26.418-41 0-41zm0 26h-42c-7.11 0-7.11-11 0-11h42c7.109 0 7.109 11 0 11z"/><path d="m183.573 295.996c1.736.622 3.472.622 5.208 0 .854-.317 21.17-7.917 41.747-22.485 28.25-20 43.183-43.597 43.183-68.239 0-29.225-23.776-53.001-53.001-53.001-12.765 0-24.98 4.594-34.532 12.808-9.553-8.214-21.768-12.808-34.532-12.808-29.225 0-53.001 23.776-53.001 53.001 0 24.642 14.933 48.239 43.183 68.239 20.575 14.568 40.89 22.168 41.745 22.485zm-69.93-90.724c0-20.954 17.047-38.001 38.001-38.001 11.088 0 21.6 4.838 28.841 13.275 3.794 3.487 7.588 3.487 11.382 0 7.241-8.437 17.752-13.275 28.841-13.275 20.954 0 38.001 17.047 38.001 38.001 0 43.004-59.29 70.099-72.538 75.613-13.265-5.504-72.528-32.518-72.528-75.613z"/><path d="m424.76 300.958c-5.192-3.907-12.766.473-11.955 6.925.03.244 2.683 23.017-12.332 38.932-4.278-2.248-11.517-7.043-18.051-16.132-13.574-18.879-18.061-47.667-12.975-83.253.789-5.529-4.78-10.027-10.02-8.098-9.437 3.48-18.563 7.953-27.252 13.299v-225.131c0-15.164-12.337-27.5-27.5-27.5h-237c-15.164 0-27.5 12.336-27.5 27.5v68.979c0 9.697 15 9.697 15 0v-35.384h262v201.97c-14.843 11.612-27.954 25.945-38.525 42.345-16.392 25.43-25.551 54.073-26.527 82.229h-196.946v-247.639c0-9.697-15-9.697-15 0v314c0 15.164 12.336 27.5 27.5 27.5h218.488c19.646 19.89 45.702 30.42 75.534 30.496.048 0 .096.004.145.004.019 0 .037-.001.055-.001.042 0 .083.001.124.001 36.717 0 70.939-18.702 91.546-50.028 5.329-8.102-7.204-16.347-12.531-8.243-10.054 15.284-23.837 27.092-39.623 34.484 3.353-6.28 5.261-13.443 5.261-21.045 0-35.74-38.514-66.906-40.153-68.216-2.72-2.171-6.572-2.187-9.309-.041-1.642 1.288-40.204 31.95-40.204 68.256 0 7.879 2.05 15.286 5.635 21.727-10.204-4.594-19.375-11.082-27.238-19.412-15.695-16.626-25.6-39.968-27.889-65.724-2.688-30.259 5.742-62.3 23.74-90.221 15.637-24.256 37.294-43.533 61.845-55.266-2.993 34.605 3.012 62.219 17.905 82.213 13 17.452 28.218 22.173 28.859 22.366 2.436.729 5.07.179 7.008-1.465 13.627-11.562 18.616-26.71 20.316-38.245 23.51 24.576 34.48 61.695 27.635 96.899-1.85 9.519 12.873 12.383 14.725 2.863 8.947-46.011-9.053-95.016-44.791-121.944zm-369.583-254.863v-18.595c0-6.893 5.607-12.5 12.5-12.5h237c6.893 0 12.5 5.607 12.5 12.5v18.595zm276.833 421.072c0-22.396 20.383-43.735 29.798-52.396 9.422 8.773 29.868 30.354 29.868 52.396 0 16.422-13.337 29.785-29.749 29.831-.505 0-1-.027-1.503-.034-15.793-.743-28.414-13.822-28.414-29.797zm-58.14-.667h-206.193c-6.893 0-12.5-5.607-12.5-12.5v-51.361h197.211c1.604 22.589 8.672 45.088 21.482 63.861z"/></g></g></svg>