<svg id="Layer_1" enable-background="new 0 0 511.956 511.956" height="512" viewBox="0 0 511.956 511.956" width="512" xmlns="http://www.w3.org/2000/svg"><g><g><g><path d="m341.696 504.592v-113.636c0-39.446-26.647-72.648-62.915-82.644 18.268-8.584 30.92-27.141 30.92-48.661 0-29.682-24.062-53.745-53.745-53.745s-53.745 24.062-53.745 53.745c0 21.52 12.653 40.077 30.92 48.661-36.268 9.995-62.915 43.198-62.915 82.644v113.636z" fill="#b5e8e0"/><path d="m278.781 308.312c18.268-8.584 30.92-27.141 30.92-48.66 0-29.682-24.062-53.745-53.745-53.745-7.071 0-13.816 1.379-20 3.861 19.774 7.936 33.745 27.273 33.745 49.884 0 21.52-12.653 40.077-30.92 48.66 36.268 9.996 62.915 43.198 62.915 82.644v113.636h40v-113.636c0-39.446-26.647-72.648-62.915-82.644z" fill="#97dbd1"/><path d="m255.956 504.592c0-39.446-26.647-72.648-62.915-82.644 18.268-8.584 30.92-27.141 30.92-48.66 0-29.682-24.062-53.745-53.745-53.745s-53.745 24.062-53.745 53.745c0 21.52 12.653 40.077 30.92 48.66-36.268 9.996-62.915 43.198-62.915 82.644z" fill="#ff9e5e"/><path d="m193.041 421.948c18.268-8.584 30.92-27.14 30.92-48.66 0-29.682-24.062-53.745-53.745-53.745-7.071 0-13.816 1.379-20 3.861 19.774 7.936 33.745 27.273 33.745 49.884 0 21.52-12.653 40.077-30.92 48.66 36.268 9.996 62.915 43.198 62.915 82.644h40c0-39.446-26.647-72.649-62.915-82.644z" fill="#fa8d46"/><path d="m427.436 504.592c0-39.446-26.647-72.648-62.915-82.644 18.268-8.584 30.92-27.141 30.92-48.66 0-29.682-24.062-53.745-53.745-53.745s-53.745 24.062-53.745 53.745c0 21.52 12.653 40.077 30.92 48.66-36.268 9.996-62.915 43.198-62.915 82.644z" fill="#ff7893"/><path d="m364.52 421.948c18.268-8.584 30.92-27.14 30.92-48.66 0-29.682-24.062-53.745-53.745-53.745-7.071 0-13.816 1.379-20 3.861 19.774 7.936 33.745 27.273 33.745 49.884 0 21.52-12.653 40.077-30.92 48.66 36.268 9.996 62.915 43.198 62.915 82.644h40c.001-39.446-26.646-72.649-62.915-82.644z" fill="#ff5e7f"/></g><path d="m324.059 75.695c0-37.612-30.491-68.103-68.103-68.103s-68.103 30.491-68.103 68.103c0 33.121 23.648 60.708 54.977 66.827l13.126 22.734 13.126-22.734c31.33-6.119 54.977-33.706 54.977-66.827z" fill="#fff7e8"/><path d="m255.956 7.592c-6.961 0-13.675 1.05-20 2.99 27.851 8.545 48.103 34.461 48.103 65.113 0 30.649-20.255 56.545-48.103 65.09 2.246.689 4.536 1.28 6.874 1.737l13.126 22.734 13.126-22.734c31.33-6.119 54.977-33.706 54.977-66.827 0-37.612-30.491-68.103-68.103-68.103z" fill="#fff1d6"/><g><path d="m143.639 224.741c0-37.606-30.486-68.091-68.091-68.091s-68.092 30.485-68.092 68.091 30.486 68.092 68.091 68.092c7.893 0 15.47-1.348 22.519-3.817l20.773 10.078v-21.794c15.145-12.489 24.8-31.397 24.8-52.559z" fill="#ffd88f"/></g><g><path d="m368.273 224.741c0-37.606 30.486-68.091 68.091-68.091s68.091 30.486 68.091 68.091c0 37.606-30.486 68.092-68.091 68.092-7.893 0-15.47-1.348-22.519-3.817l-20.773 10.078v-21.794c-15.144-12.489-24.799-31.397-24.799-52.559z" fill="#ffe6b8"/></g></g><g><path d="m352.695 313.029c-13.173-2.391-26.382-.275-37.915 5.627-5.943-4.83-12.468-8.935-19.389-12.175 13.583-11.49 21.81-28.605 21.81-46.829 0-33.77-27.475-61.245-61.245-61.245s-61.245 27.475-61.245 61.245c0 18.224 8.227 35.339 21.811 46.83-6.814 3.19-13.245 7.218-19.113 11.95-8.199-4.081-17.429-6.389-27.192-6.389-33.771 0-61.245 27.475-61.245 61.245 0 18.219 8.223 35.331 21.8 46.821-32.306 15.109-53.795 47.942-53.795 84.483 0 9.697 15 9.697 15 0 0-35.087 23.607-66.098 57.408-75.414 6.577-1.812 7.371-11.118 1.197-14.019-16.165-7.595-26.61-24.031-26.61-41.872 0-25.5 20.746-46.245 46.245-46.245s46.245 20.746 46.245 46.245c0 17.841-10.445 34.277-26.61 41.872-6.174 2.901-5.38 12.206 1.197 14.019 33.801 9.315 57.408 40.327 57.408 75.414 0 9.697 15 9.697 15 0 0-7.822 1.149-15.539 3.416-22.938 7.759-25.328 28.447-45.436 53.992-52.476 6.576-1.812 7.372-11.114 1.2-14.017-9.112-4.286-16.701-11.555-21.368-20.467-8.166-15.593-6.596-33.67 4.2-48.357 10.695-14.549 27.986-21.657 45.123-18.549 9.54 1.738 12.215-13.03 2.675-14.759zm-59.885 24.423c-14.057 19.122-16.126 43.722-5.402 64.2 3.7 7.065 8.788 13.35 14.864 18.473-20.625 9.702-37.321 26.873-46.345 47.879-8.946-20.864-25.329-38.105-46.265-47.896 13.578-11.49 21.8-28.602 21.8-46.821 0-18.33-8.105-34.792-20.906-46.026 7.444-5.302 15.802-9.303 24.569-11.719 6.578-1.813 7.371-11.117 1.197-14.019-16.165-7.596-26.61-24.032-26.61-41.873 0-25.499 20.746-46.245 46.245-46.245s46.245 20.746 46.245 46.245c0 17.841-10.445 34.277-26.61 41.873-6.174 2.901-5.38 12.206 1.197 14.019 8.94 2.464 17.445 6.573 24.996 12.029-3.271 2.921-6.284 6.221-8.975 9.881z"/><path d="m383.019 421.275c.394-1.128.564-2.274.511-3.438 7.253-6.948 12.834-15.725 16.069-25.559 5.288-16.076 3.833-33.599-3.991-48.074-4.61-8.531-17.806-1.398-13.195 7.133 5.872 10.864 6.943 24.078 2.938 36.254-4.024 12.233-12.779 22.281-24.021 27.569-6.388 2.998-5.102 12.05 1.128 13.997 33.233 9.514 57.944 41.898 57.48 75.33-.131 9.415 14.861 10.093 14.999.208.473-34.196-20.967-67.443-51.918-83.42z"/><path d="m237.989 149.136 11.472 19.87c2.838 4.914 10.153 4.914 12.99 0l11.472-19.87c33.602-8.186 57.636-38.529 57.636-73.441 0-41.688-33.916-75.604-75.604-75.604s-75.604 33.916-75.604 75.604c.002 34.912 24.036 65.255 57.638 73.441zm17.967-134.044c33.417 0 60.604 27.187 60.604 60.604 0 28.921-20.572 53.93-48.915 59.466-2.129.416-3.973 1.732-5.058 3.611l-6.631 11.484-6.631-11.484c-1.084-1.878-2.929-3.195-5.058-3.611-28.343-5.536-48.915-30.545-48.915-59.466.001-33.418 27.187-60.604 60.604-60.604z"/><path d="m115.566 305.841c4.884 2.371 10.774-1.304 10.774-6.748v-18.367c15.804-14.333 24.799-34.538 24.799-55.985 0-41.682-33.91-75.592-75.591-75.592-18.075 0-35.578 6.499-49.285 18.3-3.139 2.703-3.493 7.438-.79 10.577 2.703 3.138 7.438 3.493 10.577.79 10.986-9.458 25.013-14.667 39.498-14.667 33.41 0 60.591 27.181 60.591 60.592 0 18.158-8.044 35.206-22.07 46.772-1.728 1.424-2.729 3.547-2.729 5.786v9.819l-9.999-4.851c-1.797-.873-3.87-.991-5.753-.331-6.432 2.253-13.174 3.396-20.04 3.396-18.713 0-36.142-8.769-47.819-24.058-11.684-15.299-15.557-34.441-10.625-52.517 1.09-3.996-1.265-8.12-5.261-9.209-4-1.093-8.12 1.265-9.209 5.261-6.173 22.625-1.37 46.524 13.175 65.569 14.539 19.036 36.313 29.954 59.74 29.954 7.488 0 14.863-1.092 21.968-3.249z"/><path d="m436.365 149.15c-41.681 0-75.591 33.91-75.591 75.591 0 21.447 8.995 41.652 24.799 55.985v18.367c0 5.443 5.89 9.118 10.774 6.748l18.05-8.757c7.105 2.157 14.48 3.249 21.968 3.249 41.681 0 75.591-33.91 75.591-75.591s-33.91-75.592-75.591-75.592zm0 136.182c-6.866 0-13.608-1.143-20.04-3.396-1.886-.661-3.955-.542-5.753.33l-9.999 4.852v-9.818c0-2.239-1-4.362-2.729-5.786-14.026-11.567-22.07-28.614-22.07-46.772 0-33.41 27.181-60.591 60.591-60.591s60.591 27.181 60.591 60.591-27.181 60.59-60.591 60.59z"/></g></g></svg>