<svg id="Layer_1" enable-background="new 0 0 512.019 512.019" height="512" viewBox="0 0 512.019 512.019" width="512" xmlns="http://www.w3.org/2000/svg"><g><g><g><path d="m491.364 8.017-433.097 143.349c-9.819 3.25-10.64 16.821-1.285 21.231l127.268 59.995 7.098 88.077 88.471 7.492 59.61 126.818c4.402 9.366 17.985 8.552 21.237-1.273l143.334-433.053c2.583-7.805-4.831-15.219-12.636-12.636z" fill="#fff7e8"/><path d="m491.364 8.017-26.861 8.891c.069 1.21-.082 2.472-.504 3.745l-135.827 410.376 11.258 23.95c4.402 9.366 17.985 8.552 21.237-1.273l143.333-433.053c2.583-7.805-4.831-15.219-12.636-12.636z" fill="#fff1d6"/><g><path d="m436.08 75.938-251.829 156.654 7.097 88.077z" fill="#ffd88f"/><path d="m436.08 75.938-156.26 252.224-88.472-7.493z" fill="#ffe6b8"/></g></g></g><g><path d="m506.881 5.136c-4.706-4.706-11.555-6.33-17.873-4.239l-337.885 111.835c-9.206 3.047-4.494 17.287 4.713 14.24l337.885-111.835c2.352-.246 3.405.807 3.159 3.159l-143.334 433.053c-1.116 3.372-5.817 3.654-7.329.439l-57.879-123.136 27.458-44.321c5.108-8.243-7.644-16.142-12.751-7.899l-27.177 43.868-67.801-5.742 187.553-187.554-71.77 115.847c-5.107 8.243 7.644 16.143 12.751 7.899l105.854-170.863c4.081-6.575-3.77-14.404-10.337-10.318l-248.362 154.499-123.576-58.255c-3.211-1.514-2.927-6.211.443-7.327l57.66-19.084c9.206-3.047 4.493-17.287-4.713-14.24l-57.66 19.084c-15.917 5.268-17.292 27.986-2.126 35.135l123.339 58.143 6.749 83.747c.292 3.626 3.237 6.543 6.843 6.871l84.158 7.127 57.769 122.9c7.098 15.1 29.88 13.8 35.144-2.107l143.334-433.052c2.092-6.319.467-13.167-4.239-17.874zm-309.36 298.754-4.789-59.425-.638-7.918 192.55-119.779z"/><path d="m146.877 360.584c-2.976-2.882-7.724-2.805-10.605.17l-134.136 138.523c-6.731 6.95 4.006 17.426 10.775 10.435l134.136-138.522c2.882-2.976 2.806-7.724-.17-10.606z"/><path d="m195.036 360.787-106.017 110.403c-6.697 6.974 4.072 17.415 10.819 10.39l106.017-110.403c6.717-6.995-4.101-17.384-10.819-10.39z"/><path d="m32.523 424.544c1.97 0 3.938-.772 5.411-2.305l106.016-110.403c6.717-6.995-4.102-17.384-10.819-10.39l-106.017 110.403c-4.319 4.498-.798 12.695 5.409 12.695z"/></g></g></svg>