<svg id="Layer_1" enable-background="new 0 0 512 512" height="512" viewBox="0 0 512 512" width="512" xmlns="http://www.w3.org/2000/svg"><g><g><g><g><g><path d="m317.722 504.5h-200.577c-60.5 0-109.545-49.045-109.545-109.545 0-60.5 49.045-109.545 109.545-109.545h200.576c60.5 0 109.545 49.045 109.545 109.545.001 60.5-49.044 109.545-109.544 109.545z" fill="#59a1a5"/><path d="m317.722 285.41h-40c60.5 0 109.545 49.045 109.545 109.545 0 60.5-49.045 109.545-109.545 109.545h40c60.5 0 109.545-49.045 109.545-109.545 0-60.5-49.045-109.545-109.545-109.545z" fill="#419296"/><g fill="#fff7e8"><g><g><circle cx="286.807" cy="395.437" r="15.176"/><ellipse cx="325.29" cy="356.955" rx="15.176" ry="15.176" transform="matrix(.707 -.707 .707 .707 -157.13 334.564)"/></g><g><ellipse cx="325.199" cy="432.955" rx="15.176" ry="15.176" transform="matrix(.23 -.973 .973 .23 -170.89 649.981)"/><circle cx="363.681" cy="394.472" r="15.176"/></g></g><path d="m146.024 379.955h-22.507v-22.507c0-8.284-6.716-15-15-15s-15 6.716-15 15v22.507h-22.507c-8.284 0-15 6.716-15 15s6.716 15 15 15h22.507v22.507c0 8.284 6.716 15 15 15s15-6.716 15-15v-22.507h22.507c8.284 0 15-6.716 15-15s-6.716-15-15-15z"/></g></g></g></g><g><g><path d="m504.6 125.345c0-65.084-52.761-117.845-117.845-117.845s-117.846 52.761-117.846 117.845 52.761 117.846 117.846 117.846c13.66 0 26.773-2.332 38.974-6.607l35.952 17.442v-37.718c26.21-21.613 42.919-54.337 42.919-90.963z" fill="#fff7e8"/></g><path d="m386.755 7.5c-6.693 0-13.402.57-20 1.698 55.876 9.554 97.809 59.527 97.845 116.147.036 56.593-41.994 106.576-97.837 116.149 6.499 1.11 13.176 1.697 19.991 1.697 13.66 0 26.773-2.332 38.974-6.607 11.984 5.814 23.968 11.628 35.952 17.442 0-7.509 0-15.018 0-22.528 0-3.88-1.071-9.625 0-13.432 1.124-3.997 5.262-6.253 8.375-9.364 24.144-24.128 36.723-58.119 34.209-92.148-4.486-60.718-56.651-109.054-117.509-109.054z" fill="#fff1d6"/></g></g><path d="m245.434 301.678h-56c-8.837 0-16-7.163-16-16 0-8.837 7.163-16 16-16h56c8.837 0 16 7.163 16 16 0 8.837-7.164 16-16 16z" fill="#b5e8e0"/><g><path d="m264.131 395.438c0 12.503 10.172 22.676 22.676 22.676s22.676-10.172 22.676-22.676-10.172-22.676-22.676-22.676-22.676 10.172-22.676 22.676zm30.352 0c0 4.232-3.443 7.676-7.676 7.676s-7.676-3.443-7.676-7.676 3.443-7.676 7.676-7.676 7.676 3.443 7.676 7.676z"/><path d="m325.29 334.279c-12.504 0-22.676 10.172-22.676 22.676s10.172 22.676 22.676 22.676 22.676-10.172 22.676-22.676-10.172-22.676-22.676-22.676zm0 30.351c-4.232 0-7.676-3.443-7.676-7.676s3.443-7.676 7.676-7.676 7.676 3.443 7.676 7.676-3.444 7.676-7.676 7.676z"/><path d="m325.199 410.279c-12.504 0-22.676 10.172-22.676 22.676s10.172 22.675 22.676 22.675 22.676-10.172 22.676-22.675-10.172-22.676-22.676-22.676zm0 30.351c-4.232 0-7.676-3.443-7.676-7.675s3.443-7.676 7.676-7.676 7.676 3.443 7.676 7.676-3.444 7.675-7.676 7.675z"/><path d="m386.357 394.472c0-12.503-10.172-22.676-22.676-22.676s-22.676 10.172-22.676 22.676 10.172 22.676 22.676 22.676 22.676-10.172 22.676-22.676zm-30.352 0c0-4.232 3.443-7.676 7.676-7.676s7.676 3.443 7.676 7.676-3.443 7.676-7.676 7.676-7.676-3.443-7.676-7.676z"/><path d="m108.517 334.948c-12.406 0-22.5 10.093-22.5 22.5v15.006h-15.007c-12.406 0-22.5 10.093-22.5 22.5s10.094 22.5 22.5 22.5h15.007v15.007c0 12.407 10.094 22.5 22.5 22.5s22.5-10.093 22.5-22.5v-15.007h15.007c12.406 0 22.5-10.093 22.5-22.5s-10.094-22.5-22.5-22.5h-15.007v-15.006c0-12.406-10.094-22.5-22.5-22.5zm37.507 52.507c4.136 0 7.5 3.364 7.5 7.5s-3.364 7.5-7.5 7.5h-22.507c-4.143 0-7.5 3.358-7.5 7.5v22.507c0 4.136-3.364 7.5-7.5 7.5s-7.5-3.364-7.5-7.5v-22.507c0-4.142-3.357-7.5-7.5-7.5h-22.507c-4.136 0-7.5-3.364-7.5-7.5s3.364-7.5 7.5-7.5h22.507c4.143 0 7.5-3.358 7.5-7.5v-22.506c0-4.136 3.364-7.5 7.5-7.5s7.5 3.364 7.5 7.5v22.506c0 4.142 3.357 7.5 7.5 7.5z"/><path d="m200.933 475.38h33c4.143 0 7.5-3.358 7.5-7.5s-3.357-7.5-7.5-7.5h-33c-4.143 0-7.5 3.358-7.5 7.5s3.358 7.5 7.5 7.5z"/><path d="m200.933 444.584h33c4.143 0 7.5-3.358 7.5-7.5s-3.357-7.5-7.5-7.5h-33c-4.143 0-7.5 3.358-7.5 7.5s3.358 7.5 7.5 7.5z"/><path d="m501.341 74.481c-3.937-8.863-17.647-2.769-13.707 6.093 9.617 21.635 11.838 46.526 6.254 70.09-5.578 23.536-18.711 44.793-36.979 59.858-1.728 1.424-2.729 3.547-2.729 5.786v25.743l-25.178-12.215c-1.798-.873-3.868-.99-5.753-.331-11.716 4.104-23.994 6.185-36.495 6.185-60.845 0-110.346-49.501-110.346-110.346s49.502-110.344 110.347-110.344c30.728 0 59.261 12.329 80.343 34.716 6.646 7.061 17.569-3.224 10.92-10.283-23.947-25.429-56.358-39.433-91.263-39.433-69.116 0-125.346 56.23-125.346 125.346 0 2.402.075 4.786.209 7.154h-111.898c-26.855 0-48.703 21.848-48.703 48.703s21.848 48.703 48.703 48.703h37.713c12.406 0 22.5 10.093 22.5 22.5v9.772h-20.5c-10.236 0-18.959 6.581-22.175 15.731h-50.114c-64.538.001-117.044 52.507-117.044 117.046 0 16.068 3.199 31.639 9.508 46.279 3.754 8.708 17.607 2.952 13.775-5.937-5.496-12.755-8.283-26.328-8.283-40.343 0-56.268 45.777-102.045 102.045-102.045h49.931c3.058 9.43 11.921 16.269 22.357 16.269h56c10.435 0 19.299-6.839 22.357-16.269h49.931c56.269 0 102.046 45.777 102.046 102.045 0 56.269-45.777 102.046-102.046 102.046h-200.576c-26.756 0-52.043-10.28-71.203-28.947-6.946-6.767-17.412 3.977-10.467 10.744 21.977 21.411 50.982 33.203 81.67 33.203h200.576c64.539 0 117.046-52.506 117.046-117.045s-52.507-117.045-117.046-117.045h-50.114c-3.216-9.151-11.939-15.731-22.175-15.731h-20.5v-9.772c0-20.678-16.822-37.5-37.5-37.5h-37.712c-18.584 0-33.703-15.119-33.703-33.703s15.119-33.704 33.703-33.704h113.649c10.491 58.586 61.827 103.191 123.385 103.191 13.133 0 26.055-2.024 38.458-6.021l33.194 16.104c4.884 2.371 10.773-1.305 10.773-6.748v-34.251c19.355-16.959 33.256-40.136 39.304-65.652 6.338-26.74 3.802-55.024-7.142-79.642zm-247.408 211.197c0 4.687-3.813 8.5-8.5 8.5h-56c-4.687 0-8.5-3.813-8.5-8.5s3.813-8.5 8.5-8.5h56c4.687 0 8.5 3.813 8.5 8.5z"/><path d="m451.539 111.992c4.143 0 7.5-3.358 7.5-7.5s-3.357-7.5-7.5-7.5h-24.336l7.967-21.344c1.448-3.88-.523-8.201-4.403-9.649-3.884-1.449-8.201.522-9.649 4.404l-9.925 26.589h-28.155l7.967-21.344c1.448-3.88-.523-8.201-4.403-9.649-3.882-1.449-8.201.522-9.649 4.404l-9.925 26.589h-32.1c-4.143 0-7.5 3.358-7.5 7.5s3.357 7.5 7.5 7.5h26.5l-9.904 26.533h-29.554c-4.143 0-7.5 3.358-7.5 7.5s3.357 7.5 7.5 7.5h23.955l-8.769 23.493c-3.3 8.841 10.648 14.365 14.053 5.245l10.727-28.738h28.154l-8.769 23.493c-3.3 8.841 10.648 14.365 14.053 5.245l10.727-28.738h32.481c4.143 0 7.5-3.358 7.5-7.5s-3.357-7.5-7.5-7.5h-26.882l9.904-26.533zm-55.85 26.533h-28.155l9.904-26.533h28.154z"/></g></g></svg>