<svg id="Layer_1" enable-background="new 0 0 512 512" height="512" viewBox="0 0 512 512" width="512" xmlns="http://www.w3.org/2000/svg"><g><g><path d="m468.961 194.593h-116.015c-19.628 0-35.539-15.911-35.539-35.539v-116.015c0-19.627 15.911-35.539 35.539-35.539h116.016c19.627 0 35.539 15.911 35.539 35.539v116.016c-.001 19.627-15.912 35.538-35.54 35.538z" fill="#ff7893"/><path d="m468.961 7.5h-40c19.627 0 35.539 15.911 35.539 35.539v116.016c0 19.627-15.911 35.539-35.539 35.539h40c19.627 0 35.539-15.911 35.539-35.539v-116.016c0-19.628-15.911-35.539-35.539-35.539z" fill="#ff5e7f"/><path d="m159.054 504.5h-116.015c-19.628 0-35.539-15.911-35.539-35.539v-116.015c0-19.628 15.911-35.539 35.539-35.539h116.016c19.628 0 35.539 15.911 35.539 35.539v116.016c-.001 19.627-15.912 35.538-35.54 35.538z" fill="#ff9e5e"/><g><g><ellipse cx="256" cy="256" fill="#59a1a5" rx="136.696" ry="136.696" transform="matrix(.707 -.707 .707 .707 -106.039 256)"/><path d="m256 119.304c-6.795 0-13.471.503-20 1.461 66.013 9.679 116.696 66.535 116.696 135.235s-50.683 125.556-116.696 135.235c6.529.958 13.205 1.461 20 1.461 75.495 0 136.695-61.201 136.695-136.696s-61.2-136.696-136.695-136.696z" fill="#419296"/></g></g><path d="m106.809 360.269 11.363 32.562c.593 1.698 1.904 3.049 3.584 3.691l22.848 8.73c5.233 2 5.233 9.403 0 11.403l-22.848 8.73c-1.68.642-2.992 1.992-3.584 3.691l-11.363 32.562c-1.904 5.457-9.621 5.457-11.525 0l-11.363-32.562c-.593-1.698-1.904-3.049-3.584-3.691l-22.848-8.73c-5.234-2-5.234-9.403 0-11.403l22.848-8.73c1.68-.642 2.992-1.992 3.584-3.691l11.363-32.562c1.904-5.457 9.621-5.457 11.525 0z" fill="#fff7e8"/><g><path d="m430.29 66.16c-7.567-.129-14.398 3.132-19.059 8.378-4.479-5.402-11.195-8.895-18.761-9.025-13.761-.235-25.108 10.73-25.343 24.491-.506 29.604 43.043 46.579 43.043 46.579s44.104-15.476 44.611-45.08c.235-13.761-10.73-25.107-24.491-25.343z" fill="#fff7e8"/></g><g><path d="m209.272 109.831c0-45.975-37.27-83.245-83.245-83.245s-83.245 37.27-83.245 83.245 37.27 83.245 83.245 83.245c9.649 0 18.913-1.648 27.531-4.667l25.396 12.321v-26.643c18.515-15.268 30.318-38.383 30.318-64.256z" fill="#ffd88f"/></g><path d="m126.027 26.587c-6.897 0-13.591.854-20 2.435 36.312 8.958 63.245 41.731 63.245 80.81 0 38.459-27.439 71.652-63.452 80.762 6.471 1.614 13.236 2.483 20.207 2.483 9.649 0 18.913-1.647 27.531-4.667l25.396 12.321v-26.644c18.515-15.268 30.318-38.383 30.318-64.255 0-45.976-37.27-83.245-83.245-83.245z" fill="#ffc963"/><g><g><path d="m423.688 347.871h-15.489c-10.695 0-19.365 8.67-19.365 19.365v4.269c0 10.695 8.67 19.365 19.365 19.365s2.697 19.801-5.809 40.231c-3.378 8.112 6.143 15.427 13.106 10.067 14.933-11.495 26.448-37.199 26.504-74.843.015-10.167-8.144-18.454-18.312-18.454z" fill="#b5e8e0"/></g><g><path d="m346.899 347.871h-15.489c-10.695 0-19.365 8.67-19.365 19.365v4.269c0 10.695 8.67 19.365 19.365 19.365s2.697 19.801-5.809 40.231c-3.378 8.112 6.143 15.427 13.106 10.067 14.933-11.495 26.448-37.199 26.504-74.843.015-10.167-8.144-18.454-18.312-18.454z" fill="#b5e8e0"/></g></g></g><g><path d="m468.961 0h-116.016c-23.731 0-43.038 19.307-43.038 43.039v79.229c-16.662-6.741-34.857-10.463-53.907-10.463-13.489 0-26.737 1.847-39.535 5.492 4.255-52.067-38.163-98.209-90.438-98.209-35.475 0-67.901 20.883-82.611 53.203-1.716 3.77-.051 8.217 3.72 9.933 3.77 1.716 8.218.05 9.933-3.719 12.28-26.982 39.349-44.417 68.959-44.417 41.766 0 75.744 33.979 75.744 75.745 0 22.436-10.275 44.191-27.589 58.469-1.728 1.425-2.729 3.547-2.729 5.786v14.669l-14.623-7.094c-1.798-.873-3.871-.99-5.753-.331-8.04 2.817-16.469 4.245-25.051 4.245-40.013 0-72.972-30.955-75.578-70.7.452-3.915-3.178-8.195-7.113-8.369-4.04-.22-8.138 3.825-7.94 7.856 2.33 47.294 40.487 84.541 87.495 86.136-7.275 17.487-11.086 36.443-11.086 55.5 0 19.387 3.855 37.888 10.824 54.789l-79.589-.882c-23.732 0-43.04 19.307-43.04 43.039v116.016c0 23.731 19.308 43.038 43.039 43.038h116.016c23.731 0 43.038-19.307 43.038-43.039v-79.229c16.662 6.741 34.857 10.463 53.907 10.463 19.186 0 37.743-3.698 55.246-10.977 3.416 3.885 7.923 6.787 13.049 8.196.104 6.749-.595 18.739-5.619 30.804-6.19 14.866 11.841 28.718 24.605 18.893 18.647-14.355 29.374-43.796 29.429-80.775.009-6.451-2.308-12.536-6.55-17.301 22-26.004 34.034-58.732 34.034-93.036 0-19.05-3.722-37.245-10.463-53.907h79.228c23.731 0 43.039-19.307 43.039-43.039v-116.014c.002-23.732-19.306-43.039-43.037-43.039zm-281.868 468.961c0 15.46-12.578 28.039-28.038 28.039h-116.016c-15.461 0-28.039-12.578-28.039-28.039v-116.015c0-15.46 12.578-28.039 27.956-28.039l86.947.964c13.295 23.899 33.18 43.649 57.19 56.766zm147.039-33.734c-1.184.43-1.72.016-1.607-1.241 9.184-22.055 6.438-43.235 6.317-44.126-.507-3.717-3.681-6.488-7.432-6.488-6.543 0-11.865-5.323-11.865-11.865v-4.27c0-6.542 5.322-11.865 11.865-11.865h15.488c5.863 0 10.82 5.133 10.812 10.943-.046 31.821-8.86 57.582-23.578 68.912zm19.036-94.09c-2.026-.505-4.128-.765-6.27-.765h-15.488c-14.813 0-26.865 12.052-26.865 26.865-.077 2.725-.083 5.717.329 8.386-15.494 6.348-31.906 9.573-48.874 9.573-71.238 0-129.195-57.957-129.195-129.196 0-19.558 4.47-38.993 12.957-56.46 4.489-.683 8.917-1.702 13.26-3.055l22.659 10.993c4.884 2.371 10.773-1.305 10.773-6.748v-23.198c13.179-11.761 22.485-26.893 27.069-43.578 13.618-4.742 27.887-7.151 42.477-7.151 71.238 0 129.195 57.957 129.195 129.196 0 31.524-11.341 61.562-32.027 85.138zm143.832-182.083c0 15.46-12.578 28.039-28.039 28.039h-86.324c-13.294-24.333-33.396-44.436-57.729-57.73v-86.324c0-15.46 12.578-28.039 28.038-28.039h116.016c15.46 0 28.038 12.578 28.038 28.039z"/><path d="m287.993 212.058h-32.242v-17.465c0-4.142-3.357-7.5-7.5-7.5s-7.5 3.358-7.5 7.5v17.465h-16.744c-4.143 0-7.5 3.358-7.5 7.5s3.357 7.5 7.5 7.5h16.744v58.466c0 21.716 17.667 39.383 39.383 39.383 4.143 0 7.5-3.358 7.5-7.5s-3.357-7.5-7.5-7.5c-13.444 0-24.383-10.938-24.383-24.383v-58.466h32.242c4.143 0 7.5-3.358 7.5-7.5s-3.357-7.5-7.5-7.5z"/><path d="m147.281 398.246-22.242-8.499-11.148-31.949c-4.557-12.298-22.224-12.132-25.688 0l-11.149 31.95-22.242 8.499c-11.257 4.3-11.412 21.054 0 25.415l22.242 8.499 11.149 31.949c4.19 12.012 21.497 12.01 25.688 0l11.148-31.949 22.243-8.499c11.255-4.302 11.412-21.056-.001-25.416zm-28.203 20.134c-3.752 1.434-6.663 4.432-7.987 8.225l-10.044 28.784-10.045-28.785c-1.324-3.792-4.235-6.79-7.988-8.225l-19.435-7.426 19.436-7.426c3.752-1.434 6.663-4.431 7.987-8.225l10.045-28.784 10.044 28.785c1.324 3.792 4.235 6.79 7.988 8.224l19.435 7.426z"/><path d="m430.418 58.661c-6.846-.1-13.485 1.935-19.014 5.77-5.395-4.021-11.952-6.299-18.807-6.416-.189-.003-.379-.005-.569-.005-8.447 0-16.424 3.222-22.514 9.107-6.228 6.018-9.738 14.101-9.887 22.759-.588 34.427 45.842 52.924 47.818 53.694.875.341 1.799.512 2.724.512.839 0 1.679-.141 2.483-.423 2.002-.703 49.037-17.601 49.627-52.029.306-17.873-13.988-32.663-31.861-32.969zm-20.109 69.845c-12.06-5.38-35.998-19.903-35.683-38.374.079-4.653 1.966-8.996 5.312-12.229 3.272-3.163 7.558-4.894 12.097-4.894.103 0 .204.001.307.003 5.081.087 9.861 2.388 13.116 6.313 1.396 1.684 3.458 2.675 5.646 2.712.043 0 .086.001.128.001 2.141 0 4.183-.916 5.607-2.519 3.386-3.812 8.244-5.953 13.323-5.86 9.604.164 17.284 8.112 17.12 17.715-.316 18.474-24.745 32.172-36.973 37.132z"/><path d="m423.688 340.372h-15.488c-14.813 0-26.865 12.052-26.865 26.865v4.27c0 12.352 8.379 22.783 19.751 25.909.104 6.749-.595 18.739-5.619 30.804-6.19 14.865 11.841 28.719 24.605 18.893 6.725-5.177 12.505-12.454 17.181-21.627 4.405-8.639-8.962-15.453-13.363-6.812-3.606 7.074-8.09 12.798-12.968 16.553-1.183.43-1.719.016-1.607-1.242 9.184-22.055 6.438-43.235 6.317-44.126-.507-3.717-3.681-6.488-7.432-6.488-6.543 0-11.865-5.323-11.865-11.865v-4.27c0-6.542 5.322-11.865 11.865-11.865h15.488c5.961 0 10.822 5.015 10.812 10.943-.009 5.821-.313 11.534-.905 16.98-1.047 9.64 13.865 11.262 14.912 1.62.649-5.974.983-12.224.993-18.577.022-13.99-11.756-25.965-25.812-25.965z"/></g></g></svg>