<svg id="Layer_1" enable-background="new 0 0 512 512" height="512" viewBox="0 0 512 512" width="512" xmlns="http://www.w3.org/2000/svg"><g><g><path d="m232.488 286.063h46.985v190.189h-46.985z" fill="#ff7893"/><path d="m367.997 504.5h-224.034v-.027c0-22.533 18.267-40.8 40.8-40.8h142.435c22.533 0 40.8 18.267 40.8 40.8v.027z" fill="#ff9e5e"/><path d="m327.198 463.673h-40c22.533 0 40.8 18.267 40.8 40.8v.027h40v-.027c-.001-22.534-18.267-40.8-40.8-40.8z" fill="#fa8d46"/><path d="m61.996 296.545h387.969c11.939 0 21.618-9.679 21.618-21.618v-20.935l-215.603-66.216-215.602 66.216v20.935c0 11.939 9.678 21.618 21.618 21.618z" fill="#ff9e5e"/><path d="m471.582 253.992h-431.204l39.675-166.226c2.324-9.736 11.015-16.604 21.012-16.604h309.831c9.997 0 18.688 6.868 21.012 16.604z" fill="#59a1a5"/><path d="m431.907 87.766c-2.324-9.736-11.015-16.604-21.012-16.604h-40c9.997 0 18.688 6.868 21.012 16.604l39.675 166.226h40z" fill="#419296"/><g><path d="m239.226 41.03h-33.463c-9.253 0-16.754-7.501-16.754-16.754v-.023c0-9.253 7.501-16.754 16.754-16.754h33.463c9.253 0 16.754 7.501 16.754 16.754v.023c0 9.253-7.501 16.754-16.754 16.754z" fill="#ff7893"/></g><path d="m431.582 253.992v20.935c0 11.939-9.679 21.618-21.618 21.618h40c11.939 0 21.618-9.679 21.618-21.618v-20.935z" fill="#fa8d46"/><path d="m352.115 217.957h-192.27l21.603-105.812h149.064z" fill="#fff7e8"/></g><g><path d="m479.081 253.965c-.002-.567-.072-1.161-.204-1.714l-39.675-166.225c-3.142-13.167-14.782-22.363-28.307-22.363h-274.875v-17.225c0-7.792 6.327-14.132 14.104-14.132h32.758c3.322 9.438 12.322 16.225 22.882 16.225h33.463c31.206 0 31.261-48.53 0-48.53h-33.463c-10.955 0-20.232 7.302-23.231 17.306h-32.409c-16.048 0-29.104 13.069-29.104 29.132v17.225h-19.956c-13.524 0-25.164 9.196-28.306 22.363l-39.675 166.224c-.007.027-.009.055-.015.082-.043.19-.076.383-.104.578-.011.079-.027.157-.036.235-.022.196-.031.395-.038.596-.002.074-.011.148-.011.221 0 .01-.001.019-.001.028v20.935c0 16.056 13.062 29.118 29.118 29.118h162.992v152.128h-40.225c-26.632 0-48.299 21.667-48.299 48.327 0 4.142 3.358 7.5 7.5 7.5h31.062c9.697 0 9.697-15 0-15h-22.717c3.401-14.775 16.662-25.827 32.454-25.827h142.436c15.787 0 29.044 11.042 32.45 25.827h-144.662c-9.697 0-9.697 15 0 15h153.01c4.143 0 7.5-3.385 7.5-7.527 0-26.633-21.667-48.3-48.3-48.3h-40.226v-152.127h162.992c16.056 0 29.118-13.062 29.118-29.118.002-6.985.092-13.977 0-20.962zm-273.318-238.965h33.463c11.577 0 12.11 18.53 0 18.53h-33.463c-5.103 0-9.254-4.151-9.254-9.276 0-5.103 4.152-9.254 9.254-9.254zm66.209 441.173h-31.985v-152.128h31.985zm177.992-167.128h-387.968c-7.785 0-14.118-6.333-14.118-14.118v-13.435h331.192c4.143 0 7.5-3.358 7.5-7.5s-3.357-7.5-7.5-7.5h-329.191l37.47-156.984c1.524-6.386 7.165-10.845 13.716-10.845h19.956v15.929c0 4.142 3.358 7.5 7.5 7.5s7.5-3.358 7.5-7.5v-15.929h274.875c6.553 0 12.193 4.459 13.717 10.845l37.47 156.984h-43.087c-4.143 0-7.5 3.358-7.5 7.5s3.357 7.5 7.5 7.5h45.088v13.435c-.001 7.785-6.334 14.118-14.12 14.118z"/><path d="m337.86 110.645c-.713-3.492-3.785-6-7.349-6h-149.063c-3.564 0-6.636 2.508-7.348 6l-21.604 105.812c-.397 5.325 2.052 8.325 7.349 9h192.27c5.297-.676 7.746-3.676 7.349-9zm-168.829 99.812 18.541-90.812h136.816l18.541 90.812z"/><path d="m260.661 142.325h-54.008c-4.142 0-7.5 3.358-7.5 7.5s3.358 7.5 7.5 7.5h54.008c4.143 0 7.5-3.358 7.5-7.5s-3.358-7.5-7.5-7.5z"/><path d="m233.656 172.776h-32.405c-4.142 0-7.5 3.358-7.5 7.5s3.358 7.5 7.5 7.5h32.405c4.142 0 7.5-3.358 7.5-7.5s-3.358-7.5-7.5-7.5z"/></g></g></svg>