<svg id="Layer_1" enable-background="new 0 0 511.918 511.918" height="512" viewBox="0 0 511.918 511.918" width="512" xmlns="http://www.w3.org/2000/svg"><g><g><path d="m77.352 28.732h230.334v390.349h-230.334z" fill="#59a1a5"/><path d="m267.685 28.732h40v390.349h-40z" fill="#419296"/><g><g><g><g><path d="m307.685 366.724v54.049c0 10.792 8.755 19.541 19.554 19.541h30.718c10.799 0 19.554-8.749 19.554-19.541v-393.732c0-10.792-8.755-19.541-19.554-19.541h-30.717c-10.799 0-19.554 8.749-19.554 19.541v54.049 285.634zm-230.333-285.634v-54.049c0-10.792-8.755-19.541-19.554-19.541h-30.718c-10.8 0-19.554 8.749-19.554 19.541v393.732c0 10.792 8.755 19.541 19.554 19.541h30.718c10.799 0 19.554-8.749 19.554-19.541v-54.049z" fill="#b5e8e0"/></g></g><g><path d="m351.761 200.656 41.826 84.691c1.575 3.189 4.62 5.4 8.142 5.911l93.526 13.581c8.869 1.288 12.411 12.18 5.993 18.431l-67.676 65.923c-2.548 2.482-3.711 6.059-3.11 9.564l15.976 93.085c1.515 8.827-7.757 15.559-15.689 11.391l-83.652-43.949c-3.15-1.655-6.913-1.655-10.064 0l-83.652 43.949c-7.933 4.168-17.204-2.564-15.689-11.391l15.976-93.085c.602-3.505-.561-7.082-3.11-9.564l-67.676-65.923c-6.418-6.252-2.876-17.143 5.993-18.431l93.526-13.581c3.522-.511 6.567-2.722 8.142-5.911l41.826-84.691c3.965-8.031 15.426-8.031 19.392 0z" fill="#ffd88f"/></g><g><path d="m501.248 323.271c6.418-6.251 2.876-17.143-5.993-18.431l-93.526-13.581c-3.522-.511-6.567-2.722-8.142-5.911l-41.826-84.691c-3.966-8.031-15.427-8.031-19.393 0l-13.067 26.459 34.286 69.424c1.575 3.189 4.62 5.4 8.142 5.911l93.526 13.581c8.869 1.288 12.411 12.18 5.993 18.431l-67.676 65.923c-2.549 2.482-3.711 6.059-3.11 9.564l13.604 79.266 26.682 14.018c7.933 4.167 17.204-2.564 15.689-11.391l-15.976-93.085c-.602-3.505.561-7.082 3.11-9.564z" fill="#ffc963"/></g></g></g></g><g><path d="m47.993 36.596h-13.782c-4.142 0-7.5 3.358-7.5 7.5s3.358 7.5 7.5 7.5h13.782c4.142 0 7.5-3.358 7.5-7.5s-3.358-7.5-7.5-7.5z"/><path d="m47.993 76.179h-13.782c-4.142 0-7.5 3.358-7.5 7.5s3.358 7.5 7.5 7.5h13.782c4.142 0 7.5-3.358 7.5-7.5s-3.358-7.5-7.5-7.5z"/><path d="m47.993 115.762h-13.782c-4.142 0-7.5 3.358-7.5 7.5s3.358 7.5 7.5 7.5h13.782c4.142 0 7.5-3.358 7.5-7.5s-3.358-7.5-7.5-7.5z"/><path d="m47.993 155.345h-13.782c-4.142 0-7.5 3.358-7.5 7.5s3.358 7.5 7.5 7.5h13.782c4.142 0 7.5-3.358 7.5-7.5s-3.358-7.5-7.5-7.5z"/><path d="m47.993 194.927h-13.782c-4.142 0-7.5 3.358-7.5 7.5s3.358 7.5 7.5 7.5h13.782c4.142 0 7.5-3.358 7.5-7.5s-3.358-7.5-7.5-7.5z"/><path d="m47.993 234.51h-13.782c-4.142 0-7.5 3.358-7.5 7.5s3.358 7.5 7.5 7.5h13.782c4.142 0 7.5-3.358 7.5-7.5s-3.358-7.5-7.5-7.5z"/><path d="m47.993 274.093h-13.782c-4.142 0-7.5 3.358-7.5 7.5s3.358 7.5 7.5 7.5h13.782c4.142 0 7.5-3.358 7.5-7.5s-3.358-7.5-7.5-7.5z"/><path d="m47.993 313.675h-13.782c-4.142 0-7.5 3.358-7.5 7.5s3.358 7.5 7.5 7.5h13.782c4.142 0 7.5-3.358 7.5-7.5s-3.358-7.5-7.5-7.5z"/><path d="m47.993 353.258h-13.782c-4.142 0-7.5 3.358-7.5 7.5s3.358 7.5 7.5 7.5h13.782c4.142 0 7.5-3.358 7.5-7.5s-3.358-7.5-7.5-7.5z"/><path d="m47.993 392.841h-13.782c-4.142 0-7.5 3.358-7.5 7.5s3.358 7.5 7.5 7.5h13.782c4.142 0 7.5-3.358 7.5-7.5s-3.358-7.5-7.5-7.5z"/><path d="m349.056 36.596h-13.783c-4.142 0-7.5 3.358-7.5 7.5s3.358 7.5 7.5 7.5h13.783c4.142 0 7.5-3.358 7.5-7.5s-3.358-7.5-7.5-7.5z"/><path d="m349.056 76.179h-13.783c-4.142 0-7.5 3.358-7.5 7.5s3.358 7.5 7.5 7.5h13.783c4.142 0 7.5-3.358 7.5-7.5s-3.358-7.5-7.5-7.5z"/><path d="m349.056 115.762h-13.783c-4.142 0-7.5 3.358-7.5 7.5s3.358 7.5 7.5 7.5h13.783c4.142 0 7.5-3.358 7.5-7.5s-3.358-7.5-7.5-7.5z"/><path d="m349.056 155.345h-13.783c-4.142 0-7.5 3.358-7.5 7.5s3.358 7.5 7.5 7.5h13.783c4.142 0 7.5-3.358 7.5-7.5s-3.358-7.5-7.5-7.5z"/><path d="m506.482 328.644c10.775-10.495 4.46-29.104-10.149-31.226l-93.525-13.581c-1.081-.157-2.013-.833-2.496-1.81l-15.3-30.981v-224.005c0-14.911-12.136-27.041-27.054-27.041h-30.718c-12.922 0-23.752 9.105-26.419 21.232h-216.605c-2.667-12.127-13.496-21.232-26.419-21.232h-30.717c-14.918 0-27.055 12.13-27.055 27.041v393.731c0 14.911 12.136 27.041 27.054 27.041h30.718c12.923 0 23.752-9.105 26.419-21.232h157.066l-10.983 63.994c-2.54 14.802 13.541 26.144 26.57 19.299l83.653-43.949c.966-.507 2.12-.509 3.086 0l83.653 43.949c13.014 6.835 29.081-4.665 26.569-19.299l-4.511-26.283c-1.641-9.559-16.424-7.02-14.784 2.537l4.511 26.283c.499 2.906-2.607 4.64-4.809 3.482l-83.652-43.948c-5.335-2.804-11.706-2.803-17.041 0l-83.652 43.949c-2.202 1.158-5.308-.579-4.809-3.483l15.976-93.085c1.02-5.941-.95-11.999-5.268-16.206l-67.676-65.923c-1.786-1.739-1.074-5.214 1.837-5.636l93.527-13.582c5.966-.867 11.12-4.609 13.788-10.012l41.826-84.692c1.981-2.459 3.963-2.459 5.944 0l41.826 84.69c2.667 5.403 7.822 9.146 13.789 10.013l93.525 13.581c2.912.422 3.625 3.896 1.838 5.636l-67.676 65.924c-4.318 4.207-6.288 10.265-5.269 16.205l4.744 27.64c1.643 9.558 16.425 7.02 14.784-2.537l-4.744-27.64c-.184-1.071.171-2.164.951-2.923zm-448.685 104.169h-30.717c-6.646 0-12.054-5.401-12.054-12.041v-393.731c-.001-6.64 5.407-12.041 12.054-12.041h30.718c7.572 0 12.054 6.835 12.054 13.732v390.349c0 6.852-4.389 13.732-12.055 13.732zm187.527-38.246c.779.759 1.135 1.852.951 2.923l-2.418 14.091h-159.005v-91.934h87.72c.772 3.35 2.49 6.477 5.077 8.997zm38.493-112.541c-.482.977-1.415 1.653-2.495 1.81l-93.527 13.582c-4.954.719-9.247 3.358-12.094 7.229h-90.85v-161.48h23.142c4.142 0 7.5-3.358 7.5-7.5s-3.358-7.5-7.5-7.5h-23.141v-91.935h215.333v91.934h-150.858c-4.142 0-7.5 3.358-7.5 7.5s3.358 7.5 7.5 7.5h150.858v105.718zm58.248-94.893c-7.021 0-13.313 3.909-16.421 10.202l-10.458 21.177v-189.78c0-6.852 4.389-13.732 12.054-13.732h30.718c6.646 0 12.054 5.401 12.054 12.041v193.632l-11.526-23.338c-3.108-6.293-9.4-10.202-16.421-10.202z"/></g></g></svg>