<svg id="Layer_1" enable-background="new 0 0 512 512" height="512" viewBox="0 0 512 512" width="512" xmlns="http://www.w3.org/2000/svg"><g><g><path d="m482 504.408h-452c-12.426 0-22.5-10.074-22.5-22.5 0-12.426 10.074-22.5 22.5-22.5h452c12.426 0 22.5 10.074 22.5 22.5 0 12.426-10.074 22.5-22.5 22.5z" fill="#fff7e8"/><path d="m482 459.408h-40c12.426 0 22.5 10.074 22.5 22.5s-10.074 22.5-22.5 22.5h40c12.426 0 22.5-10.074 22.5-22.5s-10.074-22.5-22.5-22.5z" fill="#fff1d6"/><g><path d="m312.419 459.408h-112.838v-431.816c0-11.046 8.954-20 20-20h72.837c11.046 0 20 8.954 20 20v431.816z" fill="#59a1a5"/></g><path d="m292.418 7.592h-40c11.046 0 20 8.954 20 20v431.815h40v-431.815c0-11.045-8.954-20-20-20z" fill="#419296"/><g><path d="m462.178 459.408h-112.837v-268.121c0-11.046 8.954-20 20-20h72.837c11.046 0 20 8.954 20 20z" fill="#ff9e5e"/></g><path d="m442.178 171.287h-40c11.045 0 20 8.954 20 20v268.121h40v-268.121c0-11.046-8.954-20-20-20z" fill="#fa8d46"/><g><path d="m162.659 459.408h-112.837v-148.18c0-11.046 8.954-20 20-20h72.837c11.046 0 20 8.954 20 20z" fill="#ff7893"/></g><path d="m142.659 291.228h-40c11.046 0 20 8.954 20 20v148.18h40v-148.18c0-11.046-8.954-20-20-20z" fill="#ff5e7f"/></g><path d="m482 451.908h-12.322v-260.621c0-15.164-12.337-27.5-27.5-27.5h-72.837c-15.163 0-27.5 12.336-27.5 27.5v260.621h-21.922v-336.334c0-4.142-3.357-7.5-7.5-7.5s-7.5 3.358-7.5 7.5v336.333h-97.838v-424.315c0-6.893 5.607-12.5 12.5-12.5h72.838c6.893 0 12.5 5.607 12.5 12.5v49.398c0 4.142 3.357 7.5 7.5 7.5s7.5-3.358 7.5-7.5v-49.398c0-15.164-12.337-27.5-27.5-27.5h-72.838c-15.163 0-27.5 12.336-27.5 27.5v424.315h-21.922v-140.68c0-15.164-12.337-27.5-27.5-27.5h-72.837c-15.163 0-27.5 12.336-27.5 27.5v140.68h-12.322c-16.542 0-30 13.458-30 30s13.458 30 30 30h56.469c4.143 0 7.5-3.358 7.5-7.5s-3.357-7.5-7.5-7.5h-56.469c-8.271 0-15-6.729-15-15s6.729-15 15-15h452c8.271 0 15 6.729 15 15s-6.729 15-15 15h-355.674c-4.143 0-7.5 3.358-7.5 7.5s3.357 7.5 7.5 7.5h355.674c16.542 0 30-13.458 30-30s-13.458-29.999-30-29.999zm-125.159-260.621c0-6.893 5.607-12.5 12.5-12.5h72.837c6.893 0 12.5 5.607 12.5 12.5v260.621h-97.837zm-299.519 119.941c0-6.893 5.607-12.5 12.5-12.5h72.837c6.893 0 12.5 5.607 12.5 12.5v140.68h-97.837z"/></g></svg>