<svg id="Layer_1" enable-background="new 0 0 512 512" height="512" viewBox="0 0 512 512" width="512" xmlns="http://www.w3.org/2000/svg"><g><g><path d="m396.136 504.5h-276.658c-18.003 0-33.789-12.027-38.566-29.386l-47.912-178.614h441l-38.877 176.942c-4.168 18.175-20.341 31.058-38.987 31.058z" fill="#ff7893"/><path d="m434 296.5-38.877 176.942c-4.168 18.174-20.341 31.058-38.988 31.058h40c18.646 0 34.819-12.884 38.988-31.058l38.877-176.942z" fill="#ff5e7f"/><g><g><ellipse cx="354.281" cy="132.778" fill="#ffd88f" rx="32.645" ry="32.53"/><g><ellipse cx="441.855" cy="174.472" fill="#ffd88f" rx="32.645" ry="32.53"/><path d="m441.854 141.942c-5.41 0-10.507 1.319-15 3.64 10.48 5.414 17.646 16.315 17.646 28.89s-7.166 23.476-17.646 28.89c4.493 2.321 9.59 3.64 15 3.64 18.03 0 32.646-14.564 32.646-32.53s-14.616-32.53-32.646-32.53z" fill="#ffc963"/></g><path d="m474.5 93.344-87.573-51.108v-24.708c0-7.736 8.428-12.55 15.127-8.64l64.99 37.929c4.618 2.695 7.456 7.628 7.456 12.961z" fill="#ffd88f"/><path d="m354.281 100.248c-5.41 0-10.507 1.319-15 3.64 10.48 5.414 17.645 16.315 17.645 28.89s-7.165 23.476-17.645 28.89c4.493 2.321 9.59 3.64 15 3.64 18.03 0 32.645-14.564 32.645-32.53.001-17.966-14.615-32.53-32.645-32.53z" fill="#ffc963"/></g><g><ellipse cx="157.79" cy="81.724" fill="#ff9e5e" rx="32.645" ry="32.53"/><path d="m157.79 49.194c-5.41 0-10.508 1.319-15 3.64 10.48 5.414 17.645 16.315 17.645 28.89s-7.165 23.476-17.645 28.89c4.492 2.321 9.59 3.64 15 3.64 18.03 0 32.645-14.564 32.645-32.53s-14.615-32.53-32.645-32.53z" fill="#fa8d46"/><g><ellipse cx="70.145" cy="40.03" fill="#ff9e5e" rx="32.645" ry="32.53"/><path d="m70.146 7.5c-5.41 0-10.508 1.319-15 3.64 10.48 5.414 17.645 16.315 17.645 28.89s-7.165 23.476-17.645 28.89c4.492 2.321 9.59 3.64 15 3.64 18.03 0 32.645-14.564 32.645-32.53s-14.616-32.53-32.645-32.53z" fill="#fa8d46"/></g><path d="m37.5 121.158 87.573 51.108v24.708c0 7.736-8.428 12.55-15.127 8.64l-64.99-37.929c-4.618-2.695-7.456-7.628-7.456-12.961z" fill="#ff9e5e"/></g></g><path d="m480.324 297.259h-448.648c-13.352 0-24.176-10.824-24.176-24.176v-.028c0-13.352 10.824-24.176 24.176-24.176h448.648c13.352 0 24.176 10.824 24.176 24.176v.028c0 13.352-10.824 24.176-24.176 24.176z" fill="#b5e8e0"/><path d="m480.324 248.879h-40c13.352 0 24.176 10.824 24.176 24.176v.028c0 13.352-10.824 24.176-24.176 24.176h40c13.352 0 24.176-10.824 24.176-24.176v-.028c0-13.352-10.824-24.176-24.176-24.176z" fill="#97dbd1"/><g fill="#fff7e8"><path d="m157.79 464.651c-8.203 0-14.853-6.65-14.853-14.853v-101.096c0-8.203 6.65-14.853 14.853-14.853 8.203 0 14.853 6.65 14.853 14.853v101.097c0 8.202-6.65 14.852-14.853 14.852z"/><path d="m256 464.651c-8.203 0-14.853-6.65-14.853-14.853v-101.096c0-8.203 6.65-14.853 14.853-14.853 8.203 0 14.853 6.65 14.853 14.853v101.097c0 8.202-6.65 14.852-14.853 14.852z"/><path d="m349.21 464.651c-8.203 0-14.853-6.65-14.853-14.853v-101.096c0-8.203 6.65-14.853 14.853-14.853 8.203 0 14.853 6.65 14.853 14.853v101.097c0 8.202-6.65 14.852-14.853 14.852z"/></g><g><path d="m255.701 274.095c12.569.16 22.887-9.9 23.047-22.468l.02-221.078c.16-12.569-9.9-22.887-22.468-23.047-12.569-.16-22.887 9.9-23.047 22.468l-.02 221.078c-.16 12.568 9.899 22.887 22.468 23.047z" fill="#ff7893"/></g></g><g><path d="m354.281 172.808c20.185 0 40.146-17.096 40.146-38.117v-79.394l72.573 42.354v45.648c-6.887-5.534-15.632-8.857-25.146-8.857-22.137 0-40.146 17.958-40.146 40.03s18.009 40.03 40.146 40.03c20.185 0 40.146-17.096 40.146-38.117v-115.217c.174-8.335-3.847-16.551-11.175-20.829l-64.991-37.929c-12.524-7.31-27.371 3.119-26.407 17.063v82.132c-6.887-5.534-15.632-8.857-25.146-8.857-22.136 0-40.145 17.958-40.145 40.03.001 22.073 18.01 40.03 40.145 40.03zm87.573 26.694c-13.865 0-25.146-11.229-25.146-25.03s11.28-25.03 25.146-25.03 25.146 11.228 25.146 25.03-11.28 25.03-25.146 25.03zm-47.427-181.974c.439-2.194 1.721-2.915 3.847-2.163l64.99 37.928c2.718 1.586 3.891 4.882 3.736 7.874v19.116l-72.573-42.353c0-6.801 0-13.601 0-20.402zm-40.146 90.22c13.865 0 25.146 11.229 25.146 25.03 0 13.802-11.28 25.03-25.146 25.03-13.864 0-25.145-11.229-25.145-25.03.001-13.801 11.281-25.03 25.145-25.03z"/><path d="m41.175 174.163 64.991 37.929c12.618 7.363 26.821-3.352 26.407-17.064v-22.762-59.369c6.887 5.534 15.632 8.857 25.146 8.857 22.136 0 40.145-17.958 40.145-40.03s-18.009-40.03-40.145-40.03c-20.97 0-38.225 16.117-39.987 36.579 0 0-.159 55.457-.159 80.932l-72.573-42.354v-45.648c6.887 5.534 15.632 8.857 25.146 8.857 22.137 0 40.146-17.958 40.146-40.03s-18.01-40.03-40.146-40.03c-20.185 0-40.146 17.096-40.146 38.117v115.218c-.174 8.334 3.847 16.551 11.175 20.828zm116.544-117.469c13.864 0 25.145 11.229 25.145 25.03s-11.28 25.03-25.145 25.03-25.146-11.229-25.146-25.03 11.281-25.03 25.146-25.03zm-40.146 119.879v18.456c.269 2.051-.799 5.891-3.847 4.109l-64.99-37.928c-2.718-1.586-3.891-4.882-3.736-7.874v-19.116zm-47.427-161.573c13.865 0 25.146 11.229 25.146 25.03s-11.28 25.03-25.146 25.03-25.146-11.228-25.146-25.03 11.28-25.03 25.146-25.03z"/><path d="m480.324 241.379h-194.076l.019-210.735c.211-16.533-13.751-30.644-30.267-30.644-16.413 0-30.042 13.588-30.247 29.969l-.003 30.375c0 4.444 3.671 6.9 7.5 7.501 4.142 0 7.5-3.358 7.5-7.499l.002-30.281c.106-8.329 7.128-15.163 15.452-15.064 8.396.107 15.169 7.185 15.063 15.547l-.02 220.984c-.106 8.335-7.129 15.15-15.452 15.064-8.414-.107-15.171-7.039-15.063-15.547l.014-150.736c0-9.413-15-9.889-15-.001l-.012 141.068h-194.058c-17.466-.001-31.676 14.209-31.676 31.703 0 16.005 11.934 29.267 27.369 31.375l46.311 172.646c5.656 20.546 24.488 34.896 45.799 34.896h276.657c22.279 0 41.317-15.167 46.312-36.949l8.822-40.153c2.081-9.471-12.57-12.689-14.65-3.219l-8.808 40.086c-3.407 14.858-16.432 25.235-31.676 25.235h-276.657c-14.581 0-27.466-9.818-31.322-23.829l-45.176-168.412h421.526l-18.605 84.681c-2.023 9.21 12.542 12.82 14.65 3.219l19.312-87.9h.46c17.466 0 31.676-14.209 31.676-31.705 0-17.465-14.21-31.675-31.676-31.675zm0 48.38h-448.648c-9.195 0-16.676-7.48-16.676-16.705 0-9.195 7.48-16.676 16.676-16.676h194.484c2.383 14.137 14.612 25.026 29.444 25.215 14.716.162 27.78-10.646 30.216-25.215h194.504c9.195 0 16.676 7.481 16.676 16.705 0 9.196-7.48 16.676-16.676 16.676z"/><path d="m135.437 348.702v101.097c0 12.326 10.027 22.353 22.354 22.353 12.325 0 22.353-10.027 22.353-22.353v-101.097c0-12.326-10.027-22.353-22.353-22.353-12.327 0-22.354 10.027-22.354 22.353zm29.706 0v101.097c0 4.055-3.298 7.353-7.353 7.353s-7.354-3.298-7.354-7.353v-101.097c0-4.055 3.299-7.353 7.354-7.353s7.353 3.298 7.353 7.353z"/><path d="m233.646 348.702v101.097c0 12.326 10.027 22.353 22.354 22.353s22.354-10.027 22.354-22.353v-101.097c0-12.326-10.027-22.353-22.354-22.353s-22.354 10.027-22.354 22.353zm29.708 0v101.097c0 4.055-3.299 7.353-7.354 7.353s-7.354-3.298-7.354-7.353v-101.097c0-4.055 3.299-7.353 7.354-7.353s7.354 3.298 7.354 7.353z"/><path d="m326.857 348.702v101.097c0 12.326 10.027 22.353 22.353 22.353s22.354-10.027 22.354-22.353v-101.097c0-12.326-10.027-22.353-22.354-22.353-12.325 0-22.353 10.027-22.353 22.353zm29.706 0v101.097c0 4.055-3.299 7.353-7.354 7.353s-7.353-3.298-7.353-7.353v-101.097c0-4.055 3.298-7.353 7.353-7.353s7.354 3.298 7.354 7.353z"/></g></g></svg>