<svg id="Layer_1" enable-background="new 0 0 512 512" height="512" viewBox="0 0 512 512" width="512" xmlns="http://www.w3.org/2000/svg"><g><g><g><path d="m407.67 187.429c0 124.978-101.419 317.323-156.67 317.323-58.278 0-156.67-202.906-156.67-317.323 0-86.304 70.143-156.267 156.67-156.267s156.67 69.964 156.67 156.267z" fill="#b5e8e0"/><path d="m251 31.163c-6.776 0-13.451.429-20 1.262 77.082 9.796 136.67 75.46 136.67 155.005 0 111.122-80.177 275.497-136.791 310.58 7.059 4.37 13.825 6.743 20.121 6.743 55.251 0 156.67-192.345 156.67-317.323 0-86.304-70.144-156.267-156.67-156.267z" fill="#97dbd1"/><ellipse cx="251" cy="192.052" fill="#fff7e8" rx="86.559" ry="86.336"/></g><g><path d="m156.498 82.251c0-41.145-33.354-74.499-74.499-74.499s-74.499 33.355-74.499 74.499c0 41.145 33.354 74.499 74.499 74.499 8.636 0 16.925-1.474 24.638-4.177l22.728 11.026v-23.844c16.57-13.663 27.133-34.35 27.133-57.504z" fill="#ff9e5e"/><path d="m81.999 7.752c-6.931 0-13.633.967-20 2.738 31.427 8.741 54.499 37.548 54.499 71.761 0 32.53-23.222 63.051-54.497 71.762 6.366 1.771 13.067 2.737 19.998 2.737 8.636 0 16.925-1.474 24.638-4.177l22.728 11.026v-23.844c16.57-13.664 27.133-34.351 27.133-57.505 0-41.143-33.355-74.498-74.499-74.498z" fill="#fa8d46"/><g><path d="m119.468 85.086h-49.959v-10.407c0-13.796 11.184-24.979 24.979-24.979 13.796 0 24.979 11.184 24.979 24.979v10.407z" fill="#fff7e8"/><g><path d="m94.488 104.236h-49.958v-10.408c0-13.796 11.183-24.979 24.979-24.979 13.796 0 24.979 11.184 24.979 24.979z" fill="#ffd88f"/></g></g></g><g><path d="m355.502 297.299c0-41.145 33.354-74.499 74.499-74.499s74.499 33.354 74.499 74.499-33.354 74.499-74.499 74.499c-8.636 0-16.925-1.474-24.638-4.177l-22.728 11.026v-23.844c-16.57-13.663-27.133-34.35-27.133-57.504z" fill="#ff7893"/><g><path d="m430.001 222.801c-6.931 0-13.633.967-20 2.738 31.427 8.741 54.499 37.548 54.499 71.761 0 34.214-23.073 63.021-54.501 71.762 6.367 1.773 13.07 2.737 20.002 2.737 41.145 0 74.499-33.354 74.499-74.499s-33.354-74.499-74.499-74.499z" fill="#ff5e7f"/></g><path d="m422.784 273.514-17.979 31.141c-3.208 5.556.802 12.501 7.217 12.501h35.958c6.415 0 10.425-6.945 7.217-12.501l-17.979-31.141c-3.207-5.555-11.226-5.555-14.434 0z" fill="#fff7e8"/></g><g><g><path d="m195.499 387.404c0-41.145-33.354-74.499-74.499-74.499s-74.499 33.354-74.499 74.499 33.354 74.499 74.499 74.499c8.636 0 16.926-1.474 24.638-4.177l22.728 11.026v-23.844c16.57-13.664 27.133-34.35 27.133-57.504z" fill="#fff7e8"/></g><path d="m121 312.905c-6.931 0-13.633.967-20 2.738 31.427 8.741 54.499 37.548 54.499 71.761 0 32.53-23.222 63.051-54.497 71.762 6.366 1.771 13.067 2.737 19.998 2.737 8.636 0 16.925-1.474 24.638-4.177l22.728 11.026v-23.844c16.57-13.664 27.133-34.351 27.133-57.505 0-41.144-33.355-74.498-74.499-74.498z" fill="#fff1d6"/><g><g><path d="m84.152 366.735h73.696v29.33h-73.696z" fill="#59a1a5"/></g></g></g></g><g><path d="m251 98.216c-51.864 0-94.059 42.095-94.059 93.836s42.194 93.836 94.059 93.836 94.059-42.094 94.059-93.836c0-51.741-42.195-93.836-94.059-93.836zm0 172.672c-43.593 0-79.059-35.365-79.059-78.836 0-43.47 35.465-78.836 79.059-78.836 43.593 0 79.059 35.366 79.059 78.836s-35.466 78.836-79.059 78.836z"/><path d="m126.968 85.086v-10.407c0-17.909-14.57-32.479-32.479-32.479-12.756 0-24.384 7.517-29.625 19.15-.053.117-.092.236-.139.355-15.649 2.32-27.695 15.84-27.695 32.123v10.408c0 4.142 3.358 7.5 7.5 7.5h49.958c4.142 0 7.5-3.358 7.5-7.5.022-3.875.115-7.775-.031-11.65h17.511c4.142 0 7.5-3.358 7.5-7.5zm-39.98 11.65h-34.958c-.77-10.418 6.314-20.387 17.479-20.387s18.249 9.969 17.479 20.387zm24.98-19.15h-14.35c-3.715-6.404-9.551-11.428-16.544-14.102 3.275-3.914 8.165-6.285 13.415-6.285 11.165 0 18.249 9.97 17.479 20.387z"/><path d="m430.001 215.301c-5.645 0-11.158.574-16.485 1.665 1.096-10.319 1.654-20.217 1.654-29.537 0-90.301-73.646-163.767-164.17-163.767-33.551 0-65.386 9.852-92.711 28.589-12.002-30.413-41.663-51.999-76.29-51.999-45.214 0-81.999 36.785-81.999 81.999 0 15.648 4.445 30.883 12.855 44.056 5.218 8.175 17.861.102 12.644-8.071-6.869-10.759-10.499-23.202-10.499-35.985 0-36.943 30.056-66.999 66.999-66.999s66.999 30.055 66.999 66.999c0 20.078-8.895 38.929-24.404 51.718-1.728 1.425-2.729 3.547-2.729 5.786v11.869l-11.955-5.8c-1.798-.872-3.868-.991-5.753-.33-17.542 6.146-37.479 4.605-53.855-4.208-8.54-4.594-15.648 8.613-7.108 13.209 11.857 6.381 25.276 9.754 38.805 9.754 2.18 0 4.35-.091 6.509-.261-1.11 7.736-1.678 15.592-1.678 23.441 0 32.758 7.75 73.772 22.397 118.833-39.655 5.728-70.226 39.925-70.226 81.142 0 45.214 36.785 81.999 81.999 81.999 8.216 0 16.306-1.211 24.094-3.604l19.999 9.702c4.884 2.37 10.773-1.305 10.773-6.748v-20.213c11.065 16.861 21.127 29.525 31.994 40.336 16.975 16.888 38.619 30.38 62.324 18.154 22.694-11.704 39.41-34.084 53.297-54.142 5.521-7.972-6.811-16.511-12.332-8.538-12.856 18.569-28.216 39.228-47.84 49.349-17.37 8.957-32.869-3.518-44.87-15.457-10.787-10.732-20.822-23.58-32.156-41.204 10.766-14.131 16.715-31.471 16.715-49.634 0-43.956-34.768-79.935-78.247-81.904-14.994-45.117-22.922-85.938-22.922-118.071 0-8.809.786-17.623 2.319-26.226.649-.182 1.299-.36 1.944-.558l19.999 9.702c4.884 2.37 10.773-1.305 10.773-6.748v-20.408c20.962-18.868 30.831-47.892 25.788-75.635 25.718-18.915 56.161-28.893 88.348-28.893 82.253 0 149.17 66.737 149.17 148.767 0 10.721-.787 22.293-2.329 34.449-29.274 12.53-49.839 41.616-49.839 75.421 0 17.481 5.51 34.199 15.521 48.028-8.844 21.639-18.735 42.423-29.457 61.814-4.575 8.276 8.492 15.643 13.127 7.259 9.884-17.875 19.077-36.891 27.417-56.647.176.161.348.326.526.486v20.409c0 5.442 5.89 9.119 10.773 6.748l19.999-9.702c7.788 2.393 15.878 3.604 24.094 3.604 45.215 0 81.999-36.785 81.999-81.999-.001-45.215-36.785-81.999-82-81.999zm-242.002 172.103c0 20.078-8.895 38.928-24.404 51.718-1.728 1.425-2.729 3.547-2.729 5.786v11.87l-11.955-5.8c-1.896-.877-3.814-.987-5.753-.33-7.111 2.492-14.566 3.755-22.158 3.755-36.943 0-66.999-30.056-66.999-66.999s30.056-66.999 66.999-66.999 66.999 30.055 66.999 66.999zm242.002-23.106c-7.592 0-15.047-1.263-22.158-3.754-1.885-.66-3.956-.542-5.753.33l-11.955 5.8v-11.87c0-2.239-1.001-4.361-2.729-5.786-15.509-12.79-24.404-31.641-24.404-51.719 0-36.943 30.056-66.999 66.999-66.999s66.999 30.056 66.999 66.999c0 36.944-30.056 66.999-66.999 66.999z"/><path d="m443.714 269.764c-5.924-10.26-21.459-10.334-27.425 0l-17.979 31.141c-5.925 10.261 1.78 23.751 13.713 23.751h35.958c11.848 0 19.679-13.417 13.712-23.751zm4.988 39.475c-.24.417-.578.417-.722.417h-35.958c-.723-.139-.963-.556-.723-1.251l17.979-31.141c.383-.389 1.062-.659 1.444 0l17.979 31.141c.073.125.242.417.001.834z"/><path d="m76.652 366.735v29.33c0 4.142 3.358 7.5 7.5 7.5h11.449v12.069c0 9.697 15 9.697 15 0v-12.069h20.799v12.069c0 9.697 15 9.697 15 0v-12.069h11.449c4.142 0 7.5-3.358 7.5-7.5v-29.33c0-4.142-3.358-7.5-7.5-7.5h-73.697c-4.142 0-7.5 3.358-7.5 7.5zm15 7.5h58.696v14.33h-58.696z"/></g></g></svg>