<svg id="Layer_1" enable-background="new 0 0 511.981 511.981" height="512" viewBox="0 0 511.981 511.981" width="512" xmlns="http://www.w3.org/2000/svg"><g><g><g><g><g><path d="m419.168 94.658h-79.337v-21.984c0-10.513 8.522-19.035 19.035-19.035h41.267c10.513 0 19.035 8.522 19.035 19.035z" fill="#fff7e8"/></g><g><path d="m121.157 94.658h-79.337v-21.984c0-10.513 8.522-19.035 19.035-19.035h41.267c10.513 0 19.035 8.522 19.035 19.035z" fill="#fff7e8"/></g></g><g><path d="m272.6 7.5h-84.212c-23.218 0-42.041 18.822-42.041 42.041v35.117h36.253v-28.968c0-6.62 5.366-11.986 11.986-11.986h71.816c6.62 0 11.986 5.367 11.986 11.986v28.968h36.252v-35.117c.001-23.219-18.822-42.041-42.04-42.041z" fill="#59a1a5"/><path d="m430.915 393.747h-400.842c-12.197 0-22.085-9.888-22.085-22.085v-264.919c0-12.197 9.888-22.085 22.085-22.085h400.842c12.197 0 22.085 9.888 22.085 22.085v264.92c0 12.197-9.888 22.084-22.085 22.084z" fill="#ff7893"/><path d="m430.915 84.658h-40c12.197 0 22.085 9.888 22.085 22.085v264.919c0 12.197-9.888 22.085-22.085 22.085h40c12.197 0 22.085-9.888 22.085-22.085v-264.919c0-12.197-9.888-22.085-22.085-22.085z" fill="#ff5e7f"/><g><path d="m430.915 84.658h-400.842c-12.197 0-22.085 9.925-22.085 22.122v44.933l222.506 129.718 222.506-129.718v-44.933c0-12.197-9.888-22.122-22.085-22.122z" fill="#ff9e5e"/></g><g fill="#fa8d46"><path d="m430.915 84.658h-40c12.197 0 22.085 9.925 22.085 22.122v68.253l40-23.32v-44.933c0-12.197-9.888-22.122-22.085-22.122z"/><path d="m228.095 280.033 2.399 1.398 2.726-1.589z"/></g></g><path d="m230.494 307.474c-10.681 0-19.34-8.659-19.34-19.34v-29.956c0-10.681 8.659-19.34 19.34-19.34 10.681 0 19.34 8.659 19.34 19.34v29.956c0 10.681-8.659 19.34-19.34 19.34z" fill="#fff7e8"/></g><g><path d="m504.988 389.738c0-58.044-47.054-105.099-105.099-105.099s-105.099 47.054-105.099 105.099 47.054 105.099 105.099 105.099c12.183 0 23.878-2.08 34.758-5.892l32.063 15.556v-33.638c23.376-19.277 38.278-48.461 38.278-81.125z" fill="#fff7e8"/><path d="m399.889 284.639c-6.84 0-13.524.661-20 1.909 48.478 9.341 85.099 51.985 85.099 103.189 0 49.501-36.652 93.842-85.15 103.18 18.209 3.518 37.303 2.161 54.81-3.973l32.063 15.555v-33.638c23.376-19.277 38.277-48.46 38.277-81.124 0-58.044-47.054-105.098-105.099-105.098z" fill="#fff1d6"/></g></g><g><path d="m503.808 407.194c-4.022-.972-8.078 1.504-9.05 5.531-4.915 20.36-16.57 38.952-32.818 52.351-1.728 1.424-2.729 3.547-2.729 5.786v21.663l-21.289-10.329c-1.798-.872-3.869-.991-5.754-.331-10.36 3.63-21.22 5.471-32.278 5.471-53.816 0-97.599-43.783-97.599-97.599s43.783-97.599 97.599-97.599c47.987 0 90.075 36.55 96.661 84.071 1.332 9.606 16.189 7.546 14.858-2.06-4.481-32.331-23.416-61.733-50.909-79.305v-188.101c0-16.313-13.272-29.585-29.585-29.585h-4.247v-4.484c0-14.632-11.904-26.535-26.535-26.535h-41.267c-14.631 0-26.535 11.904-26.535 26.535v4.484h-10.19v-27.617c0-27.317-22.224-49.541-49.541-49.541h-84.212c-27.317 0-49.541 22.224-49.541 49.541v27.617h-10.19v-4.484c0-14.631-11.904-26.535-26.535-26.535h-41.267c-14.631 0-26.535 11.904-26.535 26.535v4.484h-4.247c-16.313 0-29.585 13.272-29.585 29.585v264.919c0 16.313 13.272 29.585 29.585 29.585h257.802c5.783 56.702 53.813 101.09 112.015 101.09 11.688 0 23.19-1.785 34.236-5.31l29.311 14.22c4.884 2.371 10.774-1.304 10.774-6.748v-30.176c17.316-15.246 29.734-35.736 35.128-58.079.972-4.026-1.504-8.078-5.531-9.05zm-156.477-334.52c0-6.361 5.175-11.535 11.535-11.535h41.267c6.36 0 11.535 5.175 11.535 11.535v4.484h-64.337zm-193.484-23.133c0-19.046 15.495-34.541 34.541-34.541h84.212c19.046 0 34.541 15.495 34.541 34.541v27.617h-21.252v-21.468c0-10.745-8.742-19.486-19.486-19.486h-71.816c-10.745 0-19.486 8.741-19.486 19.486v21.468h-21.252v-27.617zm36.253 27.617v-21.468c0-2.474 2.013-4.486 4.486-4.486h71.816c2.474 0 4.486 2.012 4.486 4.486v21.468zm-140.78-4.484c0-6.361 5.175-11.535 11.535-11.535h41.267c6.36 0 11.535 5.175 11.535 11.535v4.484h-64.337zm-33.832 298.988v-206.973c8.435 4.889 42.507 24.898 51.613 30.167 8.112 4.696 15.887-8.137 7.513-12.983-9.064-5.245-48.049-28.136-59.126-34.5v-40.631c0-8.042 6.543-14.585 14.585-14.585h400.842c8.042 0 14.585 6.543 14.585 14.585v40.661l-188.193 109.715c-.559-14.31-12.369-25.781-26.813-25.781s-26.253 11.469-26.813 25.778c-8.772-5.095-67.67-39.007-87.81-51.188-8.298-5.019-16.06 7.817-7.763 12.835 20.279 12.265 84.376 49.173 95.546 55.7v13.672c0 14.799 12.041 26.84 26.84 26.84s26.84-12.041 26.84-26.84v-13.668l188.166-109.699v122.024c-14.245-6.312-29.762-9.651-45.611-9.651-60.919 0-110.688 48.63-112.539 109.108h-257.277c-8.042-.001-14.585-6.544-14.585-14.586zm226.846-113.485v29.956c0 6.528-5.312 11.84-11.84 11.84-6.529 0-11.84-5.312-11.84-11.84v-29.956c0-6.529 5.312-11.84 11.84-11.84 6.529 0 11.84 5.312 11.84 11.84z"/><path d="m418.323 358.512c9.697 0 9.697-15 0-15h-36.867c-9.697 0-9.697 15 0 15z"/><path d="m458.838 393.492c0-4.142-3.358-7.5-7.5-7.5h-102.898c-9.697 0-9.697 15 0 15h102.898c4.142 0 7.5-3.358 7.5-7.5z"/><path d="m381.456 428.472c-9.697 0-9.697 15 0 15h36.867c9.697 0 9.697-15 0-15z"/></g></g></svg>