<svg id="Layer_1" enable-background="new 0 0 512.002 512.002" height="512" viewBox="0 0 512.002 512.002" width="512" xmlns="http://www.w3.org/2000/svg"><g><g><path d="m143.248 306.921h301.594l59.641-78.503h-301.595z" fill="#b5e8e0"/><path d="m464.483 228.418-59.641 78.503h40l59.641-78.503z" fill="#97dbd1"/><g><g><g><path d="m66.58 26.381h215.969v248.426h-215.969z" fill="#ffe6b8" transform="matrix(-.98 .198 -.198 -.98 375.431 263.748)"/><path d="m91.415 83.674h166.298v133.84h-166.298z" fill="#ff7893" transform="matrix(.198 .98 -.98 .198 287.718 -50.273)"/></g><g><g><path d="m411.995 368.506h-201.804v-262.26h136.635l65.169 65.168z" fill="#fff7e8"/><path d="m346.826 171.414h65.169l-65.169-65.168z" fill="#ffd88f"/></g></g></g></g><g><g><g><path d="m426.632 504.502h-281.595v-198.333h301.594v178.333c.001 11.045-8.954 20-19.999 20z" fill="#59a1a5"/><path d="m406.632 306.169v178.333c0 11.046-8.954 20-20 20h40c11.046 0 20-8.954 20-20v-178.333z" fill="#419296"/><path d="m308.718 504.502h-221.595c-11.046 0-20-8.954-20-20v-178.333h241.594v198.333z" fill="#b5e8e0"/><path d="m308.718 306.921h-241.595l-59.64-78.503h241.594z" fill="#88cdd1"/></g></g></g></g><path d="m511.202 225.084c-1.267-2.552-3.87-4.167-6.719-4.167h-84.988v-49.503c0-1.96-.81-3.917-2.197-5.303l-65.168-65.168c-1.377-1.377-3.353-2.197-5.303-2.197h-64.903l-18.681-92.726c-.818-4.06-4.773-6.689-8.833-5.871l-125.003 25.183c-4.061.818-6.689 4.773-5.871 8.833s4.772 6.688 8.833 5.871l117.65-23.701 16.603 82.411h-26.588l-8.937-44.361c-.818-4.06-4.772-6.689-8.833-5.871l-131.204 26.432c-4.061.818-6.689 4.773-5.871 8.833l27.627 137.138h-26.588l-33.219-164.893 33.218-6.692c4.061-.818 6.689-4.773 5.871-8.833-.819-4.061-4.773-6.69-8.833-5.871l-40.571 8.173c-4.061.818-6.689 4.773-5.871 8.833l34.104 169.283h-63.444c-6.088 0-9.655 7.189-5.972 12.037l58.112 76.492v175.055c0 15.164 12.336 27.5 27.5 27.5h339.508c15.164 0 27.5-12.336 27.5-27.5v-36.5c0-9.697-15-9.697-15 0v36.5c0 6.893-5.607 12.5-12.5 12.5h-110.413v-182.58h122.914v90.915c0 9.697 15 9.697 15 0v-98.244l56.324-74.137c1.723-2.269 2.012-5.318.746-7.871zm-199.334 73.585-56.819-74.789c-1.418-1.867-3.628-2.963-5.972-2.963h-31.386v-107.171h121.635v57.668c0 4.142 3.358 7.5 7.5 7.5h57.668v119.755zm62.239-154.536 19.781 19.781h-39.562v-39.562zm-272.732-55.963 116.5-23.47 6.859 34.046h-14.541c-4.142 0-7.5 3.358-7.5 7.5v114.672h-74.574zm143.981 147.748 47.674 62.751h-222.757l-47.673-62.751zm-170.733 248.584v-170.081h226.595v182.581h-214.095c-6.892 0-12.5-5.608-12.5-12.5zm367.069-185.833h-22.197v-62.751h69.872z"/></g></svg>