<?xml version="1.0" encoding="utf-8"?>
<!-- Generator: Adobe Illustrator 23.0.6, SVG Export Plug-In . SVG Version: 6.00 Build 0)  -->
<svg version="1.1" id="Layer_1" xmlns="http://www.w3.org/2000/svg" xmlns:xlink="http://www.w3.org/1999/xlink" x="0px" y="0px"
	 viewBox="0 0 512 512" style="enable-background:new 0 0 512 512;" xml:space="preserve">
<style type="text/css">
	.st0{fill:#FFFFFF;}
	.st1{fill:#2859F7;}
	.st2{fill:#134BD8;}
	.st3{fill:#FFF7E8;}
	.st4{fill:#FFF1D6;}
	.st5{fill:#F92145;}
	.st6{fill:#59A1A5;}
	.st7{display:none;fill:#59A1A5;}
	.st8{fill:#419296;}
	.st9{fill:#B5E8E0;}
	.st10{fill:#97DBD1;}
</style>
<g>
	<g>
		<g>
			<g>
				<g>
					<path class="st0" d="M95.5,266.8H54.6c-16.6,0-30-13.4-30-30v-0.1c0-16.6,13.4-30,30-30h40.9V266.8z"/>
					<path class="st0" d="M416.5,206.6h40.9c16.6,0,30,13.4,30,30v0.1c0,16.6-13.4,30-30,30h-40.9V206.6z"/>
					<path class="st1" d="M439.9,423H72.1c-26.3,0-47.5-21.3-47.5-47.5v-62.4c0-26.3,21.3-47.5,47.5-47.5l182.7-30.3l185.1,30.3
						c26.3,0,47.5,21.3,47.5,47.5v62.4C487.4,401.8,466.1,423,439.9,423L439.9,423z"/>
					<path class="st2" d="M439.9,265.6h-40c26.3,0,47.5,21.3,47.5,47.5v62.4c0,26.3-21.3,47.5-47.5,47.5h40
						c26.3,0,47.5-21.3,47.5-47.5v-62.4C487.4,286.9,466.1,265.6,439.9,265.6z"/>
					<path class="st3" d="M128.4,387H24.6v-65.9h38C98.9,321.1,128.4,350.6,128.4,387L128.4,387z"/>
					<path class="st3" d="M383.7,387h103.7v-65.9h-38C413.1,321.1,383.7,350.6,383.7,387L383.7,387z"/>
					<path class="st4" d="M449.4,321.1c-0.7,0-1.4,0-2,0.1V387h40v-65.9L449.4,321.1L449.4,321.1z"/>
					<path class="st5" d="M322.2,113.4H189.8V66.6c0-15.2,12.3-27.4,27.4-27.4h77.6c15.2,0,27.4,12.3,27.4,27.4V113.4z"/>
					<path class="st1" d="M294.8,39.1h-40c15.2,0,27.4,12.3,27.4,27.4v36.8h40V66.6C322.2,51.4,310,39.1,294.8,39.1z"/>
					<path class="st6" d="M110.6,504.5H68.4c-15.4,0-27.9-12.5-27.9-27.9v-43.3h98v43.3C138.5,492,126,504.5,110.6,504.5
						L110.6,504.5z"/>
					<path class="st7" d="M443.6,504.5h-42.2c-15.4,0-27.9-12.5-27.9-27.9v-43.3h98v43.3C471.5,492,459.1,504.5,443.6,504.5
						L443.6,504.5z"/>
					<path class="st8" d="M431.5,433.3v43.3c0,15.4-12.5,27.9-27.9,27.9h40c15.4,0,27.9-12.5,27.9-27.9v-43.3H431.5z"/>
					<path class="st9" d="M479.3,437.5H32.7c-13.9,0-25.2-11.3-25.2-25.2v-0.1c0-13.9,11.3-25.2,25.2-25.2h446.5
						c13.9,0,25.2,11.3,25.2,25.2v0.1C504.5,426.2,493.2,437.5,479.3,437.5z"/>
					<path class="st10" d="M479.3,387h-40c13.9,0,25.2,11.3,25.2,25.2v0.1c0,13.9-11.3,25.2-25.2,25.2h40
						c13.9,0,25.2-11.3,25.2-25.2v-0.1C504.5,398.3,493.2,387,479.3,387z"/>
					<path class="st9" d="M72.1,265.6l38.6-146.2c2.5-9.4,11-16,20.7-16h249.4c9.7,0,18.2,6.6,20.7,16l38.6,146.2H72.1z"/>
					<path class="st10" d="M401.4,119.4c-2.5-9.4-11-16-20.7-16h-40c9.7,0,18.2,6.6,20.7,16l38.6,146.2h40L401.4,119.4z"/>
				</g>
			</g>
		</g>
	</g>
	<g>
		<path d="M494.9,383.5c0-23.4,0-46.9,0-70.3c0-17.3-8-32.8-20.6-42.9c12.2-6.2,20.6-18.9,20.6-33.5c0-20.7-16.8-37.5-37.5-37.5
			h-27.2l-21.5-81.7c-3.3-12.7-14.8-21.5-27.9-21.5h-50.9V66.6c0-19.3-15.7-34.9-34.9-34.9h-77.6c-19.3,0-34.9,15.7-34.9,34.9v29.3
			h-50.9c-13.1,0-24.6,8.9-27.9,21.5l-5.2,19.6c-2.5,9.4,12,13.2,14.5,3.8l5.2-19.6c1.6-6.1,7.1-10.4,13.4-10.4h249.4
			c6.3,0,11.8,4.3,13.4,10.4l36.1,136.8H81.8l21.5-81.6c2.5-9.4-12-13.2-14.5-3.8l-7,26.5H54.6c-20.7,0-37.5,16.8-37.5,37.6
			c0,14.6,8.4,27.3,20.6,33.5c-12.5,10.1-20.6,25.6-20.6,42.9v70.3C6.9,389,0,399.8,0,412.3C0,430.3,14.7,445,32.7,445H33v31.6
			c0,19.5,15.9,35.4,35.4,35.4h42.2c19.5,0,35.4-15.9,35.4-35.4V445h220v31.6c0,19.5,15.9,35.4,35.4,35.4h42.2
			c19.5,0,35.4-15.9,35.4-35.4V445h0.2c18.1,0,32.7-14.7,32.7-32.8C512,399.8,505.1,389,494.9,383.5L494.9,383.5z M197.3,95.9V66.6
			c0-11,8.9-19.9,19.9-19.9h77.6c11,0,19.9,8.9,19.9,19.9v29.3H197.3z M131,476.6c0,11.3-9.2,20.4-20.4,20.4H68.4
			c-11.3,0-20.4-9.2-20.4-20.4V445h83V476.6z M464,476.6c0,11.3-9.2,20.4-20.4,20.4h-42.2c-11.3,0-20.4-9.2-20.4-20.4V445h83
			L464,476.6L464,476.6z M479.9,379.5h-88.3c3.7-28.6,28.2-50.9,57.8-50.9h30.5L479.9,379.5L479.9,379.5z M457.4,214.1
			c12.4,0,22.5,10.1,22.5,22.6c0,12.4-10.1,22.5-22.5,22.5c-4.1,0.2-7.4-0.5-11.6-0.9l-11.7-44.2L457.4,214.1L457.4,214.1z
			 M54.6,259.3c-12.4,0-22.5-10.1-22.5-22.6c0-12.4,10.1-22.5,22.5-22.5h23.3l-11.7,44.2C62.1,258.8,58.8,259.5,54.6,259.3z
			 M32.1,328.6h30.5c29.6,0,54.1,22.2,57.8,50.9H32.1V328.6z M479.3,430H32.7c-9.8,0-17.7-8-17.7-17.8c0-9.8,8-17.7,17.7-17.7h281
			c9.7,0,9.7-15,0-15H135.5c-3.7-36.9-35-65.9-72.9-65.9H32.1v-0.5c0-22.1,17.9-40,40-40c0,0,0,0,0,0c0,0,0,0,0,0c0,0,0,0,0,0h367.7
			c0,0,0,0,0,0c0,0,0,0,0,0c0,0,0,0,0,0c22.1,0,40,18,40,40v0.5h-30.5c-37.9,0-69.2,28.9-72.9,65.9h-23.1c-9.7,0-9.7,15,0,15h125.8
			c9.8,0,17.7,8,17.7,17.8C497,422.1,489,430,479.3,430L479.3,430z"/>
		<path d="M141.7,13.9l25.7,15.9c8,4.9,16.1-7.6,7.9-12.7L149.6,1.1c-3.5-2.2-8.1-1.1-10.3,2.4C137.1,7.1,138.2,11.7,141.7,13.9
			L141.7,13.9z"/>
		<path d="M121.2,71.5h33.6c9.7,0,9.7-15,0-15h-33.6c-4.1,0-7.5,3.4-7.5,7.5S117.1,71.5,121.2,71.5z"/>
		<path d="M340.6,31c1.4,0,2.7-0.4,3.9-1.1l25.7-15.9c3.5-2.2,4.6-6.8,2.4-10.3c-2.2-3.5-6.8-4.6-10.3-2.4l-25.7,15.9
			C330.2,21.1,333.5,31,340.6,31z"/>
		<path d="M349.7,64c0,4.1,3.4,7.5,7.5,7.5h33.6c4.1,0,7.5-3.4,7.5-7.5s-3.4-7.5-7.5-7.5h-33.6C353,56.5,349.7,59.9,349.7,64z"/>
	</g>
</g>
</svg>
