<?xml version="1.0" encoding="utf-8"?>
<!-- Generator: Adobe Illustrator 23.0.6, SVG Export Plug-In . SVG Version: 6.00 Build 0)  -->
<svg version="1.1" id="Layer_1" xmlns="http://www.w3.org/2000/svg" xmlns:xlink="http://www.w3.org/1999/xlink" x="0px" y="0px"
	 viewBox="0 0 512 512" style="enable-background:new 0 0 512 512;" xml:space="preserve">
<style type="text/css">
	.st0{fill:#FFF7E8;}
	.st1{fill:#FF002B;}
	.st2{fill:#FFFFFF;}
	.st3{fill:#E2E2E2;}
	.st4{fill:#FF002B;stroke:#000000;stroke-width:13;stroke-miterlimit:10;}
</style>
<g>
	<g>
		<g>
			<g>
				<path class="st0" d="M471.3,94.6H392v-22c0-10.5,8.5-19,19-19h41.3c10.5,0,19,8.5,19,19V94.6z"/>
			</g>
			<g>
				<path class="st0" d="M121.2,94.7H41.8v-22c0-10.5,8.5-19,19-19h41.3c10.5,0,19,8.5,19,19V94.7z"/>
			</g>
		</g>
		<g>
			<path class="st1" d="M292,7.5h-84.2c-23.2,0-42,18.8-42,42v35.1h36.3v-29c0-6.6,5.4-12,12-12h71.8c6.6,0,12,5.4,12,12v29H334
				V49.5C334,26.3,315.2,7.5,292,7.5z"/>
			<path class="st2" d="M482.5,504.4l-453,0.1c-12.2,0-22.1-9.9-22.1-22.1L8,106.7c0-12.2,9.9-22.1,22.1-22.1l453-0.1
				c12.2,0,22.1,9.9,22.1,22.1l-0.6,375.7C504.6,494.6,494.7,504.4,482.5,504.4z"/>
			<path class="st3" d="M483.1,84.6h-40c12.2,0,22.1,9.9,22.1,22.1l-0.6,375.7c0,12.2-9.9,22.1-22.1,22.1h40
				c12.2,0,22.1-9.9,22.1-22.1l0.6-375.7C505.2,94.5,495.3,84.6,483.1,84.6L483.1,84.6z"/>
			<g>
				<path class="st2" d="M483.1,84.6l-453,0.1C17.9,84.7,8,94.6,8,106.8v44.9l262.9,166.4l234.3-166.4v-44.9
					C505.2,94.5,495.3,84.6,483.1,84.6z"/>
			</g>
			<g>
				<path class="st3" d="M483.1,84.6h-40c12.2,0,22.1,9.9,22.1,22.1l-0.1,73.4l40.1-28.5v-44.9C505.2,94.5,495.3,84.6,483.1,84.6
					L483.1,84.6z"/>
			</g>
		</g>
	</g>
</g>
<g>
	<path d="M512.7,110.9c0-18.7-15.1-33.8-33.8-33.8h0v-4.5c0-14.7-11.9-26.5-26.5-26.5H411c-14.7,0-26.5,11.9-26.5,26.5v4.5l-43,0.1
		V49.5C341.5,22.2,319.3,0,292,0h-84.2c-27.4,0-49.5,22.2-49.5,49.5v27.6l-29.5,0v-4.5c0-14.7-11.9-26.5-26.5-26.5H60.9
		c-14.7,0-26.5,11.9-26.5,26.5v4.5h-4.2c-16.3,0-29.6,13.2-29.6,29.6l-0.6,375.7c0,16.3,13.2,29.6,29.6,29.6l461.8-0.1
		c12.8,0,20.8-10.5,20.8-27L512.7,110.9z M399.5,72.6c0-6.4,5.2-11.5,11.5-11.5h41.3c6.4,0,11.5,5.2,11.5,11.5v4.5h-64.3V72.6z
		 M173.2,49.5c0-19,15.5-34.5,34.5-34.5H292c19,0,34.5,15.5,34.5,34.5v27.6h-21.3V55.7c0-10.7-8.7-19.5-19.5-19.5h-71.8
		c-10.7,0-19.5,8.7-19.5,19.5v21.5h-21.3L173.2,49.5L173.2,49.5z M209.4,77.2V55.7c0-2.5,2-4.5,4.5-4.5h71.8c2.5,0,4.5,2,4.5,4.5
		v21.5H209.4z M49.3,72.7c0-6.4,5.2-11.5,11.5-11.5h41.3c6.4,0,11.5,5.2,11.5,11.5v4.5H49.3L49.3,72.7z M497.7,164.7l2.5,317.1
		c0,0,0,13.8-14.2,13.7C331.4,494,29.5,497,29.5,497c-8,0-14.6-6.5-14.6-14.6l0.6-375.7c0-8,6.5-14.6,14.6-14.6l453-0.1
		c8,0,14.6,6.5,14.6,14.6v40.7V164.7z"/>
</g>
<path class="st4" d="M347,270.6h-73.2v-73.2c0-7.6-6.2-13.7-13.7-13.7h-20.4c-7.6,0-13.7,6.2-13.7,13.7v73.2h-73.2
	c-7.6,0-13.7,6.2-13.7,13.7v20.4c0,7.6,6.2,13.7,13.7,13.7h73.2v73.2c0,7.6,6.2,13.7,13.7,13.7H260c7.6,0,13.7-6.2,13.7-13.7v-73.2
	H347c7.6,0,13.7-6.2,13.7-13.7v-20.4C360.7,276.7,354.6,270.6,347,270.6z"/>
</svg>
