<?xml version="1.0" encoding="utf-8"?>
<!-- Generator: Adobe Illustrator 26.3.1, SVG Export Plug-In . SVG Version: 6.00 Build 0)  -->
<svg version="1.1"
	 id="svg2" xmlns:inkscape="http://www.inkscape.org/namespaces/inkscape" xmlns:svg="http://www.w3.org/2000/svg" xmlns:dc="http://purl.org/dc/elements/1.1/" xmlns:cc="http://creativecommons.org/ns#" xmlns:rdf="http://www.w3.org/1999/02/22-rdf-syntax-ns#" xmlns:sodipodi="http://sodipodi.sourceforge.net/DTD/sodipodi-0.dtd"
	 xmlns="http://www.w3.org/2000/svg" xmlns:xlink="http://www.w3.org/1999/xlink" x="0px" y="0px" viewBox="0 0 888.3 400"
	 style="enable-background:new 0 0 888.3 400;" xml:space="preserve">
<style type="text/css">
	.st0{fill:#FFFFFF;}
	.st1{fill-rule:evenodd;clip-rule:evenodd;fill:#FFFFFF;}
</style>
<sodipodi:namedview  bordercolor="#666666" borderopacity="1.0" fit-margin-bottom="0" fit-margin-left="0" fit-margin-right="0" fit-margin-top="0" id="base" inkscape:current-layer="layer1" inkscape:cx="615.2925" inkscape:cy="277.41475" inkscape:document-units="px" inkscape:pageopacity="0.0" inkscape:pageshadow="2" inkscape:window-height="837" inkscape:window-maximized="1" inkscape:window-width="1600" inkscape:window-x="-8" inkscape:window-y="-8" inkscape:zoom="0.71436742" pagecolor="#ffffff" showgrid="false">
	</sodipodi:namedview>
<g id="layer1" transform="translate(-199.3977,53.92475)" inkscape:label="Ebene 1" inkscape:groupmode="layer">
	<g id="g3557" transform="matrix(5.5865509,0,0,5.5865509,49.344064,-141.93131)">
		<g id="flowRoot3379-6" transform="matrix(0.66926182,0,0,0.90589067,-138.80211,-22.661509)">
			<path id="path3522" inkscape:connector-curvature="0" class="st0" d="M257.6,90.8v11.3h0.8c2,0,3.3-0.5,3.9-1.6
				c0.6-1.1,0.9-2.4,0.9-4c0-1-0.1-1.9-0.4-2.8c-0.3-0.9-0.7-1.7-1.4-2.2c-0.6-0.5-1.8-0.8-3.5-0.8H257.6L257.6,90.8z M257.6,107.3
				h-10.1v-5.2h1.7V90.8h-1.7v-5.2h10.4c2.4,0,4.3,0.1,5.8,0.4c1.5,0.3,2.9,0.9,4.3,1.8c1.3,0.9,2.4,2.2,3.1,3.7
				c0.4,0.8,0.7,1.6,0.9,2.4c0.2,0.9,0.3,1.7,0.3,2.7c0,1.9-0.4,3.6-1.2,5.2c-0.8,1.5-1.8,2.7-3,3.5c-1.2,0.8-2.5,1.4-3.9,1.6
				C262.8,107.2,260.6,107.3,257.6,107.3z"/>
		</g>
		<g id="flowRoot3379-7" transform="matrix(0.66926182,0,0,0.90589067,-93.7876,-22.751625)">
			<path id="path3519" sodipodi:nodetypes="ccccccccccccc" inkscape:connector-curvature="0" class="st0" d="M246,107.3h-12.4
				l0.1-4.8h2.8l0-12.2h-2.8l-0.1-4.7H246l0.1,4.7h-2.7l0,12.2h2.7L246,107.3z"/>
		</g>
		<g id="flowRoot3379-7-4" transform="matrix(0.66926182,0,0,0.90589067,-82.278605,-22.623336)">
			<path id="path3516" sodipodi:nodetypes="ccccccccccccccc" inkscape:connector-curvature="0" class="st0" d="M250.2,107.4l-20.1,0
				v-4.8h2V90.1h-2v-4.6h12.4v4.6h-2.1v12.3h3.6l0.1-2.8l6.1,0L250.2,107.4z"/>
		</g>
		<g id="flowRoot3379-7-1" transform="matrix(0.66926182,0,0,0.90589067,-66.114145,-22.623336)">
			<path id="path3513" sodipodi:nodetypes="cccccccccccccccccccccc" inkscape:connector-curvature="0" class="st0" d="M241.8,107.3
				h-11.9v-5.2h1.8v-3.5l-5.5-8.5h-1.5l0.1-4.6h10.7l-0.1,4.6l-1.2,0l2.5,4.6l2.4-4.6h-1.6l-0.1-4.6h9.6l0.1,4.6h-1.4l-5.5,8.5v3.5
				h1.7V107.3z"/>
		</g>
		<g id="flowRoot3379-7-16" transform="matrix(0.66926182,0,0,0.90589067,-38.275351,-22.623336)">
		</g>
		<g id="flowRoot3379-7-3" transform="matrix(0.66926182,0,0,0.90589067,1.2377759,-22.623336)">
			<path id="path3507" inkscape:connector-curvature="0" class="st0" d="M215.1,96.4c0,2.4,0.2,4,0.7,4.9c0.4,0.9,1.2,1.3,2.1,1.3
				c0.9,0,1.7-0.4,2.1-1.2c0.5-0.8,0.7-2.5,0.7-4.9c0-2.4-0.2-4-0.7-4.9c-0.4-0.9-1.2-1.3-2.1-1.3c-0.9,0-1.6,0.4-2.1,1.2
				C215.3,92.3,215.1,93.9,215.1,96.4z M205.6,96.4c0-1.8,0.4-3.6,1.3-5.3c0.9-1.7,2.2-3.1,4.1-4.3c0.7-0.4,1.3-0.7,2-1
				c0.7-0.2,1.5-0.4,2.3-0.5c0.8-0.1,1.7-0.2,2.6-0.2c3.9,0,6.9,1.1,9,3.4c1.1,1.1,1.9,2.3,2.4,3.7c0.5,1.3,0.8,2.7,0.8,4.2
				c0,3-1.1,5.7-3.3,7.9c-2.2,2.2-5.2,3.4-9,3.4c-3.6,0-6.6-1.1-8.8-3.2C206.8,102.4,205.6,99.7,205.6,96.4z"/>
		</g>
		<g id="flowRoot3379-7-2" transform="matrix(0.62344535,0,0,0.90589067,33.733019,-23.008204)">
			<path id="path3504" sodipodi:nodetypes="ccscscscccscssscsccccccsccscccsccs" inkscape:connector-curvature="0" class="st0" d="
				M205.9,98.4v4.3h1.9c1.2,0,2.1-0.2,2.6-0.5c0.5-0.3,0.8-0.9,0.8-1.7c0-0.7-0.2-1.3-0.7-1.6c-0.5-0.3-1.4-0.5-2.7-0.5H205.9z
				 M205.9,90.4v4h1.9c1.3,0,2.1-0.2,2.5-0.5c0.4-0.4,0.6-0.8,0.6-1.4c0-0.5-0.2-1-0.5-1.4s-1.3-0.6-2.8-0.6H205.9z M207.9,107.4
				l-10.9-0.1v-4.8h1.9V90.7H197v-5.2l11.9,0.1c2.6,0,4.6,0.2,6,0.5c1.4,0.3,2.5,0.9,3.3,1.9c0.8,0.9,1.2,2.1,1.2,3.3
				c0,1.2-0.4,2.2-1.1,2.9c-0.8,0.8-1.7,1.3-2.8,1.6c1.5,0.5,2.7,1.2,3.5,2.1c0.8,1,1.3,2.1,1.3,3.3c0,1.5-0.5,2.7-1.4,3.7
				c-0.9,1-2.2,1.7-3.9,2C213.3,107.2,211,107.4,207.9,107.4z"/>
		</g>
		<g id="flowRoot3379-7-22" transform="matrix(0.66926182,0,0,0.90589067,43.316691,-22.751625)">
			<path id="path3501" sodipodi:nodetypes="ccccccccccccccccccccc" inkscape:connector-curvature="0" class="st0" d="M213,107.3
				h-20.1v-4.9h2.1V90.8h-2.2v-5.2H213v7h-7v-1.8h-3v3.3h4.3v4.4H203v3.6h3v-1.8h7L213,107.3z"/>
		</g>
		<g id="flowRoot3379-7-8" transform="matrix(0.66926182,0,0,0.90589067,-115.13384,-22.750512)">
			<path id="path3498" sodipodi:nodetypes="ccccccccccccccccccccccccc" inkscape:connector-curvature="0" class="st0" d="
				M243.2,85.6l0,5.1l2.4,0l-4.7,12.3h-2.9v4.3h11.7v-3.9h-2.3l1.1-2.5l5,0l1.2,2.5l-2.1,0v3.9l11.2,0v-4.3l-2.6,0l-1.4-4.1
				c0,0,0,0,0-0.1c-1.6-4.6-3.2-9.3-4.5-13.2C250.9,85.6,247,85.6,243.2,85.6L243.2,85.6z M251.1,91.3l1.8,6h-3.9L251.1,91.3z"/>
		</g>
		<path id="path3516-4" sodipodi:nodetypes="ccccccccccccccc" inkscape:connector-curvature="0" class="st0" d="M138.3,74.6l-13.4,0
			v-4.4h1.3V59h-1.3v-4.1h8.3V59h-1.4v11.2h2.4l0-2.5l4.1,0L138.3,74.6z"/>
	</g>
	<path id="path3347" inkscape:connector-curvature="0" class="st1" d="M448,76.3l-1.8,5.5C481.4,93,549.7,102,621.8,104
		c72.1,2,147.8-3,197.4-20.5l-1.9-5.5C769,95,693.7,100.2,621.9,98.2C550.2,96.2,481.9,87.1,448,76.3z"/>
	<path id="path3349" inkscape:connector-curvature="0" class="st1" d="M479.2,22.2l-2.1,5.4c50.1,19,119,23.3,180.1,21
		c30.6-1.2,59.2-4,82.6-7.5c23.4-3.5,41.4-7.6,51.3-11.7l-2.2-5.4c-8.8,3.7-26.8,7.9-50,11.3s-51.6,6.3-82,7.4
		C596.3,45.1,527.9,40.7,479.2,22.2L479.2,22.2z"/>
	<path id="path3351" inkscape:connector-curvature="0" class="st1" d="M742.6-20.6C719-9.6,681.1-3.7,640.9-3.5
		c-40.2,0.2-82.6-5.4-115.6-16.9l-1.9,5.5C557.3-3.1,600.3,2.5,641,2.3c40.7-0.2,79.1-6,104.1-17.6C745-15.3,742.6-20.6,742.6-20.6z
		"/>
	<path id="path3353" inkscape:connector-curvature="0" class="st1" d="M587.1-47.1l-2.4,5.3c22.1,10.1,64.5,12.2,103.8,0.7l-1.6-5.6
		C648.8-35.5,606.8-38.1,587.1-47.1L587.1-47.1z"/>
	<path id="path3355" inkscape:connector-curvature="0" class="st1" d="M620.9-53.4c-94.3,6.9-184.5,79.3-188.5,195.5l5.8,0.2
		C442.1,29,529.6-40.9,621.3-47.6c91.7-6.7,187.2,49.4,207.6,190.8l5.7-0.8C813.9-1.3,715.2-60.3,620.9-53.4L620.9-53.4z"/>
	<path id="path3357" inkscape:connector-curvature="0" class="st1" d="M570-42.8C503.2,7.8,461.5,68.9,456.6,144.3l5.8,0.4
		c4.7-73.4,45.1-132.8,111.1-182.9L570-42.8L570-42.8z"/>
	<path id="path3359" inkscape:connector-curvature="0" class="st1" d="M602.4-51.1C517.9,14,499.9,81.8,495.6,142.6l5.8,0.4
		C505.6,83,522.7,17.7,606-46.5C606-46.5,602.4-51.1,602.4-51.1z"/>
	<path id="path3361" inkscape:connector-curvature="0" class="st1" d="M613.3-51.9c-41.3,54.8-72,132.4-68.7,197.6l5.8-0.3
		c-3.2-63.2,27-140.1,67.5-193.8C618-48.4,613.3-51.9,613.3-51.9z"/>
	<path id="path3363" inkscape:connector-curvature="0" class="st1" d="M625.4-51.5c-12,41.5-23.3,87.8-24.9,195.9l5.8,0.1
		c1.6-107.7,12.8-153,24.7-194.4L625.4-51.5L625.4-51.5z"/>
	<path id="path3365" inkscape:connector-curvature="0" class="st1" d="M641.7-51.5l-5.6,1.6c11.3,38.9,20.8,82.7,24.7,195.6l5.8-0.2
		C662.7,32.4,653-12.3,641.7-51.5L641.7-51.5z"/>
	<path id="path3367" inkscape:connector-curvature="0" class="st1" d="M654.2-52.4l-4.6,3.6c35.6,45.9,65,99.8,66.5,194.5l5.8-0.1
		C720.3,49.7,690.2-6,654.2-52.4L654.2-52.4z"/>
	<path id="path3369" inkscape:connector-curvature="0" class="st1" d="M669.5-50.5l-4,4.2c46.8,44.4,91.7,86.6,100.2,190.5l5.8-0.5
		C762.8,38.3,716.3-6.1,669.5-50.5z"/>
	<path id="path3371" inkscape:connector-curvature="0" class="st1" d="M698.8-43.3l-3.7,4.5C740.5-2,785.9,30.2,804.7,143.8l5.7-0.9
		C791.4,28,744-6.6,698.8-43.3z"/>
	<path id="path3373" inkscape:connector-curvature="0" class="st1" d="M433.6,138.2l-0.5,5.8l28.5,2.4l0.5-5.8L433.6,138.2z"/>
	<path id="path3375" inkscape:connector-curvature="0" class="st1" d="M833.5,138.2l-28.2,1.3l0.3,5.8l28.2-1.3L833.5,138.2z"/>
	<path id="path3377" inkscape:connector-curvature="0" class="st1" d="M768.6,290.7c-40.8,37.3-94.9,51.6-146,49.4
		c-51.1-2.2-99-21-126.9-49.3l-4.1,4.1c29.4,29.7,78.5,48.8,130.8,51s108-12.4,150.2-50.9L768.6,290.7L768.6,290.7z"/>
	<path id="path3379" inkscape:connector-curvature="0" class="st1" d="M515,307.9l0,5.8l232.7,0.3l0-5.8L515,307.9L515,307.9z"/>
	<path id="path3381" inkscape:connector-curvature="0" class="st1" d="M529.8,289.9l-4.7,3.5c10.2,13.7,19.8,27.9,34,40.5l3.9-4.3
		C549.5,317.5,540.1,303.7,529.8,289.9L529.8,289.9z"/>
	<path id="path3383" inkscape:connector-curvature="0" class="st1" d="M568.2,290.4l-5.3,2.5c7.1,15.1,15.4,30.6,33.8,50.3l4.2-4
		C583.1,320,575.2,305.4,568.2,290.4L568.2,290.4z"/>
	<path id="path3385" inkscape:connector-curvature="0" class="st1" d="M611.3,290.8l-5.8,0.7c1.9,16.4,4.1,33.2,10.6,52.7l5.5-1.8
		C615.4,323.3,613.2,307.1,611.3,290.8L611.3,290.8z"/>
	<path id="path3387" inkscape:connector-curvature="0" class="st1" d="M654,291.6c-0.7,18.2-3.5,35.2-8.6,51.1l5.5,1.8
		c5.3-16.4,8.2-34,8.9-52.7L654,291.6L654,291.6z"/>
	<path id="path3389" inkscape:connector-curvature="0" class="st1" d="M698.1,289.8c-8.5,16.9-17.3,33.5-31.4,48.7l4.2,4
		c14.7-15.8,23.8-33,32.3-50L698.1,289.8z"/>
	<path id="path3391" inkscape:connector-curvature="0" class="st1" d="M735.9,290c-9.4,17.1-18.1,27.1-29,37.7l4,4.2
		c11.1-10.8,20.4-21.4,30-39L735.9,290z"/>
	<g id="flowRoot3395" transform="matrix(5.5832747,0,0,5.5832747,-915.71935,-2044.4854)">
	</g>
	<g id="text4305" transform="matrix(5.5832747,0,0,5.5832747,-915.71935,-2044.4854)">
	</g>
	<path id="path3510-1" sodipodi:nodetypes="cccccccccccssccscsccccccscscsc" inkscape:connector-curvature="0" class="st0" d="
		M716.9,216h20.6l0.1,60.4H717C717,254.8,716.9,236.3,716.9,216z M709.4,236.9l-17.4-0.2v-20.9l45.5,0.2c0,12-0.6,21-1.9,26.8
		c-1.2,5.6-3.7,11.4-7.6,17.2c-3.8,5.7-8.4,9.9-13.7,12.6s-11.1,4-17.3,4c-9.2,0-17.5-2.1-24.9-6.2c-7.5-4-13.3-10.6-17.4-19.9
		c-4.1-9.1-6.2-19.3-6.2-30.7c0-17.1,4.2-30.9,12.5-41.4c8.3-10.5,18.4-15.7,30.4-15.7c10,0,20.8,3.3,26.5,9.9v-7.7h19.6v38.4h-22.5
		c-1.7-4.7-4-8.3-6.7-10.8c-2.7-2.4-5.9-3.6-9.6-3.6c-5.1,0-8.9,2.3-11.3,6.8c-2.4,4.5-3.6,12.9-3.6,25c0,12.1,1.2,20.3,3.7,24.6
		c2.5,4.4,6.2,6.6,11,6.6C705.7,251.8,709.4,246.8,709.4,236.9L709.4,236.9z"/>
</g>
</svg>
