<?xml version="1.0" encoding="utf-8"?>
<!-- Generator: Adobe Illustrator 26.3.1, SVG Export Plug-In . SVG Version: 6.00 Build 0)  -->
<svg version="1.1" id="Слой_1" xmlns:xodm="http://www.corel.com/coreldraw/odm/2003"
	 xmlns="http://www.w3.org/2000/svg" xmlns:xlink="http://www.w3.org/1999/xlink" x="0px" y="0px" viewBox="0 0 162.5 273.8"
	 style="enable-background:new 0 0 162.5 273.8;" xml:space="preserve">
<style type="text/css">
	.st0{fill:none;stroke:#000000;stroke-width:0.833;stroke-miterlimit:22.9256;}
</style>
<g id="Слой_x0020_1">
	<g id="_1632000349712">
		<path class="st0" d="M67.8,235.6h8.8c7.8,0,17.5,7.2,17.5,16.5c0,2.9-0.8,5.7-2.1,8.1c-2,3.6-5.3,7.3-9.1,9.4
			c-0.4,0.2-9.5,5.3-0.1,3.3c11.2-2.3,19.6-12.9,19.6-25.6c0-9.1-4.7-17.1-11.3-21.8v-70.3c0,0,9.9-9,21.7-9
			c14,0,24.8,14.2,20.4,27.6c-1.9,5.7,1.6,3.9,3.8,0.2c9.1-15.1-2.1-39.4-24.8-42.6c-10-1.4-16.1,1.8-21.1,5V102
			c6.9-4.2,12.8-8.9,18.1-14c1.5,19.6-1.4,44.5,26.1,43.3c14.7-0.9,23.9-8.3,26.3-23.6c1.3-6.3-1.2-3.2-1.9-2.6
			c-9.6,14.7-25.6,12-30.1-6.5c-1.7-10.5-0.5-19.3-4.9-38.7c-2-7.7-4.5-4.4-8.2,3.7c-11.1,20.9-27.8,33.7-45.1,35.8h-2.3
			c-0.4,0-0.9,0-1.4,0C55.7,99.6,47.6,97.2,49.7,87c2-10.2,18.7-7.6,35.7-4.6c17.1,2.9,21.7-8.5,22.4-17.4c0.6-8.9,4.7-25.4,5.6-28
			c0.9-2.6,1.9-4.7,4.2-4.9c2.3-0.2,2.2-0.1,2.2-1.2c0-1.2-1.4-2.2-1.4-2.2s-2.3-1.7-5.1-3.5c-2.8-1.7-3.5-0.4-4.8,1.8
			c-1.3,2.2-11.7,17.4-14.7,20.7c-2.9,3.3-2.8,1.5-3.1,0.8c-0.2-0.7-3.4-17.1-4.1-20.5c-0.8-3.3-1.4-5.1-3.4-5.1
			c-2,0-4.1,0.1-6.3-0.1c-2.3-0.1-2.5,2.4-2.5,2.4s-3.3,20.9-4.7,22.9c-1.4,2-2.6,0.7-2.6,0.7c-0.8,1.1-13.8-15-16.7-13.5
			c-0.1,0.1-3.3,2.1-5,3.2c-1.6,1.1-0.9,2.5-0.5,3.3c4.9,8.8,7.5,8.4,10.8,20.6c0,0,6.5,0.8,25.8-3.3c19.3-4.2,19.6,4,19.4,5.8
			c-0.2,1.9,0.8,8.6-7.5,10.2c-8.3,1.6-25.9-7.8-41.1-8.9C37.2,65.1,26.9,78.4,29.9,93c3,14.7,22,17.4,22,17.4l15.9-0.5
			c0,17.7,0,39.9,0,53.6c-5,9.1-15.7,19-24.1,18.1c-11.9-1.4-21.8-7.5-21.8-16.9c0-11.7,13.9-18.2,24.1-18.2c4.5,0,8.7,0.9,12.2,2.5
			c1.5,0.7,2.9,1.6,4.1,2.5c1.8,1.5,1.4-0.4,0.9-1.5c-0.9-1.8-1.8-3.3-2.9-4.6c-5.4-6.4-12.4-7.9-21.9-8
			c-18.7-0.1-37.8,14.4-38,31.9c-0.2,17.4,13.1,31.1,32,28.8c12.2-1.5,26.7-8.9,35.4-18.2V235.6L67.8,235.6z"/>
		<ellipse transform="matrix(0.8289 -0.5594 0.5594 0.8289 -8.8469 27.9656)" class="st0" cx="41.3" cy="28.4" rx="9.8" ry="7.2"/>
		<circle class="st0" cx="78.9" cy="9.7" r="9.3"/>
		
			<ellipse transform="matrix(0.2236 -0.9747 0.9747 0.2236 77.1701 131.0827)" class="st0" cx="120.9" cy="17.1" rx="7.9" ry="9.3"/>
	</g>
</g>
</svg>
