<?xml version="1.0" encoding="utf-8"?>
<!-- Generator: Adobe Illustrator 23.0.6, SVG Export Plug-In . SVG Version: 6.00 Build 0)  -->
<svg version="1.1" id="Layer_1" xmlns="http://www.w3.org/2000/svg" xmlns:xlink="http://www.w3.org/1999/xlink" x="0px" y="0px"
	 viewBox="0 0 512 512" style="enable-background:new 0 0 512 512;" xml:space="preserve">
<style type="text/css">
	.st0{fill:#FFC107;}
</style>
<path class="st0" d="M158.9,0.2c-16.2-1.5-31.2,8.4-35.3,24.1l-14.8,56.3c187.6,5.5,314.5,130.6,322.5,317l56.9-15.8
	c15.7-4.4,25.5-19.7,23.6-35.9C490.9,165.1,340.8,17.3,158.9,0.2z M100.4,112.2L0.6,491.6c-2.3,8.7,2.9,17.5,11.5,19.8
	c2.8,0.7,5.7,0.7,8.5-0.1l379-105.1C395.3,231.4,276.5,114.2,100.4,112.2L100.4,112.2z M128,416c-17.7,0-32-14.3-32-32
	s14.3-32,32-32s32,14.3,32,32S145.7,416,128,416z M176,264c-17.7,0-32-14.3-32-32s14.3-32,32-32s32,14.3,32,32S193.7,264,176,264z
	 M280,368c-17.7,0-32-14.3-32-32s14.3-32,32-32s32,14.3,32,32S297.7,368,280,368z"/>
</svg>
