<?xml version="1.0"?>
<svg xmlns="http://www.w3.org/2000/svg" xmlns:xlink="http://www.w3.org/1999/xlink" xmlns:svgjs="http://svgjs.com/svgjs" version="1.1" width="512" height="512" x="0" y="0" viewBox="0 0 512 512" style="enable-background:new 0 0 512 512" xml:space="preserve"><g><path xmlns="http://www.w3.org/2000/svg" d="m445 0c-36.945312 0-67 30.054688-67 67 0 29.980469 19.796875 55.421875 47 63.949219v65.050781c0 22.054688-17.945312 40-40 40h-107v-120c0-.339844-.035156-.667969-.050781-1 .015625-.332031.050781-.660156.050781-1 0-11.046875-8.953125-20-20-20-14.886719 0-27-12.113281-27-27s12.113281-27 27-27 27 12.113281 27 27c0 11.046875 8.953125 20 20 20s20-8.953125 20-20c0-36.945312-30.054688-67-67-67s-67 30.054688-67 67c0 29.980469 19.796875 55.421875 47 63.949219v105.050781h-151v-120c0-.339844-.035156-.667969-.050781-1 .015625-.332031.050781-.660156.050781-1 0-11.046875-8.953125-20-20-20-14.886719 0-27-12.113281-27-27s12.113281-27 27-27 27 12.113281 27 27c0 11.046875 8.953125 20 20 20s20-8.953125 20-20c0-36.945312-30.054688-67-67-67s-67 30.054688-67 67c0 29.980469 19.796875 55.421875 47 63.949219v250.101562c-27.203125 8.527344-47 33.96875-47 63.949219 0 36.945312 30.054688 67 67 67 11.046875 0 20-8.953125 20-20s-8.953125-20-20-20c-14.886719 0-27-12.113281-27-27 0-13.652344 10.1875-24.960938 23.355469-26.746094 1.183593.21875 2.398437.347656 3.644531.347656s2.460938-.128906 3.644531-.347656c13.167969 1.785156 23.355469 13.09375 23.355469 26.746094 0 11.046875 8.953125 20 20 20s20-8.953125 20-20c0-29.980469-19.796875-55.421875-47-63.949219v-105.050781h151v105.050781c-27.203125 8.527344-47 33.96875-47 63.949219 0 36.945312 30.054688 67 67 67 11.046875 0 20-8.953125 20-20s-8.953125-20-20-20c-14.886719 0-27-12.113281-27-27 0-13.652344 10.1875-24.960938 23.355469-26.746094 1.183593.21875 2.398437.347656 3.644531.347656s2.460938-.128906 3.644531-.347656c13.167969 1.785156 23.355469 13.09375 23.355469 26.746094 0 11.046875 8.953125 20 20 20s20-8.953125 20-20c0-29.980469-19.796875-55.421875-47-63.949219v-105.050781h107c44.113281 0 80-35.886719 80-80v-82c0-11.046875-8.953125-20-20-20-14.886719 0-27-12.113281-27-27s12.113281-27 27-27 27 12.113281 27 27c0 11.046875 8.953125 20 20 20s20-8.953125 20-20c0-36.945312-30.054688-67-67-67zm0 0" fill="#ffffff" data-original="#000000" style=""/></g></svg>
