<?xml version="1.0" encoding="utf-8"?>
<!-- Generator: Adobe Illustrator 23.0.6, SVG Export Plug-In . SVG Version: 6.00 Build 0)  -->
<svg version="1.1" id="icon" xmlns="http://www.w3.org/2000/svg" xmlns:xlink="http://www.w3.org/1999/xlink" x="0px" y="0px"
	 viewBox="0 0 512 512" style="enable-background:new 0 0 512 512;" xml:space="preserve">
<style type="text/css">
	.st0{fill:#DD83CC;}
	.st1{fill:#F592DF;}
</style>
<path class="st0" d="M512,142.6c0,89.7-57.2,194.8-143.3,280.3c-34.3,34.1-72.1,64-112.7,89.2C116.9,424.2,0,268.4,0,142.6
	C0,63.9,59.7,0,133.4,0c49.7,0,95.2,29.4,118.3,76.4c1.6,3.1,3,6.3,4.3,9.6c3.7-9,8.2-17.6,13.4-25.6c42.5-64.3,125.8-79.7,186-34.4
	C490.9,52.8,512,96.2,512,142.6L512,142.6z"/>
<path class="st1" d="M479.5,189.3c-4.3,75-46.4,159.4-110.8,233.5c-34.3,34.1-72.1,64-112.7,89.2C116.9,424.2,0,268.4,0,142.6
	c-0.1-29.4,8.5-58.1,24.4-82.2c22.5-17,49.4-26.1,76.9-26.1c54.9,0,108,43.5,128.4,94.1c6.1-15.9,15-30.3,26.3-42.4
	c1.6,3.1-1.3-3.3,0,0l0.1-0.3c7.3-17.9,20.8-32.2,37.6-39.9c17-7.8,35.4-11.7,54-11.5C425.3,35.1,484.2,106.5,479.5,189.3
	L479.5,189.3z"/>
</svg>
