<svg version="1.1" id="Layer_1" xmlns="http://www.w3.org/2000/svg" x="0" y="0" viewBox="0 0 78.791 31.182" xml:space="preserve"><style>.st0{fill:#888788}.st1{fill:#fff}.st2{fill:none}</style><path class="st0" d="M19.619 26.107h43.079M19.619 25.893h43.079v.429H19.619z"/><path class="st1" d="M24.915 28.261h-.471v2.852h1.707v-.448h-1.236zM28.832 28.192c-.862 0-1.487.629-1.487 1.495s.625 1.495 1.487 1.495c.848 0 1.487-.643 1.487-1.495 0-.866-.625-1.495-1.487-1.495zm.993 1.495c0 .597-.427 1.046-.993 1.046-.576 0-.993-.44-.993-1.046 0-.597.425-1.046.989-1.046.568 0 .997.449.997 1.046zM32.725 29.448c-.403-.121-.526-.221-.526-.429 0-.23.196-.378.501-.378.188 0 .344.077.429.212l.047.074.385-.335-.049-.057c-.203-.234-.461-.343-.812-.343-.586 0-.995.351-.995.854 0 .396.205.637.685.804l.166.056c.375.123.527.182.527.434 0 .247-.261.394-.513.394a.585.585 0 0 1-.512-.265l-.045-.074-.395.323.038.057c.171.255.505.407.894.407.604 0 1.025-.356 1.025-.865.001-.445-.237-.689-.85-.869zM38.205 29.448c-.403-.121-.526-.221-.526-.429 0-.23.196-.378.501-.378.188 0 .344.077.429.212l.047.074.385-.335-.049-.057c-.203-.234-.461-.343-.812-.343-.586 0-.995.351-.995.854 0 .396.205.637.685.804l.166.056c.375.123.527.182.527.434 0 .247-.261.394-.513.394a.585.585 0 0 1-.512-.265l-.045-.074-.395.323.038.057c.171.255.505.407.894.407.604 0 1.025-.356 1.025-.865 0-.445-.238-.689-.85-.869zM41.489 28.261l-1.209 2.746-.047.105h.526l.279-.664h1.251l.274.664h.537l-1.212-2.852h-.399zm.617 1.74h-.878l.449-1.065.429 1.065zM46.398 30.353l-1.458-2.092h-.518v2.852h.47v-2.091l1.458 2.091h.519v-2.852h-.471zM48.248 28.709h.892v2.404h.471v-2.404h.893v-.448h-2.256zM53.212 28.192c-.861 0-1.487.629-1.487 1.495s.626 1.495 1.487 1.495c.848 0 1.486-.643 1.486-1.495 0-.866-.625-1.495-1.486-1.495zm.993 1.495c0 .597-.427 1.046-.993 1.046-.575 0-.993-.44-.993-1.046 0-.597.425-1.046.989-1.046.568 0 .997.449.997 1.046zM57.104 29.448c-.403-.121-.526-.221-.526-.429 0-.23.196-.378.501-.378.188 0 .345.077.429.212l.046.075.388-.335-.05-.057c-.204-.234-.462-.343-.813-.343-.586 0-.995.351-.995.854 0 .396.205.637.685.804l.166.056c.375.123.527.182.527.434 0 .247-.261.394-.513.394a.585.585 0 0 1-.512-.265l-.045-.074-.395.323.038.057c.171.255.506.407.895.407.604 0 1.024-.356 1.024-.865.001-.446-.238-.69-.85-.87zM18.311 22.993a.866.866 0 0 1-.723.349c-.553 0-.955-.44-.955-1.046 0-.577.428-1.047.955-1.047a.76.76 0 0 1 .616.298l.044.059.4-.291-.046-.061c-.217-.288-.587-.454-1.014-.454-.826 0-1.449.643-1.449 1.495s.623 1.495 1.449 1.495c.467 0 .831-.169 1.083-.503l.042-.057-.354-.298-.048.061zM21.436 20.869h-.4l-1.257 2.852h.527l.279-.664h1.251l.274.664h.537l-1.192-2.806-.019-.046zm.217 1.74h-.878l.45-1.064.428 1.064zM25.71 22.924c0-.444-.239-.688-.851-.869-.403-.121-.526-.221-.526-.428 0-.23.197-.379.501-.379.188 0 .344.077.429.212l.046.075.386-.335-.049-.057c-.203-.234-.461-.343-.812-.343-.586 0-.995.351-.995.854 0 .397.205.637.685.803.059.021.114.039.167.056.374.123.526.183.526.434 0 .247-.261.394-.513.394a.585.585 0 0 1-.512-.265l-.044-.074-.394.323.038.057c.171.255.505.407.894.407.602.001 1.024-.355 1.024-.865zM27.239 20.869h.471v2.852h-.471zM31.827 20.869h-.471v2.091l-1.458-2.091h-.518v2.852h.47V21.63l1.458 2.091h.519zM34.83 20.8c-.861 0-1.487.629-1.487 1.495s.626 1.495 1.487 1.495c.848 0 1.486-.643 1.486-1.495 0-.866-.625-1.495-1.486-1.495zm.993 1.495c0 .597-.427 1.046-.993 1.046-.575 0-.993-.44-.993-1.046 0-.597.425-1.047.989-1.047.568 0 .997.45.997 1.047zM41.68 23.37l.33.351h.648l-.701-.719.56-.897h-.54l-.334.559-.436-.464c.357-.203.525-.429.525-.706 0-.403-.302-.674-.75-.674-.455 0-.773.285-.773.693 0 .208.083.394.275.605-.36.196-.55.472-.55.803 0 .49.393.846.934.846.326 0 .573-.12.812-.397zm-1.001-1.838c0-.167.131-.287.311-.287.162 0 .271.097.271.241 0 .111-.028.226-.361.408-.221-.226-.221-.301-.221-.362zm.114.895l.588.618c-.226.247-.365.297-.524.297a.442.442 0 0 1-.451-.432c-.001-.16.065-.298.387-.483zM48.072 21.685c0-.556-.352-.815-1.106-.815h-.812v2.852h.472v-1.213h.295l.71 1.177.022.037h.569l-.781-1.268c.402-.103.631-.378.631-.77zm-.494.003c0 .193-.078.371-.646.371h-.307v-.743h.394c.492.001.559.188.559.372zM50.107 22.461h1.285v-.447h-1.285v-.697h1.377v-.448h-1.849v2.852h1.918v-.448h-1.446zM53.939 22.055c-.403-.121-.526-.221-.526-.428 0-.23.196-.379.501-.379.188 0 .344.078.429.213l.047.074.385-.335-.049-.057c-.203-.234-.461-.343-.812-.343-.586 0-.995.351-.995.854 0 .397.205.637.685.803.059.021.114.039.167.056.375.123.526.183.526.435 0 .247-.261.394-.513.394a.585.585 0 0 1-.512-.265l-.045-.074-.395.323.038.057c.172.255.506.407.894.407.604 0 1.025-.356 1.025-.865.001-.445-.238-.689-.85-.87zM57.65 20.8c-.861 0-1.487.629-1.487 1.495s.626 1.495 1.487 1.495c.848 0 1.487-.643 1.487-1.495 0-.866-.626-1.495-1.487-1.495zm.993 1.495c0 .597-.427 1.046-.993 1.046-.575 0-.993-.44-.993-1.046 0-.597.425-1.047.989-1.047.569 0 .997.45.997 1.047zM62.57 21.685c0-.556-.352-.815-1.105-.815h-.812v2.852h.471v-1.213h.295l.71 1.177.022.037h.569l-.781-1.268c.402-.103.631-.378.631-.77zm-.494.003c0 .193-.078.371-.646.371h-.306v-.743h.395c.49.001.557.188.557.372zM63.771 20.869v.448h.894v2.404h.47v-2.404h.893v-.448zM37.27 2.877h.475V.451h.9V0H36.37v.451h.9zM40.506 1.606h1.305v1.271h.474V0h-.474v1.155h-1.305V0h-.474v2.877h.474zM45.901 2.426h-1.459v-.82h1.298v-.451h-1.298V.451h1.39V0h-1.864v2.877h1.933z"/><g><path class="st2" d="M69.837 9.455c-.158.27-.295.566-.417.872-.121.305-.23.625-.319.939a7.3 7.3 0 0 0-.205.948c-.017.115-.028.23-.038.345.046-.084.093-.168.138-.253a17.94 17.94 0 0 0 .849-1.868c.123-.318.237-.638.335-.957a9.163 9.163 0 0 0 .192-.733c-.097.091-.193.2-.284.324a3.515 3.515 0 0 0-.251.383zM67.458 14.392l.053-.036a4.524 4.524 0 0 1-.202-1.152l-.002-.067a2.773 2.773 0 0 0-.553-.005c-.065.012-.133.015-.193.033l-.092.02-.085.028-.043.013-.039.018a1.298 1.298 0 0 1-.078.033l-.07.042-.036.019c-.012.007-.021.016-.032.023l-.065.046c-.022.015-.039.036-.059.053l-.03.026a.13.13 0 0 0-.028.029 1.573 1.573 0 0 1-.053.062l-.028.03-.023.036-.05.07c-.019.021-.029.052-.045.077l-.044.08c-.027.056-.048.118-.074.177l-.009.022-.005.017-.01.033c-.009.022-.009.041-.015.061a.394.394 0 0 0 .005.19.368.368 0 0 0 .095.148.67.67 0 0 0 .215.138c.181.078.426.111.673.086a2 2 0 0 0 .747-.24c.06-.037.119-.07.175-.11zM12.742 17.726c.109-.033.219-.064.328-.1l.327-.108c.109-.037.217-.077.326-.116.11-.038.214-.078.318-.118a12.744 12.744 0 0 0 3.502-2.104 10.361 10.361 0 0 0 1.831-2.004 7.87 7.87 0 0 0 .658-1.152c.185-.397.326-.807.424-1.221a5.096 5.096 0 0 0 .118-1.543 52.713 52.713 0 0 0-3.519 1.19c-.224.085-.446.172-.668.259-.221.09-.444.177-.663.27-.441.182-.878.374-1.311.575-.863.404-1.704.851-2.505 1.35a17.468 17.468 0 0 0-2.248 1.647 8.98 8.98 0 0 0-.932.928 4.348 4.348 0 0 0-.353.472c-.027.039-.046.076-.067.113l-.032.055-.026.052c-.016.034-.037.07-.045.1l-.018.046c-.003.009-.006.012-.01.025l-.011.035c-.063.188-.12.373-.151.544l-.023.127c-.006.041-.006.079-.011.119-.014.082-.004.146-.009.217.011.128.035.228.065.302a.535.535 0 0 0 .144.184c.068.06.166.126.304.176l.049.021.056.017c.038.011.073.026.113.036.084.018.162.043.254.055.177.03.368.049.567.057.197.008.401.005.608-.009.847-.05 1.736-.241 2.61-.497zM52.925 13.938l.013-.009c-.004.037-.019.072-.016.111.035.407.437.704.9.669.466-.041.815-.404.78-.813-.035-.407-.438-.705-.902-.669l-.023.003c-.418.042-.726.347-.752.708zM31.942 14.186l.015-.011c-.155.33-.002.604-.002.604.093.21.294.278.509.281.36.001.755-.174.755-.174.889-.405 1.021-.941 1.024-1.212a.24.24 0 0 0-.166-.23c-.045-.015-.091-.021-.137-.031-.043-.009-.086-.021-.129-.027-.038-.005-.076-.005-.114-.007a2.206 2.206 0 0 0-.181-.004l-.068.004a2.518 2.518 0 0 0-.466.081l.002-.001-.01.003a2.669 2.669 0 0 0-.264.087l-.059.022c-.418.195-.62.416-.709.615z"/><path class="st1" d="M78.607 14.833a.696.696 0 0 0-.476-.193.7.7 0 0 0-.486.169l.003-.003-.006.005a.118.118 0 0 1-.015.011l-.036.025c-.025.018-.053.034-.081.051a1.515 1.515 0 0 1-.532.195 1.146 1.146 0 0 1-.408-.02c-.027-.007-.054-.018-.081-.026l-.041-.012-.05-.021-.103-.042a6.78 6.78 0 0 1-.87-.5 20.812 20.812 0 0 0-.49-.309l-.134-.078a2.248 2.248 0 0 0-.138-.076l-.143-.075-.152-.071-.076-.035-.081-.032c-.054-.021-.107-.043-.162-.063-.115-.036-.226-.076-.348-.101-.06-.013-.119-.029-.181-.039l-.186-.027c-.033-.004-.058-.01-.097-.011l-.108-.007h-.012a2.244 2.244 0 0 0-.636.065 2.897 2.897 0 0 0-.372.121 4.537 4.537 0 0 0-.601.304c-.349.209-.636.401-.911.532a1.957 1.957 0 0 1-.77.213.651.651 0 0 1-.439-.144v-.003c.18-.233.34-.467.49-.704.205-.324.39-.652.564-.982.346-.661.646-1.333.911-2.021.132-.344.255-.692.364-1.05.055-.179.106-.36.152-.547.046-.187.087-.377.118-.585.015-.105.027-.213.032-.336a2.019 2.019 0 0 0-.003-.203l-.005-.058-.009-.066c-.004-.024-.006-.041-.013-.071a1.206 1.206 0 0 0-.056-.178l-.01-.025-.013-.028-.033-.063a1.019 1.019 0 0 0-.036-.059l-.022-.03-.046-.06a1.371 1.371 0 0 0-.856-.482 1.73 1.73 0 0 0-.612.026c-.09.019-.167.047-.246.075-.072.03-.147.061-.21.095a2.624 2.624 0 0 0-.628.463 3.914 3.914 0 0 0-.434.507 5.434 5.434 0 0 0-.334.521c-.2.35-.358.704-.496 1.059-.137.356-.253.709-.354 1.075a8.79 8.79 0 0 0-.197.903l-.001.001a3.745 3.745 0 0 0-.718-.068h-.012c-.124.006-.246.006-.373.026-.063.008-.126.016-.188.027l-.189.044c-.031.008-.063.015-.094.024l-.093.032-.186.066-.18.084-.089.045-.022.012a11.17 11.17 0 0 0-.23.147c-.055.037-.103.08-.154.121l-.075.063a.637.637 0 0 0-.071.066 2.023 2.023 0 0 0-.36.531 3.98 3.98 0 0 0-.287.819c-.034.023-.069.046-.1.074-.008.007-.842.745-1.751.923-.05.01-.09.015-.125.019a.223.223 0 0 1-.218-.122c-.134-.266-.077-.85-.186-1.299-.299-1.232-.952-1.753-1.447-1.973a2.095 2.095 0 0 0-.783-.171c-.017-.001-.034-.005-.052-.006l-.031-.002-.117.002a1.62 1.62 0 0 0-.185.023c-.234.03-.47.084-.699.188-.634.286-.975.86-1.248 1.322-.068.115-.141.255-.351.407a.616.616 0 0 1-.292.079l-.54-.001a.309.309 0 0 1-.269-.163 1.662 1.662 0 0 0-.109-.168 1.924 1.924 0 0 0-.45-.43 2.687 2.687 0 0 0-.99-.416l-.042-.008-.056-.009-.022-.002-.087-.007-.068-.004a3.13 3.13 0 0 0-.137-.003h-.012a3.863 3.863 0 0 0-1.297.231 5.265 5.265 0 0 0-.878.415c-.539.315-1 .677-1.434 1.028-.217.175-.427.349-.632.508a4.738 4.738 0 0 1-.588.405.354.354 0 0 1-.194.032.362.362 0 0 1-.245-.148 2.045 2.045 0 0 1-.273-.541 6.434 6.434 0 0 1-.191-.691c-.058-.25-.114-.518-.199-.806a3.896 3.896 0 0 0-.159-.447 2.69 2.69 0 0 0-.258-.471 2.15 2.15 0 0 0-.955-.77 2.746 2.746 0 0 0-.582-.17 2.527 2.527 0 0 0-.621-.031H45.2a2.664 2.664 0 0 0-.596.111 3.37 3.37 0 0 0-.518.208c-.317.16-.582.346-.821.529-.239.183-.454.366-.655.526-.1.08-.197.154-.286.215a1.446 1.446 0 0 1-.229.133l-.014.005a.24.24 0 0 1-.084.01h-.001a.112.112 0 0 1-.062-.023.432.432 0 0 1-.052-.048c-.049-.05-.119-.142-.217-.265a2.345 2.345 0 0 0-.425-.422 1.85 1.85 0 0 0-.686-.314 2.024 2.024 0 0 0-.347-.049c-.054-.003-.107-.006-.163-.005h-.012l-.082.001-.083.005a2.364 2.364 0 0 0-.652.143 2.517 2.517 0 0 0-.546.289c-.159.11-.296.229-.417.348a5.78 5.78 0 0 0-.603.714c-.171.233-.324.46-.474.674-.15.214-.296.415-.446.592a2.59 2.59 0 0 1-.451.434 1.071 1.071 0 0 1-.417.19c.012-.362.884-2.309.153-2.804-.685-.464-1.245.116-1.245.116a16.59 16.59 0 0 0-1.052-.089c-.087-.003-.169-.001-.252-.001h-.012c-.081.003-.165.004-.244.01l-.121.007a3.15 3.15 0 0 0-.44.066 4.984 4.984 0 0 0-.496.138 9.44 9.44 0 0 0-.862.341c-.543.243-1.049.504-1.55.764l-1.478.774c-.488.252-.975.496-1.463.714a9.83 9.83 0 0 1-1.449.537 3.554 3.554 0 0 1-.663.117 1.585 1.585 0 0 1-.261-.004.801.801 0 0 1-.196-.045.457.457 0 0 1-.128-.074l-.029-.026a.64.64 0 0 1-.103-.12.569.569 0 0 1-.107-.34c0-.135.038-.307.116-.49.077-.183.191-.374.322-.564.132-.19.285-.379.45-.563a11.887 11.887 0 0 1 1.402-1.307l.152-.121.146-.112.026-.02a.632.632 0 0 0 .125-.897.722.722 0 0 0-.478-.27.762.762 0 0 0-.538.114l-.1.066-.092.062c-.061.042-.121.083-.181.126a13.102 13.102 0 0 0-1.025.812 8.483 8.483 0 0 0-1.22 1.298 4.422 4.422 0 0 0-.488.819 3.106 3.106 0 0 0-.173.487 2.293 2.293 0 0 0-.075.553 2.002 2.002 0 0 0 .539 1.393c.033.037.067.073.102.107.039.037.08.076.123.112.173.145.377.264.587.346.211.082.424.129.626.153.202.023.396.025.578.015h.012a5.195 5.195 0 0 0 1.008-.169c.311-.081.605-.179.889-.285.284-.106.557-.22.826-.339.907-.404 1.754-.854 2.59-1.294l.361-.191c.015.345.119.684.312.975.332.502.875.797 1.529.831.048.002.095.004.143.004h.011c.765 0 1.504-.311 2.068-.674a1.335 1.335 0 0 0 .558.372 1.643 1.643 0 0 0 .618.09h.012c.051-.001.103-.002.155-.007a2.747 2.747 0 0 0 .311-.041c.206-.04.408-.104.592-.189a2.97 2.97 0 0 0 .501-.293c.3-.217.529-.459.729-.696.199-.238.368-.474.526-.702.158-.228.305-.447.452-.649.146-.202.294-.386.439-.53.146-.146.287-.242.402-.285a.562.562 0 0 1 .173-.039l.023-.002h.014c.015-.001.032.001.048.001a.367.367 0 0 1 .073.009.174.174 0 0 1 .072.031c.028.02.078.068.15.157.073.087.163.212.303.359.07.073.155.15.255.223a1.714 1.714 0 0 0 .72.305c.125.023.244.031.355.032h.06l.057-.002c.038-.001.073-.006.11-.009.036-.004.07-.01.105-.016.034-.006.066-.014.1-.021a1.95 1.95 0 0 0 .34-.119c.199-.09.352-.19.49-.286a6.84 6.84 0 0 0 .371-.285c.226-.186.427-.361.623-.515.195-.154.386-.287.567-.381a1.33 1.33 0 0 1 .494-.158 1.028 1.028 0 0 1 .446.071.682.682 0 0 1 .313.25c.09.125.17.312.236.53.067.219.123.466.186.729.064.263.135.543.241.833.106.289.25.591.461.875a2.744 2.744 0 0 0 .364.403 1.6 1.6 0 0 0 .308.22 1.51 1.51 0 0 0 .839.181l.003-.001.008.001c.136-.01.26-.035.37-.066a2.56 2.56 0 0 0 .548-.236c.306-.175.544-.359.773-.54.227-.181.439-.36.647-.532.135-.112.269-.217.403-.322l-.001-.004.136-.105a1.01 1.01 0 0 1 .036-.027l.003-.002c.033-.012.071.002.08.04.061.273.185.533.369.76.249.312.625.555 1.032.661.203.054.41.078.609.077h.011a3.158 3.158 0 0 0 .446-.038c.04-.007.079-.013.119-.022a2.86 2.86 0 0 0 .285-.075 2.05 2.05 0 0 0 .558-.279c.087-.063.17-.133.245-.21a1.59 1.59 0 0 0 .207-.259.327.327 0 0 1 .274-.151l.833.001c.912 0 1.545-.734 1.862-1.27.154-.26.364-.615.532-.691a.719.719 0 0 1 .232-.064.416.416 0 0 1 .194.031c.235.104.445.458.564.945.192.792.146 1.417.461 1.869.247.354.692.732 1.465.732l.006-.001.005.001c.165 0 .346-.017.542-.056.75-.147 1.406-.499 1.871-.806.007.008.012.016.02.023.211.208.458.357.711.465a3.01 3.01 0 0 0 1.169.23c.13.001.259-.006.386-.019a3.683 3.683 0 0 0 1.604-.577 2.215 2.215 0 0 0 1.561.519h.012c.253-.013.503-.057.738-.125s.455-.159.653-.259c.397-.2.721-.429 1.009-.604.142-.086.276-.161.393-.209.059-.026.113-.042.164-.057a.86.86 0 0 1 .142-.024l.061-.002.028.001c.009-.001.03.004.045.005l.096.012c.032.004.064.014.097.02.064.01.131.036.197.054l.101.038.051.019.052.023.103.046.106.054c.035.017.071.036.107.057l.108.061c.148.087.297.178.456.279.315.197.667.414 1.077.591l.159.062c.027.01.052.021.081.031l.094.029c.063.018.126.038.19.053l.197.036c.134.019.27.027.405.025.136-.001.271-.012.403-.034a2.932 2.932 0 0 0 1.04-.398c.051-.033.102-.065.152-.101a1.63 1.63 0 0 0 .076-.056l.04-.031.021-.017.029-.025a.594.594 0 0 0 .017-.877zm-8.295-5.826a9.163 9.163 0 0 1-.133.474c-.098.319-.212.639-.335.957a17.734 17.734 0 0 1-.987 2.121c.01-.115.021-.23.038-.345.046-.315.116-.633.205-.948.09-.314.198-.634.319-.939a6.49 6.49 0 0 1 .417-.872c.078-.137.163-.264.251-.384a2.35 2.35 0 0 1 .284-.324 5.625 5.625 0 0 1-.059.26zm-4.447 5.648a.67.67 0 0 1-.215-.138.374.374 0 0 1-.095-.148.393.393 0 0 1-.005-.19c.005-.02.005-.039.015-.061l.01-.033.005-.017.009-.022c.026-.058.047-.121.074-.177l.044-.08c.015-.026.026-.056.045-.077l.05-.07.024-.036.028-.03.053-.062a.192.192 0 0 1 .028-.029l.03-.026c.02-.017.037-.038.059-.053l.065-.046c.011-.008.021-.017.032-.023l.036-.019a.997.997 0 0 0 .07-.042l.078-.033.039-.018.043-.013.085-.028.092-.02c.06-.018.128-.021.193-.033a2.7 2.7 0 0 1 .553.005l.002.067c.021.377.075.763.202 1.152l-.053.036c-.056.04-.116.073-.174.108a1.994 1.994 0 0 1-.747.24 1.384 1.384 0 0 1-.675-.084zm-33.156-1.106c.046-.018.14-.053.264-.087l.01-.003-.002.001a2.604 2.604 0 0 1 .534-.085c.059-.003.12.001.181.004.038.002.076.002.114.007.043.005.086.018.129.027.046.01.092.016.137.031a.24.24 0 0 1 .166.23c-.004.271-.136.807-1.024 1.212 0 0-.396.176-.755.174-.215-.003-.416-.071-.509-.281 0 0-.153-.273.002-.604l-.015.011c.09-.2.292-.42.709-.615.019-.006.041-.015.059-.022zm20.992-.323c.464-.036.867.262.902.669.035.409-.315.772-.78.813-.464.035-.866-.262-.9-.669-.003-.039.012-.073.016-.111l-.013.009c.027-.36.334-.665.753-.708l.022-.003z"/><path class="st1" d="M22.182 9.119c-.004-.103-.017-.206-.029-.308.125-.034.25-.068.375-.1a60.99 60.99 0 0 1 5.633-1.172 60.304 60.304 0 0 1 5.718-.64 64.046 64.046 0 0 1 2.873-.125c.955-.017 1.91-.011 2.865.014.958.027 1.915.068 2.87.144.959.071 1.923.157 2.882.249 1.919.19 3.832.422 5.733.717l.051.007h.012a1.04 1.04 0 0 0 1.123-1.253 1.025 1.025 0 0 0-.905-.808h-.002c-1.95-.204-3.899-.368-5.85-.494a135.55 135.55 0 0 0-2.927-.164 70.777 70.777 0 0 0-2.949-.073h-.012a69.07 69.07 0 0 0-11.732.968 63.981 63.981 0 0 0-5.756 1.248l-.32.086a11.021 11.021 0 0 0-.11-.304 8.305 8.305 0 0 0-1.217-2.086 11.608 11.608 0 0 0-1.055-1.166 14.105 14.105 0 0 0-.571-.526l-.294-.25-.304-.242a13.125 13.125 0 0 0-2.671-1.618 12.76 12.76 0 0 0-2.999-.922 14.139 14.139 0 0 0-2.347-.223 16.302 16.302 0 0 0-2.333.139c-.513.066-1.022.154-1.526.262a21.955 21.955 0 0 0-5.44 1.973l-.178.096-.091.051-.048.027-.056.034a1.296 1.296 0 0 0 .682 2.386 1.296 1.296 0 0 0 .741-.211l.013-.009.03-.021.064-.043.136-.088a18.707 18.707 0 0 1 .873-.509c.399-.219.811-.418 1.228-.605a17.525 17.525 0 0 1 2.578-.924 14.263 14.263 0 0 1 2.675-.479c.447-.036.894-.051 1.34-.041a10.863 10.863 0 0 1 3.914.802c.828.335 1.613.784 2.341 1.319.731.54 1.412 1.153 1.97 1.835.279.341.528.7.736 1.075.055.093.099.189.148.284.048.095.087.194.131.29l.054.14a53.924 53.924 0 0 0-3.716 1.258c-.921.348-1.829.734-2.731 1.138-.9.408-1.796.832-2.682 1.292-.885.465-1.765.955-2.611 1.554-.423.301-.839.627-1.237 1.013a5.89 5.89 0 0 0-.577.646c-.047.057-.091.124-.136.188l-.067.097c-.022.034-.043.071-.064.106-.042.072-.085.141-.123.223l-.055.121c-.009.019-.021.042-.027.058l-.021.05c-.112.264-.212.54-.286.843l-.053.228c-.015.078-.026.161-.037.242-.027.158-.028.337-.035.509.007.356.065.741.222 1.117.155.377.414.722.711.978.297.259.625.443.94.563.04.016.08.033.119.047l.117.037c.078.023.158.05.235.069.153.034.31.073.458.091.304.047.599.066.887.068a8.27 8.27 0 0 0 .841-.04c1.09-.115 2.096-.404 3.061-.763.12-.047.241-.091.359-.139l.355-.147c.118-.05.234-.103.35-.155a14.007 14.007 0 0 0 1.714-.918 17.01 17.01 0 0 0 2.446-1.863 13.983 13.983 0 0 0 2.05-2.319c.595-.858 1.083-1.824 1.343-2.885.061-.266.116-.534.146-.808.02-.136.027-.274.039-.411l.008-.207c.003-.069.004-.138.003-.207l-.003-.208-.01-.208zM8.957 18.177c-.092-.012-.17-.037-.254-.055-.04-.01-.075-.025-.113-.036l-.056-.017-.049-.021a.943.943 0 0 1-.304-.176.555.555 0 0 1-.144-.184 1.08 1.08 0 0 1-.065-.302c.005-.071-.005-.136.009-.217.005-.039.006-.078.011-.119l.023-.127c.031-.171.088-.356.151-.544l.011-.035c.004-.013.007-.017.01-.025l.018-.046c.009-.03.029-.065.045-.1l.025-.052.032-.055c.022-.037.04-.074.067-.113.094-.154.223-.313.353-.472.273-.319.59-.633.93-.931a17.66 17.66 0 0 1 2.248-1.647 24 24 0 0 1 2.505-1.35c.432-.2.869-.392 1.311-.575.22-.094.442-.18.663-.27.223-.087.445-.175.668-.259a52.713 52.713 0 0 1 3.519-1.19c.04.512 0 1.032-.118 1.543a6.294 6.294 0 0 1-.424 1.221 7.78 7.78 0 0 1-.658 1.152 10.361 10.361 0 0 1-1.831 2.004 12.816 12.816 0 0 1-2.271 1.536c-.403.214-.815.404-1.231.568-.104.04-.208.08-.318.118-.109.038-.217.079-.326.116l-.327.108c-.109.036-.219.066-.328.1-.874.257-1.763.447-2.61.499a5.648 5.648 0 0 1-.608.009 4.507 4.507 0 0 1-.564-.056z"/><path class="st1" d="M27.834 8.521l-.006-.001c-.556 0-1.006.417-1.006.931s.451.931 1.006.931l.006-.001.006.001c.556 0 1.006-.417 1.006-.931s-.451-.931-1.006-.931l-.006.001zM8.668 4.973a8.941 8.941 0 0 1-.032.382c-.014.131-.027.262-.046.396-.016.132-.035.266-.056.4-.082.537-.18 1.08-.293 1.624-.055.272-.118.544-.176.816l-.191.817-.204.816-.213.816-.003.009a.693.693 0 0 0 .737.863.721.721 0 0 0 .594-.441l.324-.773.324-.799.313-.805c.1-.271.203-.541.3-.815a31.545 31.545 0 0 0 .675-2.095c.041-.143.078-.291.116-.438.019-.073.036-.15.054-.225.018-.075.034-.152.05-.231.017-.077.031-.159.046-.242.008-.04.014-.088.021-.131l.005-.034.005-.04.005-.04.001-.01.001-.017.002-.035a1.17 1.17 0 0 0-1.138-1.203c-.004.002-.007.002-.009.002l-.004-.001a1.172 1.172 0 0 0-1.203 1.139l.001-.008.001-.004v.003l.001.013.001.013v.019c0 .027.001.05-.001.08-.002.058-.003.116-.008.179z"/></g></svg>