<?xml version="1.0" encoding="utf-8"?>
<!-- Generator: Adobe Illustrator 23.0.6, SVG Export Plug-In . SVG Version: 6.00 Build 0)  -->
<svg version="1.1" id="Layer_1" xmlns="http://www.w3.org/2000/svg" xmlns:xlink="http://www.w3.org/1999/xlink" x="0px" y="0px"
	 viewBox="0 0 512 512" style="enable-background:new 0 0 512 512;" xml:space="preserve">
<style type="text/css">
	.st0{fill:#FFFFFF;}
</style>
<g>
	<g>
		<path class="st0" d="M489.7,100.2H363.9c5.7-9.8,9-21.2,9-33.4c0-36.8-30-66.8-66.8-66.8c-19.9,0-37.8,8.8-50.1,22.7
			C243.8,8.8,225.8,0,205.9,0c-36.8,0-66.8,30-66.8,66.8c0,12.2,3.3,23.6,9,33.4H22.3c-9.2,0-16.7,7.5-16.7,16.7V217
			c0,9.2,7.5,16.7,16.7,16.7H39v261.6c0,9.2,7.5,16.7,16.7,16.7h167h66.8h167c9.2,0,16.7-7.5,16.7-16.7V233.7h16.7
			c9.2,0,16.7-7.5,16.7-16.7V116.9C506.4,107.6,499,100.2,489.7,100.2z M205.9,478.6H72.3V233.7h133.6V478.6z M205.9,200.3H55.7H39
			v-66.8h167V200.3z M205.9,100.2c-18.4,0-33.4-15-33.4-33.4s15-33.4,33.4-33.4s33.4,15,33.4,33.4v33.4h-16.7H205.9z M272.7,478.6
			h-33.4V233.7h33.4V478.6z M272.7,200.3h-33.4v-66.8H256h16.7L272.7,200.3L272.7,200.3z M272.7,100.2V66.8
			c0-18.4,15-33.4,33.4-33.4s33.4,15,33.4,33.4s-15,33.4-33.4,33.4h-16.7C289.4,100.2,272.7,100.2,272.7,100.2z M439.7,478.6H306.1
			V233.7h133.6V478.6z M473,200.3h-16.7H306.1v-66.8h167V200.3z"/>
	</g>
</g>
</svg>
