<?xml version="1.0" encoding="UTF-8"?>
<!DOCTYPE svg PUBLIC "-//W3C//DTD SVG 1.1//EN" "http://www.w3.org/Graphics/SVG/1.1/DTD/svg11.dtd">
<!-- Creator: CorelDRAW 2019 (64-Bit) -->
<svg xmlns="http://www.w3.org/2000/svg" xml:space="preserve" width="58px" height="50px" version="1.1" style="shape-rendering:geometricPrecision; text-rendering:geometricPrecision; image-rendering:optimizeQuality; fill-rule:evenodd; clip-rule:evenodd"
viewBox="0 0 16.365 14.106"
 xmlns:xlink="http://www.w3.org/1999/xlink"
 xmlns:xodm="http://www.corel.com/coreldraw/odm/2003">
 <defs>
  <style type="text/css">
   <![CDATA[
    .fil0 {fill:black;fill-rule:nonzero}
   ]]>
  </style>
 </defs>
 <g id="Слой_x0020_1">
  <metadata id="CorelCorpID_0Corel-Layer"/>
  <path class="fil0" d="M0 7.861c1.359,0 3.507,0.017 4.871,0 0.002,0.001 0.622,0.088 0.749,-0.874 0.149,-1.13 0.964,-5.583 0.967,-5.596l0.254 -1.391 0.559 11.407c0.114,-0.609 0.23,-1.253 0.349,-1.905 0.321,-1.777 0.655,-3.619 0.942,-4.878l0.183 -0.802 0.759 4.472c0.093,-0.382 0.237,-0.724 0.456,-0.724 0.323,0 6.259,0.073 6.276,0.073l-0.004 0.326c-0.016,0 -5.928,-0.072 -6.272,-0.072 -0.175,0 -0.283,1.442 -0.283,1.446l-0.105 1.301 -0.87 -5.123c-0.242,1.171 -0.506,2.625 -0.762,4.039 -0.215,1.188 -0.425,2.349 -0.605,3.249l-0.258 1.297 -0.552 -11.255c-0.253,1.407 -0.617,3.466 -0.711,4.178 -0.162,1.232 -1.027,1.166 -1.102,1.158l-4.841 0 0 -0.326z"/>
 </g>
</svg>
