<?xml version="1.0" encoding="utf-8"?>
<!-- Generator: Adobe Illustrator 23.0.6, SVG Export Plug-In . SVG Version: 6.00 Build 0)  -->
<svg version="1.1" id="Capa_1" xmlns="http://www.w3.org/2000/svg" xmlns:xlink="http://www.w3.org/1999/xlink" x="0px" y="0px"
	 viewBox="0 0 371.4 371.4" style="enable-background:new 0 0 371.4 371.4;" xml:space="preserve">
<style type="text/css">
	.st0{fill:#5CC4ED;}
</style>
<g>
	<path class="st0" d="M270.3,149.4c-36.1-47.1-70.4-78.9-73.4-141.4c0-1.8-0.6-3.1-1.8-4.3c-0.6-3.1-3.7-4.9-6.7-3.1
		c-3.7,0-6.7,2.4-6.7,6.7c-77.1,83.2-207.5,294.4-43.5,355c74.1,27.5,157.9-9.8,172.6-90.6C318.6,228.4,296,182.5,270.3,149.4z
		 M138.7,323.3c-17.7-10.4-28.8-31.2-34.3-49.6c-2.4-9.2-3.7-18.4-3.1-27.5c3.7-15.9,8.6-31.2,14.1-46.5
		c3.1,13.5,9.2,26.9,17.7,36.7c19.6,21.4,59.4,34.3,70.4,61.2c6.7,16.5-19.6,30.6-30.6,34.3C161.3,335.5,148.5,329.4,138.7,323.3z"
		/>
</g>
</svg>
