<?xml version="1.0" encoding="UTF-8"?>
<!DOCTYPE svg PUBLIC "-//W3C//DTD SVG 1.1//EN" "http://www.w3.org/Graphics/SVG/1.1/DTD/svg11.dtd">
<!-- Creator: CorelDRAW 2019 (64-Bit) -->
<svg xmlns="http://www.w3.org/2000/svg" xml:space="preserve" width="500px" height="500px" version="1.1" style="shape-rendering:geometricPrecision; text-rendering:geometricPrecision; image-rendering:optimizeQuality; fill-rule:evenodd; clip-rule:evenodd"
viewBox="0 0 500 500"
 xmlns:xlink="http://www.w3.org/1999/xlink"
 xmlns:xodm="http://www.corel.com/coreldraw/odm/2003">
 <defs>
  <style type="text/css">
   <![CDATA[
    .fil1 {fill:url(#id0)}
    .fil0 {fill:url(#id1)}
   ]]>
  </style>
  <radialGradient id="id0" gradientUnits="userSpaceOnUse" gradientTransform="matrix(1.21485 -0.408748 0.408748 1.21485 -156 48)" cx="250" cy="250" r="187.521" fx="250" fy="250">
   <stop offset="0" style="stop-opacity:1; stop-color:#A0B8CE"/>
   <stop offset="1" style="stop-opacity:1; stop-color:#3E4F72"/>
  </radialGradient>
  <radialGradient id="id1" gradientUnits="userSpaceOnUse" gradientTransform="matrix(1.02041 -0.0106146 0.0106146 1.02041 -8 -2)" cx="250" cy="250" r="235.54" fx="250" fy="250">
   <stop offset="0" style="stop-opacity:1; stop-color:#7BB3D7"/>
   <stop offset="1" style="stop-opacity:1; stop-color:#43638D"/>
  </radialGradient>
 </defs>
 <g id="Слой_x0020_1">
  <metadata id="CorelCorpID_0Corel-Layer"/>
  <g id="_1995041428640">
   <path class="fil0" d="M394.82 46.642c-19.758,-14.042 -41.651,-25.288 -65.098,-33.157l-48.167 147.962c7.738,2.747 15.008,6.475 21.663,11.034l91.602 -125.839zm92.144 123.786c-7.885,-23.402 -19.151,-45.253 -33.22,-64.974l-126.078 91.428c4.568,6.642 8.301,13.9 11.055,21.622l148.243 -48.076zm-60.223 255.979c8.637,-8.621 16.642,-17.871 23.946,-27.672l-126.077 -91.428c-4.967,6.433 -10.75,12.203 -17.194,17.161l91.6 125.84c9.821,-7.29 19.088,-15.281 27.725,-23.901zm61.826 -101.762c7.147,-22.784 11.11,-46.974 11.366,-72.05l-155.823 0c-0.226,8.306 -1.536,16.341 -3.787,23.974l148.244 48.076zm-235.967 174.815c25.124,-0.256 49.359,-4.21 72.187,-11.345l-48.168 -147.963c-7.647,2.247 -15.698,3.553 -24.019,3.78l0 155.528zm-147.42 -46.102c19.758,14.042 41.651,25.288 65.098,33.157l48.167 -147.962c-7.738,-2.747 -15.008,-6.475 -21.663,-11.034l-91.602 125.839zm-92.144 -123.786c7.885,23.402 19.152,45.253 33.22,64.974l126.078 -91.428c-4.568,-6.642 -8.301,-13.9 -11.055,-21.622l-148.243 48.076zm60.223 -255.979c-8.637,8.62 -16.642,17.871 -23.946,27.672l126.077 91.428c4.967,-6.433 10.75,-12.203 17.194,-17.161l-91.6 -125.84c-9.821,7.291 -19.088,15.281 -27.725,23.901zm-61.826 101.762c-7.147,22.784 -11.11,46.974 -11.366,72.05l155.823 0c0.226,-8.306 1.536,-16.341 3.787,-23.974l-148.244 -48.076zm235.967 -174.815c-25.124,0.255 -49.359,4.21 -72.187,11.345l48.168 147.963c7.647,-2.247 15.698,-3.553 24.019,-3.78l0 -155.528z"/>
   <path class="fil1" d="M324.772 11.993c-23.139,-7.259 -47.442,-11.2 -72.178,-11.453l0.001 155.554c8.323,0.225 16.374,1.532 24.023,3.778l48.154 -147.879zm125.958 89.283c-14.744,-19.819 -32.224,-37.121 -51.71,-51.534l-91.604 125.81c6.445,4.956 12.227,10.727 17.195,17.157l126.119 -91.433zm21.977 261.953c5.545,-10.859 10.295,-22.123 14.206,-33.694l-148.193 -48.047c-2.752,7.721 -6.487,14.975 -11.054,21.615l126.073 91.4c7.083,-9.959 13.423,-20.414 18.968,-31.274zm27.293 -115.819c-0.255,-23.866 -3.976,-48.087 -11.496,-72.009l-148.179 48.042c2.251,7.631 3.559,15.664 3.785,23.967l155.89 0zm-170.294 238.974c23.816,-7.99 45.64,-19.223 65.141,-33.045l-91.628 -125.842c-6.653,4.558 -13.924,8.283 -21.659,11.03l48.146 147.857zm-154.478 1.623c23.139,7.259 47.442,11.2 72.178,11.453l-0.001 -155.554c-8.323,-0.225 -16.374,-1.532 -24.023,-3.778l-48.154 147.879zm-125.958 -89.283c14.744,19.819 32.224,37.121 51.71,51.534l91.604 -125.81c-6.445,-4.956 -12.227,-10.727 -17.195,-17.157l-126.119 91.433zm-21.977 -261.953c-5.545,10.859 -10.295,22.123 -14.206,33.694l148.193 48.047c2.752,-7.721 6.487,-14.975 11.054,-21.615l-126.073 -91.4c-7.083,9.96 -13.423,20.414 -18.968,31.274zm-27.293 115.818c0.255,23.867 3.976,48.088 11.496,72.01l148.179 -48.042c-2.251,-7.631 -3.559,-15.664 -3.785,-23.968l-155.89 0zm170.294 -238.973c-23.816,7.99 -45.64,19.223 -65.141,33.045l91.628 125.842c6.653,-4.558 13.924,-8.283 21.659,-11.03l-48.146 -147.857z"/>
  </g>
 </g>
</svg>
